G04 #@! TF.GenerationSoftware,KiCad,Pcbnew,6.0.11*
G04 #@! TF.CreationDate,2023-04-26T05:07:27-07:00*
G04 #@! TF.ProjectId,ldrd,6c647264-2e6b-4696-9361-645f70636258,rev?*
G04 #@! TF.SameCoordinates,Original*
G04 #@! TF.FileFunction,Copper,L3,Inr*
G04 #@! TF.FilePolarity,Positive*
%FSLAX46Y46*%
G04 Gerber Fmt 4.6, Leading zero omitted, Abs format (unit mm)*
G04 Created by KiCad (PCBNEW 6.0.11) date 2023-04-26 05:07:27*
%MOMM*%
%LPD*%
G01*
G04 APERTURE LIST*
G04 #@! TA.AperFunction,ComponentPad*
%ADD10C,3.500000*%
G04 #@! TD*
G04 #@! TA.AperFunction,ComponentPad*
%ADD11R,2.000000X2.000000*%
G04 #@! TD*
G04 #@! TA.AperFunction,ComponentPad*
%ADD12C,2.000000*%
G04 #@! TD*
G04 #@! TA.AperFunction,ComponentPad*
%ADD13R,3.200000X2.000000*%
G04 #@! TD*
G04 #@! TA.AperFunction,ComponentPad*
%ADD14R,1.800000X1.800000*%
G04 #@! TD*
G04 #@! TA.AperFunction,ComponentPad*
%ADD15C,1.800000*%
G04 #@! TD*
G04 #@! TA.AperFunction,ComponentPad*
%ADD16R,1.700000X1.700000*%
G04 #@! TD*
G04 #@! TA.AperFunction,ComponentPad*
%ADD17O,1.700000X1.700000*%
G04 #@! TD*
G04 #@! TA.AperFunction,ComponentPad*
%ADD18O,1.600000X1.000000*%
G04 #@! TD*
G04 #@! TA.AperFunction,ComponentPad*
%ADD19O,2.100000X1.000000*%
G04 #@! TD*
G04 #@! TA.AperFunction,ViaPad*
%ADD20C,0.800000*%
G04 #@! TD*
G04 APERTURE END LIST*
D10*
X106200000Y-97040000D03*
X233680000Y-53340000D03*
X233680000Y-146530000D03*
D11*
X215980000Y-130000000D03*
D12*
X215980000Y-135000000D03*
X215980000Y-132500000D03*
D13*
X223480000Y-126900000D03*
X223480000Y-138100000D03*
D12*
X230480000Y-135000000D03*
X230480000Y-130000000D03*
D10*
X181200000Y-66040000D03*
D12*
X230020000Y-114590000D03*
X223520000Y-114590000D03*
X223520000Y-119090000D03*
X230020000Y-119090000D03*
D10*
X181200000Y-97040000D03*
X106200000Y-66040000D03*
D14*
X227335000Y-103535000D03*
D15*
X224795000Y-103535000D03*
D10*
X104140000Y-53340000D03*
X104160000Y-146290000D03*
D16*
X132080000Y-71120000D03*
D17*
X132080000Y-73660000D03*
X132080000Y-76200000D03*
X132080000Y-78740000D03*
D18*
X102735000Y-139440000D03*
X102735000Y-130800000D03*
D19*
X106885000Y-130800000D03*
X106885000Y-139440000D03*
D16*
X118120000Y-147320000D03*
D17*
X120660000Y-147320000D03*
X123200000Y-147320000D03*
X125740000Y-147320000D03*
D20*
X137083947Y-111836053D03*
X119312844Y-111827156D03*
X210784133Y-111795867D03*
X106680000Y-121920000D03*
X144780000Y-134620000D03*
X152979227Y-132492787D03*
X152336227Y-111823773D03*
X167595853Y-111804147D03*
X182844133Y-111795867D03*
X104140000Y-132718670D03*
X199087118Y-145722482D03*
X198084133Y-111795867D03*
X171973401Y-145759367D03*
X108993401Y-138292992D03*
X106356170Y-111827156D03*
X196100914Y-145722482D03*
X200400520Y-110032193D03*
X140429785Y-110028429D03*
X110387507Y-110110711D03*
X114557500Y-125702532D03*
X104140000Y-127000000D03*
X185363205Y-109963669D03*
X144780000Y-129540000D03*
X153047888Y-134909844D03*
X215900000Y-109220000D03*
X132080000Y-127000000D03*
X140522625Y-138577716D03*
X153084420Y-144095580D03*
X170318196Y-109963669D03*
X125529596Y-110110711D03*
X171917437Y-143940541D03*
X128557500Y-144502500D03*
X163285719Y-134829725D03*
X155358787Y-109974534D03*
X152401567Y-140743999D03*
X144780000Y-127000000D03*
X157367374Y-138432086D03*
X146697490Y-136231201D03*
X153717564Y-147644665D03*
X151771802Y-129540000D03*
X144759911Y-136528363D03*
X144739823Y-137773822D03*
X134497052Y-136523852D03*
X133677401Y-143060568D03*
X134478168Y-135255000D03*
X132017608Y-144761344D03*
X121920000Y-144780000D03*
X146074980Y-140002876D03*
X143774827Y-145744367D03*
X146855390Y-145784768D03*
X150228859Y-145825169D03*
X160020000Y-142240000D03*
X158629590Y-134737647D03*
X127000000Y-121920000D03*
X127000000Y-119380000D03*
X158383249Y-129482375D03*
X156143049Y-116840000D03*
X111725000Y-139665000D03*
X129540000Y-134620000D03*
X144746370Y-132714999D03*
X110267404Y-136159082D03*
G04 #@! TA.AperFunction,Conductor*
G36*
X236733621Y-50528502D02*
G01*
X236780114Y-50582158D01*
X236791500Y-50634500D01*
X236791500Y-149365500D01*
X236771498Y-149433621D01*
X236717842Y-149480114D01*
X236665500Y-149491500D01*
X100634500Y-149491500D01*
X100566379Y-149471498D01*
X100519886Y-149417842D01*
X100508500Y-149365500D01*
X100508500Y-146290000D01*
X101896654Y-146290000D01*
X101896924Y-146294119D01*
X101915568Y-146578571D01*
X101916017Y-146585426D01*
X101916819Y-146589459D01*
X101916820Y-146589465D01*
X101964946Y-146831406D01*
X101973776Y-146875797D01*
X101975103Y-146879706D01*
X101975104Y-146879710D01*
X102050837Y-147102813D01*
X102068941Y-147156145D01*
X102070765Y-147159843D01*
X102189120Y-147399843D01*
X102199885Y-147421673D01*
X102202179Y-147425106D01*
X102360248Y-147661673D01*
X102364367Y-147667838D01*
X102367081Y-147670932D01*
X102367085Y-147670938D01*
X102499398Y-147821811D01*
X102559573Y-147890427D01*
X102562662Y-147893136D01*
X102779062Y-148082915D01*
X102779068Y-148082919D01*
X102782162Y-148085633D01*
X102785588Y-148087922D01*
X102785593Y-148087926D01*
X102844578Y-148127338D01*
X103028327Y-148250115D01*
X103032026Y-148251939D01*
X103032031Y-148251942D01*
X103167241Y-148318620D01*
X103293855Y-148381059D01*
X103297760Y-148382384D01*
X103297761Y-148382385D01*
X103570290Y-148474896D01*
X103570294Y-148474897D01*
X103574203Y-148476224D01*
X103578247Y-148477028D01*
X103578253Y-148477030D01*
X103860535Y-148533180D01*
X103860541Y-148533181D01*
X103864574Y-148533983D01*
X103868679Y-148534252D01*
X103868686Y-148534253D01*
X104155881Y-148553076D01*
X104160000Y-148553346D01*
X104164119Y-148553076D01*
X104451314Y-148534253D01*
X104451321Y-148534252D01*
X104455426Y-148533983D01*
X104459459Y-148533181D01*
X104459465Y-148533180D01*
X104741747Y-148477030D01*
X104741753Y-148477028D01*
X104745797Y-148476224D01*
X104749706Y-148474897D01*
X104749710Y-148474896D01*
X105022239Y-148382385D01*
X105022240Y-148382384D01*
X105026145Y-148381059D01*
X105152759Y-148318620D01*
X105287969Y-148251942D01*
X105287974Y-148251939D01*
X105291673Y-148250115D01*
X105344722Y-148214669D01*
X116762001Y-148214669D01*
X116762371Y-148221490D01*
X116767895Y-148272352D01*
X116771521Y-148287604D01*
X116816676Y-148408054D01*
X116825214Y-148423649D01*
X116901715Y-148525724D01*
X116914276Y-148538285D01*
X117016351Y-148614786D01*
X117031946Y-148623324D01*
X117152394Y-148668478D01*
X117167649Y-148672105D01*
X117218514Y-148677631D01*
X117225328Y-148678000D01*
X117847885Y-148678000D01*
X117863124Y-148673525D01*
X117864329Y-148672135D01*
X117866000Y-148664452D01*
X117866000Y-148659884D01*
X118374000Y-148659884D01*
X118378475Y-148675123D01*
X118379865Y-148676328D01*
X118387548Y-148677999D01*
X119014669Y-148677999D01*
X119021490Y-148677629D01*
X119072352Y-148672105D01*
X119087604Y-148668479D01*
X119208054Y-148623324D01*
X119223649Y-148614786D01*
X119325724Y-148538285D01*
X119338285Y-148525724D01*
X119414786Y-148423649D01*
X119423324Y-148408054D01*
X119464225Y-148298952D01*
X119506867Y-148242188D01*
X119573428Y-148217488D01*
X119642777Y-148232696D01*
X119677444Y-148260684D01*
X119702865Y-148290031D01*
X119702869Y-148290035D01*
X119706250Y-148293938D01*
X119878126Y-148436632D01*
X120071000Y-148549338D01*
X120279692Y-148629030D01*
X120284760Y-148630061D01*
X120284763Y-148630062D01*
X120392017Y-148651883D01*
X120498597Y-148673567D01*
X120503772Y-148673757D01*
X120503774Y-148673757D01*
X120716673Y-148681564D01*
X120716677Y-148681564D01*
X120721837Y-148681753D01*
X120726957Y-148681097D01*
X120726959Y-148681097D01*
X120938288Y-148654025D01*
X120938289Y-148654025D01*
X120943416Y-148653368D01*
X120948366Y-148651883D01*
X121152429Y-148590661D01*
X121152434Y-148590659D01*
X121157384Y-148589174D01*
X121357994Y-148490896D01*
X121539860Y-148361173D01*
X121573224Y-148327926D01*
X121653609Y-148247821D01*
X121698096Y-148203489D01*
X121748650Y-148133136D01*
X121828453Y-148022077D01*
X121829776Y-148023028D01*
X121876645Y-147979857D01*
X121946580Y-147967625D01*
X122012026Y-147995144D01*
X122039875Y-148026994D01*
X122099987Y-148125088D01*
X122246250Y-148293938D01*
X122418126Y-148436632D01*
X122611000Y-148549338D01*
X122819692Y-148629030D01*
X122824760Y-148630061D01*
X122824763Y-148630062D01*
X122932017Y-148651883D01*
X123038597Y-148673567D01*
X123043772Y-148673757D01*
X123043774Y-148673757D01*
X123256673Y-148681564D01*
X123256677Y-148681564D01*
X123261837Y-148681753D01*
X123266957Y-148681097D01*
X123266959Y-148681097D01*
X123478288Y-148654025D01*
X123478289Y-148654025D01*
X123483416Y-148653368D01*
X123488366Y-148651883D01*
X123692429Y-148590661D01*
X123692434Y-148590659D01*
X123697384Y-148589174D01*
X123897994Y-148490896D01*
X124079860Y-148361173D01*
X124113224Y-148327926D01*
X124193609Y-148247821D01*
X124238096Y-148203489D01*
X124288650Y-148133136D01*
X124368453Y-148022077D01*
X124369776Y-148023028D01*
X124416645Y-147979857D01*
X124486580Y-147967625D01*
X124552026Y-147995144D01*
X124579875Y-148026994D01*
X124639987Y-148125088D01*
X124786250Y-148293938D01*
X124958126Y-148436632D01*
X125151000Y-148549338D01*
X125359692Y-148629030D01*
X125364760Y-148630061D01*
X125364763Y-148630062D01*
X125472017Y-148651883D01*
X125578597Y-148673567D01*
X125583772Y-148673757D01*
X125583774Y-148673757D01*
X125796673Y-148681564D01*
X125796677Y-148681564D01*
X125801837Y-148681753D01*
X125806957Y-148681097D01*
X125806959Y-148681097D01*
X126018288Y-148654025D01*
X126018289Y-148654025D01*
X126023416Y-148653368D01*
X126028366Y-148651883D01*
X126232429Y-148590661D01*
X126232434Y-148590659D01*
X126237384Y-148589174D01*
X126437994Y-148490896D01*
X126619860Y-148361173D01*
X126653224Y-148327926D01*
X126733609Y-148247821D01*
X126778096Y-148203489D01*
X126828650Y-148133136D01*
X126905435Y-148026277D01*
X126908453Y-148022077D01*
X126914454Y-148009936D01*
X127005136Y-147826453D01*
X127005137Y-147826451D01*
X127007430Y-147821811D01*
X127061251Y-147644665D01*
X152804060Y-147644665D01*
X152804750Y-147651230D01*
X152822679Y-147821811D01*
X152824022Y-147834593D01*
X152883037Y-148016221D01*
X152978524Y-148181609D01*
X152982942Y-148186516D01*
X152982943Y-148186517D01*
X153084180Y-148298952D01*
X153106311Y-148323531D01*
X153260812Y-148435783D01*
X153266840Y-148438467D01*
X153266842Y-148438468D01*
X153429245Y-148510774D01*
X153435276Y-148513459D01*
X153528676Y-148533312D01*
X153615620Y-148551793D01*
X153615625Y-148551793D01*
X153622077Y-148553165D01*
X153813051Y-148553165D01*
X153819503Y-148551793D01*
X153819508Y-148551793D01*
X153906452Y-148533312D01*
X153999852Y-148513459D01*
X154005883Y-148510774D01*
X154168286Y-148438468D01*
X154168288Y-148438467D01*
X154174316Y-148435783D01*
X154328817Y-148323531D01*
X154350948Y-148298952D01*
X154452185Y-148186517D01*
X154452186Y-148186516D01*
X154456604Y-148181609D01*
X154552091Y-148016221D01*
X154611106Y-147834593D01*
X154612450Y-147821811D01*
X154630378Y-147651230D01*
X154631068Y-147644665D01*
X154627222Y-147608069D01*
X154611796Y-147461300D01*
X154611796Y-147461298D01*
X154611106Y-147454737D01*
X154552091Y-147273109D01*
X154456604Y-147107721D01*
X154413758Y-147060135D01*
X154333239Y-146970710D01*
X154333238Y-146970709D01*
X154328817Y-146965799D01*
X154210326Y-146879710D01*
X154179658Y-146857428D01*
X154179657Y-146857427D01*
X154174316Y-146853547D01*
X154168288Y-146850863D01*
X154168286Y-146850862D01*
X154005883Y-146778556D01*
X154005882Y-146778556D01*
X153999852Y-146775871D01*
X153906452Y-146756018D01*
X153819508Y-146737537D01*
X153819503Y-146737537D01*
X153813051Y-146736165D01*
X153622077Y-146736165D01*
X153615625Y-146737537D01*
X153615620Y-146737537D01*
X153528676Y-146756018D01*
X153435276Y-146775871D01*
X153429246Y-146778556D01*
X153429245Y-146778556D01*
X153266842Y-146850862D01*
X153266840Y-146850863D01*
X153260812Y-146853547D01*
X153255471Y-146857427D01*
X153255470Y-146857428D01*
X153224802Y-146879710D01*
X153106311Y-146965799D01*
X153101890Y-146970709D01*
X153101889Y-146970710D01*
X153021371Y-147060135D01*
X152978524Y-147107721D01*
X152883037Y-147273109D01*
X152824022Y-147454737D01*
X152823332Y-147461298D01*
X152823332Y-147461300D01*
X152807906Y-147608069D01*
X152804060Y-147644665D01*
X127061251Y-147644665D01*
X127072370Y-147608069D01*
X127101529Y-147386590D01*
X127103156Y-147320000D01*
X127084852Y-147097361D01*
X127030431Y-146880702D01*
X126941354Y-146675840D01*
X126899068Y-146610476D01*
X126822822Y-146492617D01*
X126822820Y-146492614D01*
X126820014Y-146488277D01*
X126669670Y-146323051D01*
X126665619Y-146319852D01*
X126665615Y-146319848D01*
X126498414Y-146187800D01*
X126498410Y-146187798D01*
X126494359Y-146184598D01*
X126298789Y-146076638D01*
X126293920Y-146074914D01*
X126293916Y-146074912D01*
X126093087Y-146003795D01*
X126093083Y-146003794D01*
X126088212Y-146002069D01*
X126083119Y-146001162D01*
X126083116Y-146001161D01*
X125873373Y-145963800D01*
X125873367Y-145963799D01*
X125868284Y-145962894D01*
X125794452Y-145961992D01*
X125650081Y-145960228D01*
X125650079Y-145960228D01*
X125644911Y-145960165D01*
X125424091Y-145993955D01*
X125211756Y-146063357D01*
X125181443Y-146079137D01*
X125022175Y-146162047D01*
X125013607Y-146166507D01*
X125009474Y-146169610D01*
X125009471Y-146169612D01*
X124839100Y-146297530D01*
X124834965Y-146300635D01*
X124831393Y-146304373D01*
X124717808Y-146423233D01*
X124680629Y-146462138D01*
X124573201Y-146619621D01*
X124518293Y-146664621D01*
X124447768Y-146672792D01*
X124384021Y-146641538D01*
X124363324Y-146617054D01*
X124282822Y-146492617D01*
X124282820Y-146492614D01*
X124280014Y-146488277D01*
X124129670Y-146323051D01*
X124125619Y-146319852D01*
X124125615Y-146319848D01*
X123958414Y-146187800D01*
X123958410Y-146187798D01*
X123954359Y-146184598D01*
X123758789Y-146076638D01*
X123753920Y-146074914D01*
X123753916Y-146074912D01*
X123553087Y-146003795D01*
X123553083Y-146003794D01*
X123548212Y-146002069D01*
X123543119Y-146001162D01*
X123543116Y-146001161D01*
X123333373Y-145963800D01*
X123333367Y-145963799D01*
X123328284Y-145962894D01*
X123254452Y-145961992D01*
X123110081Y-145960228D01*
X123110079Y-145960228D01*
X123104911Y-145960165D01*
X122884091Y-145993955D01*
X122671756Y-146063357D01*
X122641443Y-146079137D01*
X122482175Y-146162047D01*
X122473607Y-146166507D01*
X122469474Y-146169610D01*
X122469471Y-146169612D01*
X122299100Y-146297530D01*
X122294965Y-146300635D01*
X122291393Y-146304373D01*
X122177808Y-146423233D01*
X122140629Y-146462138D01*
X122033201Y-146619621D01*
X121978293Y-146664621D01*
X121907768Y-146672792D01*
X121844021Y-146641538D01*
X121823324Y-146617054D01*
X121742822Y-146492617D01*
X121742820Y-146492614D01*
X121740014Y-146488277D01*
X121589670Y-146323051D01*
X121585619Y-146319852D01*
X121585615Y-146319848D01*
X121418414Y-146187800D01*
X121418410Y-146187798D01*
X121414359Y-146184598D01*
X121218789Y-146076638D01*
X121213920Y-146074914D01*
X121213916Y-146074912D01*
X121013087Y-146003795D01*
X121013083Y-146003794D01*
X121008212Y-146002069D01*
X121003119Y-146001162D01*
X121003116Y-146001161D01*
X120793373Y-145963800D01*
X120793367Y-145963799D01*
X120788284Y-145962894D01*
X120714452Y-145961992D01*
X120570081Y-145960228D01*
X120570079Y-145960228D01*
X120564911Y-145960165D01*
X120344091Y-145993955D01*
X120131756Y-146063357D01*
X120101443Y-146079137D01*
X119942175Y-146162047D01*
X119933607Y-146166507D01*
X119929474Y-146169610D01*
X119929471Y-146169612D01*
X119759100Y-146297530D01*
X119754965Y-146300635D01*
X119751393Y-146304373D01*
X119673898Y-146385466D01*
X119612374Y-146420895D01*
X119541462Y-146417438D01*
X119483676Y-146376192D01*
X119464823Y-146342644D01*
X119423324Y-146231946D01*
X119414786Y-146216351D01*
X119338285Y-146114276D01*
X119325724Y-146101715D01*
X119223649Y-146025214D01*
X119208054Y-146016676D01*
X119087606Y-145971522D01*
X119072351Y-145967895D01*
X119021486Y-145962369D01*
X119014672Y-145962000D01*
X118392115Y-145962000D01*
X118376876Y-145966475D01*
X118375671Y-145967865D01*
X118374000Y-145975548D01*
X118374000Y-148659884D01*
X117866000Y-148659884D01*
X117866000Y-147592115D01*
X117861525Y-147576876D01*
X117860135Y-147575671D01*
X117852452Y-147574000D01*
X116780116Y-147574000D01*
X116764877Y-147578475D01*
X116763672Y-147579865D01*
X116762001Y-147587548D01*
X116762001Y-148214669D01*
X105344722Y-148214669D01*
X105475422Y-148127338D01*
X105534407Y-148087926D01*
X105534412Y-148087922D01*
X105537838Y-148085633D01*
X105540932Y-148082919D01*
X105540938Y-148082915D01*
X105757338Y-147893136D01*
X105760427Y-147890427D01*
X105820602Y-147821811D01*
X105952915Y-147670938D01*
X105952919Y-147670932D01*
X105955633Y-147667838D01*
X105959753Y-147661673D01*
X106117821Y-147425106D01*
X106120115Y-147421673D01*
X106130881Y-147399843D01*
X106249235Y-147159843D01*
X106251059Y-147156145D01*
X106269163Y-147102813D01*
X106287808Y-147047885D01*
X116762000Y-147047885D01*
X116766475Y-147063124D01*
X116767865Y-147064329D01*
X116775548Y-147066000D01*
X117847885Y-147066000D01*
X117863124Y-147061525D01*
X117864329Y-147060135D01*
X117866000Y-147052452D01*
X117866000Y-145980116D01*
X117861525Y-145964877D01*
X117860135Y-145963672D01*
X117852452Y-145962001D01*
X117225331Y-145962001D01*
X117218510Y-145962371D01*
X117167648Y-145967895D01*
X117152396Y-145971521D01*
X117031946Y-146016676D01*
X117016351Y-146025214D01*
X116914276Y-146101715D01*
X116901715Y-146114276D01*
X116825214Y-146216351D01*
X116816676Y-146231946D01*
X116771522Y-146352394D01*
X116767895Y-146367649D01*
X116762369Y-146418514D01*
X116762000Y-146425328D01*
X116762000Y-147047885D01*
X106287808Y-147047885D01*
X106344896Y-146879710D01*
X106344897Y-146879706D01*
X106346224Y-146875797D01*
X106355054Y-146831406D01*
X106403180Y-146589465D01*
X106403181Y-146589459D01*
X106403983Y-146585426D01*
X106404433Y-146578571D01*
X106423076Y-146294119D01*
X106423346Y-146290000D01*
X106416274Y-146182101D01*
X106404253Y-145998686D01*
X106404252Y-145998679D01*
X106403983Y-145994574D01*
X106401108Y-145980116D01*
X106354214Y-145744367D01*
X142861323Y-145744367D01*
X142862013Y-145750932D01*
X142870506Y-145831734D01*
X142881285Y-145934295D01*
X142940300Y-146115923D01*
X143035787Y-146281311D01*
X143040205Y-146286218D01*
X143040206Y-146286219D01*
X143113526Y-146367649D01*
X143163574Y-146423233D01*
X143262670Y-146495231D01*
X143310526Y-146530000D01*
X143318075Y-146535485D01*
X143324103Y-146538169D01*
X143324105Y-146538170D01*
X143486508Y-146610476D01*
X143492539Y-146613161D01*
X143585939Y-146633014D01*
X143672883Y-146651495D01*
X143672888Y-146651495D01*
X143679340Y-146652867D01*
X143870314Y-146652867D01*
X143876766Y-146651495D01*
X143876771Y-146651495D01*
X143963715Y-146633014D01*
X144057115Y-146613161D01*
X144063146Y-146610476D01*
X144225549Y-146538170D01*
X144225551Y-146538169D01*
X144231579Y-146535485D01*
X144239129Y-146530000D01*
X144286984Y-146495231D01*
X144386080Y-146423233D01*
X144436128Y-146367649D01*
X144509448Y-146286219D01*
X144509449Y-146286218D01*
X144513867Y-146281311D01*
X144609354Y-146115923D01*
X144668369Y-145934295D01*
X144679149Y-145831734D01*
X144684085Y-145784768D01*
X145941886Y-145784768D01*
X145942576Y-145791333D01*
X145960608Y-145962894D01*
X145961848Y-145974696D01*
X146020863Y-146156324D01*
X146116350Y-146321712D01*
X146244137Y-146463634D01*
X146398638Y-146575886D01*
X146404666Y-146578570D01*
X146404668Y-146578571D01*
X146567071Y-146650877D01*
X146573102Y-146653562D01*
X146657456Y-146671492D01*
X146753446Y-146691896D01*
X146753451Y-146691896D01*
X146759903Y-146693268D01*
X146950877Y-146693268D01*
X146957329Y-146691896D01*
X146957334Y-146691896D01*
X147053324Y-146671492D01*
X147137678Y-146653562D01*
X147143709Y-146650877D01*
X147306112Y-146578571D01*
X147306114Y-146578570D01*
X147312142Y-146575886D01*
X147466643Y-146463634D01*
X147594430Y-146321712D01*
X147689917Y-146156324D01*
X147748932Y-145974696D01*
X147750173Y-145962894D01*
X147764648Y-145825169D01*
X149315355Y-145825169D01*
X149316045Y-145831734D01*
X149331731Y-145980974D01*
X149335317Y-146015097D01*
X149394332Y-146196725D01*
X149489819Y-146362113D01*
X149494237Y-146367020D01*
X149494238Y-146367021D01*
X149546738Y-146425328D01*
X149617606Y-146504035D01*
X149772107Y-146616287D01*
X149778135Y-146618971D01*
X149778137Y-146618972D01*
X149940540Y-146691278D01*
X149946571Y-146693963D01*
X150039971Y-146713816D01*
X150126915Y-146732297D01*
X150126920Y-146732297D01*
X150133372Y-146733669D01*
X150324346Y-146733669D01*
X150330798Y-146732297D01*
X150330803Y-146732297D01*
X150417747Y-146713816D01*
X150511147Y-146693963D01*
X150517178Y-146691278D01*
X150679581Y-146618972D01*
X150679583Y-146618971D01*
X150685611Y-146616287D01*
X150804374Y-146530000D01*
X231416654Y-146530000D01*
X231418008Y-146550660D01*
X231430257Y-146737537D01*
X231436017Y-146825426D01*
X231436819Y-146829459D01*
X231436820Y-146829465D01*
X231492970Y-147111747D01*
X231493776Y-147115797D01*
X231495103Y-147119706D01*
X231495104Y-147119710D01*
X231586824Y-147389908D01*
X231588941Y-147396145D01*
X231621072Y-147461300D01*
X231711498Y-147644665D01*
X231719885Y-147661673D01*
X231722179Y-147665106D01*
X231826886Y-147821811D01*
X231884367Y-147907838D01*
X231887081Y-147910932D01*
X231887085Y-147910938D01*
X232042300Y-148087926D01*
X232079573Y-148130427D01*
X232082662Y-148133136D01*
X232299062Y-148322915D01*
X232299068Y-148322919D01*
X232302162Y-148325633D01*
X232305588Y-148327922D01*
X232305593Y-148327926D01*
X232355351Y-148361173D01*
X232548327Y-148490115D01*
X232552026Y-148491939D01*
X232552031Y-148491942D01*
X232675999Y-148553076D01*
X232813855Y-148621059D01*
X232817760Y-148622384D01*
X232817761Y-148622385D01*
X233090290Y-148714896D01*
X233090294Y-148714897D01*
X233094203Y-148716224D01*
X233098247Y-148717028D01*
X233098253Y-148717030D01*
X233380535Y-148773180D01*
X233380541Y-148773181D01*
X233384574Y-148773983D01*
X233388679Y-148774252D01*
X233388686Y-148774253D01*
X233675881Y-148793076D01*
X233680000Y-148793346D01*
X233684119Y-148793076D01*
X233971314Y-148774253D01*
X233971321Y-148774252D01*
X233975426Y-148773983D01*
X233979459Y-148773181D01*
X233979465Y-148773180D01*
X234261747Y-148717030D01*
X234261753Y-148717028D01*
X234265797Y-148716224D01*
X234269706Y-148714897D01*
X234269710Y-148714896D01*
X234542239Y-148622385D01*
X234542240Y-148622384D01*
X234546145Y-148621059D01*
X234684001Y-148553076D01*
X234807969Y-148491942D01*
X234807974Y-148491939D01*
X234811673Y-148490115D01*
X235004649Y-148361173D01*
X235054407Y-148327926D01*
X235054412Y-148327922D01*
X235057838Y-148325633D01*
X235060932Y-148322919D01*
X235060938Y-148322915D01*
X235277338Y-148133136D01*
X235280427Y-148130427D01*
X235317700Y-148087926D01*
X235472915Y-147910938D01*
X235472919Y-147910932D01*
X235475633Y-147907838D01*
X235533115Y-147821811D01*
X235637821Y-147665106D01*
X235640115Y-147661673D01*
X235648503Y-147644665D01*
X235738928Y-147461300D01*
X235771059Y-147396145D01*
X235773176Y-147389908D01*
X235864896Y-147119710D01*
X235864897Y-147119706D01*
X235866224Y-147115797D01*
X235867030Y-147111747D01*
X235923180Y-146829465D01*
X235923181Y-146829459D01*
X235923983Y-146825426D01*
X235929744Y-146737537D01*
X235941992Y-146550660D01*
X235943346Y-146530000D01*
X235936026Y-146418322D01*
X235924253Y-146238686D01*
X235924252Y-146238679D01*
X235923983Y-146234574D01*
X235920359Y-146216351D01*
X235867030Y-145948253D01*
X235867028Y-145948247D01*
X235866224Y-145944203D01*
X235771059Y-145663855D01*
X235709148Y-145538313D01*
X235641942Y-145402031D01*
X235641939Y-145402026D01*
X235640115Y-145398327D01*
X235516378Y-145213141D01*
X235477926Y-145155593D01*
X235477922Y-145155588D01*
X235475633Y-145152162D01*
X235472919Y-145149068D01*
X235472915Y-145149062D01*
X235283136Y-144932662D01*
X235280427Y-144929573D01*
X235175141Y-144837239D01*
X235060938Y-144737085D01*
X235060932Y-144737081D01*
X235057838Y-144734367D01*
X235054412Y-144732078D01*
X235054407Y-144732074D01*
X234832489Y-144583794D01*
X234811673Y-144569885D01*
X234807974Y-144568061D01*
X234807969Y-144568058D01*
X234614924Y-144472859D01*
X234546145Y-144438941D01*
X234474819Y-144414729D01*
X234269710Y-144345104D01*
X234269706Y-144345103D01*
X234265797Y-144343776D01*
X234261753Y-144342972D01*
X234261747Y-144342970D01*
X233979465Y-144286820D01*
X233979459Y-144286819D01*
X233975426Y-144286017D01*
X233971321Y-144285748D01*
X233971314Y-144285747D01*
X233684119Y-144266924D01*
X233680000Y-144266654D01*
X233675881Y-144266924D01*
X233388686Y-144285747D01*
X233388679Y-144285748D01*
X233384574Y-144286017D01*
X233380541Y-144286819D01*
X233380535Y-144286820D01*
X233098253Y-144342970D01*
X233098247Y-144342972D01*
X233094203Y-144343776D01*
X233090294Y-144345103D01*
X233090290Y-144345104D01*
X232885181Y-144414729D01*
X232813855Y-144438941D01*
X232745076Y-144472859D01*
X232552031Y-144568058D01*
X232552026Y-144568061D01*
X232548327Y-144569885D01*
X232527511Y-144583794D01*
X232305593Y-144732074D01*
X232305588Y-144732078D01*
X232302162Y-144734367D01*
X232299068Y-144737081D01*
X232299062Y-144737085D01*
X232184859Y-144837239D01*
X232079573Y-144929573D01*
X232076864Y-144932662D01*
X231887085Y-145149062D01*
X231887081Y-145149068D01*
X231884367Y-145152162D01*
X231882078Y-145155588D01*
X231882074Y-145155593D01*
X231843622Y-145213141D01*
X231719885Y-145398327D01*
X231718061Y-145402026D01*
X231718058Y-145402031D01*
X231650852Y-145538313D01*
X231588941Y-145663855D01*
X231493776Y-145944203D01*
X231492972Y-145948247D01*
X231492970Y-145948253D01*
X231439642Y-146216351D01*
X231436017Y-146234574D01*
X231435748Y-146238679D01*
X231435747Y-146238686D01*
X231423974Y-146418322D01*
X231416654Y-146530000D01*
X150804374Y-146530000D01*
X150840112Y-146504035D01*
X150910980Y-146425328D01*
X150963480Y-146367021D01*
X150963481Y-146367020D01*
X150967899Y-146362113D01*
X151063386Y-146196725D01*
X151122401Y-146015097D01*
X151125988Y-145980974D01*
X151141673Y-145831734D01*
X151142363Y-145825169D01*
X151137427Y-145778203D01*
X151123091Y-145641804D01*
X151123091Y-145641802D01*
X151122401Y-145635241D01*
X151063386Y-145453613D01*
X151052813Y-145435299D01*
X151026173Y-145389159D01*
X150967899Y-145288225D01*
X150890726Y-145202515D01*
X150844534Y-145151214D01*
X150844533Y-145151213D01*
X150840112Y-145146303D01*
X150685611Y-145034051D01*
X150679583Y-145031367D01*
X150679581Y-145031366D01*
X150517178Y-144959060D01*
X150517177Y-144959060D01*
X150511147Y-144956375D01*
X150399587Y-144932662D01*
X150330803Y-144918041D01*
X150330798Y-144918041D01*
X150324346Y-144916669D01*
X150133372Y-144916669D01*
X150126920Y-144918041D01*
X150126915Y-144918041D01*
X150058131Y-144932662D01*
X149946571Y-144956375D01*
X149940541Y-144959060D01*
X149940540Y-144959060D01*
X149778137Y-145031366D01*
X149778135Y-145031367D01*
X149772107Y-145034051D01*
X149617606Y-145146303D01*
X149613185Y-145151213D01*
X149613184Y-145151214D01*
X149566993Y-145202515D01*
X149489819Y-145288225D01*
X149431545Y-145389159D01*
X149404906Y-145435299D01*
X149394332Y-145453613D01*
X149335317Y-145635241D01*
X149334627Y-145641802D01*
X149334627Y-145641804D01*
X149320291Y-145778203D01*
X149315355Y-145825169D01*
X147764648Y-145825169D01*
X147768204Y-145791333D01*
X147768894Y-145784768D01*
X147752642Y-145630138D01*
X147749622Y-145601403D01*
X147749622Y-145601401D01*
X147748932Y-145594840D01*
X147689917Y-145413212D01*
X147594430Y-145247824D01*
X147505505Y-145149062D01*
X147471065Y-145110813D01*
X147471064Y-145110812D01*
X147466643Y-145105902D01*
X147312142Y-144993650D01*
X147306114Y-144990966D01*
X147306112Y-144990965D01*
X147143709Y-144918659D01*
X147143708Y-144918659D01*
X147137678Y-144915974D01*
X147044277Y-144896121D01*
X146957334Y-144877640D01*
X146957329Y-144877640D01*
X146950877Y-144876268D01*
X146759903Y-144876268D01*
X146753451Y-144877640D01*
X146753446Y-144877640D01*
X146666503Y-144896121D01*
X146573102Y-144915974D01*
X146567072Y-144918659D01*
X146567071Y-144918659D01*
X146404668Y-144990965D01*
X146404666Y-144990966D01*
X146398638Y-144993650D01*
X146244137Y-145105902D01*
X146239716Y-145110812D01*
X146239715Y-145110813D01*
X146205276Y-145149062D01*
X146116350Y-145247824D01*
X146020863Y-145413212D01*
X145961848Y-145594840D01*
X145961158Y-145601401D01*
X145961158Y-145601403D01*
X145958138Y-145630138D01*
X145941886Y-145784768D01*
X144684085Y-145784768D01*
X144687641Y-145750932D01*
X144688331Y-145744367D01*
X144680354Y-145668472D01*
X144669059Y-145561002D01*
X144669059Y-145561000D01*
X144668369Y-145554439D01*
X144609354Y-145372811D01*
X144513867Y-145207423D01*
X144493902Y-145185249D01*
X144390502Y-145070412D01*
X144390501Y-145070411D01*
X144386080Y-145065501D01*
X144283490Y-144990965D01*
X144236921Y-144957130D01*
X144236920Y-144957129D01*
X144231579Y-144953249D01*
X144225551Y-144950565D01*
X144225549Y-144950564D01*
X144063146Y-144878258D01*
X144063145Y-144878258D01*
X144057115Y-144875573D01*
X143963715Y-144855720D01*
X143876771Y-144837239D01*
X143876766Y-144837239D01*
X143870314Y-144835867D01*
X143679340Y-144835867D01*
X143672888Y-144837239D01*
X143672883Y-144837239D01*
X143585939Y-144855720D01*
X143492539Y-144875573D01*
X143486509Y-144878258D01*
X143486508Y-144878258D01*
X143324105Y-144950564D01*
X143324103Y-144950565D01*
X143318075Y-144953249D01*
X143312734Y-144957129D01*
X143312733Y-144957130D01*
X143266164Y-144990965D01*
X143163574Y-145065501D01*
X143159153Y-145070411D01*
X143159152Y-145070412D01*
X143055753Y-145185249D01*
X143035787Y-145207423D01*
X142940300Y-145372811D01*
X142881285Y-145554439D01*
X142880595Y-145561000D01*
X142880595Y-145561002D01*
X142869300Y-145668472D01*
X142861323Y-145744367D01*
X106354214Y-145744367D01*
X106347030Y-145708253D01*
X106347028Y-145708247D01*
X106346224Y-145704203D01*
X106331273Y-145660157D01*
X106252385Y-145427761D01*
X106252384Y-145427760D01*
X106251059Y-145423855D01*
X106161830Y-145242916D01*
X106121942Y-145162031D01*
X106121939Y-145162026D01*
X106120115Y-145158327D01*
X106055496Y-145061618D01*
X105957926Y-144915593D01*
X105957922Y-144915588D01*
X105955633Y-144912162D01*
X105952919Y-144909068D01*
X105952915Y-144909062D01*
X105839730Y-144780000D01*
X121006496Y-144780000D01*
X121007186Y-144786565D01*
X121025034Y-144956375D01*
X121026458Y-144969928D01*
X121085473Y-145151556D01*
X121180960Y-145316944D01*
X121185378Y-145321851D01*
X121185379Y-145321852D01*
X121262487Y-145407489D01*
X121308747Y-145458866D01*
X121407843Y-145530864D01*
X121449325Y-145561002D01*
X121463248Y-145571118D01*
X121469276Y-145573802D01*
X121469278Y-145573803D01*
X121598891Y-145631510D01*
X121637712Y-145648794D01*
X121726944Y-145667761D01*
X121818056Y-145687128D01*
X121818061Y-145687128D01*
X121824513Y-145688500D01*
X122015487Y-145688500D01*
X122021939Y-145687128D01*
X122021944Y-145687128D01*
X122113056Y-145667761D01*
X122202288Y-145648794D01*
X122241109Y-145631510D01*
X122370722Y-145573803D01*
X122370724Y-145573802D01*
X122376752Y-145571118D01*
X122390676Y-145561002D01*
X122432157Y-145530864D01*
X122531253Y-145458866D01*
X122577513Y-145407489D01*
X122654621Y-145321852D01*
X122654622Y-145321851D01*
X122659040Y-145316944D01*
X122754527Y-145151556D01*
X122813542Y-144969928D01*
X122814967Y-144956375D01*
X122832814Y-144786565D01*
X122833504Y-144780000D01*
X122813542Y-144590072D01*
X122785088Y-144502500D01*
X127643996Y-144502500D01*
X127663958Y-144692428D01*
X127722973Y-144874056D01*
X127726276Y-144879778D01*
X127726277Y-144879779D01*
X127746382Y-144914602D01*
X127818460Y-145039444D01*
X127822878Y-145044351D01*
X127822879Y-145044352D01*
X127928838Y-145162031D01*
X127946247Y-145181366D01*
X128100748Y-145293618D01*
X128106776Y-145296302D01*
X128106778Y-145296303D01*
X128265765Y-145367088D01*
X128275212Y-145371294D01*
X128368613Y-145391147D01*
X128455556Y-145409628D01*
X128455561Y-145409628D01*
X128462013Y-145411000D01*
X128652987Y-145411000D01*
X128659439Y-145409628D01*
X128659444Y-145409628D01*
X128746387Y-145391147D01*
X128839788Y-145371294D01*
X128849235Y-145367088D01*
X129008222Y-145296303D01*
X129008224Y-145296302D01*
X129014252Y-145293618D01*
X129168753Y-145181366D01*
X129186162Y-145162031D01*
X129292121Y-145044352D01*
X129292122Y-145044351D01*
X129296540Y-145039444D01*
X129368618Y-144914602D01*
X129388723Y-144879779D01*
X129388724Y-144879778D01*
X129392027Y-144874056D01*
X129428650Y-144761344D01*
X131104104Y-144761344D01*
X131104794Y-144767909D01*
X131121501Y-144926864D01*
X131124066Y-144951272D01*
X131183081Y-145132900D01*
X131186384Y-145138622D01*
X131186385Y-145138623D01*
X131211063Y-145181366D01*
X131278568Y-145298288D01*
X131282986Y-145303195D01*
X131282987Y-145303196D01*
X131376893Y-145407489D01*
X131406355Y-145440210D01*
X131560856Y-145552462D01*
X131566884Y-145555146D01*
X131566886Y-145555147D01*
X131729289Y-145627453D01*
X131735320Y-145630138D01*
X131823089Y-145648794D01*
X131915664Y-145668472D01*
X131915669Y-145668472D01*
X131922121Y-145669844D01*
X132113095Y-145669844D01*
X132119547Y-145668472D01*
X132119552Y-145668472D01*
X132212127Y-145648794D01*
X132299896Y-145630138D01*
X132305927Y-145627453D01*
X132468330Y-145555147D01*
X132468332Y-145555146D01*
X132474360Y-145552462D01*
X132628861Y-145440210D01*
X132658323Y-145407489D01*
X132752229Y-145303196D01*
X132752230Y-145303195D01*
X132756648Y-145298288D01*
X132824153Y-145181366D01*
X132848831Y-145138623D01*
X132848832Y-145138622D01*
X132852135Y-145132900D01*
X132911150Y-144951272D01*
X132913716Y-144926864D01*
X132930422Y-144767909D01*
X132931112Y-144761344D01*
X132923179Y-144685865D01*
X132911840Y-144577979D01*
X132911840Y-144577977D01*
X132911150Y-144571416D01*
X132852135Y-144389788D01*
X132756648Y-144224400D01*
X132640658Y-144095580D01*
X152170916Y-144095580D01*
X152171606Y-144102145D01*
X152183940Y-144219492D01*
X152190878Y-144285508D01*
X152249893Y-144467136D01*
X152253196Y-144472858D01*
X152253197Y-144472859D01*
X152264291Y-144492074D01*
X152345380Y-144632524D01*
X152473167Y-144774446D01*
X152627668Y-144886698D01*
X152633696Y-144889382D01*
X152633698Y-144889383D01*
X152796101Y-144961689D01*
X152802132Y-144964374D01*
X152895532Y-144984227D01*
X152982476Y-145002708D01*
X152982481Y-145002708D01*
X152988933Y-145004080D01*
X153179907Y-145004080D01*
X153186359Y-145002708D01*
X153186364Y-145002708D01*
X153273308Y-144984227D01*
X153366708Y-144964374D01*
X153372739Y-144961689D01*
X153535142Y-144889383D01*
X153535144Y-144889382D01*
X153541172Y-144886698D01*
X153695673Y-144774446D01*
X153823460Y-144632524D01*
X153904549Y-144492074D01*
X153915643Y-144472859D01*
X153915644Y-144472858D01*
X153918947Y-144467136D01*
X153977962Y-144285508D01*
X153984901Y-144219492D01*
X153997234Y-144102145D01*
X153997924Y-144095580D01*
X153981629Y-143940541D01*
X171003933Y-143940541D01*
X171023895Y-144130469D01*
X171082910Y-144312097D01*
X171086213Y-144317819D01*
X171086214Y-144317820D01*
X171101200Y-144343776D01*
X171178397Y-144477485D01*
X171182815Y-144482392D01*
X171182816Y-144482393D01*
X171206832Y-144509065D01*
X171306184Y-144619407D01*
X171460685Y-144731659D01*
X171466713Y-144734343D01*
X171466715Y-144734344D01*
X171565508Y-144778329D01*
X171635149Y-144809335D01*
X171728550Y-144829188D01*
X171815493Y-144847669D01*
X171815498Y-144847669D01*
X171821950Y-144849041D01*
X172012924Y-144849041D01*
X172019376Y-144847669D01*
X172019381Y-144847669D01*
X172106324Y-144829188D01*
X172199725Y-144809335D01*
X172269366Y-144778329D01*
X172368159Y-144734344D01*
X172368161Y-144734343D01*
X172374189Y-144731659D01*
X172528690Y-144619407D01*
X172628042Y-144509065D01*
X172652058Y-144482393D01*
X172652059Y-144482392D01*
X172656477Y-144477485D01*
X172733674Y-144343776D01*
X172748660Y-144317820D01*
X172748661Y-144317819D01*
X172751964Y-144312097D01*
X172810979Y-144130469D01*
X172830941Y-143940541D01*
X172810979Y-143750613D01*
X172751964Y-143568985D01*
X172743156Y-143553728D01*
X172659778Y-143409315D01*
X172656477Y-143403597D01*
X172528690Y-143261675D01*
X172374189Y-143149423D01*
X172368161Y-143146739D01*
X172368159Y-143146738D01*
X172205756Y-143074432D01*
X172205755Y-143074432D01*
X172199725Y-143071747D01*
X172106325Y-143051894D01*
X172019381Y-143033413D01*
X172019376Y-143033413D01*
X172012924Y-143032041D01*
X171821950Y-143032041D01*
X171815498Y-143033413D01*
X171815493Y-143033413D01*
X171728549Y-143051894D01*
X171635149Y-143071747D01*
X171629119Y-143074432D01*
X171629118Y-143074432D01*
X171466715Y-143146738D01*
X171466713Y-143146739D01*
X171460685Y-143149423D01*
X171306184Y-143261675D01*
X171178397Y-143403597D01*
X171175096Y-143409315D01*
X171091719Y-143553728D01*
X171082910Y-143568985D01*
X171023895Y-143750613D01*
X171003933Y-143940541D01*
X153981629Y-143940541D01*
X153977962Y-143905652D01*
X153918947Y-143724024D01*
X153823460Y-143558636D01*
X153695673Y-143416714D01*
X153541172Y-143304462D01*
X153535144Y-143301778D01*
X153535142Y-143301777D01*
X153372739Y-143229471D01*
X153372738Y-143229471D01*
X153366708Y-143226786D01*
X153273307Y-143206933D01*
X153186364Y-143188452D01*
X153186359Y-143188452D01*
X153179907Y-143187080D01*
X152988933Y-143187080D01*
X152982481Y-143188452D01*
X152982476Y-143188452D01*
X152895533Y-143206933D01*
X152802132Y-143226786D01*
X152796102Y-143229471D01*
X152796101Y-143229471D01*
X152633698Y-143301777D01*
X152633696Y-143301778D01*
X152627668Y-143304462D01*
X152473167Y-143416714D01*
X152345380Y-143558636D01*
X152249893Y-143724024D01*
X152190878Y-143905652D01*
X152170916Y-144095580D01*
X132640658Y-144095580D01*
X132628861Y-144082478D01*
X132529765Y-144010480D01*
X132479702Y-143974107D01*
X132479701Y-143974106D01*
X132474360Y-143970226D01*
X132468332Y-143967542D01*
X132468330Y-143967541D01*
X132305927Y-143895235D01*
X132305926Y-143895235D01*
X132299896Y-143892550D01*
X132200864Y-143871500D01*
X132119552Y-143854216D01*
X132119547Y-143854216D01*
X132113095Y-143852844D01*
X131922121Y-143852844D01*
X131915669Y-143854216D01*
X131915664Y-143854216D01*
X131834352Y-143871500D01*
X131735320Y-143892550D01*
X131729290Y-143895235D01*
X131729289Y-143895235D01*
X131566886Y-143967541D01*
X131566884Y-143967542D01*
X131560856Y-143970226D01*
X131555515Y-143974106D01*
X131555514Y-143974107D01*
X131505451Y-144010480D01*
X131406355Y-144082478D01*
X131278568Y-144224400D01*
X131183081Y-144389788D01*
X131124066Y-144571416D01*
X131123376Y-144577977D01*
X131123376Y-144577979D01*
X131112037Y-144685865D01*
X131104104Y-144761344D01*
X129428650Y-144761344D01*
X129451042Y-144692428D01*
X129471004Y-144502500D01*
X129466627Y-144460851D01*
X129451732Y-144319135D01*
X129451732Y-144319133D01*
X129451042Y-144312572D01*
X129392027Y-144130944D01*
X129366881Y-144087389D01*
X129299841Y-143971274D01*
X129296540Y-143965556D01*
X129274017Y-143940541D01*
X129173175Y-143828545D01*
X129173174Y-143828544D01*
X129168753Y-143823634D01*
X129014252Y-143711382D01*
X129008224Y-143708698D01*
X129008222Y-143708697D01*
X128845819Y-143636391D01*
X128845818Y-143636391D01*
X128839788Y-143633706D01*
X128746387Y-143613853D01*
X128659444Y-143595372D01*
X128659439Y-143595372D01*
X128652987Y-143594000D01*
X128462013Y-143594000D01*
X128455561Y-143595372D01*
X128455556Y-143595372D01*
X128368613Y-143613853D01*
X128275212Y-143633706D01*
X128269182Y-143636391D01*
X128269181Y-143636391D01*
X128106778Y-143708697D01*
X128106776Y-143708698D01*
X128100748Y-143711382D01*
X127946247Y-143823634D01*
X127941826Y-143828544D01*
X127941825Y-143828545D01*
X127840984Y-143940541D01*
X127818460Y-143965556D01*
X127815159Y-143971274D01*
X127748120Y-144087389D01*
X127722973Y-144130944D01*
X127663958Y-144312572D01*
X127663268Y-144319133D01*
X127663268Y-144319135D01*
X127648373Y-144460851D01*
X127643996Y-144502500D01*
X122785088Y-144502500D01*
X122754527Y-144408444D01*
X122659040Y-144243056D01*
X122531253Y-144101134D01*
X122429112Y-144026924D01*
X122382094Y-143992763D01*
X122382093Y-143992762D01*
X122376752Y-143988882D01*
X122370724Y-143986198D01*
X122370722Y-143986197D01*
X122208319Y-143913891D01*
X122208318Y-143913891D01*
X122202288Y-143911206D01*
X122108064Y-143891178D01*
X122021944Y-143872872D01*
X122021939Y-143872872D01*
X122015487Y-143871500D01*
X121824513Y-143871500D01*
X121818061Y-143872872D01*
X121818056Y-143872872D01*
X121731936Y-143891178D01*
X121637712Y-143911206D01*
X121631682Y-143913891D01*
X121631681Y-143913891D01*
X121469278Y-143986197D01*
X121469276Y-143986198D01*
X121463248Y-143988882D01*
X121457907Y-143992762D01*
X121457906Y-143992763D01*
X121410888Y-144026924D01*
X121308747Y-144101134D01*
X121180960Y-144243056D01*
X121085473Y-144408444D01*
X121026458Y-144590072D01*
X121006496Y-144780000D01*
X105839730Y-144780000D01*
X105763136Y-144692662D01*
X105760427Y-144689573D01*
X105700972Y-144637432D01*
X105540938Y-144497085D01*
X105540932Y-144497081D01*
X105537838Y-144494367D01*
X105534412Y-144492078D01*
X105534407Y-144492074D01*
X105295106Y-144332179D01*
X105291673Y-144329885D01*
X105287974Y-144328061D01*
X105287969Y-144328058D01*
X105105649Y-144238148D01*
X105026145Y-144198941D01*
X104825832Y-144130944D01*
X104749710Y-144105104D01*
X104749706Y-144105103D01*
X104745797Y-144103776D01*
X104741753Y-144102972D01*
X104741747Y-144102970D01*
X104459465Y-144046820D01*
X104459459Y-144046819D01*
X104455426Y-144046017D01*
X104451321Y-144045748D01*
X104451314Y-144045747D01*
X104164119Y-144026924D01*
X104160000Y-144026654D01*
X104155881Y-144026924D01*
X103868686Y-144045747D01*
X103868679Y-144045748D01*
X103864574Y-144046017D01*
X103860541Y-144046819D01*
X103860535Y-144046820D01*
X103578253Y-144102970D01*
X103578247Y-144102972D01*
X103574203Y-144103776D01*
X103570294Y-144105103D01*
X103570290Y-144105104D01*
X103494168Y-144130944D01*
X103293855Y-144198941D01*
X103214351Y-144238148D01*
X103032031Y-144328058D01*
X103032026Y-144328061D01*
X103028327Y-144329885D01*
X103024894Y-144332179D01*
X102785593Y-144492074D01*
X102785588Y-144492078D01*
X102782162Y-144494367D01*
X102779068Y-144497081D01*
X102779062Y-144497085D01*
X102619028Y-144637432D01*
X102559573Y-144689573D01*
X102556864Y-144692662D01*
X102367085Y-144909062D01*
X102367081Y-144909068D01*
X102364367Y-144912162D01*
X102362078Y-144915588D01*
X102362074Y-144915593D01*
X102264504Y-145061618D01*
X102199885Y-145158327D01*
X102198061Y-145162026D01*
X102198058Y-145162031D01*
X102158170Y-145242916D01*
X102068941Y-145423855D01*
X102067616Y-145427760D01*
X102067615Y-145427761D01*
X101988728Y-145660157D01*
X101973776Y-145704203D01*
X101972972Y-145708247D01*
X101972970Y-145708253D01*
X101918893Y-145980116D01*
X101916017Y-145994574D01*
X101915748Y-145998679D01*
X101915747Y-145998686D01*
X101903726Y-146182101D01*
X101896654Y-146290000D01*
X100508500Y-146290000D01*
X100508500Y-143060568D01*
X132763897Y-143060568D01*
X132783859Y-143250496D01*
X132842874Y-143432124D01*
X132938361Y-143597512D01*
X133066148Y-143739434D01*
X133220649Y-143851686D01*
X133226677Y-143854370D01*
X133226679Y-143854371D01*
X133356600Y-143912215D01*
X133395113Y-143929362D01*
X133488514Y-143949215D01*
X133575457Y-143967696D01*
X133575462Y-143967696D01*
X133581914Y-143969068D01*
X133772888Y-143969068D01*
X133779340Y-143967696D01*
X133779345Y-143967696D01*
X133866288Y-143949215D01*
X133959689Y-143929362D01*
X133998202Y-143912215D01*
X134128123Y-143854371D01*
X134128125Y-143854370D01*
X134134153Y-143851686D01*
X134288654Y-143739434D01*
X134416441Y-143597512D01*
X134511928Y-143432124D01*
X134570943Y-143250496D01*
X134590905Y-143060568D01*
X134570943Y-142870640D01*
X134511928Y-142689012D01*
X134416441Y-142523624D01*
X134326168Y-142423365D01*
X134293076Y-142386613D01*
X134293075Y-142386612D01*
X134288654Y-142381702D01*
X134134153Y-142269450D01*
X134128125Y-142266766D01*
X134128123Y-142266765D01*
X134068007Y-142240000D01*
X159106496Y-142240000D01*
X159126458Y-142429928D01*
X159185473Y-142611556D01*
X159280960Y-142776944D01*
X159285378Y-142781851D01*
X159285379Y-142781852D01*
X159404325Y-142913955D01*
X159408747Y-142918866D01*
X159563248Y-143031118D01*
X159569276Y-143033802D01*
X159569278Y-143033803D01*
X159660533Y-143074432D01*
X159737712Y-143108794D01*
X159831112Y-143128647D01*
X159918056Y-143147128D01*
X159918061Y-143147128D01*
X159924513Y-143148500D01*
X160115487Y-143148500D01*
X160121939Y-143147128D01*
X160121944Y-143147128D01*
X160208888Y-143128647D01*
X160302288Y-143108794D01*
X160379467Y-143074432D01*
X160470722Y-143033803D01*
X160470724Y-143033802D01*
X160476752Y-143031118D01*
X160631253Y-142918866D01*
X160635675Y-142913955D01*
X160754621Y-142781852D01*
X160754622Y-142781851D01*
X160759040Y-142776944D01*
X160854527Y-142611556D01*
X160913542Y-142429928D01*
X160933504Y-142240000D01*
X160913542Y-142050072D01*
X160854527Y-141868444D01*
X160759040Y-141703056D01*
X160631253Y-141561134D01*
X160476752Y-141448882D01*
X160470724Y-141446198D01*
X160470722Y-141446197D01*
X160308319Y-141373891D01*
X160308318Y-141373891D01*
X160302288Y-141371206D01*
X160208887Y-141351353D01*
X160121944Y-141332872D01*
X160121939Y-141332872D01*
X160115487Y-141331500D01*
X159924513Y-141331500D01*
X159918061Y-141332872D01*
X159918056Y-141332872D01*
X159831113Y-141351353D01*
X159737712Y-141371206D01*
X159731682Y-141373891D01*
X159731681Y-141373891D01*
X159569278Y-141446197D01*
X159569276Y-141446198D01*
X159563248Y-141448882D01*
X159408747Y-141561134D01*
X159280960Y-141703056D01*
X159185473Y-141868444D01*
X159126458Y-142050072D01*
X159106496Y-142240000D01*
X134068007Y-142240000D01*
X133965720Y-142194459D01*
X133965719Y-142194459D01*
X133959689Y-142191774D01*
X133866289Y-142171921D01*
X133779345Y-142153440D01*
X133779340Y-142153440D01*
X133772888Y-142152068D01*
X133581914Y-142152068D01*
X133575462Y-142153440D01*
X133575457Y-142153440D01*
X133488513Y-142171921D01*
X133395113Y-142191774D01*
X133389083Y-142194459D01*
X133389082Y-142194459D01*
X133226679Y-142266765D01*
X133226677Y-142266766D01*
X133220649Y-142269450D01*
X133066148Y-142381702D01*
X133061727Y-142386612D01*
X133061726Y-142386613D01*
X133028635Y-142423365D01*
X132938361Y-142523624D01*
X132842874Y-142689012D01*
X132783859Y-142870640D01*
X132763897Y-143060568D01*
X100508500Y-143060568D01*
X100508500Y-141166913D01*
X127000000Y-141166913D01*
X132099016Y-141128880D01*
X132097370Y-140002876D01*
X145161476Y-140002876D01*
X145162166Y-140009441D01*
X145176332Y-140144219D01*
X145181438Y-140192804D01*
X145240453Y-140374432D01*
X145335940Y-140539820D01*
X145340358Y-140544727D01*
X145340359Y-140544728D01*
X145459305Y-140676831D01*
X145463727Y-140681742D01*
X145618228Y-140793994D01*
X145624256Y-140796678D01*
X145624258Y-140796679D01*
X145786661Y-140868985D01*
X145792692Y-140871670D01*
X145886093Y-140891523D01*
X145973036Y-140910004D01*
X145973041Y-140910004D01*
X145979493Y-140911376D01*
X146170467Y-140911376D01*
X146176919Y-140910004D01*
X146176924Y-140910004D01*
X146263867Y-140891523D01*
X146357268Y-140871670D01*
X146363299Y-140868985D01*
X146525702Y-140796679D01*
X146525704Y-140796678D01*
X146531732Y-140793994D01*
X146600544Y-140743999D01*
X151488063Y-140743999D01*
X151488753Y-140750564D01*
X151505511Y-140910004D01*
X151508025Y-140933927D01*
X151567040Y-141115555D01*
X151570343Y-141121277D01*
X151570344Y-141121278D01*
X151572162Y-141124427D01*
X151662527Y-141280943D01*
X151790314Y-141422865D01*
X151944815Y-141535117D01*
X151950843Y-141537801D01*
X151950845Y-141537802D01*
X152113248Y-141610108D01*
X152119279Y-141612793D01*
X152212680Y-141632646D01*
X152299623Y-141651127D01*
X152299628Y-141651127D01*
X152306080Y-141652499D01*
X152497054Y-141652499D01*
X152503506Y-141651127D01*
X152503511Y-141651127D01*
X152590454Y-141632646D01*
X152683855Y-141612793D01*
X152689886Y-141610108D01*
X152852289Y-141537802D01*
X152852291Y-141537801D01*
X152858319Y-141535117D01*
X153012820Y-141422865D01*
X153140607Y-141280943D01*
X153230972Y-141124427D01*
X153232790Y-141121278D01*
X153232791Y-141121277D01*
X153236094Y-141115555D01*
X153295109Y-140933927D01*
X153297624Y-140910004D01*
X153314381Y-140750564D01*
X153315071Y-140743999D01*
X153308528Y-140681742D01*
X153295799Y-140560634D01*
X153295799Y-140560632D01*
X153295109Y-140554071D01*
X153236094Y-140372443D01*
X153140607Y-140207055D01*
X153127776Y-140192804D01*
X153017242Y-140070044D01*
X153017241Y-140070043D01*
X153012820Y-140065133D01*
X152858319Y-139952881D01*
X152852291Y-139950197D01*
X152852289Y-139950196D01*
X152689886Y-139877890D01*
X152689885Y-139877890D01*
X152683855Y-139875205D01*
X152588460Y-139854928D01*
X152503511Y-139836871D01*
X152503506Y-139836871D01*
X152497054Y-139835499D01*
X152306080Y-139835499D01*
X152299628Y-139836871D01*
X152299623Y-139836871D01*
X152214674Y-139854928D01*
X152119279Y-139875205D01*
X152113249Y-139877890D01*
X152113248Y-139877890D01*
X151950845Y-139950196D01*
X151950843Y-139950197D01*
X151944815Y-139952881D01*
X151790314Y-140065133D01*
X151785893Y-140070043D01*
X151785892Y-140070044D01*
X151675359Y-140192804D01*
X151662527Y-140207055D01*
X151567040Y-140372443D01*
X151508025Y-140554071D01*
X151507335Y-140560632D01*
X151507335Y-140560634D01*
X151494606Y-140681742D01*
X151488063Y-140743999D01*
X146600544Y-140743999D01*
X146686233Y-140681742D01*
X146690655Y-140676831D01*
X146809601Y-140544728D01*
X146809602Y-140544727D01*
X146814020Y-140539820D01*
X146909507Y-140374432D01*
X146968522Y-140192804D01*
X146973629Y-140144219D01*
X146987794Y-140009441D01*
X146988484Y-140002876D01*
X146975348Y-139877890D01*
X146969212Y-139819511D01*
X146969212Y-139819509D01*
X146968522Y-139812948D01*
X146909507Y-139631320D01*
X146814020Y-139465932D01*
X146796533Y-139446510D01*
X146690655Y-139328921D01*
X146690654Y-139328920D01*
X146686233Y-139324010D01*
X146573849Y-139242358D01*
X146537074Y-139215639D01*
X146537073Y-139215638D01*
X146531732Y-139211758D01*
X146525704Y-139209074D01*
X146525702Y-139209073D01*
X146363299Y-139136767D01*
X146363298Y-139136767D01*
X146357268Y-139134082D01*
X146248451Y-139110952D01*
X146176924Y-139095748D01*
X146176919Y-139095748D01*
X146170467Y-139094376D01*
X145979493Y-139094376D01*
X145973041Y-139095748D01*
X145973036Y-139095748D01*
X145901509Y-139110952D01*
X145792692Y-139134082D01*
X145786662Y-139136767D01*
X145786661Y-139136767D01*
X145624258Y-139209073D01*
X145624256Y-139209074D01*
X145618228Y-139211758D01*
X145612887Y-139215638D01*
X145612886Y-139215639D01*
X145576111Y-139242358D01*
X145463727Y-139324010D01*
X145459306Y-139328920D01*
X145459305Y-139328921D01*
X145353428Y-139446510D01*
X145335940Y-139465932D01*
X145240453Y-139631320D01*
X145181438Y-139812948D01*
X145180748Y-139819509D01*
X145180748Y-139819511D01*
X145174612Y-139877890D01*
X145161476Y-140002876D01*
X132097370Y-140002876D01*
X132095287Y-138577716D01*
X139609121Y-138577716D01*
X139629083Y-138767644D01*
X139688098Y-138949272D01*
X139783585Y-139114660D01*
X139788003Y-139119567D01*
X139788004Y-139119568D01*
X139803490Y-139136767D01*
X139911372Y-139256582D01*
X140065873Y-139368834D01*
X140071901Y-139371518D01*
X140071903Y-139371519D01*
X140196058Y-139426796D01*
X140240337Y-139446510D01*
X140308620Y-139461024D01*
X140420681Y-139484844D01*
X140420686Y-139484844D01*
X140427138Y-139486216D01*
X140618112Y-139486216D01*
X140624564Y-139484844D01*
X140624569Y-139484844D01*
X140736630Y-139461024D01*
X140804913Y-139446510D01*
X140849192Y-139426796D01*
X140973347Y-139371519D01*
X140973349Y-139371518D01*
X140979377Y-139368834D01*
X141133878Y-139256582D01*
X141241760Y-139136767D01*
X141257246Y-139119568D01*
X141257247Y-139119567D01*
X141261665Y-139114660D01*
X141357152Y-138949272D01*
X141416167Y-138767644D01*
X141436129Y-138577716D01*
X141426285Y-138484053D01*
X141416857Y-138394351D01*
X141416857Y-138394349D01*
X141416167Y-138387788D01*
X141357152Y-138206160D01*
X141261665Y-138040772D01*
X141133878Y-137898850D01*
X140979377Y-137786598D01*
X140973349Y-137783914D01*
X140973347Y-137783913D01*
X140950682Y-137773822D01*
X143826319Y-137773822D01*
X143846281Y-137963750D01*
X143905296Y-138145378D01*
X144000783Y-138310766D01*
X144005201Y-138315673D01*
X144005202Y-138315674D01*
X144124148Y-138447777D01*
X144128570Y-138452688D01*
X144283071Y-138564940D01*
X144289099Y-138567624D01*
X144289101Y-138567625D01*
X144451504Y-138639931D01*
X144457535Y-138642616D01*
X144550935Y-138662469D01*
X144637879Y-138680950D01*
X144637884Y-138680950D01*
X144644336Y-138682322D01*
X144835310Y-138682322D01*
X144841762Y-138680950D01*
X144841767Y-138680950D01*
X144928711Y-138662469D01*
X145022111Y-138642616D01*
X145028142Y-138639931D01*
X145190545Y-138567625D01*
X145190547Y-138567624D01*
X145196575Y-138564940D01*
X145351076Y-138452688D01*
X145355498Y-138447777D01*
X145369626Y-138432086D01*
X156453870Y-138432086D01*
X156454560Y-138438651D01*
X156468116Y-138567625D01*
X156473832Y-138622014D01*
X156532847Y-138803642D01*
X156628334Y-138969030D01*
X156632752Y-138973937D01*
X156632753Y-138973938D01*
X156704108Y-139053186D01*
X156756121Y-139110952D01*
X156811973Y-139151531D01*
X156900210Y-139215639D01*
X156910622Y-139223204D01*
X156916650Y-139225888D01*
X156916652Y-139225889D01*
X157055530Y-139287721D01*
X157085086Y-139300880D01*
X157175636Y-139320127D01*
X157265430Y-139339214D01*
X157265435Y-139339214D01*
X157271887Y-139340586D01*
X157462861Y-139340586D01*
X157469313Y-139339214D01*
X157469318Y-139339214D01*
X157559112Y-139320127D01*
X157649662Y-139300880D01*
X157679218Y-139287721D01*
X157818096Y-139225889D01*
X157818098Y-139225888D01*
X157824126Y-139223204D01*
X157834539Y-139215639D01*
X157922775Y-139151531D01*
X157927451Y-139148134D01*
X221371500Y-139148134D01*
X221378255Y-139210316D01*
X221429385Y-139346705D01*
X221516739Y-139463261D01*
X221633295Y-139550615D01*
X221769684Y-139601745D01*
X221831866Y-139608500D01*
X225128134Y-139608500D01*
X225190316Y-139601745D01*
X225326705Y-139550615D01*
X225443261Y-139463261D01*
X225530615Y-139346705D01*
X225581745Y-139210316D01*
X225588500Y-139148134D01*
X225588500Y-137051866D01*
X225581745Y-136989684D01*
X225530615Y-136853295D01*
X225443261Y-136736739D01*
X225326705Y-136649385D01*
X225190316Y-136598255D01*
X225128134Y-136591500D01*
X221831866Y-136591500D01*
X221769684Y-136598255D01*
X221633295Y-136649385D01*
X221516739Y-136736739D01*
X221429385Y-136853295D01*
X221378255Y-136989684D01*
X221371500Y-137051866D01*
X221371500Y-139148134D01*
X157927451Y-139148134D01*
X157978627Y-139110952D01*
X158030640Y-139053186D01*
X158101995Y-138973938D01*
X158101996Y-138973937D01*
X158106414Y-138969030D01*
X158201901Y-138803642D01*
X158260916Y-138622014D01*
X158266633Y-138567625D01*
X158280188Y-138438651D01*
X158280878Y-138432086D01*
X158265689Y-138287568D01*
X158261606Y-138248721D01*
X158261606Y-138248719D01*
X158260916Y-138242158D01*
X158201901Y-138060530D01*
X158106414Y-137895142D01*
X157978627Y-137753220D01*
X157824126Y-137640968D01*
X157818098Y-137638284D01*
X157818096Y-137638283D01*
X157655693Y-137565977D01*
X157655692Y-137565977D01*
X157649662Y-137563292D01*
X157545559Y-137541164D01*
X157469318Y-137524958D01*
X157469313Y-137524958D01*
X157462861Y-137523586D01*
X157271887Y-137523586D01*
X157265435Y-137524958D01*
X157265430Y-137524958D01*
X157189189Y-137541164D01*
X157085086Y-137563292D01*
X157079056Y-137565977D01*
X157079055Y-137565977D01*
X156916652Y-137638283D01*
X156916650Y-137638284D01*
X156910622Y-137640968D01*
X156756121Y-137753220D01*
X156628334Y-137895142D01*
X156532847Y-138060530D01*
X156473832Y-138242158D01*
X156473142Y-138248719D01*
X156473142Y-138248721D01*
X156469059Y-138287568D01*
X156453870Y-138432086D01*
X145369626Y-138432086D01*
X145474444Y-138315674D01*
X145474445Y-138315673D01*
X145478863Y-138310766D01*
X145574350Y-138145378D01*
X145633365Y-137963750D01*
X145653327Y-137773822D01*
X145639364Y-137640968D01*
X145634055Y-137590457D01*
X145634055Y-137590455D01*
X145633365Y-137583894D01*
X145574350Y-137402266D01*
X145478863Y-137236878D01*
X145477735Y-137235625D01*
X145454489Y-137170480D01*
X145470567Y-137101327D01*
X145486647Y-137078972D01*
X145494532Y-137070215D01*
X145494533Y-137070214D01*
X145498951Y-137065307D01*
X145594438Y-136899919D01*
X145653453Y-136718291D01*
X145655457Y-136699221D01*
X145682468Y-136633565D01*
X145740689Y-136592934D01*
X145811634Y-136590229D01*
X145872779Y-136626310D01*
X145889886Y-136649389D01*
X145958450Y-136768145D01*
X146086237Y-136910067D01*
X146240738Y-137022319D01*
X146246766Y-137025003D01*
X146246768Y-137025004D01*
X146367983Y-137078972D01*
X146415202Y-137099995D01*
X146508602Y-137119848D01*
X146595546Y-137138329D01*
X146595551Y-137138329D01*
X146602003Y-137139701D01*
X146792977Y-137139701D01*
X146799429Y-137138329D01*
X146799434Y-137138329D01*
X146886378Y-137119848D01*
X146979778Y-137099995D01*
X147026997Y-137078972D01*
X147148212Y-137025004D01*
X147148214Y-137025003D01*
X147154242Y-137022319D01*
X147308743Y-136910067D01*
X147436530Y-136768145D01*
X147532017Y-136602757D01*
X147591032Y-136421129D01*
X147599724Y-136338435D01*
X147610304Y-136237766D01*
X147610994Y-136231201D01*
X147602701Y-136152296D01*
X147591722Y-136047836D01*
X147591722Y-136047834D01*
X147591032Y-136041273D01*
X147532017Y-135859645D01*
X147436530Y-135694257D01*
X147429963Y-135686963D01*
X147313165Y-135557246D01*
X147313164Y-135557245D01*
X147308743Y-135552335D01*
X147198402Y-135472167D01*
X147159584Y-135443964D01*
X147159583Y-135443963D01*
X147154242Y-135440083D01*
X147148214Y-135437399D01*
X147148212Y-135437398D01*
X146985809Y-135365092D01*
X146985808Y-135365092D01*
X146979778Y-135362407D01*
X146886377Y-135342554D01*
X146799434Y-135324073D01*
X146799429Y-135324073D01*
X146792977Y-135322701D01*
X146602003Y-135322701D01*
X146595551Y-135324073D01*
X146595546Y-135324073D01*
X146508603Y-135342554D01*
X146415202Y-135362407D01*
X146409172Y-135365092D01*
X146409171Y-135365092D01*
X146246768Y-135437398D01*
X146246766Y-135437399D01*
X146240738Y-135440083D01*
X146235397Y-135443963D01*
X146235396Y-135443964D01*
X146196578Y-135472167D01*
X146086237Y-135552335D01*
X146081816Y-135557245D01*
X146081815Y-135557246D01*
X145965018Y-135686963D01*
X145958450Y-135694257D01*
X145862963Y-135859645D01*
X145803948Y-136041273D01*
X145803258Y-136047836D01*
X145803258Y-136047837D01*
X145801944Y-136060342D01*
X145774933Y-136125999D01*
X145716712Y-136166630D01*
X145645767Y-136169335D01*
X145584622Y-136133254D01*
X145567515Y-136110175D01*
X145527734Y-136041273D01*
X145498951Y-135991419D01*
X145473589Y-135963251D01*
X145375586Y-135854408D01*
X145375585Y-135854407D01*
X145371164Y-135849497D01*
X145216663Y-135737245D01*
X145210635Y-135734561D01*
X145210633Y-135734560D01*
X145048230Y-135662254D01*
X145048229Y-135662254D01*
X145042199Y-135659569D01*
X144948798Y-135639716D01*
X144861855Y-135621235D01*
X144861850Y-135621235D01*
X144855398Y-135619863D01*
X144664424Y-135619863D01*
X144657972Y-135621235D01*
X144657967Y-135621235D01*
X144571024Y-135639716D01*
X144477623Y-135659569D01*
X144471593Y-135662254D01*
X144471592Y-135662254D01*
X144309189Y-135734560D01*
X144309187Y-135734561D01*
X144303159Y-135737245D01*
X144148658Y-135849497D01*
X144144237Y-135854407D01*
X144144236Y-135854408D01*
X144046234Y-135963251D01*
X144020871Y-135991419D01*
X143992088Y-136041273D01*
X143931293Y-136146573D01*
X143925384Y-136156807D01*
X143866369Y-136338435D01*
X143865679Y-136344996D01*
X143865679Y-136344998D01*
X143857018Y-136427407D01*
X143846407Y-136528363D01*
X143847097Y-136534928D01*
X143856702Y-136626310D01*
X143866369Y-136718291D01*
X143925384Y-136899919D01*
X144020871Y-137065307D01*
X144021999Y-137066560D01*
X144045245Y-137131705D01*
X144029167Y-137200858D01*
X144013087Y-137223213D01*
X144000783Y-137236878D01*
X143905296Y-137402266D01*
X143846281Y-137583894D01*
X143845591Y-137590455D01*
X143845591Y-137590457D01*
X143840282Y-137640968D01*
X143826319Y-137773822D01*
X140950682Y-137773822D01*
X140810944Y-137711607D01*
X140810943Y-137711607D01*
X140804913Y-137708922D01*
X140711513Y-137689069D01*
X140624569Y-137670588D01*
X140624564Y-137670588D01*
X140618112Y-137669216D01*
X140427138Y-137669216D01*
X140420686Y-137670588D01*
X140420681Y-137670588D01*
X140333737Y-137689069D01*
X140240337Y-137708922D01*
X140234307Y-137711607D01*
X140234306Y-137711607D01*
X140071903Y-137783913D01*
X140071901Y-137783914D01*
X140065873Y-137786598D01*
X139911372Y-137898850D01*
X139783585Y-138040772D01*
X139688098Y-138206160D01*
X139629083Y-138387788D01*
X139628393Y-138394349D01*
X139628393Y-138394351D01*
X139618965Y-138484053D01*
X139609121Y-138577716D01*
X132095287Y-138577716D01*
X132090430Y-135255000D01*
X133564664Y-135255000D01*
X133565354Y-135261565D01*
X133583835Y-135437398D01*
X133584626Y-135444928D01*
X133643641Y-135626556D01*
X133646944Y-135632278D01*
X133646945Y-135632279D01*
X133686599Y-135700962D01*
X133739128Y-135791944D01*
X133743546Y-135796851D01*
X133743547Y-135796852D01*
X133760429Y-135815601D01*
X133791146Y-135879609D01*
X133782383Y-135950062D01*
X133765618Y-135976152D01*
X133766313Y-135976657D01*
X133762431Y-135982000D01*
X133758012Y-135986908D01*
X133754710Y-135992627D01*
X133754708Y-135992630D01*
X133673519Y-136133254D01*
X133662525Y-136152296D01*
X133603510Y-136333924D01*
X133602820Y-136340485D01*
X133602820Y-136340487D01*
X133584712Y-136512777D01*
X133583548Y-136523852D01*
X133584238Y-136530417D01*
X133596411Y-136646233D01*
X133603510Y-136713780D01*
X133662525Y-136895408D01*
X133665828Y-136901130D01*
X133665829Y-136901131D01*
X133694159Y-136950200D01*
X133758012Y-137060796D01*
X133885799Y-137202718D01*
X133949371Y-137248906D01*
X134009855Y-137292850D01*
X134040300Y-137314970D01*
X134046328Y-137317654D01*
X134046330Y-137317655D01*
X134093511Y-137338661D01*
X134214764Y-137392646D01*
X134287267Y-137408057D01*
X134395108Y-137430980D01*
X134395113Y-137430980D01*
X134401565Y-137432352D01*
X134592539Y-137432352D01*
X134598991Y-137430980D01*
X134598996Y-137430980D01*
X134706837Y-137408057D01*
X134779340Y-137392646D01*
X134900593Y-137338661D01*
X134947774Y-137317655D01*
X134947776Y-137317654D01*
X134953804Y-137314970D01*
X134984250Y-137292850D01*
X135044733Y-137248906D01*
X135108305Y-137202718D01*
X135236092Y-137060796D01*
X135299945Y-136950200D01*
X135328275Y-136901131D01*
X135328276Y-136901130D01*
X135331579Y-136895408D01*
X135390594Y-136713780D01*
X135397694Y-136646233D01*
X135409866Y-136530417D01*
X135410556Y-136523852D01*
X135409392Y-136512777D01*
X135391284Y-136340487D01*
X135391284Y-136340485D01*
X135390594Y-136333924D01*
X135331579Y-136152296D01*
X135316397Y-136125999D01*
X135239395Y-135992629D01*
X135236092Y-135986908D01*
X135214791Y-135963251D01*
X135184074Y-135899243D01*
X135192837Y-135828790D01*
X135209602Y-135802700D01*
X135208907Y-135802195D01*
X135212789Y-135796852D01*
X135217208Y-135791944D01*
X135224891Y-135778638D01*
X135309391Y-135632279D01*
X135309392Y-135632278D01*
X135312695Y-135626556D01*
X135371710Y-135444928D01*
X135372502Y-135437398D01*
X135390982Y-135261565D01*
X135391672Y-135255000D01*
X135389231Y-135231777D01*
X135372400Y-135071635D01*
X135372400Y-135071633D01*
X135371710Y-135065072D01*
X135321273Y-134909844D01*
X152134384Y-134909844D01*
X152135074Y-134916409D01*
X152143342Y-134995070D01*
X152154346Y-135099772D01*
X152213361Y-135281400D01*
X152308848Y-135446788D01*
X152313266Y-135451695D01*
X152313267Y-135451696D01*
X152403883Y-135552335D01*
X152436635Y-135588710D01*
X152513802Y-135644775D01*
X152565573Y-135682389D01*
X152591136Y-135700962D01*
X152597164Y-135703646D01*
X152597166Y-135703647D01*
X152672629Y-135737245D01*
X152765600Y-135778638D01*
X152851290Y-135796852D01*
X152945944Y-135816972D01*
X152945949Y-135816972D01*
X152952401Y-135818344D01*
X153143375Y-135818344D01*
X153149827Y-135816972D01*
X153149832Y-135816972D01*
X153244486Y-135796852D01*
X153330176Y-135778638D01*
X153423147Y-135737245D01*
X153498610Y-135703647D01*
X153498612Y-135703646D01*
X153504640Y-135700962D01*
X153530204Y-135682389D01*
X153581974Y-135644775D01*
X153659141Y-135588710D01*
X153691893Y-135552335D01*
X153782509Y-135451696D01*
X153782510Y-135451695D01*
X153786928Y-135446788D01*
X153882415Y-135281400D01*
X153941430Y-135099772D01*
X153952435Y-134995070D01*
X153960702Y-134916409D01*
X153961392Y-134909844D01*
X153943294Y-134737647D01*
X157716086Y-134737647D01*
X157736048Y-134927575D01*
X157795063Y-135109203D01*
X157890550Y-135274591D01*
X157894968Y-135279498D01*
X157894969Y-135279499D01*
X157907101Y-135292973D01*
X158018337Y-135416513D01*
X158052137Y-135441070D01*
X158138312Y-135503680D01*
X158172838Y-135528765D01*
X158178866Y-135531449D01*
X158178868Y-135531450D01*
X158341271Y-135603756D01*
X158347302Y-135606441D01*
X158427690Y-135623528D01*
X158527646Y-135644775D01*
X158527651Y-135644775D01*
X158534103Y-135646147D01*
X158725077Y-135646147D01*
X158731529Y-135644775D01*
X158731534Y-135644775D01*
X158831490Y-135623528D01*
X158911878Y-135606441D01*
X158917909Y-135603756D01*
X159080312Y-135531450D01*
X159080314Y-135531449D01*
X159086342Y-135528765D01*
X159120869Y-135503680D01*
X159207043Y-135441070D01*
X159240843Y-135416513D01*
X159352079Y-135292973D01*
X159364211Y-135279499D01*
X159364212Y-135279498D01*
X159368630Y-135274591D01*
X159464117Y-135109203D01*
X159523132Y-134927575D01*
X159533416Y-134829725D01*
X162372215Y-134829725D01*
X162372905Y-134836290D01*
X162390630Y-135004930D01*
X162392177Y-135019653D01*
X162451192Y-135201281D01*
X162454495Y-135207003D01*
X162454496Y-135207004D01*
X162474426Y-135241524D01*
X162546679Y-135366669D01*
X162551097Y-135371576D01*
X162551098Y-135371577D01*
X162633219Y-135462782D01*
X162674466Y-135508591D01*
X162702233Y-135528765D01*
X162777981Y-135583799D01*
X162828967Y-135620843D01*
X162834995Y-135623527D01*
X162834997Y-135623528D01*
X162986954Y-135691183D01*
X163003431Y-135698519D01*
X163096831Y-135718372D01*
X163183775Y-135736853D01*
X163183780Y-135736853D01*
X163190232Y-135738225D01*
X163381206Y-135738225D01*
X163387658Y-135736853D01*
X163387663Y-135736853D01*
X163474607Y-135718372D01*
X163568007Y-135698519D01*
X163584484Y-135691183D01*
X163736441Y-135623528D01*
X163736443Y-135623527D01*
X163742471Y-135620843D01*
X163793458Y-135583799D01*
X163869205Y-135528765D01*
X163896972Y-135508591D01*
X163938219Y-135462782D01*
X164020340Y-135371577D01*
X164020341Y-135371576D01*
X164024759Y-135366669D01*
X164097012Y-135241524D01*
X164116942Y-135207004D01*
X164116943Y-135207003D01*
X164120246Y-135201281D01*
X164179261Y-135019653D01*
X164180809Y-135004930D01*
X164181327Y-135000000D01*
X214466835Y-135000000D01*
X214485465Y-135236711D01*
X214486619Y-135241518D01*
X214486620Y-135241524D01*
X214498972Y-135292973D01*
X214540895Y-135467594D01*
X214542788Y-135472165D01*
X214542789Y-135472167D01*
X214619845Y-135658197D01*
X214631760Y-135686963D01*
X214634346Y-135691183D01*
X214753241Y-135885202D01*
X214753245Y-135885208D01*
X214755824Y-135889416D01*
X214910031Y-136069969D01*
X215090584Y-136224176D01*
X215094792Y-136226755D01*
X215094798Y-136226759D01*
X215277037Y-136338435D01*
X215293037Y-136348240D01*
X215297607Y-136350133D01*
X215297611Y-136350135D01*
X215484164Y-136427407D01*
X215512406Y-136439105D01*
X215592609Y-136458360D01*
X215738476Y-136493380D01*
X215738482Y-136493381D01*
X215743289Y-136494535D01*
X215980000Y-136513165D01*
X216216711Y-136494535D01*
X216221518Y-136493381D01*
X216221524Y-136493380D01*
X216367391Y-136458360D01*
X216447594Y-136439105D01*
X216475836Y-136427407D01*
X216662389Y-136350135D01*
X216662393Y-136350133D01*
X216666963Y-136348240D01*
X216682963Y-136338435D01*
X216865202Y-136226759D01*
X216865208Y-136226755D01*
X216869416Y-136224176D01*
X217049969Y-136069969D01*
X217204176Y-135889416D01*
X217206755Y-135885208D01*
X217206759Y-135885202D01*
X217325654Y-135691183D01*
X217328240Y-135686963D01*
X217340156Y-135658197D01*
X217417211Y-135472167D01*
X217417212Y-135472165D01*
X217419105Y-135467594D01*
X217461028Y-135292973D01*
X217473380Y-135241524D01*
X217473381Y-135241518D01*
X217474535Y-135236711D01*
X217493165Y-135000000D01*
X228966835Y-135000000D01*
X228985465Y-135236711D01*
X228986619Y-135241518D01*
X228986620Y-135241524D01*
X228998972Y-135292973D01*
X229040895Y-135467594D01*
X229042788Y-135472165D01*
X229042789Y-135472167D01*
X229119845Y-135658197D01*
X229131760Y-135686963D01*
X229134346Y-135691183D01*
X229253241Y-135885202D01*
X229253245Y-135885208D01*
X229255824Y-135889416D01*
X229410031Y-136069969D01*
X229590584Y-136224176D01*
X229594792Y-136226755D01*
X229594798Y-136226759D01*
X229777037Y-136338435D01*
X229793037Y-136348240D01*
X229797607Y-136350133D01*
X229797611Y-136350135D01*
X229984164Y-136427407D01*
X230012406Y-136439105D01*
X230092609Y-136458360D01*
X230238476Y-136493380D01*
X230238482Y-136493381D01*
X230243289Y-136494535D01*
X230480000Y-136513165D01*
X230716711Y-136494535D01*
X230721518Y-136493381D01*
X230721524Y-136493380D01*
X230867391Y-136458360D01*
X230947594Y-136439105D01*
X230975836Y-136427407D01*
X231162389Y-136350135D01*
X231162393Y-136350133D01*
X231166963Y-136348240D01*
X231182963Y-136338435D01*
X231365202Y-136226759D01*
X231365208Y-136226755D01*
X231369416Y-136224176D01*
X231549969Y-136069969D01*
X231704176Y-135889416D01*
X231706755Y-135885208D01*
X231706759Y-135885202D01*
X231825654Y-135691183D01*
X231828240Y-135686963D01*
X231840156Y-135658197D01*
X231917211Y-135472167D01*
X231917212Y-135472165D01*
X231919105Y-135467594D01*
X231961028Y-135292973D01*
X231973380Y-135241524D01*
X231973381Y-135241518D01*
X231974535Y-135236711D01*
X231993165Y-135000000D01*
X231974535Y-134763289D01*
X231965049Y-134723774D01*
X231920260Y-134537218D01*
X231919105Y-134532406D01*
X231890722Y-134463882D01*
X231830135Y-134317611D01*
X231830133Y-134317607D01*
X231828240Y-134313037D01*
X231812819Y-134287873D01*
X231706759Y-134114798D01*
X231706755Y-134114792D01*
X231704176Y-134110584D01*
X231549969Y-133930031D01*
X231369416Y-133775824D01*
X231365208Y-133773245D01*
X231365202Y-133773241D01*
X231171183Y-133654346D01*
X231166963Y-133651760D01*
X231162393Y-133649867D01*
X231162389Y-133649865D01*
X230952167Y-133562789D01*
X230952165Y-133562788D01*
X230947594Y-133560895D01*
X230867391Y-133541640D01*
X230721524Y-133506620D01*
X230721518Y-133506619D01*
X230716711Y-133505465D01*
X230480000Y-133486835D01*
X230243289Y-133505465D01*
X230238482Y-133506619D01*
X230238476Y-133506620D01*
X230092609Y-133541640D01*
X230012406Y-133560895D01*
X230007835Y-133562788D01*
X230007833Y-133562789D01*
X229797611Y-133649865D01*
X229797607Y-133649867D01*
X229793037Y-133651760D01*
X229788817Y-133654346D01*
X229594798Y-133773241D01*
X229594792Y-133773245D01*
X229590584Y-133775824D01*
X229410031Y-133930031D01*
X229255824Y-134110584D01*
X229253245Y-134114792D01*
X229253241Y-134114798D01*
X229147181Y-134287873D01*
X229131760Y-134313037D01*
X229129867Y-134317607D01*
X229129865Y-134317611D01*
X229069278Y-134463882D01*
X229040895Y-134532406D01*
X229039740Y-134537218D01*
X228994952Y-134723774D01*
X228985465Y-134763289D01*
X228966835Y-135000000D01*
X217493165Y-135000000D01*
X217474535Y-134763289D01*
X217465049Y-134723774D01*
X217420260Y-134537218D01*
X217419105Y-134532406D01*
X217390722Y-134463882D01*
X217330135Y-134317611D01*
X217330133Y-134317607D01*
X217328240Y-134313037D01*
X217312819Y-134287873D01*
X217206759Y-134114798D01*
X217206755Y-134114792D01*
X217204176Y-134110584D01*
X217049969Y-133930031D01*
X217046213Y-133926823D01*
X217046208Y-133926818D01*
X216951361Y-133845811D01*
X216912551Y-133786361D01*
X216912045Y-133715366D01*
X216951361Y-133654189D01*
X217046208Y-133573182D01*
X217046213Y-133573177D01*
X217049969Y-133569969D01*
X217204176Y-133389416D01*
X217206755Y-133385208D01*
X217206759Y-133385202D01*
X217325654Y-133191183D01*
X217328240Y-133186963D01*
X217372434Y-133080270D01*
X217417211Y-132972167D01*
X217417212Y-132972165D01*
X217419105Y-132967594D01*
X217464603Y-132778082D01*
X217473380Y-132741524D01*
X217473381Y-132741518D01*
X217474535Y-132736711D01*
X217493165Y-132500000D01*
X217474535Y-132263289D01*
X217456945Y-132190019D01*
X217434361Y-132095953D01*
X217419105Y-132032406D01*
X217341979Y-131846205D01*
X217330135Y-131817611D01*
X217330133Y-131817607D01*
X217328240Y-131813037D01*
X217324234Y-131806499D01*
X217204176Y-131610584D01*
X217206248Y-131609314D01*
X217185679Y-131551916D01*
X217201665Y-131482742D01*
X217235898Y-131443725D01*
X217343261Y-131363261D01*
X217430615Y-131246705D01*
X217481745Y-131110316D01*
X217488500Y-131048134D01*
X217488500Y-130000000D01*
X228966835Y-130000000D01*
X228985465Y-130236711D01*
X228986619Y-130241518D01*
X228986620Y-130241524D01*
X228994940Y-130276178D01*
X229040895Y-130467594D01*
X229042788Y-130472165D01*
X229042789Y-130472167D01*
X229097480Y-130604202D01*
X229131760Y-130686963D01*
X229134346Y-130691183D01*
X229253241Y-130885202D01*
X229253245Y-130885208D01*
X229255824Y-130889416D01*
X229410031Y-131069969D01*
X229590584Y-131224176D01*
X229594792Y-131226755D01*
X229594798Y-131226759D01*
X229788817Y-131345654D01*
X229793037Y-131348240D01*
X229797607Y-131350133D01*
X229797611Y-131350135D01*
X230007833Y-131437211D01*
X230012406Y-131439105D01*
X230031646Y-131443724D01*
X230238476Y-131493380D01*
X230238482Y-131493381D01*
X230243289Y-131494535D01*
X230480000Y-131513165D01*
X230716711Y-131494535D01*
X230721518Y-131493381D01*
X230721524Y-131493380D01*
X230928354Y-131443724D01*
X230947594Y-131439105D01*
X230952167Y-131437211D01*
X231162389Y-131350135D01*
X231162393Y-131350133D01*
X231166963Y-131348240D01*
X231171183Y-131345654D01*
X231365202Y-131226759D01*
X231365208Y-131226755D01*
X231369416Y-131224176D01*
X231549969Y-131069969D01*
X231704176Y-130889416D01*
X231706755Y-130885208D01*
X231706759Y-130885202D01*
X231825654Y-130691183D01*
X231828240Y-130686963D01*
X231862521Y-130604202D01*
X231917211Y-130472167D01*
X231917212Y-130472165D01*
X231919105Y-130467594D01*
X231965060Y-130276178D01*
X231973380Y-130241524D01*
X231973381Y-130241518D01*
X231974535Y-130236711D01*
X231993165Y-130000000D01*
X231974535Y-129763289D01*
X231954199Y-129678581D01*
X231920260Y-129537218D01*
X231919105Y-129532406D01*
X231898382Y-129482375D01*
X231830135Y-129317611D01*
X231830133Y-129317607D01*
X231828240Y-129313037D01*
X231811775Y-129286169D01*
X231706759Y-129114798D01*
X231706755Y-129114792D01*
X231704176Y-129110584D01*
X231568618Y-128951866D01*
X231553177Y-128933787D01*
X231549969Y-128930031D01*
X231369416Y-128775824D01*
X231365208Y-128773245D01*
X231365202Y-128773241D01*
X231171183Y-128654346D01*
X231166963Y-128651760D01*
X231162393Y-128649867D01*
X231162389Y-128649865D01*
X230952167Y-128562789D01*
X230952165Y-128562788D01*
X230947594Y-128560895D01*
X230867391Y-128541640D01*
X230721524Y-128506620D01*
X230721518Y-128506619D01*
X230716711Y-128505465D01*
X230480000Y-128486835D01*
X230243289Y-128505465D01*
X230238482Y-128506619D01*
X230238476Y-128506620D01*
X230092609Y-128541640D01*
X230012406Y-128560895D01*
X230007835Y-128562788D01*
X230007833Y-128562789D01*
X229797611Y-128649865D01*
X229797607Y-128649867D01*
X229793037Y-128651760D01*
X229788817Y-128654346D01*
X229594798Y-128773241D01*
X229594792Y-128773245D01*
X229590584Y-128775824D01*
X229410031Y-128930031D01*
X229406823Y-128933787D01*
X229391382Y-128951866D01*
X229255824Y-129110584D01*
X229253245Y-129114792D01*
X229253241Y-129114798D01*
X229148225Y-129286169D01*
X229131760Y-129313037D01*
X229129867Y-129317607D01*
X229129865Y-129317611D01*
X229061618Y-129482375D01*
X229040895Y-129532406D01*
X229039740Y-129537218D01*
X229005802Y-129678581D01*
X228985465Y-129763289D01*
X228966835Y-130000000D01*
X217488500Y-130000000D01*
X217488500Y-128951866D01*
X217481745Y-128889684D01*
X217430615Y-128753295D01*
X217343261Y-128636739D01*
X217226705Y-128549385D01*
X217090316Y-128498255D01*
X217028134Y-128491500D01*
X214931866Y-128491500D01*
X214869684Y-128498255D01*
X214733295Y-128549385D01*
X214616739Y-128636739D01*
X214529385Y-128753295D01*
X214478255Y-128889684D01*
X214471500Y-128951866D01*
X214471500Y-131048134D01*
X214478255Y-131110316D01*
X214529385Y-131246705D01*
X214616739Y-131363261D01*
X214724102Y-131443725D01*
X214766616Y-131500583D01*
X214771642Y-131571401D01*
X214754424Y-131609726D01*
X214755824Y-131610584D01*
X214635767Y-131806499D01*
X214631760Y-131813037D01*
X214629867Y-131817607D01*
X214629865Y-131817611D01*
X214618021Y-131846205D01*
X214540895Y-132032406D01*
X214525639Y-132095953D01*
X214503056Y-132190019D01*
X214485465Y-132263289D01*
X214466835Y-132500000D01*
X214485465Y-132736711D01*
X214486619Y-132741518D01*
X214486620Y-132741524D01*
X214495397Y-132778082D01*
X214540895Y-132967594D01*
X214542788Y-132972165D01*
X214542789Y-132972167D01*
X214587567Y-133080270D01*
X214631760Y-133186963D01*
X214634346Y-133191183D01*
X214753241Y-133385202D01*
X214753245Y-133385208D01*
X214755824Y-133389416D01*
X214910031Y-133569969D01*
X214913787Y-133573177D01*
X214913792Y-133573182D01*
X215008639Y-133654189D01*
X215047449Y-133713639D01*
X215047955Y-133784634D01*
X215008639Y-133845811D01*
X214913792Y-133926818D01*
X214913787Y-133926823D01*
X214910031Y-133930031D01*
X214755824Y-134110584D01*
X214753245Y-134114792D01*
X214753241Y-134114798D01*
X214647181Y-134287873D01*
X214631760Y-134313037D01*
X214629867Y-134317607D01*
X214629865Y-134317611D01*
X214569278Y-134463882D01*
X214540895Y-134532406D01*
X214539740Y-134537218D01*
X214494952Y-134723774D01*
X214485465Y-134763289D01*
X214466835Y-135000000D01*
X164181327Y-135000000D01*
X164198533Y-134836290D01*
X164199223Y-134829725D01*
X164187022Y-134713638D01*
X164179951Y-134646360D01*
X164179951Y-134646358D01*
X164179261Y-134639797D01*
X164120246Y-134458169D01*
X164024759Y-134292781D01*
X163969112Y-134230978D01*
X163901394Y-134155770D01*
X163901393Y-134155769D01*
X163896972Y-134150859D01*
X163797876Y-134078861D01*
X163747813Y-134042488D01*
X163747812Y-134042487D01*
X163742471Y-134038607D01*
X163736443Y-134035923D01*
X163736441Y-134035922D01*
X163574038Y-133963616D01*
X163574037Y-133963616D01*
X163568007Y-133960931D01*
X163474606Y-133941078D01*
X163387663Y-133922597D01*
X163387658Y-133922597D01*
X163381206Y-133921225D01*
X163190232Y-133921225D01*
X163183780Y-133922597D01*
X163183775Y-133922597D01*
X163096832Y-133941078D01*
X163003431Y-133960931D01*
X162997401Y-133963616D01*
X162997400Y-133963616D01*
X162834997Y-134035922D01*
X162834995Y-134035923D01*
X162828967Y-134038607D01*
X162823626Y-134042487D01*
X162823625Y-134042488D01*
X162773562Y-134078861D01*
X162674466Y-134150859D01*
X162670045Y-134155769D01*
X162670044Y-134155770D01*
X162602327Y-134230978D01*
X162546679Y-134292781D01*
X162451192Y-134458169D01*
X162392177Y-134639797D01*
X162391487Y-134646358D01*
X162391487Y-134646360D01*
X162384416Y-134713638D01*
X162372215Y-134829725D01*
X159533416Y-134829725D01*
X159543094Y-134737647D01*
X159540519Y-134713148D01*
X159523822Y-134554282D01*
X159523822Y-134554280D01*
X159523132Y-134547719D01*
X159464117Y-134366091D01*
X159368630Y-134200703D01*
X159240843Y-134058781D01*
X159086342Y-133946529D01*
X159080314Y-133943845D01*
X159080312Y-133943844D01*
X158917909Y-133871538D01*
X158917908Y-133871538D01*
X158911878Y-133868853D01*
X158803475Y-133845811D01*
X158731534Y-133830519D01*
X158731529Y-133830519D01*
X158725077Y-133829147D01*
X158534103Y-133829147D01*
X158527651Y-133830519D01*
X158527646Y-133830519D01*
X158455705Y-133845811D01*
X158347302Y-133868853D01*
X158341272Y-133871538D01*
X158341271Y-133871538D01*
X158178868Y-133943844D01*
X158178866Y-133943845D01*
X158172838Y-133946529D01*
X158018337Y-134058781D01*
X157890550Y-134200703D01*
X157795063Y-134366091D01*
X157736048Y-134547719D01*
X157735358Y-134554280D01*
X157735358Y-134554282D01*
X157718661Y-134713148D01*
X157716086Y-134737647D01*
X153943294Y-134737647D01*
X153941430Y-134719916D01*
X153882415Y-134538288D01*
X153786928Y-134372900D01*
X153763158Y-134346500D01*
X153663563Y-134235889D01*
X153663562Y-134235888D01*
X153659141Y-134230978D01*
X153560045Y-134158980D01*
X153509982Y-134122607D01*
X153509981Y-134122606D01*
X153504640Y-134118726D01*
X153498612Y-134116042D01*
X153498610Y-134116041D01*
X153336207Y-134043735D01*
X153336206Y-134043735D01*
X153330176Y-134041050D01*
X153236776Y-134021197D01*
X153149832Y-134002716D01*
X153149827Y-134002716D01*
X153143375Y-134001344D01*
X152952401Y-134001344D01*
X152945949Y-134002716D01*
X152945944Y-134002716D01*
X152859000Y-134021197D01*
X152765600Y-134041050D01*
X152759570Y-134043735D01*
X152759569Y-134043735D01*
X152597166Y-134116041D01*
X152597164Y-134116042D01*
X152591136Y-134118726D01*
X152585795Y-134122606D01*
X152585794Y-134122607D01*
X152535731Y-134158980D01*
X152436635Y-134230978D01*
X152432214Y-134235888D01*
X152432213Y-134235889D01*
X152332619Y-134346500D01*
X152308848Y-134372900D01*
X152213361Y-134538288D01*
X152154346Y-134719916D01*
X152134384Y-134909844D01*
X135321273Y-134909844D01*
X135312695Y-134883444D01*
X135217208Y-134718056D01*
X135146744Y-134639797D01*
X135093843Y-134581045D01*
X135093842Y-134581044D01*
X135089421Y-134576134D01*
X134934920Y-134463882D01*
X134928892Y-134461198D01*
X134928890Y-134461197D01*
X134766487Y-134388891D01*
X134766486Y-134388891D01*
X134760456Y-134386206D01*
X134665823Y-134366091D01*
X134580112Y-134347872D01*
X134580107Y-134347872D01*
X134573655Y-134346500D01*
X134382681Y-134346500D01*
X134376229Y-134347872D01*
X134376224Y-134347872D01*
X134290513Y-134366091D01*
X134195880Y-134386206D01*
X134189850Y-134388891D01*
X134189849Y-134388891D01*
X134027446Y-134461197D01*
X134027444Y-134461198D01*
X134021416Y-134463882D01*
X133866915Y-134576134D01*
X133862494Y-134581044D01*
X133862493Y-134581045D01*
X133809593Y-134639797D01*
X133739128Y-134718056D01*
X133643641Y-134883444D01*
X133584626Y-135065072D01*
X133583936Y-135071633D01*
X133583936Y-135071635D01*
X133567105Y-135231777D01*
X133564664Y-135255000D01*
X132090430Y-135255000D01*
X132086717Y-132714999D01*
X143832866Y-132714999D01*
X143852828Y-132904927D01*
X143911843Y-133086555D01*
X144007330Y-133251943D01*
X144135117Y-133393865D01*
X144289618Y-133506117D01*
X144295646Y-133508801D01*
X144295648Y-133508802D01*
X144440249Y-133573182D01*
X144464082Y-133583793D01*
X144557482Y-133603646D01*
X144644426Y-133622127D01*
X144644431Y-133622127D01*
X144650883Y-133623499D01*
X144841857Y-133623499D01*
X144848309Y-133622127D01*
X144848314Y-133622127D01*
X144935258Y-133603646D01*
X145028658Y-133583793D01*
X145052491Y-133573182D01*
X145197092Y-133508802D01*
X145197094Y-133508801D01*
X145203122Y-133506117D01*
X145357623Y-133393865D01*
X145485410Y-133251943D01*
X145580897Y-133086555D01*
X145639912Y-132904927D01*
X145659874Y-132714999D01*
X145641338Y-132538641D01*
X145640602Y-132531634D01*
X145640602Y-132531632D01*
X145639912Y-132525071D01*
X145580897Y-132343443D01*
X145485410Y-132178055D01*
X145357623Y-132036133D01*
X145203122Y-131923881D01*
X145197094Y-131921197D01*
X145197092Y-131921196D01*
X145034689Y-131848890D01*
X145034688Y-131848890D01*
X145028658Y-131846205D01*
X144935257Y-131826352D01*
X144848314Y-131807871D01*
X144848309Y-131807871D01*
X144841857Y-131806499D01*
X144650883Y-131806499D01*
X144644431Y-131807871D01*
X144644426Y-131807871D01*
X144557483Y-131826352D01*
X144464082Y-131846205D01*
X144458052Y-131848890D01*
X144458051Y-131848890D01*
X144295648Y-131921196D01*
X144295646Y-131921197D01*
X144289618Y-131923881D01*
X144135117Y-132036133D01*
X144007330Y-132178055D01*
X143911843Y-132343443D01*
X143852828Y-132525071D01*
X143852138Y-132531632D01*
X143852138Y-132531634D01*
X143851402Y-132538641D01*
X143832866Y-132714999D01*
X132086717Y-132714999D01*
X132082076Y-129540000D01*
X143866496Y-129540000D01*
X143886458Y-129729928D01*
X143945473Y-129911556D01*
X144040960Y-130076944D01*
X144045378Y-130081851D01*
X144045379Y-130081852D01*
X144164325Y-130213955D01*
X144168747Y-130218866D01*
X144323248Y-130331118D01*
X144329276Y-130333802D01*
X144329278Y-130333803D01*
X144371365Y-130352541D01*
X144497712Y-130408794D01*
X144580043Y-130426294D01*
X144678056Y-130447128D01*
X144678061Y-130447128D01*
X144684513Y-130448500D01*
X144875487Y-130448500D01*
X144881939Y-130447128D01*
X144881944Y-130447128D01*
X144979957Y-130426294D01*
X145062288Y-130408794D01*
X145188635Y-130352541D01*
X145230722Y-130333803D01*
X145230724Y-130333802D01*
X145236752Y-130331118D01*
X145391253Y-130218866D01*
X145395675Y-130213955D01*
X145514621Y-130081852D01*
X145514622Y-130081851D01*
X145519040Y-130076944D01*
X145614527Y-129911556D01*
X145673542Y-129729928D01*
X145693504Y-129540000D01*
X150858298Y-129540000D01*
X150878260Y-129729928D01*
X150937275Y-129911556D01*
X151032762Y-130076944D01*
X151037180Y-130081851D01*
X151037181Y-130081852D01*
X151156127Y-130213955D01*
X151160549Y-130218866D01*
X151315050Y-130331118D01*
X151321078Y-130333802D01*
X151321080Y-130333803D01*
X151363167Y-130352541D01*
X151489514Y-130408794D01*
X151571845Y-130426294D01*
X151669858Y-130447128D01*
X151669863Y-130447128D01*
X151676315Y-130448500D01*
X151867289Y-130448500D01*
X151873741Y-130447128D01*
X151873746Y-130447128D01*
X151971759Y-130426294D01*
X152054090Y-130408794D01*
X152180437Y-130352541D01*
X152222524Y-130333803D01*
X152222526Y-130333802D01*
X152228554Y-130331118D01*
X152383055Y-130218866D01*
X152387477Y-130213955D01*
X152506423Y-130081852D01*
X152506424Y-130081851D01*
X152510842Y-130076944D01*
X152606329Y-129911556D01*
X152665344Y-129729928D01*
X152685306Y-129540000D01*
X152679939Y-129488940D01*
X152679249Y-129482375D01*
X157469745Y-129482375D01*
X157470435Y-129488940D01*
X157476492Y-129546565D01*
X157489707Y-129672303D01*
X157548722Y-129853931D01*
X157552025Y-129859653D01*
X157552026Y-129859654D01*
X157578363Y-129905271D01*
X157644209Y-130019319D01*
X157648627Y-130024226D01*
X157648628Y-130024227D01*
X157767574Y-130156330D01*
X157771996Y-130161241D01*
X157844550Y-130213955D01*
X157894944Y-130250568D01*
X157926497Y-130273493D01*
X157932525Y-130276177D01*
X157932527Y-130276178D01*
X158055925Y-130331118D01*
X158100961Y-130351169D01*
X158194362Y-130371022D01*
X158281305Y-130389503D01*
X158281310Y-130389503D01*
X158287762Y-130390875D01*
X158478736Y-130390875D01*
X158485188Y-130389503D01*
X158485193Y-130389503D01*
X158572136Y-130371022D01*
X158665537Y-130351169D01*
X158710573Y-130331118D01*
X158833971Y-130276178D01*
X158833973Y-130276177D01*
X158840001Y-130273493D01*
X158871555Y-130250568D01*
X158921948Y-130213955D01*
X158994502Y-130161241D01*
X158998924Y-130156330D01*
X159117870Y-130024227D01*
X159117871Y-130024226D01*
X159122289Y-130019319D01*
X159188135Y-129905271D01*
X159214472Y-129859654D01*
X159214473Y-129859653D01*
X159217776Y-129853931D01*
X159276791Y-129672303D01*
X159290007Y-129546565D01*
X159296063Y-129488940D01*
X159296753Y-129482375D01*
X159276791Y-129292447D01*
X159217776Y-129110819D01*
X159122289Y-128945431D01*
X159042892Y-128857251D01*
X158998924Y-128808420D01*
X158998923Y-128808419D01*
X158994502Y-128803509D01*
X158840001Y-128691257D01*
X158833973Y-128688573D01*
X158833971Y-128688572D01*
X158671568Y-128616266D01*
X158671567Y-128616266D01*
X158665537Y-128613581D01*
X158572136Y-128593728D01*
X158485193Y-128575247D01*
X158485188Y-128575247D01*
X158478736Y-128573875D01*
X158287762Y-128573875D01*
X158281310Y-128575247D01*
X158281305Y-128575247D01*
X158194362Y-128593728D01*
X158100961Y-128613581D01*
X158094931Y-128616266D01*
X158094930Y-128616266D01*
X157932527Y-128688572D01*
X157932525Y-128688573D01*
X157926497Y-128691257D01*
X157771996Y-128803509D01*
X157767575Y-128808419D01*
X157767574Y-128808420D01*
X157723607Y-128857251D01*
X157644209Y-128945431D01*
X157548722Y-129110819D01*
X157489707Y-129292447D01*
X157469745Y-129482375D01*
X152679249Y-129482375D01*
X152666034Y-129356635D01*
X152666034Y-129356633D01*
X152665344Y-129350072D01*
X152606329Y-129168444D01*
X152510842Y-129003056D01*
X152464751Y-128951866D01*
X152387477Y-128866045D01*
X152387476Y-128866044D01*
X152383055Y-128861134D01*
X152228554Y-128748882D01*
X152222526Y-128746198D01*
X152222524Y-128746197D01*
X152060121Y-128673891D01*
X152060120Y-128673891D01*
X152054090Y-128671206D01*
X151953689Y-128649865D01*
X151873746Y-128632872D01*
X151873741Y-128632872D01*
X151867289Y-128631500D01*
X151676315Y-128631500D01*
X151669863Y-128632872D01*
X151669858Y-128632872D01*
X151589915Y-128649865D01*
X151489514Y-128671206D01*
X151483484Y-128673891D01*
X151483483Y-128673891D01*
X151321080Y-128746197D01*
X151321078Y-128746198D01*
X151315050Y-128748882D01*
X151160549Y-128861134D01*
X151156128Y-128866044D01*
X151156127Y-128866045D01*
X151078854Y-128951866D01*
X151032762Y-129003056D01*
X150937275Y-129168444D01*
X150878260Y-129350072D01*
X150877570Y-129356633D01*
X150877570Y-129356635D01*
X150863665Y-129488940D01*
X150858298Y-129540000D01*
X145693504Y-129540000D01*
X145688137Y-129488940D01*
X145674232Y-129356635D01*
X145674232Y-129356633D01*
X145673542Y-129350072D01*
X145614527Y-129168444D01*
X145519040Y-129003056D01*
X145472949Y-128951866D01*
X145395675Y-128866045D01*
X145395674Y-128866044D01*
X145391253Y-128861134D01*
X145236752Y-128748882D01*
X145230724Y-128746198D01*
X145230722Y-128746197D01*
X145068319Y-128673891D01*
X145068318Y-128673891D01*
X145062288Y-128671206D01*
X144961887Y-128649865D01*
X144881944Y-128632872D01*
X144881939Y-128632872D01*
X144875487Y-128631500D01*
X144684513Y-128631500D01*
X144678061Y-128632872D01*
X144678056Y-128632872D01*
X144598113Y-128649865D01*
X144497712Y-128671206D01*
X144491682Y-128673891D01*
X144491681Y-128673891D01*
X144329278Y-128746197D01*
X144329276Y-128746198D01*
X144323248Y-128748882D01*
X144168747Y-128861134D01*
X144164326Y-128866044D01*
X144164325Y-128866045D01*
X144087052Y-128951866D01*
X144040960Y-129003056D01*
X143945473Y-129168444D01*
X143886458Y-129350072D01*
X143885768Y-129356633D01*
X143885768Y-129356635D01*
X143871863Y-129488940D01*
X143866496Y-129540000D01*
X132082076Y-129540000D01*
X132080000Y-128120000D01*
X132074678Y-128120000D01*
X132072513Y-128112666D01*
X132045118Y-128070174D01*
X132045014Y-127999177D01*
X132077713Y-127948134D01*
X221371500Y-127948134D01*
X221378255Y-128010316D01*
X221429385Y-128146705D01*
X221516739Y-128263261D01*
X221633295Y-128350615D01*
X221769684Y-128401745D01*
X221831866Y-128408500D01*
X225128134Y-128408500D01*
X225190316Y-128401745D01*
X225326705Y-128350615D01*
X225443261Y-128263261D01*
X225530615Y-128146705D01*
X225581745Y-128010316D01*
X225588500Y-127948134D01*
X225588500Y-125851866D01*
X225581745Y-125789684D01*
X225530615Y-125653295D01*
X225443261Y-125536739D01*
X225326705Y-125449385D01*
X225190316Y-125398255D01*
X225128134Y-125391500D01*
X221831866Y-125391500D01*
X221769684Y-125398255D01*
X221633295Y-125449385D01*
X221516739Y-125536739D01*
X221429385Y-125653295D01*
X221378255Y-125789684D01*
X221371500Y-125851866D01*
X221371500Y-127948134D01*
X132077713Y-127948134D01*
X132083311Y-127939396D01*
X132147849Y-127909809D01*
X132165962Y-127908500D01*
X132175487Y-127908500D01*
X132181939Y-127907128D01*
X132181944Y-127907128D01*
X132268888Y-127888647D01*
X132362288Y-127868794D01*
X132368319Y-127866109D01*
X132530722Y-127793803D01*
X132530724Y-127793802D01*
X132536752Y-127791118D01*
X132691253Y-127678866D01*
X132819040Y-127536944D01*
X132914527Y-127371556D01*
X132973542Y-127189928D01*
X132993504Y-127000000D01*
X143866496Y-127000000D01*
X143886458Y-127189928D01*
X143945473Y-127371556D01*
X144040960Y-127536944D01*
X144168747Y-127678866D01*
X144323248Y-127791118D01*
X144329276Y-127793802D01*
X144329278Y-127793803D01*
X144491681Y-127866109D01*
X144497712Y-127868794D01*
X144591112Y-127888647D01*
X144678056Y-127907128D01*
X144678061Y-127907128D01*
X144684513Y-127908500D01*
X144875487Y-127908500D01*
X144881939Y-127907128D01*
X144881944Y-127907128D01*
X144968888Y-127888647D01*
X145062288Y-127868794D01*
X145068319Y-127866109D01*
X145230722Y-127793803D01*
X145230724Y-127793802D01*
X145236752Y-127791118D01*
X145391253Y-127678866D01*
X145519040Y-127536944D01*
X145614527Y-127371556D01*
X145673542Y-127189928D01*
X145693504Y-127000000D01*
X145673542Y-126810072D01*
X145614527Y-126628444D01*
X145519040Y-126463056D01*
X145391253Y-126321134D01*
X145236752Y-126208882D01*
X145230724Y-126206198D01*
X145230722Y-126206197D01*
X145068319Y-126133891D01*
X145068318Y-126133891D01*
X145062288Y-126131206D01*
X144968887Y-126111353D01*
X144881944Y-126092872D01*
X144881939Y-126092872D01*
X144875487Y-126091500D01*
X144684513Y-126091500D01*
X144678061Y-126092872D01*
X144678056Y-126092872D01*
X144591113Y-126111353D01*
X144497712Y-126131206D01*
X144491682Y-126133891D01*
X144491681Y-126133891D01*
X144329278Y-126206197D01*
X144329276Y-126206198D01*
X144323248Y-126208882D01*
X144168747Y-126321134D01*
X144040960Y-126463056D01*
X143945473Y-126628444D01*
X143886458Y-126810072D01*
X143866496Y-127000000D01*
X132993504Y-127000000D01*
X132973542Y-126810072D01*
X132914527Y-126628444D01*
X132819040Y-126463056D01*
X132691253Y-126321134D01*
X132536752Y-126208882D01*
X132530724Y-126206198D01*
X132530722Y-126206197D01*
X132368319Y-126133891D01*
X132368318Y-126133891D01*
X132362288Y-126131206D01*
X132268887Y-126111353D01*
X132181944Y-126092872D01*
X132181939Y-126092872D01*
X132175487Y-126091500D01*
X131984513Y-126091500D01*
X131978061Y-126092872D01*
X131978056Y-126092872D01*
X131891113Y-126111353D01*
X131797712Y-126131206D01*
X131791682Y-126133891D01*
X131791681Y-126133891D01*
X131629278Y-126206197D01*
X131629276Y-126206198D01*
X131623248Y-126208882D01*
X131468747Y-126321134D01*
X131340960Y-126463056D01*
X131245473Y-126628444D01*
X131186458Y-126810072D01*
X131166496Y-127000000D01*
X131186458Y-127189928D01*
X131245473Y-127371556D01*
X131340960Y-127536944D01*
X131468747Y-127678866D01*
X131623248Y-127791118D01*
X131629276Y-127793802D01*
X131629278Y-127793803D01*
X131791681Y-127866109D01*
X131797712Y-127868794D01*
X131804167Y-127870166D01*
X131804176Y-127870169D01*
X131806929Y-127870754D01*
X131808368Y-127871531D01*
X131810452Y-127872208D01*
X131810328Y-127872589D01*
X131869402Y-127904482D01*
X131903723Y-127966632D01*
X131898995Y-128037471D01*
X131856718Y-128094508D01*
X131790317Y-128119635D01*
X131780731Y-128120000D01*
X127000000Y-128120000D01*
X127000000Y-141166913D01*
X100508500Y-141166913D01*
X100508500Y-139432925D01*
X101421645Y-139432925D01*
X101424909Y-139468794D01*
X101437624Y-139608500D01*
X101439570Y-139629888D01*
X101441308Y-139635794D01*
X101441309Y-139635798D01*
X101449904Y-139665000D01*
X101495410Y-139819619D01*
X101498263Y-139825077D01*
X101498265Y-139825081D01*
X101545720Y-139915853D01*
X101587040Y-139994890D01*
X101710968Y-140149025D01*
X101715692Y-140152989D01*
X101722933Y-140159065D01*
X101862474Y-140276154D01*
X101867872Y-140279121D01*
X101867877Y-140279125D01*
X101976709Y-140338955D01*
X102035787Y-140371433D01*
X102041654Y-140373294D01*
X102041656Y-140373295D01*
X102218436Y-140429373D01*
X102224306Y-140431235D01*
X102378227Y-140448500D01*
X103084769Y-140448500D01*
X103087825Y-140448200D01*
X103087832Y-140448200D01*
X103146340Y-140442463D01*
X103231833Y-140434080D01*
X103237734Y-140432298D01*
X103237736Y-140432298D01*
X103311053Y-140410162D01*
X103421169Y-140376916D01*
X103595796Y-140284066D01*
X103690221Y-140207055D01*
X103744287Y-140162960D01*
X103744290Y-140162957D01*
X103749062Y-140159065D01*
X103822707Y-140070044D01*
X103871201Y-140011425D01*
X103871203Y-140011421D01*
X103875130Y-140006675D01*
X103969198Y-139832701D01*
X104027682Y-139643768D01*
X104032390Y-139598971D01*
X104047711Y-139453204D01*
X104047711Y-139453202D01*
X104048355Y-139447075D01*
X104047067Y-139432925D01*
X105321645Y-139432925D01*
X105324909Y-139468794D01*
X105337624Y-139608500D01*
X105339570Y-139629888D01*
X105341308Y-139635794D01*
X105341309Y-139635798D01*
X105349904Y-139665000D01*
X105395410Y-139819619D01*
X105398263Y-139825077D01*
X105398265Y-139825081D01*
X105445720Y-139915853D01*
X105487040Y-139994890D01*
X105610968Y-140149025D01*
X105615692Y-140152989D01*
X105622933Y-140159065D01*
X105762474Y-140276154D01*
X105767872Y-140279121D01*
X105767877Y-140279125D01*
X105876709Y-140338955D01*
X105935787Y-140371433D01*
X105941654Y-140373294D01*
X105941656Y-140373295D01*
X106118436Y-140429373D01*
X106124306Y-140431235D01*
X106278227Y-140448500D01*
X107484769Y-140448500D01*
X107487825Y-140448200D01*
X107487832Y-140448200D01*
X107546340Y-140442463D01*
X107631833Y-140434080D01*
X107637734Y-140432298D01*
X107637736Y-140432298D01*
X107711053Y-140410162D01*
X107821169Y-140376916D01*
X107995796Y-140284066D01*
X108090221Y-140207055D01*
X108144287Y-140162960D01*
X108144290Y-140162957D01*
X108149062Y-140159065D01*
X108222707Y-140070044D01*
X108271201Y-140011425D01*
X108271203Y-140011421D01*
X108275130Y-140006675D01*
X108369198Y-139832701D01*
X108421110Y-139665000D01*
X110811496Y-139665000D01*
X110812186Y-139671565D01*
X110827736Y-139819511D01*
X110831458Y-139854928D01*
X110890473Y-140036556D01*
X110985960Y-140201944D01*
X111113747Y-140343866D01*
X111212843Y-140415864D01*
X111238743Y-140434681D01*
X111268248Y-140456118D01*
X111274276Y-140458802D01*
X111274278Y-140458803D01*
X111436681Y-140531109D01*
X111442712Y-140533794D01*
X111508572Y-140547793D01*
X111623056Y-140572128D01*
X111623061Y-140572128D01*
X111629513Y-140573500D01*
X111820487Y-140573500D01*
X111826939Y-140572128D01*
X111826944Y-140572128D01*
X111941428Y-140547793D01*
X112007288Y-140533794D01*
X112013319Y-140531109D01*
X112175722Y-140458803D01*
X112175724Y-140458802D01*
X112181752Y-140456118D01*
X112211258Y-140434681D01*
X112237157Y-140415864D01*
X112336253Y-140343866D01*
X112464040Y-140201944D01*
X112559527Y-140036556D01*
X112618542Y-139854928D01*
X112622265Y-139819511D01*
X112637814Y-139671565D01*
X112638504Y-139665000D01*
X112618542Y-139475072D01*
X112559527Y-139293444D01*
X112464040Y-139128056D01*
X112456398Y-139119568D01*
X112340675Y-138991045D01*
X112340674Y-138991044D01*
X112336253Y-138986134D01*
X112181752Y-138873882D01*
X112175724Y-138871198D01*
X112175722Y-138871197D01*
X112013319Y-138798891D01*
X112013318Y-138798891D01*
X112007288Y-138796206D01*
X111902451Y-138773922D01*
X111826944Y-138757872D01*
X111826939Y-138757872D01*
X111820487Y-138756500D01*
X111629513Y-138756500D01*
X111623061Y-138757872D01*
X111623056Y-138757872D01*
X111547549Y-138773922D01*
X111442712Y-138796206D01*
X111436682Y-138798891D01*
X111436681Y-138798891D01*
X111274278Y-138871197D01*
X111274276Y-138871198D01*
X111268248Y-138873882D01*
X111113747Y-138986134D01*
X111109326Y-138991044D01*
X111109325Y-138991045D01*
X110993603Y-139119568D01*
X110985960Y-139128056D01*
X110890473Y-139293444D01*
X110831458Y-139475072D01*
X110811496Y-139665000D01*
X108421110Y-139665000D01*
X108427682Y-139643768D01*
X108432390Y-139598971D01*
X108447711Y-139453204D01*
X108447711Y-139453202D01*
X108448355Y-139447075D01*
X108438539Y-139339214D01*
X108430989Y-139256251D01*
X108430988Y-139256248D01*
X108430430Y-139250112D01*
X108421369Y-139219323D01*
X108395877Y-139132710D01*
X108374590Y-139060381D01*
X108364919Y-139041881D01*
X108316503Y-138949272D01*
X108282960Y-138885110D01*
X108159032Y-138730975D01*
X108152727Y-138725684D01*
X108050530Y-138639931D01*
X108007526Y-138603846D01*
X108002128Y-138600879D01*
X108002123Y-138600875D01*
X107839608Y-138511533D01*
X107839609Y-138511533D01*
X107834213Y-138508567D01*
X107828346Y-138506706D01*
X107828344Y-138506705D01*
X107651564Y-138450627D01*
X107651563Y-138450627D01*
X107645694Y-138448765D01*
X107491773Y-138431500D01*
X107300223Y-138431500D01*
X107232102Y-138411498D01*
X107185609Y-138357842D01*
X107175505Y-138287568D01*
X107183234Y-138258708D01*
X107189995Y-138241803D01*
X107192530Y-138235466D01*
X107193644Y-138228738D01*
X107193645Y-138228734D01*
X107220993Y-138063539D01*
X107220993Y-138063536D01*
X107222108Y-138056802D01*
X107217561Y-137970028D01*
X107212987Y-137882766D01*
X107212630Y-137875953D01*
X107189304Y-137791266D01*
X107166352Y-137707941D01*
X107164539Y-137701359D01*
X107080078Y-137541164D01*
X107075673Y-137535951D01*
X107075670Y-137535947D01*
X106967594Y-137408057D01*
X106967590Y-137408053D01*
X106963187Y-137402843D01*
X106954947Y-137396543D01*
X106824743Y-137296994D01*
X106824739Y-137296991D01*
X106819322Y-137292850D01*
X106699290Y-137236878D01*
X106661369Y-137219195D01*
X106661366Y-137219194D01*
X106655192Y-137216315D01*
X106648544Y-137214829D01*
X106648541Y-137214828D01*
X106483494Y-137177936D01*
X106483495Y-137177936D01*
X106478457Y-137176810D01*
X106472912Y-137176500D01*
X106339756Y-137176500D01*
X106204963Y-137191143D01*
X106121609Y-137219195D01*
X106039796Y-137246728D01*
X106039794Y-137246729D01*
X106033325Y-137248906D01*
X105878095Y-137342177D01*
X105873138Y-137346865D01*
X105873135Y-137346867D01*
X105823275Y-137394018D01*
X105746515Y-137466607D01*
X105742683Y-137472245D01*
X105742680Y-137472249D01*
X105666806Y-137583894D01*
X105644723Y-137616388D01*
X105577470Y-137784534D01*
X105576356Y-137791262D01*
X105576355Y-137791266D01*
X105549007Y-137956461D01*
X105547892Y-137963198D01*
X105548249Y-137970015D01*
X105548249Y-137970019D01*
X105552993Y-138060530D01*
X105557370Y-138144047D01*
X105559181Y-138150620D01*
X105559181Y-138150623D01*
X105582551Y-138235466D01*
X105605461Y-138318641D01*
X105689922Y-138478836D01*
X105694331Y-138484053D01*
X105700129Y-138490914D01*
X105728822Y-138555853D01*
X105717852Y-138625997D01*
X105683529Y-138669887D01*
X105625713Y-138717040D01*
X105625710Y-138717043D01*
X105620938Y-138720935D01*
X105617011Y-138725682D01*
X105617009Y-138725684D01*
X105498799Y-138868575D01*
X105498797Y-138868579D01*
X105494870Y-138873325D01*
X105400802Y-139047299D01*
X105342318Y-139236232D01*
X105341674Y-139242357D01*
X105341674Y-139242358D01*
X105335806Y-139298195D01*
X105321645Y-139432925D01*
X104047067Y-139432925D01*
X104038539Y-139339214D01*
X104030989Y-139256251D01*
X104030988Y-139256248D01*
X104030430Y-139250112D01*
X104021369Y-139219323D01*
X103995877Y-139132710D01*
X103974590Y-139060381D01*
X103964919Y-139041881D01*
X103916503Y-138949272D01*
X103882960Y-138885110D01*
X103759032Y-138730975D01*
X103752727Y-138725684D01*
X103650530Y-138639931D01*
X103607526Y-138603846D01*
X103602128Y-138600879D01*
X103602123Y-138600875D01*
X103439608Y-138511533D01*
X103439609Y-138511533D01*
X103434213Y-138508567D01*
X103428346Y-138506706D01*
X103428344Y-138506705D01*
X103251564Y-138450627D01*
X103251563Y-138450627D01*
X103245694Y-138448765D01*
X103091773Y-138431500D01*
X102385231Y-138431500D01*
X102382175Y-138431800D01*
X102382168Y-138431800D01*
X102323660Y-138437537D01*
X102238167Y-138445920D01*
X102232266Y-138447702D01*
X102232264Y-138447702D01*
X102215750Y-138452688D01*
X102048831Y-138503084D01*
X101874204Y-138595934D01*
X101815284Y-138643988D01*
X101725713Y-138717040D01*
X101725710Y-138717043D01*
X101720938Y-138720935D01*
X101717011Y-138725682D01*
X101717009Y-138725684D01*
X101598799Y-138868575D01*
X101598797Y-138868579D01*
X101594870Y-138873325D01*
X101500802Y-139047299D01*
X101442318Y-139236232D01*
X101441674Y-139242357D01*
X101441674Y-139242358D01*
X101435806Y-139298195D01*
X101421645Y-139432925D01*
X100508500Y-139432925D01*
X100508500Y-136159082D01*
X109353900Y-136159082D01*
X109354590Y-136165647D01*
X109372751Y-136338435D01*
X109373862Y-136349010D01*
X109432877Y-136530638D01*
X109528364Y-136696026D01*
X109656151Y-136837948D01*
X109810652Y-136950200D01*
X109816680Y-136952884D01*
X109816682Y-136952885D01*
X109978665Y-137025004D01*
X109985116Y-137027876D01*
X110078516Y-137047729D01*
X110165460Y-137066210D01*
X110165465Y-137066210D01*
X110171917Y-137067582D01*
X110362891Y-137067582D01*
X110369343Y-137066210D01*
X110369348Y-137066210D01*
X110456292Y-137047729D01*
X110549692Y-137027876D01*
X110556143Y-137025004D01*
X110718126Y-136952885D01*
X110718128Y-136952884D01*
X110724156Y-136950200D01*
X110878657Y-136837948D01*
X111006444Y-136696026D01*
X111101931Y-136530638D01*
X111160946Y-136349010D01*
X111162058Y-136338435D01*
X111180218Y-136165647D01*
X111180908Y-136159082D01*
X111163887Y-135997134D01*
X111161636Y-135975717D01*
X111161636Y-135975715D01*
X111160946Y-135969154D01*
X111101931Y-135787526D01*
X111006444Y-135622138D01*
X110992311Y-135606441D01*
X110883079Y-135485127D01*
X110883078Y-135485126D01*
X110878657Y-135480216D01*
X110724156Y-135367964D01*
X110718128Y-135365280D01*
X110718126Y-135365279D01*
X110555723Y-135292973D01*
X110555722Y-135292973D01*
X110549692Y-135290288D01*
X110448943Y-135268873D01*
X110369348Y-135251954D01*
X110369343Y-135251954D01*
X110362891Y-135250582D01*
X110171917Y-135250582D01*
X110165465Y-135251954D01*
X110165460Y-135251954D01*
X110085865Y-135268873D01*
X109985116Y-135290288D01*
X109979086Y-135292973D01*
X109979085Y-135292973D01*
X109816682Y-135365279D01*
X109816680Y-135365280D01*
X109810652Y-135367964D01*
X109656151Y-135480216D01*
X109651730Y-135485126D01*
X109651729Y-135485127D01*
X109542498Y-135606441D01*
X109528364Y-135622138D01*
X109432877Y-135787526D01*
X109373862Y-135969154D01*
X109373172Y-135975715D01*
X109373172Y-135975717D01*
X109370921Y-135997134D01*
X109353900Y-136159082D01*
X100508500Y-136159082D01*
X100508500Y-130792925D01*
X101421645Y-130792925D01*
X101439570Y-130989888D01*
X101495410Y-131179619D01*
X101498263Y-131185077D01*
X101498265Y-131185081D01*
X101517025Y-131220965D01*
X101587040Y-131354890D01*
X101710968Y-131509025D01*
X101715692Y-131512989D01*
X101722933Y-131519065D01*
X101862474Y-131636154D01*
X101867872Y-131639121D01*
X101867877Y-131639125D01*
X101954248Y-131686607D01*
X102035787Y-131731433D01*
X102041654Y-131733294D01*
X102041656Y-131733295D01*
X102063143Y-131740111D01*
X102224306Y-131791235D01*
X102378227Y-131808500D01*
X103084769Y-131808500D01*
X103087825Y-131808200D01*
X103087832Y-131808200D01*
X103146340Y-131802463D01*
X103231833Y-131794080D01*
X103237734Y-131792298D01*
X103237736Y-131792298D01*
X103311053Y-131770162D01*
X103421169Y-131736916D01*
X103595796Y-131644066D01*
X103708783Y-131551916D01*
X103744287Y-131522960D01*
X103744290Y-131522957D01*
X103749062Y-131519065D01*
X103769355Y-131494535D01*
X103871201Y-131371425D01*
X103871203Y-131371421D01*
X103875130Y-131366675D01*
X103969198Y-131192701D01*
X104027682Y-131003768D01*
X104048355Y-130807075D01*
X104047067Y-130792925D01*
X105321645Y-130792925D01*
X105339570Y-130989888D01*
X105395410Y-131179619D01*
X105398263Y-131185077D01*
X105398265Y-131185081D01*
X105417025Y-131220965D01*
X105487040Y-131354890D01*
X105610968Y-131509025D01*
X105685305Y-131571401D01*
X105686933Y-131572767D01*
X105726259Y-131631877D01*
X105727385Y-131702864D01*
X105710153Y-131740111D01*
X105675409Y-131791235D01*
X105644723Y-131836388D01*
X105577470Y-132004534D01*
X105576356Y-132011262D01*
X105576355Y-132011266D01*
X105549556Y-132173147D01*
X105547892Y-132183198D01*
X105548249Y-132190015D01*
X105548249Y-132190019D01*
X105553151Y-132283539D01*
X105557370Y-132364047D01*
X105559181Y-132370620D01*
X105559181Y-132370623D01*
X105596175Y-132504930D01*
X105605461Y-132538641D01*
X105689922Y-132698836D01*
X105694327Y-132704049D01*
X105694330Y-132704053D01*
X105802406Y-132831943D01*
X105802410Y-132831947D01*
X105806813Y-132837157D01*
X105812237Y-132841304D01*
X105812238Y-132841305D01*
X105945257Y-132943006D01*
X105945261Y-132943009D01*
X105950678Y-132947150D01*
X106037372Y-132987576D01*
X106108631Y-133020805D01*
X106108634Y-133020806D01*
X106114808Y-133023685D01*
X106121456Y-133025171D01*
X106121459Y-133025172D01*
X106227421Y-133048857D01*
X106291543Y-133063190D01*
X106297088Y-133063500D01*
X106430244Y-133063500D01*
X106565037Y-133048857D01*
X106683190Y-133009094D01*
X106730204Y-132993272D01*
X106730206Y-132993271D01*
X106736675Y-132991094D01*
X106891905Y-132897823D01*
X106896862Y-132893135D01*
X106896865Y-132893133D01*
X107018527Y-132778082D01*
X107018529Y-132778080D01*
X107023485Y-132773393D01*
X107027317Y-132767755D01*
X107027320Y-132767751D01*
X107121442Y-132629255D01*
X107125277Y-132623612D01*
X107192530Y-132455466D01*
X107193644Y-132448738D01*
X107193645Y-132448734D01*
X107220993Y-132283539D01*
X107220993Y-132283536D01*
X107222108Y-132276802D01*
X107221659Y-132268223D01*
X107212987Y-132102766D01*
X107212630Y-132095953D01*
X107195084Y-132032250D01*
X107177375Y-131967960D01*
X107178569Y-131896973D01*
X107217952Y-131837901D01*
X107283019Y-131809499D01*
X107298851Y-131808500D01*
X107484769Y-131808500D01*
X107487825Y-131808200D01*
X107487832Y-131808200D01*
X107546340Y-131802463D01*
X107631833Y-131794080D01*
X107637734Y-131792298D01*
X107637736Y-131792298D01*
X107711053Y-131770162D01*
X107821169Y-131736916D01*
X107995796Y-131644066D01*
X108108783Y-131551916D01*
X108144287Y-131522960D01*
X108144290Y-131522957D01*
X108149062Y-131519065D01*
X108169355Y-131494535D01*
X108271201Y-131371425D01*
X108271203Y-131371421D01*
X108275130Y-131366675D01*
X108369198Y-131192701D01*
X108427682Y-131003768D01*
X108448355Y-130807075D01*
X108430430Y-130610112D01*
X108374590Y-130420381D01*
X108368533Y-130408794D01*
X108285813Y-130250568D01*
X108282960Y-130245110D01*
X108159032Y-130090975D01*
X108152727Y-130085684D01*
X108073636Y-130019319D01*
X108007526Y-129963846D01*
X108002128Y-129960879D01*
X108002123Y-129960875D01*
X107839608Y-129871533D01*
X107839609Y-129871533D01*
X107834213Y-129868567D01*
X107828346Y-129866706D01*
X107828344Y-129866705D01*
X107651564Y-129810627D01*
X107651563Y-129810627D01*
X107645694Y-129808765D01*
X107491773Y-129791500D01*
X106285231Y-129791500D01*
X106282175Y-129791800D01*
X106282168Y-129791800D01*
X106223660Y-129797537D01*
X106138167Y-129805920D01*
X106132266Y-129807702D01*
X106132264Y-129807702D01*
X106058947Y-129829838D01*
X105948831Y-129863084D01*
X105774204Y-129955934D01*
X105690469Y-130024227D01*
X105625713Y-130077040D01*
X105625710Y-130077043D01*
X105620938Y-130080935D01*
X105617011Y-130085682D01*
X105617009Y-130085684D01*
X105498799Y-130228575D01*
X105498797Y-130228579D01*
X105494870Y-130233325D01*
X105400802Y-130407299D01*
X105342318Y-130596232D01*
X105341674Y-130602357D01*
X105341674Y-130602358D01*
X105333263Y-130682389D01*
X105321645Y-130792925D01*
X104047067Y-130792925D01*
X104030430Y-130610112D01*
X103974590Y-130420381D01*
X103968533Y-130408794D01*
X103885813Y-130250568D01*
X103882960Y-130245110D01*
X103759032Y-130090975D01*
X103752727Y-130085684D01*
X103673636Y-130019319D01*
X103607526Y-129963846D01*
X103602128Y-129960879D01*
X103602123Y-129960875D01*
X103439608Y-129871533D01*
X103439609Y-129871533D01*
X103434213Y-129868567D01*
X103428346Y-129866706D01*
X103428344Y-129866705D01*
X103251564Y-129810627D01*
X103251563Y-129810627D01*
X103245694Y-129808765D01*
X103091773Y-129791500D01*
X102385231Y-129791500D01*
X102382175Y-129791800D01*
X102382168Y-129791800D01*
X102323660Y-129797537D01*
X102238167Y-129805920D01*
X102232266Y-129807702D01*
X102232264Y-129807702D01*
X102158947Y-129829838D01*
X102048831Y-129863084D01*
X101874204Y-129955934D01*
X101790469Y-130024227D01*
X101725713Y-130077040D01*
X101725710Y-130077043D01*
X101720938Y-130080935D01*
X101717011Y-130085682D01*
X101717009Y-130085684D01*
X101598799Y-130228575D01*
X101598797Y-130228579D01*
X101594870Y-130233325D01*
X101500802Y-130407299D01*
X101442318Y-130596232D01*
X101441674Y-130602357D01*
X101441674Y-130602358D01*
X101433263Y-130682389D01*
X101421645Y-130792925D01*
X100508500Y-130792925D01*
X100508500Y-127000000D01*
X103226496Y-127000000D01*
X103246458Y-127189928D01*
X103305473Y-127371556D01*
X103400960Y-127536944D01*
X103528747Y-127678866D01*
X103683248Y-127791118D01*
X103689276Y-127793802D01*
X103689278Y-127793803D01*
X103851681Y-127866109D01*
X103857712Y-127868794D01*
X103951112Y-127888647D01*
X104038056Y-127907128D01*
X104038061Y-127907128D01*
X104044513Y-127908500D01*
X104235487Y-127908500D01*
X104241939Y-127907128D01*
X104241944Y-127907128D01*
X104328888Y-127888647D01*
X104422288Y-127868794D01*
X104428319Y-127866109D01*
X104590722Y-127793803D01*
X104590724Y-127793802D01*
X104596752Y-127791118D01*
X104751253Y-127678866D01*
X104879040Y-127536944D01*
X104974527Y-127371556D01*
X105033542Y-127189928D01*
X105053504Y-127000000D01*
X105033542Y-126810072D01*
X104974527Y-126628444D01*
X104879040Y-126463056D01*
X104751253Y-126321134D01*
X104596752Y-126208882D01*
X104590724Y-126206198D01*
X104590722Y-126206197D01*
X104428319Y-126133891D01*
X104428318Y-126133891D01*
X104422288Y-126131206D01*
X104328887Y-126111353D01*
X104241944Y-126092872D01*
X104241939Y-126092872D01*
X104235487Y-126091500D01*
X104044513Y-126091500D01*
X104038061Y-126092872D01*
X104038056Y-126092872D01*
X103951113Y-126111353D01*
X103857712Y-126131206D01*
X103851682Y-126133891D01*
X103851681Y-126133891D01*
X103689278Y-126206197D01*
X103689276Y-126206198D01*
X103683248Y-126208882D01*
X103528747Y-126321134D01*
X103400960Y-126463056D01*
X103305473Y-126628444D01*
X103246458Y-126810072D01*
X103226496Y-127000000D01*
X100508500Y-127000000D01*
X100508500Y-125702532D01*
X113643996Y-125702532D01*
X113644686Y-125709097D01*
X113660051Y-125855283D01*
X113663958Y-125892460D01*
X113722973Y-126074088D01*
X113818460Y-126239476D01*
X113946247Y-126381398D01*
X114100748Y-126493650D01*
X114106776Y-126496334D01*
X114106778Y-126496335D01*
X114269181Y-126568641D01*
X114275212Y-126571326D01*
X114368613Y-126591179D01*
X114455556Y-126609660D01*
X114455561Y-126609660D01*
X114462013Y-126611032D01*
X114652987Y-126611032D01*
X114659439Y-126609660D01*
X114659444Y-126609660D01*
X114746387Y-126591179D01*
X114839788Y-126571326D01*
X114845819Y-126568641D01*
X115008222Y-126496335D01*
X115008224Y-126496334D01*
X115014252Y-126493650D01*
X115168753Y-126381398D01*
X115296540Y-126239476D01*
X115392027Y-126074088D01*
X115451042Y-125892460D01*
X115454950Y-125855283D01*
X115470314Y-125709097D01*
X115471004Y-125702532D01*
X115451042Y-125512604D01*
X115392027Y-125330976D01*
X115296540Y-125165588D01*
X115168753Y-125023666D01*
X115014252Y-124911414D01*
X115008224Y-124908730D01*
X115008222Y-124908729D01*
X114845819Y-124836423D01*
X114845818Y-124836423D01*
X114839788Y-124833738D01*
X114746388Y-124813885D01*
X114659444Y-124795404D01*
X114659439Y-124795404D01*
X114652987Y-124794032D01*
X114462013Y-124794032D01*
X114455561Y-124795404D01*
X114455556Y-124795404D01*
X114368612Y-124813885D01*
X114275212Y-124833738D01*
X114269182Y-124836423D01*
X114269181Y-124836423D01*
X114106778Y-124908729D01*
X114106776Y-124908730D01*
X114100748Y-124911414D01*
X113946247Y-125023666D01*
X113818460Y-125165588D01*
X113722973Y-125330976D01*
X113663958Y-125512604D01*
X113643996Y-125702532D01*
X100508500Y-125702532D01*
X100508500Y-121920000D01*
X126086496Y-121920000D01*
X126106458Y-122109928D01*
X126165473Y-122291556D01*
X126260960Y-122456944D01*
X126388747Y-122598866D01*
X126543248Y-122711118D01*
X126549276Y-122713802D01*
X126549278Y-122713803D01*
X126711681Y-122786109D01*
X126717712Y-122788794D01*
X126811113Y-122808647D01*
X126898056Y-122827128D01*
X126898061Y-122827128D01*
X126904513Y-122828500D01*
X127095487Y-122828500D01*
X127101939Y-122827128D01*
X127101944Y-122827128D01*
X127188887Y-122808647D01*
X127282288Y-122788794D01*
X127288319Y-122786109D01*
X127450722Y-122713803D01*
X127450724Y-122713802D01*
X127456752Y-122711118D01*
X127611253Y-122598866D01*
X127739040Y-122456944D01*
X127834527Y-122291556D01*
X127893542Y-122109928D01*
X127913504Y-121920000D01*
X127893542Y-121730072D01*
X127834527Y-121548444D01*
X127739040Y-121383056D01*
X127611253Y-121241134D01*
X127456752Y-121128882D01*
X127450724Y-121126198D01*
X127450722Y-121126197D01*
X127288319Y-121053891D01*
X127288318Y-121053891D01*
X127282288Y-121051206D01*
X127188888Y-121031353D01*
X127101944Y-121012872D01*
X127101939Y-121012872D01*
X127095487Y-121011500D01*
X126904513Y-121011500D01*
X126898061Y-121012872D01*
X126898056Y-121012872D01*
X126811112Y-121031353D01*
X126717712Y-121051206D01*
X126711682Y-121053891D01*
X126711681Y-121053891D01*
X126549278Y-121126197D01*
X126549276Y-121126198D01*
X126543248Y-121128882D01*
X126388747Y-121241134D01*
X126260960Y-121383056D01*
X126165473Y-121548444D01*
X126106458Y-121730072D01*
X126086496Y-121920000D01*
X100508500Y-121920000D01*
X100508500Y-119380000D01*
X126086496Y-119380000D01*
X126087186Y-119386565D01*
X126105162Y-119557594D01*
X126106458Y-119569928D01*
X126165473Y-119751556D01*
X126260960Y-119916944D01*
X126265378Y-119921851D01*
X126265379Y-119921852D01*
X126384325Y-120053955D01*
X126388747Y-120058866D01*
X126543248Y-120171118D01*
X126549276Y-120173802D01*
X126549278Y-120173803D01*
X126711681Y-120246109D01*
X126717712Y-120248794D01*
X126811112Y-120268647D01*
X126898056Y-120287128D01*
X126898061Y-120287128D01*
X126904513Y-120288500D01*
X127095487Y-120288500D01*
X127101939Y-120287128D01*
X127101944Y-120287128D01*
X127188888Y-120268647D01*
X127282288Y-120248794D01*
X127288319Y-120246109D01*
X127450722Y-120173803D01*
X127450724Y-120173802D01*
X127456752Y-120171118D01*
X127611253Y-120058866D01*
X127615675Y-120053955D01*
X127734621Y-119921852D01*
X127734622Y-119921851D01*
X127739040Y-119916944D01*
X127834527Y-119751556D01*
X127893542Y-119569928D01*
X127894839Y-119557594D01*
X127912814Y-119386565D01*
X127913504Y-119380000D01*
X127893542Y-119190072D01*
X127861026Y-119090000D01*
X222006835Y-119090000D01*
X222025465Y-119326711D01*
X222026619Y-119331518D01*
X222026620Y-119331524D01*
X222061640Y-119477391D01*
X222080895Y-119557594D01*
X222082788Y-119562165D01*
X222082789Y-119562167D01*
X222163607Y-119757279D01*
X222171760Y-119776963D01*
X222174346Y-119781183D01*
X222293241Y-119975202D01*
X222293245Y-119975208D01*
X222295824Y-119979416D01*
X222450031Y-120159969D01*
X222453787Y-120163177D01*
X222474618Y-120180968D01*
X222630584Y-120314176D01*
X222634792Y-120316755D01*
X222634798Y-120316759D01*
X222828817Y-120435654D01*
X222833037Y-120438240D01*
X222837607Y-120440133D01*
X222837611Y-120440135D01*
X223047833Y-120527211D01*
X223052406Y-120529105D01*
X223132609Y-120548360D01*
X223278476Y-120583380D01*
X223278482Y-120583381D01*
X223283289Y-120584535D01*
X223520000Y-120603165D01*
X223756711Y-120584535D01*
X223761518Y-120583381D01*
X223761524Y-120583380D01*
X223907391Y-120548360D01*
X223987594Y-120529105D01*
X223992167Y-120527211D01*
X224202389Y-120440135D01*
X224202393Y-120440133D01*
X224206963Y-120438240D01*
X224211183Y-120435654D01*
X224405202Y-120316759D01*
X224405208Y-120316755D01*
X224409416Y-120314176D01*
X224565382Y-120180968D01*
X224586213Y-120163177D01*
X224589969Y-120159969D01*
X224744176Y-119979416D01*
X224746755Y-119975208D01*
X224746759Y-119975202D01*
X224865654Y-119781183D01*
X224868240Y-119776963D01*
X224876394Y-119757279D01*
X224957211Y-119562167D01*
X224957212Y-119562165D01*
X224959105Y-119557594D01*
X224978360Y-119477391D01*
X225013380Y-119331524D01*
X225013381Y-119331518D01*
X225014535Y-119326711D01*
X225033165Y-119090000D01*
X228506835Y-119090000D01*
X228525465Y-119326711D01*
X228526619Y-119331518D01*
X228526620Y-119331524D01*
X228561640Y-119477391D01*
X228580895Y-119557594D01*
X228582788Y-119562165D01*
X228582789Y-119562167D01*
X228663607Y-119757279D01*
X228671760Y-119776963D01*
X228674346Y-119781183D01*
X228793241Y-119975202D01*
X228793245Y-119975208D01*
X228795824Y-119979416D01*
X228950031Y-120159969D01*
X228953787Y-120163177D01*
X228974618Y-120180968D01*
X229130584Y-120314176D01*
X229134792Y-120316755D01*
X229134798Y-120316759D01*
X229328817Y-120435654D01*
X229333037Y-120438240D01*
X229337607Y-120440133D01*
X229337611Y-120440135D01*
X229547833Y-120527211D01*
X229552406Y-120529105D01*
X229632609Y-120548360D01*
X229778476Y-120583380D01*
X229778482Y-120583381D01*
X229783289Y-120584535D01*
X230020000Y-120603165D01*
X230256711Y-120584535D01*
X230261518Y-120583381D01*
X230261524Y-120583380D01*
X230407391Y-120548360D01*
X230487594Y-120529105D01*
X230492167Y-120527211D01*
X230702389Y-120440135D01*
X230702393Y-120440133D01*
X230706963Y-120438240D01*
X230711183Y-120435654D01*
X230905202Y-120316759D01*
X230905208Y-120316755D01*
X230909416Y-120314176D01*
X231065382Y-120180968D01*
X231086213Y-120163177D01*
X231089969Y-120159969D01*
X231244176Y-119979416D01*
X231246755Y-119975208D01*
X231246759Y-119975202D01*
X231365654Y-119781183D01*
X231368240Y-119776963D01*
X231376394Y-119757279D01*
X231457211Y-119562167D01*
X231457212Y-119562165D01*
X231459105Y-119557594D01*
X231478360Y-119477391D01*
X231513380Y-119331524D01*
X231513381Y-119331518D01*
X231514535Y-119326711D01*
X231533165Y-119090000D01*
X231514535Y-118853289D01*
X231512079Y-118843056D01*
X231460260Y-118627218D01*
X231459105Y-118622406D01*
X231413045Y-118511206D01*
X231370135Y-118407611D01*
X231370133Y-118407607D01*
X231368240Y-118403037D01*
X231365654Y-118398817D01*
X231246759Y-118204798D01*
X231246755Y-118204792D01*
X231244176Y-118200584D01*
X231089969Y-118020031D01*
X230909416Y-117865824D01*
X230905208Y-117863245D01*
X230905202Y-117863241D01*
X230711183Y-117744346D01*
X230706963Y-117741760D01*
X230702393Y-117739867D01*
X230702389Y-117739865D01*
X230492167Y-117652789D01*
X230492165Y-117652788D01*
X230487594Y-117650895D01*
X230389051Y-117627237D01*
X230261524Y-117596620D01*
X230261518Y-117596619D01*
X230256711Y-117595465D01*
X230020000Y-117576835D01*
X229783289Y-117595465D01*
X229778482Y-117596619D01*
X229778476Y-117596620D01*
X229650949Y-117627237D01*
X229552406Y-117650895D01*
X229547835Y-117652788D01*
X229547833Y-117652789D01*
X229337611Y-117739865D01*
X229337607Y-117739867D01*
X229333037Y-117741760D01*
X229328817Y-117744346D01*
X229134798Y-117863241D01*
X229134792Y-117863245D01*
X229130584Y-117865824D01*
X228950031Y-118020031D01*
X228795824Y-118200584D01*
X228793245Y-118204792D01*
X228793241Y-118204798D01*
X228674346Y-118398817D01*
X228671760Y-118403037D01*
X228669867Y-118407607D01*
X228669865Y-118407611D01*
X228626955Y-118511206D01*
X228580895Y-118622406D01*
X228579740Y-118627218D01*
X228527922Y-118843056D01*
X228525465Y-118853289D01*
X228506835Y-119090000D01*
X225033165Y-119090000D01*
X225014535Y-118853289D01*
X225012079Y-118843056D01*
X224960260Y-118627218D01*
X224959105Y-118622406D01*
X224913045Y-118511206D01*
X224870135Y-118407611D01*
X224870133Y-118407607D01*
X224868240Y-118403037D01*
X224865654Y-118398817D01*
X224746759Y-118204798D01*
X224746755Y-118204792D01*
X224744176Y-118200584D01*
X224589969Y-118020031D01*
X224409416Y-117865824D01*
X224405208Y-117863245D01*
X224405202Y-117863241D01*
X224211183Y-117744346D01*
X224206963Y-117741760D01*
X224202393Y-117739867D01*
X224202389Y-117739865D01*
X223992167Y-117652789D01*
X223992165Y-117652788D01*
X223987594Y-117650895D01*
X223889051Y-117627237D01*
X223761524Y-117596620D01*
X223761518Y-117596619D01*
X223756711Y-117595465D01*
X223520000Y-117576835D01*
X223283289Y-117595465D01*
X223278482Y-117596619D01*
X223278476Y-117596620D01*
X223150949Y-117627237D01*
X223052406Y-117650895D01*
X223047835Y-117652788D01*
X223047833Y-117652789D01*
X222837611Y-117739865D01*
X222837607Y-117739867D01*
X222833037Y-117741760D01*
X222828817Y-117744346D01*
X222634798Y-117863241D01*
X222634792Y-117863245D01*
X222630584Y-117865824D01*
X222450031Y-118020031D01*
X222295824Y-118200584D01*
X222293245Y-118204792D01*
X222293241Y-118204798D01*
X222174346Y-118398817D01*
X222171760Y-118403037D01*
X222169867Y-118407607D01*
X222169865Y-118407611D01*
X222126955Y-118511206D01*
X222080895Y-118622406D01*
X222079740Y-118627218D01*
X222027922Y-118843056D01*
X222025465Y-118853289D01*
X222006835Y-119090000D01*
X127861026Y-119090000D01*
X127834527Y-119008444D01*
X127739040Y-118843056D01*
X127611253Y-118701134D01*
X127502894Y-118622406D01*
X127462094Y-118592763D01*
X127462093Y-118592762D01*
X127456752Y-118588882D01*
X127450724Y-118586198D01*
X127450722Y-118586197D01*
X127288319Y-118513891D01*
X127288318Y-118513891D01*
X127282288Y-118511206D01*
X127188887Y-118491353D01*
X127101944Y-118472872D01*
X127101939Y-118472872D01*
X127095487Y-118471500D01*
X126904513Y-118471500D01*
X126898061Y-118472872D01*
X126898056Y-118472872D01*
X126811113Y-118491353D01*
X126717712Y-118511206D01*
X126711682Y-118513891D01*
X126711681Y-118513891D01*
X126549278Y-118586197D01*
X126549276Y-118586198D01*
X126543248Y-118588882D01*
X126537907Y-118592762D01*
X126537906Y-118592763D01*
X126497106Y-118622406D01*
X126388747Y-118701134D01*
X126260960Y-118843056D01*
X126165473Y-119008444D01*
X126106458Y-119190072D01*
X126086496Y-119380000D01*
X100508500Y-119380000D01*
X100508500Y-116840000D01*
X155229545Y-116840000D01*
X155249507Y-117029928D01*
X155308522Y-117211556D01*
X155404009Y-117376944D01*
X155531796Y-117518866D01*
X155686297Y-117631118D01*
X155692325Y-117633802D01*
X155692327Y-117633803D01*
X155730717Y-117650895D01*
X155860761Y-117708794D01*
X155954162Y-117728647D01*
X156041105Y-117747128D01*
X156041110Y-117747128D01*
X156047562Y-117748500D01*
X156238536Y-117748500D01*
X156244988Y-117747128D01*
X156244993Y-117747128D01*
X156331936Y-117728647D01*
X156425337Y-117708794D01*
X156555381Y-117650895D01*
X156593771Y-117633803D01*
X156593773Y-117633802D01*
X156599801Y-117631118D01*
X156754302Y-117518866D01*
X156882089Y-117376944D01*
X156977576Y-117211556D01*
X157036591Y-117029928D01*
X157056553Y-116840000D01*
X157036591Y-116650072D01*
X156977576Y-116468444D01*
X156882089Y-116303056D01*
X156754302Y-116161134D01*
X156599801Y-116048882D01*
X156593773Y-116046198D01*
X156593771Y-116046197D01*
X156431368Y-115973891D01*
X156431367Y-115973891D01*
X156425337Y-115971206D01*
X156331937Y-115951353D01*
X156244993Y-115932872D01*
X156244988Y-115932872D01*
X156238536Y-115931500D01*
X156047562Y-115931500D01*
X156041110Y-115932872D01*
X156041105Y-115932872D01*
X155954161Y-115951353D01*
X155860761Y-115971206D01*
X155854731Y-115973891D01*
X155854730Y-115973891D01*
X155692327Y-116046197D01*
X155692325Y-116046198D01*
X155686297Y-116048882D01*
X155531796Y-116161134D01*
X155404009Y-116303056D01*
X155308522Y-116468444D01*
X155249507Y-116650072D01*
X155229545Y-116840000D01*
X100508500Y-116840000D01*
X100508500Y-114590000D01*
X222006835Y-114590000D01*
X222025465Y-114826711D01*
X222080895Y-115057594D01*
X222171760Y-115276963D01*
X222174346Y-115281183D01*
X222293241Y-115475202D01*
X222293245Y-115475208D01*
X222295824Y-115479416D01*
X222450031Y-115659969D01*
X222630584Y-115814176D01*
X222634792Y-115816755D01*
X222634798Y-115816759D01*
X222822038Y-115931500D01*
X222833037Y-115938240D01*
X222837607Y-115940133D01*
X222837611Y-115940135D01*
X223047833Y-116027211D01*
X223052406Y-116029105D01*
X223132609Y-116048360D01*
X223278476Y-116083380D01*
X223278482Y-116083381D01*
X223283289Y-116084535D01*
X223520000Y-116103165D01*
X223756711Y-116084535D01*
X223761518Y-116083381D01*
X223761524Y-116083380D01*
X223907391Y-116048360D01*
X223987594Y-116029105D01*
X223992167Y-116027211D01*
X224202389Y-115940135D01*
X224202393Y-115940133D01*
X224206963Y-115938240D01*
X224217962Y-115931500D01*
X224405202Y-115816759D01*
X224405208Y-115816755D01*
X224409416Y-115814176D01*
X224589969Y-115659969D01*
X224744176Y-115479416D01*
X224746755Y-115475208D01*
X224746759Y-115475202D01*
X224865654Y-115281183D01*
X224868240Y-115276963D01*
X224959105Y-115057594D01*
X225014535Y-114826711D01*
X225033165Y-114590000D01*
X228506835Y-114590000D01*
X228525465Y-114826711D01*
X228580895Y-115057594D01*
X228671760Y-115276963D01*
X228674346Y-115281183D01*
X228793241Y-115475202D01*
X228793245Y-115475208D01*
X228795824Y-115479416D01*
X228950031Y-115659969D01*
X229130584Y-115814176D01*
X229134792Y-115816755D01*
X229134798Y-115816759D01*
X229322038Y-115931500D01*
X229333037Y-115938240D01*
X229337607Y-115940133D01*
X229337611Y-115940135D01*
X229547833Y-116027211D01*
X229552406Y-116029105D01*
X229632609Y-116048360D01*
X229778476Y-116083380D01*
X229778482Y-116083381D01*
X229783289Y-116084535D01*
X230020000Y-116103165D01*
X230256711Y-116084535D01*
X230261518Y-116083381D01*
X230261524Y-116083380D01*
X230407391Y-116048360D01*
X230487594Y-116029105D01*
X230492167Y-116027211D01*
X230702389Y-115940135D01*
X230702393Y-115940133D01*
X230706963Y-115938240D01*
X230717962Y-115931500D01*
X230905202Y-115816759D01*
X230905208Y-115816755D01*
X230909416Y-115814176D01*
X231089969Y-115659969D01*
X231244176Y-115479416D01*
X231246755Y-115475208D01*
X231246759Y-115475202D01*
X231365654Y-115281183D01*
X231368240Y-115276963D01*
X231459105Y-115057594D01*
X231514535Y-114826711D01*
X231533165Y-114590000D01*
X231514535Y-114353289D01*
X231459105Y-114122406D01*
X231368240Y-113903037D01*
X231365654Y-113898817D01*
X231246759Y-113704798D01*
X231246755Y-113704792D01*
X231244176Y-113700584D01*
X231089969Y-113520031D01*
X230909416Y-113365824D01*
X230905208Y-113363245D01*
X230905202Y-113363241D01*
X230711183Y-113244346D01*
X230706963Y-113241760D01*
X230702393Y-113239867D01*
X230702389Y-113239865D01*
X230492167Y-113152789D01*
X230492165Y-113152788D01*
X230487594Y-113150895D01*
X230407391Y-113131640D01*
X230261524Y-113096620D01*
X230261518Y-113096619D01*
X230256711Y-113095465D01*
X230020000Y-113076835D01*
X229783289Y-113095465D01*
X229778482Y-113096619D01*
X229778476Y-113096620D01*
X229632609Y-113131640D01*
X229552406Y-113150895D01*
X229547835Y-113152788D01*
X229547833Y-113152789D01*
X229337611Y-113239865D01*
X229337607Y-113239867D01*
X229333037Y-113241760D01*
X229328817Y-113244346D01*
X229134798Y-113363241D01*
X229134792Y-113363245D01*
X229130584Y-113365824D01*
X228950031Y-113520031D01*
X228795824Y-113700584D01*
X228793245Y-113704792D01*
X228793241Y-113704798D01*
X228674346Y-113898817D01*
X228671760Y-113903037D01*
X228580895Y-114122406D01*
X228525465Y-114353289D01*
X228506835Y-114590000D01*
X225033165Y-114590000D01*
X225014535Y-114353289D01*
X224959105Y-114122406D01*
X224868240Y-113903037D01*
X224865654Y-113898817D01*
X224746759Y-113704798D01*
X224746755Y-113704792D01*
X224744176Y-113700584D01*
X224589969Y-113520031D01*
X224409416Y-113365824D01*
X224405208Y-113363245D01*
X224405202Y-113363241D01*
X224211183Y-113244346D01*
X224206963Y-113241760D01*
X224202393Y-113239867D01*
X224202389Y-113239865D01*
X223992167Y-113152789D01*
X223992165Y-113152788D01*
X223987594Y-113150895D01*
X223907391Y-113131640D01*
X223761524Y-113096620D01*
X223761518Y-113096619D01*
X223756711Y-113095465D01*
X223520000Y-113076835D01*
X223283289Y-113095465D01*
X223278482Y-113096619D01*
X223278476Y-113096620D01*
X223132609Y-113131640D01*
X223052406Y-113150895D01*
X223047835Y-113152788D01*
X223047833Y-113152789D01*
X222837611Y-113239865D01*
X222837607Y-113239867D01*
X222833037Y-113241760D01*
X222828817Y-113244346D01*
X222634798Y-113363241D01*
X222634792Y-113363245D01*
X222630584Y-113365824D01*
X222450031Y-113520031D01*
X222295824Y-113700584D01*
X222293245Y-113704792D01*
X222293241Y-113704798D01*
X222174346Y-113898817D01*
X222171760Y-113903037D01*
X222080895Y-114122406D01*
X222025465Y-114353289D01*
X222006835Y-114590000D01*
X100508500Y-114590000D01*
X100508500Y-110110711D01*
X109474003Y-110110711D01*
X109474693Y-110117276D01*
X109485713Y-110222121D01*
X109493965Y-110300639D01*
X109552980Y-110482267D01*
X109648467Y-110647655D01*
X109652885Y-110652562D01*
X109652886Y-110652563D01*
X109751217Y-110761771D01*
X109776254Y-110789577D01*
X109837170Y-110833835D01*
X109902998Y-110881662D01*
X109930755Y-110901829D01*
X109936783Y-110904513D01*
X109936785Y-110904514D01*
X110018045Y-110940693D01*
X110105219Y-110979505D01*
X110198619Y-110999358D01*
X110285563Y-111017839D01*
X110285568Y-111017839D01*
X110292020Y-111019211D01*
X110482994Y-111019211D01*
X110489446Y-111017839D01*
X110489451Y-111017839D01*
X110576394Y-110999358D01*
X110669795Y-110979505D01*
X110756969Y-110940693D01*
X110838229Y-110904514D01*
X110838231Y-110904513D01*
X110844259Y-110901829D01*
X110872017Y-110881662D01*
X110937844Y-110833835D01*
X110998760Y-110789577D01*
X111023797Y-110761771D01*
X111122128Y-110652563D01*
X111122129Y-110652562D01*
X111126547Y-110647655D01*
X111222034Y-110482267D01*
X111281049Y-110300639D01*
X111289302Y-110222121D01*
X111300321Y-110117276D01*
X111301011Y-110110711D01*
X124616092Y-110110711D01*
X124616782Y-110117276D01*
X124627802Y-110222121D01*
X124636054Y-110300639D01*
X124695069Y-110482267D01*
X124790556Y-110647655D01*
X124794974Y-110652562D01*
X124794975Y-110652563D01*
X124893306Y-110761771D01*
X124918343Y-110789577D01*
X124979259Y-110833835D01*
X125045087Y-110881662D01*
X125072844Y-110901829D01*
X125078872Y-110904513D01*
X125078874Y-110904514D01*
X125160134Y-110940693D01*
X125247308Y-110979505D01*
X125340708Y-110999358D01*
X125427652Y-111017839D01*
X125427657Y-111017839D01*
X125434109Y-111019211D01*
X125625083Y-111019211D01*
X125631535Y-111017839D01*
X125631540Y-111017839D01*
X125718483Y-110999358D01*
X125811884Y-110979505D01*
X125899058Y-110940693D01*
X125980318Y-110904514D01*
X125980320Y-110904513D01*
X125986348Y-110901829D01*
X126014106Y-110881662D01*
X126079933Y-110833835D01*
X126140849Y-110789577D01*
X126165886Y-110761771D01*
X126264217Y-110652563D01*
X126264218Y-110652562D01*
X126268636Y-110647655D01*
X126364123Y-110482267D01*
X126423138Y-110300639D01*
X126431391Y-110222121D01*
X126442410Y-110117276D01*
X126443100Y-110110711D01*
X126434452Y-110028429D01*
X139516281Y-110028429D01*
X139516971Y-110034994D01*
X139529437Y-110153597D01*
X139536243Y-110218357D01*
X139595258Y-110399985D01*
X139690745Y-110565373D01*
X139818532Y-110707295D01*
X139973033Y-110819547D01*
X139979061Y-110822231D01*
X139979063Y-110822232D01*
X140141466Y-110894538D01*
X140147497Y-110897223D01*
X140240897Y-110917076D01*
X140327841Y-110935557D01*
X140327846Y-110935557D01*
X140334298Y-110936929D01*
X140525272Y-110936929D01*
X140531724Y-110935557D01*
X140531729Y-110935557D01*
X140618673Y-110917076D01*
X140712073Y-110897223D01*
X140718104Y-110894538D01*
X140880507Y-110822232D01*
X140880509Y-110822231D01*
X140886537Y-110819547D01*
X141041038Y-110707295D01*
X141168825Y-110565373D01*
X141264312Y-110399985D01*
X141323327Y-110218357D01*
X141330134Y-110153597D01*
X141342599Y-110034994D01*
X141343289Y-110028429D01*
X141341062Y-110007237D01*
X141337625Y-109974534D01*
X154445283Y-109974534D01*
X154445973Y-109981099D01*
X154460286Y-110117276D01*
X154465245Y-110164462D01*
X154524260Y-110346090D01*
X154527563Y-110351812D01*
X154527564Y-110351813D01*
X154558681Y-110405708D01*
X154619747Y-110511478D01*
X154624165Y-110516385D01*
X154624166Y-110516386D01*
X154733329Y-110637624D01*
X154747534Y-110653400D01*
X154827058Y-110711178D01*
X154887081Y-110754787D01*
X154902035Y-110765652D01*
X154908063Y-110768336D01*
X154908065Y-110768337D01*
X155055177Y-110833835D01*
X155076499Y-110843328D01*
X155169900Y-110863181D01*
X155256843Y-110881662D01*
X155256848Y-110881662D01*
X155263300Y-110883034D01*
X155454274Y-110883034D01*
X155460726Y-110881662D01*
X155460731Y-110881662D01*
X155547675Y-110863181D01*
X155641075Y-110843328D01*
X155662397Y-110833835D01*
X155809509Y-110768337D01*
X155809511Y-110768336D01*
X155815539Y-110765652D01*
X155830494Y-110754787D01*
X155890516Y-110711178D01*
X155970040Y-110653400D01*
X155984245Y-110637624D01*
X156093408Y-110516386D01*
X156093409Y-110516385D01*
X156097827Y-110511478D01*
X156158893Y-110405708D01*
X156190010Y-110351813D01*
X156190011Y-110351812D01*
X156193314Y-110346090D01*
X156252329Y-110164462D01*
X156257289Y-110117276D01*
X156271601Y-109981099D01*
X156272291Y-109974534D01*
X156271149Y-109963669D01*
X169404692Y-109963669D01*
X169405382Y-109970234D01*
X169420837Y-110117276D01*
X169424654Y-110153597D01*
X169483669Y-110335225D01*
X169579156Y-110500613D01*
X169583574Y-110505520D01*
X169583575Y-110505521D01*
X169635707Y-110563419D01*
X169706943Y-110642535D01*
X169861444Y-110754787D01*
X169867472Y-110757471D01*
X169867474Y-110757472D01*
X170029877Y-110829778D01*
X170035908Y-110832463D01*
X170129309Y-110852316D01*
X170216252Y-110870797D01*
X170216257Y-110870797D01*
X170222709Y-110872169D01*
X170413683Y-110872169D01*
X170420135Y-110870797D01*
X170420140Y-110870797D01*
X170507084Y-110852316D01*
X170600484Y-110832463D01*
X170606515Y-110829778D01*
X170768918Y-110757472D01*
X170768920Y-110757471D01*
X170774948Y-110754787D01*
X170929449Y-110642535D01*
X171000685Y-110563419D01*
X171052817Y-110505521D01*
X171052818Y-110505520D01*
X171057236Y-110500613D01*
X171152723Y-110335225D01*
X171211738Y-110153597D01*
X171215556Y-110117276D01*
X171231010Y-109970234D01*
X171231700Y-109963669D01*
X184449701Y-109963669D01*
X184450391Y-109970234D01*
X184465846Y-110117276D01*
X184469663Y-110153597D01*
X184528678Y-110335225D01*
X184624165Y-110500613D01*
X184628583Y-110505520D01*
X184628584Y-110505521D01*
X184680716Y-110563419D01*
X184751952Y-110642535D01*
X184906453Y-110754787D01*
X184912481Y-110757471D01*
X184912483Y-110757472D01*
X185074886Y-110829778D01*
X185080917Y-110832463D01*
X185174318Y-110852316D01*
X185261261Y-110870797D01*
X185261266Y-110870797D01*
X185267718Y-110872169D01*
X185458692Y-110872169D01*
X185465144Y-110870797D01*
X185465149Y-110870797D01*
X185552093Y-110852316D01*
X185645493Y-110832463D01*
X185651524Y-110829778D01*
X185813927Y-110757472D01*
X185813929Y-110757471D01*
X185819957Y-110754787D01*
X185974458Y-110642535D01*
X186045694Y-110563419D01*
X186097826Y-110505521D01*
X186097827Y-110505520D01*
X186102245Y-110500613D01*
X186197732Y-110335225D01*
X186256747Y-110153597D01*
X186260565Y-110117276D01*
X186269507Y-110032193D01*
X199487016Y-110032193D01*
X199487706Y-110038758D01*
X199505893Y-110211794D01*
X199506978Y-110222121D01*
X199565993Y-110403749D01*
X199661480Y-110569137D01*
X199789267Y-110711059D01*
X199849453Y-110754787D01*
X199933246Y-110815666D01*
X199943768Y-110823311D01*
X199949796Y-110825995D01*
X199949798Y-110825996D01*
X200103747Y-110894538D01*
X200118232Y-110900987D01*
X200211633Y-110920840D01*
X200298576Y-110939321D01*
X200298581Y-110939321D01*
X200305033Y-110940693D01*
X200496007Y-110940693D01*
X200502459Y-110939321D01*
X200502464Y-110939321D01*
X200589408Y-110920840D01*
X200682808Y-110900987D01*
X200697293Y-110894538D01*
X200851242Y-110825996D01*
X200851244Y-110825995D01*
X200857272Y-110823311D01*
X200867795Y-110815666D01*
X200951587Y-110754787D01*
X201011773Y-110711059D01*
X201139560Y-110569137D01*
X201235047Y-110403749D01*
X201294062Y-110222121D01*
X201295148Y-110211794D01*
X201313334Y-110038758D01*
X201314024Y-110032193D01*
X201303004Y-109927346D01*
X201294752Y-109848828D01*
X201294752Y-109848826D01*
X201294062Y-109842265D01*
X201235047Y-109660637D01*
X201201758Y-109602978D01*
X201142861Y-109500967D01*
X201139560Y-109495249D01*
X201083225Y-109432682D01*
X201016195Y-109358238D01*
X201016194Y-109358237D01*
X201011773Y-109353327D01*
X200857272Y-109241075D01*
X200851244Y-109238391D01*
X200851242Y-109238390D01*
X200809937Y-109220000D01*
X214986496Y-109220000D01*
X214987186Y-109226565D01*
X215000630Y-109354474D01*
X215006458Y-109409928D01*
X215065473Y-109591556D01*
X215068776Y-109597278D01*
X215068777Y-109597279D01*
X215075696Y-109609263D01*
X215160960Y-109756944D01*
X215165378Y-109761851D01*
X215165379Y-109761852D01*
X215284325Y-109893955D01*
X215288747Y-109898866D01*
X215377940Y-109963669D01*
X215401931Y-109981099D01*
X215443248Y-110011118D01*
X215449276Y-110013802D01*
X215449278Y-110013803D01*
X215611681Y-110086109D01*
X215617712Y-110088794D01*
X215711113Y-110108647D01*
X215798056Y-110127128D01*
X215798061Y-110127128D01*
X215804513Y-110128500D01*
X215995487Y-110128500D01*
X216001939Y-110127128D01*
X216001944Y-110127128D01*
X216088887Y-110108647D01*
X216182288Y-110088794D01*
X216188319Y-110086109D01*
X216350722Y-110013803D01*
X216350724Y-110013802D01*
X216356752Y-110011118D01*
X216398070Y-109981099D01*
X216422060Y-109963669D01*
X216511253Y-109898866D01*
X216515675Y-109893955D01*
X216634621Y-109761852D01*
X216634622Y-109761851D01*
X216639040Y-109756944D01*
X216724304Y-109609263D01*
X216731223Y-109597279D01*
X216731224Y-109597278D01*
X216734527Y-109591556D01*
X216793542Y-109409928D01*
X216799371Y-109354474D01*
X216812814Y-109226565D01*
X216813504Y-109220000D01*
X216807411Y-109162027D01*
X216794232Y-109036635D01*
X216794232Y-109036633D01*
X216793542Y-109030072D01*
X216734527Y-108848444D01*
X216639040Y-108683056D01*
X216511253Y-108541134D01*
X216356752Y-108428882D01*
X216350724Y-108426198D01*
X216350722Y-108426197D01*
X216188319Y-108353891D01*
X216188318Y-108353891D01*
X216182288Y-108351206D01*
X216088888Y-108331353D01*
X216001944Y-108312872D01*
X216001939Y-108312872D01*
X215995487Y-108311500D01*
X215804513Y-108311500D01*
X215798061Y-108312872D01*
X215798056Y-108312872D01*
X215711112Y-108331353D01*
X215617712Y-108351206D01*
X215611682Y-108353891D01*
X215611681Y-108353891D01*
X215449278Y-108426197D01*
X215449276Y-108426198D01*
X215443248Y-108428882D01*
X215288747Y-108541134D01*
X215160960Y-108683056D01*
X215065473Y-108848444D01*
X215006458Y-109030072D01*
X215005768Y-109036633D01*
X215005768Y-109036635D01*
X214992589Y-109162027D01*
X214986496Y-109220000D01*
X200809937Y-109220000D01*
X200688839Y-109166084D01*
X200688838Y-109166084D01*
X200682808Y-109163399D01*
X200589408Y-109143546D01*
X200502464Y-109125065D01*
X200502459Y-109125065D01*
X200496007Y-109123693D01*
X200305033Y-109123693D01*
X200298581Y-109125065D01*
X200298576Y-109125065D01*
X200211633Y-109143546D01*
X200118232Y-109163399D01*
X200112202Y-109166084D01*
X200112201Y-109166084D01*
X199949798Y-109238390D01*
X199949796Y-109238391D01*
X199943768Y-109241075D01*
X199789267Y-109353327D01*
X199784846Y-109358237D01*
X199784845Y-109358238D01*
X199717816Y-109432682D01*
X199661480Y-109495249D01*
X199658179Y-109500967D01*
X199599283Y-109602978D01*
X199565993Y-109660637D01*
X199506978Y-109842265D01*
X199506288Y-109848826D01*
X199506288Y-109848828D01*
X199498036Y-109927346D01*
X199487016Y-110032193D01*
X186269507Y-110032193D01*
X186276019Y-109970234D01*
X186276709Y-109963669D01*
X186263949Y-109842265D01*
X186257437Y-109780304D01*
X186257437Y-109780302D01*
X186256747Y-109773741D01*
X186197732Y-109592113D01*
X186102245Y-109426725D01*
X186009278Y-109323474D01*
X185978880Y-109289714D01*
X185978879Y-109289713D01*
X185974458Y-109284803D01*
X185840253Y-109187297D01*
X185825299Y-109176432D01*
X185825298Y-109176431D01*
X185819957Y-109172551D01*
X185813929Y-109169867D01*
X185813927Y-109169866D01*
X185651524Y-109097560D01*
X185651523Y-109097560D01*
X185645493Y-109094875D01*
X185552092Y-109075022D01*
X185465149Y-109056541D01*
X185465144Y-109056541D01*
X185458692Y-109055169D01*
X185267718Y-109055169D01*
X185261266Y-109056541D01*
X185261261Y-109056541D01*
X185174318Y-109075022D01*
X185080917Y-109094875D01*
X185074887Y-109097560D01*
X185074886Y-109097560D01*
X184912483Y-109169866D01*
X184912481Y-109169867D01*
X184906453Y-109172551D01*
X184901112Y-109176431D01*
X184901111Y-109176432D01*
X184886157Y-109187297D01*
X184751952Y-109284803D01*
X184747531Y-109289713D01*
X184747530Y-109289714D01*
X184717133Y-109323474D01*
X184624165Y-109426725D01*
X184528678Y-109592113D01*
X184469663Y-109773741D01*
X184468973Y-109780302D01*
X184468973Y-109780304D01*
X184462461Y-109842265D01*
X184449701Y-109963669D01*
X171231700Y-109963669D01*
X171218940Y-109842265D01*
X171212428Y-109780304D01*
X171212428Y-109780302D01*
X171211738Y-109773741D01*
X171152723Y-109592113D01*
X171057236Y-109426725D01*
X170964269Y-109323474D01*
X170933871Y-109289714D01*
X170933870Y-109289713D01*
X170929449Y-109284803D01*
X170795244Y-109187297D01*
X170780290Y-109176432D01*
X170780289Y-109176431D01*
X170774948Y-109172551D01*
X170768920Y-109169867D01*
X170768918Y-109169866D01*
X170606515Y-109097560D01*
X170606514Y-109097560D01*
X170600484Y-109094875D01*
X170507083Y-109075022D01*
X170420140Y-109056541D01*
X170420135Y-109056541D01*
X170413683Y-109055169D01*
X170222709Y-109055169D01*
X170216257Y-109056541D01*
X170216252Y-109056541D01*
X170129309Y-109075022D01*
X170035908Y-109094875D01*
X170029878Y-109097560D01*
X170029877Y-109097560D01*
X169867474Y-109169866D01*
X169867472Y-109169867D01*
X169861444Y-109172551D01*
X169856103Y-109176431D01*
X169856102Y-109176432D01*
X169841148Y-109187297D01*
X169706943Y-109284803D01*
X169702522Y-109289713D01*
X169702521Y-109289714D01*
X169672124Y-109323474D01*
X169579156Y-109426725D01*
X169483669Y-109592113D01*
X169424654Y-109773741D01*
X169423964Y-109780302D01*
X169423964Y-109780304D01*
X169417452Y-109842265D01*
X169404692Y-109963669D01*
X156271149Y-109963669D01*
X156252329Y-109784606D01*
X156193314Y-109602978D01*
X156186720Y-109591556D01*
X156132245Y-109497203D01*
X156097827Y-109437590D01*
X155970040Y-109295668D01*
X155865892Y-109220000D01*
X155820881Y-109187297D01*
X155820880Y-109187296D01*
X155815539Y-109183416D01*
X155809511Y-109180732D01*
X155809509Y-109180731D01*
X155647106Y-109108425D01*
X155647105Y-109108425D01*
X155641075Y-109105740D01*
X155547674Y-109085887D01*
X155460731Y-109067406D01*
X155460726Y-109067406D01*
X155454274Y-109066034D01*
X155263300Y-109066034D01*
X155256848Y-109067406D01*
X155256843Y-109067406D01*
X155169900Y-109085887D01*
X155076499Y-109105740D01*
X155070469Y-109108425D01*
X155070468Y-109108425D01*
X154908065Y-109180731D01*
X154908063Y-109180732D01*
X154902035Y-109183416D01*
X154896694Y-109187296D01*
X154896693Y-109187297D01*
X154851682Y-109220000D01*
X154747534Y-109295668D01*
X154619747Y-109437590D01*
X154585329Y-109497203D01*
X154530855Y-109591556D01*
X154524260Y-109602978D01*
X154465245Y-109784606D01*
X154445283Y-109974534D01*
X141337625Y-109974534D01*
X141324017Y-109845064D01*
X141324017Y-109845062D01*
X141323327Y-109838501D01*
X141264312Y-109656873D01*
X141168825Y-109491485D01*
X141115664Y-109432443D01*
X141045460Y-109354474D01*
X141045459Y-109354473D01*
X141041038Y-109349563D01*
X140941942Y-109277565D01*
X140891879Y-109241192D01*
X140891878Y-109241191D01*
X140886537Y-109237311D01*
X140880509Y-109234627D01*
X140880507Y-109234626D01*
X140718104Y-109162320D01*
X140718103Y-109162320D01*
X140712073Y-109159635D01*
X140618672Y-109139782D01*
X140531729Y-109121301D01*
X140531724Y-109121301D01*
X140525272Y-109119929D01*
X140334298Y-109119929D01*
X140327846Y-109121301D01*
X140327841Y-109121301D01*
X140240898Y-109139782D01*
X140147497Y-109159635D01*
X140141467Y-109162320D01*
X140141466Y-109162320D01*
X139979063Y-109234626D01*
X139979061Y-109234627D01*
X139973033Y-109237311D01*
X139967692Y-109241191D01*
X139967691Y-109241192D01*
X139917628Y-109277565D01*
X139818532Y-109349563D01*
X139814111Y-109354473D01*
X139814110Y-109354474D01*
X139743907Y-109432443D01*
X139690745Y-109491485D01*
X139595258Y-109656873D01*
X139536243Y-109838501D01*
X139535553Y-109845062D01*
X139535553Y-109845064D01*
X139518508Y-110007237D01*
X139516281Y-110028429D01*
X126434452Y-110028429D01*
X126432915Y-110013803D01*
X126423828Y-109927346D01*
X126423828Y-109927344D01*
X126423138Y-109920783D01*
X126364123Y-109739155D01*
X126268636Y-109573767D01*
X126140849Y-109431845D01*
X125986348Y-109319593D01*
X125980320Y-109316909D01*
X125980318Y-109316908D01*
X125817915Y-109244602D01*
X125817914Y-109244602D01*
X125811884Y-109241917D01*
X125708773Y-109220000D01*
X125631540Y-109203583D01*
X125631535Y-109203583D01*
X125625083Y-109202211D01*
X125434109Y-109202211D01*
X125427657Y-109203583D01*
X125427652Y-109203583D01*
X125350419Y-109220000D01*
X125247308Y-109241917D01*
X125241278Y-109244602D01*
X125241277Y-109244602D01*
X125078874Y-109316908D01*
X125078872Y-109316909D01*
X125072844Y-109319593D01*
X124918343Y-109431845D01*
X124790556Y-109573767D01*
X124695069Y-109739155D01*
X124636054Y-109920783D01*
X124635364Y-109927344D01*
X124635364Y-109927346D01*
X124626277Y-110013803D01*
X124616092Y-110110711D01*
X111301011Y-110110711D01*
X111290826Y-110013803D01*
X111281739Y-109927346D01*
X111281739Y-109927344D01*
X111281049Y-109920783D01*
X111222034Y-109739155D01*
X111126547Y-109573767D01*
X110998760Y-109431845D01*
X110844259Y-109319593D01*
X110838231Y-109316909D01*
X110838229Y-109316908D01*
X110675826Y-109244602D01*
X110675825Y-109244602D01*
X110669795Y-109241917D01*
X110566684Y-109220000D01*
X110489451Y-109203583D01*
X110489446Y-109203583D01*
X110482994Y-109202211D01*
X110292020Y-109202211D01*
X110285568Y-109203583D01*
X110285563Y-109203583D01*
X110208330Y-109220000D01*
X110105219Y-109241917D01*
X110099189Y-109244602D01*
X110099188Y-109244602D01*
X109936785Y-109316908D01*
X109936783Y-109316909D01*
X109930755Y-109319593D01*
X109776254Y-109431845D01*
X109648467Y-109573767D01*
X109552980Y-109739155D01*
X109493965Y-109920783D01*
X109493275Y-109927344D01*
X109493275Y-109927346D01*
X109484188Y-110013803D01*
X109474003Y-110110711D01*
X100508500Y-110110711D01*
X100508500Y-103500469D01*
X223382095Y-103500469D01*
X223395427Y-103731697D01*
X223396564Y-103736743D01*
X223396565Y-103736749D01*
X223428741Y-103879523D01*
X223446346Y-103957642D01*
X223533484Y-104172237D01*
X223654501Y-104369719D01*
X223806147Y-104544784D01*
X223984349Y-104692730D01*
X224184322Y-104809584D01*
X224400694Y-104892209D01*
X224405760Y-104893240D01*
X224405761Y-104893240D01*
X224458846Y-104904040D01*
X224627656Y-104938385D01*
X224757089Y-104943131D01*
X224853949Y-104946683D01*
X224853953Y-104946683D01*
X224859113Y-104946872D01*
X224864233Y-104946216D01*
X224864235Y-104946216D01*
X224938166Y-104936745D01*
X225088847Y-104917442D01*
X225093795Y-104915957D01*
X225093802Y-104915956D01*
X225305747Y-104852369D01*
X225310690Y-104850886D01*
X225391236Y-104811427D01*
X225514049Y-104751262D01*
X225514052Y-104751260D01*
X225518684Y-104748991D01*
X225707243Y-104614494D01*
X225752309Y-104569585D01*
X225814681Y-104535669D01*
X225885487Y-104540857D01*
X225942249Y-104583503D01*
X225959231Y-104614607D01*
X225984385Y-104681705D01*
X226071739Y-104798261D01*
X226188295Y-104885615D01*
X226324684Y-104936745D01*
X226386866Y-104943500D01*
X228283134Y-104943500D01*
X228345316Y-104936745D01*
X228481705Y-104885615D01*
X228598261Y-104798261D01*
X228685615Y-104681705D01*
X228736745Y-104545316D01*
X228743500Y-104483134D01*
X228743500Y-102586866D01*
X228736745Y-102524684D01*
X228685615Y-102388295D01*
X228598261Y-102271739D01*
X228481705Y-102184385D01*
X228345316Y-102133255D01*
X228283134Y-102126500D01*
X226386866Y-102126500D01*
X226324684Y-102133255D01*
X226188295Y-102184385D01*
X226071739Y-102271739D01*
X225984385Y-102388295D01*
X225981233Y-102396703D01*
X225981232Y-102396705D01*
X225960538Y-102451906D01*
X225917897Y-102508671D01*
X225851335Y-102533371D01*
X225781986Y-102518164D01*
X225759167Y-102501666D01*
X225758887Y-102501358D01*
X225626373Y-102396705D01*
X225581177Y-102361011D01*
X225581172Y-102361008D01*
X225577123Y-102357810D01*
X225572607Y-102355317D01*
X225572604Y-102355315D01*
X225378879Y-102248373D01*
X225378875Y-102248371D01*
X225374355Y-102245876D01*
X225369486Y-102244152D01*
X225369482Y-102244150D01*
X225160903Y-102170288D01*
X225160899Y-102170287D01*
X225156028Y-102168562D01*
X225150935Y-102167655D01*
X225150932Y-102167654D01*
X224933095Y-102128851D01*
X224933089Y-102128850D01*
X224928006Y-102127945D01*
X224855096Y-102127054D01*
X224701581Y-102125179D01*
X224701579Y-102125179D01*
X224696411Y-102125116D01*
X224467464Y-102160150D01*
X224247314Y-102232106D01*
X224242726Y-102234494D01*
X224242722Y-102234496D01*
X224046461Y-102336663D01*
X224041872Y-102339052D01*
X224037739Y-102342155D01*
X224037736Y-102342157D01*
X223860790Y-102475012D01*
X223856655Y-102478117D01*
X223696639Y-102645564D01*
X223566119Y-102836899D01*
X223468602Y-103046981D01*
X223406707Y-103270169D01*
X223382095Y-103500469D01*
X100508500Y-103500469D01*
X100508500Y-97040000D01*
X103936654Y-97040000D01*
X103956017Y-97335426D01*
X104013776Y-97625797D01*
X104108941Y-97906145D01*
X104239885Y-98171673D01*
X104404367Y-98417838D01*
X104407081Y-98420932D01*
X104407085Y-98420938D01*
X104596864Y-98637338D01*
X104599573Y-98640427D01*
X104602662Y-98643136D01*
X104819062Y-98832915D01*
X104819068Y-98832919D01*
X104822162Y-98835633D01*
X104825588Y-98837922D01*
X104825593Y-98837926D01*
X105009405Y-98960744D01*
X105068327Y-99000115D01*
X105072026Y-99001939D01*
X105072031Y-99001942D01*
X105208313Y-99069148D01*
X105333855Y-99131059D01*
X105337760Y-99132384D01*
X105337761Y-99132385D01*
X105610290Y-99224896D01*
X105610294Y-99224897D01*
X105614203Y-99226224D01*
X105618247Y-99227028D01*
X105618253Y-99227030D01*
X105900535Y-99283180D01*
X105900541Y-99283181D01*
X105904574Y-99283983D01*
X105908679Y-99284252D01*
X105908686Y-99284253D01*
X106195881Y-99303076D01*
X106200000Y-99303346D01*
X106204119Y-99303076D01*
X106491314Y-99284253D01*
X106491321Y-99284252D01*
X106495426Y-99283983D01*
X106499459Y-99283181D01*
X106499465Y-99283180D01*
X106781747Y-99227030D01*
X106781753Y-99227028D01*
X106785797Y-99226224D01*
X106789706Y-99224897D01*
X106789710Y-99224896D01*
X107062239Y-99132385D01*
X107062240Y-99132384D01*
X107066145Y-99131059D01*
X107191687Y-99069148D01*
X107327969Y-99001942D01*
X107327974Y-99001939D01*
X107331673Y-99000115D01*
X107390595Y-98960744D01*
X107574407Y-98837926D01*
X107574412Y-98837922D01*
X107577838Y-98835633D01*
X107580932Y-98832919D01*
X107580938Y-98832915D01*
X107797338Y-98643136D01*
X107800427Y-98640427D01*
X107803136Y-98637338D01*
X107992915Y-98420938D01*
X107992919Y-98420932D01*
X107995633Y-98417838D01*
X108160115Y-98171673D01*
X108291059Y-97906145D01*
X108386224Y-97625797D01*
X108443983Y-97335426D01*
X108463346Y-97040000D01*
X178936654Y-97040000D01*
X178956017Y-97335426D01*
X179013776Y-97625797D01*
X179108941Y-97906145D01*
X179239885Y-98171673D01*
X179404367Y-98417838D01*
X179407081Y-98420932D01*
X179407085Y-98420938D01*
X179596864Y-98637338D01*
X179599573Y-98640427D01*
X179602662Y-98643136D01*
X179819062Y-98832915D01*
X179819068Y-98832919D01*
X179822162Y-98835633D01*
X179825588Y-98837922D01*
X179825593Y-98837926D01*
X180009405Y-98960744D01*
X180068327Y-99000115D01*
X180072026Y-99001939D01*
X180072031Y-99001942D01*
X180208313Y-99069148D01*
X180333855Y-99131059D01*
X180337760Y-99132384D01*
X180337761Y-99132385D01*
X180610290Y-99224896D01*
X180610294Y-99224897D01*
X180614203Y-99226224D01*
X180618247Y-99227028D01*
X180618253Y-99227030D01*
X180900535Y-99283180D01*
X180900541Y-99283181D01*
X180904574Y-99283983D01*
X180908679Y-99284252D01*
X180908686Y-99284253D01*
X181195881Y-99303076D01*
X181200000Y-99303346D01*
X181204119Y-99303076D01*
X181491314Y-99284253D01*
X181491321Y-99284252D01*
X181495426Y-99283983D01*
X181499459Y-99283181D01*
X181499465Y-99283180D01*
X181781747Y-99227030D01*
X181781753Y-99227028D01*
X181785797Y-99226224D01*
X181789706Y-99224897D01*
X181789710Y-99224896D01*
X182062239Y-99132385D01*
X182062240Y-99132384D01*
X182066145Y-99131059D01*
X182191687Y-99069148D01*
X182327969Y-99001942D01*
X182327974Y-99001939D01*
X182331673Y-99000115D01*
X182390595Y-98960744D01*
X182574407Y-98837926D01*
X182574412Y-98837922D01*
X182577838Y-98835633D01*
X182580932Y-98832919D01*
X182580938Y-98832915D01*
X182797338Y-98643136D01*
X182800427Y-98640427D01*
X182803136Y-98637338D01*
X182992915Y-98420938D01*
X182992919Y-98420932D01*
X182995633Y-98417838D01*
X183160115Y-98171673D01*
X183291059Y-97906145D01*
X183386224Y-97625797D01*
X183443983Y-97335426D01*
X183463346Y-97040000D01*
X183443983Y-96744574D01*
X183386224Y-96454203D01*
X183291059Y-96173855D01*
X183160115Y-95908327D01*
X182995633Y-95662162D01*
X182992919Y-95659068D01*
X182992915Y-95659062D01*
X182803136Y-95442662D01*
X182800427Y-95439573D01*
X182797338Y-95436864D01*
X182580938Y-95247085D01*
X182580932Y-95247081D01*
X182577838Y-95244367D01*
X182574412Y-95242078D01*
X182574407Y-95242074D01*
X182335106Y-95082179D01*
X182331673Y-95079885D01*
X182327974Y-95078061D01*
X182327969Y-95078058D01*
X182191687Y-95010852D01*
X182066145Y-94948941D01*
X182062239Y-94947615D01*
X181789710Y-94855104D01*
X181789706Y-94855103D01*
X181785797Y-94853776D01*
X181781753Y-94852972D01*
X181781747Y-94852970D01*
X181499465Y-94796820D01*
X181499459Y-94796819D01*
X181495426Y-94796017D01*
X181491321Y-94795748D01*
X181491314Y-94795747D01*
X181204119Y-94776924D01*
X181200000Y-94776654D01*
X181195881Y-94776924D01*
X180908686Y-94795747D01*
X180908679Y-94795748D01*
X180904574Y-94796017D01*
X180900541Y-94796819D01*
X180900535Y-94796820D01*
X180618253Y-94852970D01*
X180618247Y-94852972D01*
X180614203Y-94853776D01*
X180610294Y-94855103D01*
X180610290Y-94855104D01*
X180337761Y-94947615D01*
X180333855Y-94948941D01*
X180208313Y-95010852D01*
X180072031Y-95078058D01*
X180072026Y-95078061D01*
X180068327Y-95079885D01*
X180064894Y-95082179D01*
X179825593Y-95242074D01*
X179825588Y-95242078D01*
X179822162Y-95244367D01*
X179819068Y-95247081D01*
X179819062Y-95247085D01*
X179602662Y-95436864D01*
X179599573Y-95439573D01*
X179596864Y-95442662D01*
X179407085Y-95659062D01*
X179407081Y-95659068D01*
X179404367Y-95662162D01*
X179239885Y-95908327D01*
X179108941Y-96173855D01*
X179013776Y-96454203D01*
X178956017Y-96744574D01*
X178936654Y-97040000D01*
X108463346Y-97040000D01*
X108443983Y-96744574D01*
X108386224Y-96454203D01*
X108291059Y-96173855D01*
X108160115Y-95908327D01*
X107995633Y-95662162D01*
X107992919Y-95659068D01*
X107992915Y-95659062D01*
X107803136Y-95442662D01*
X107800427Y-95439573D01*
X107797338Y-95436864D01*
X107580938Y-95247085D01*
X107580932Y-95247081D01*
X107577838Y-95244367D01*
X107574412Y-95242078D01*
X107574407Y-95242074D01*
X107335106Y-95082179D01*
X107331673Y-95079885D01*
X107327974Y-95078061D01*
X107327969Y-95078058D01*
X107191687Y-95010852D01*
X107066145Y-94948941D01*
X107062239Y-94947615D01*
X106789710Y-94855104D01*
X106789706Y-94855103D01*
X106785797Y-94853776D01*
X106781753Y-94852972D01*
X106781747Y-94852970D01*
X106499465Y-94796820D01*
X106499459Y-94796819D01*
X106495426Y-94796017D01*
X106491321Y-94795748D01*
X106491314Y-94795747D01*
X106204119Y-94776924D01*
X106200000Y-94776654D01*
X106195881Y-94776924D01*
X105908686Y-94795747D01*
X105908679Y-94795748D01*
X105904574Y-94796017D01*
X105900541Y-94796819D01*
X105900535Y-94796820D01*
X105618253Y-94852970D01*
X105618247Y-94852972D01*
X105614203Y-94853776D01*
X105610294Y-94855103D01*
X105610290Y-94855104D01*
X105337761Y-94947615D01*
X105333855Y-94948941D01*
X105208313Y-95010852D01*
X105072031Y-95078058D01*
X105072026Y-95078061D01*
X105068327Y-95079885D01*
X105064894Y-95082179D01*
X104825593Y-95242074D01*
X104825588Y-95242078D01*
X104822162Y-95244367D01*
X104819068Y-95247081D01*
X104819062Y-95247085D01*
X104602662Y-95436864D01*
X104599573Y-95439573D01*
X104596864Y-95442662D01*
X104407085Y-95659062D01*
X104407081Y-95659068D01*
X104404367Y-95662162D01*
X104239885Y-95908327D01*
X104108941Y-96173855D01*
X104013776Y-96454203D01*
X103956017Y-96744574D01*
X103936654Y-97040000D01*
X100508500Y-97040000D01*
X100508500Y-81349721D01*
X103631024Y-81349721D01*
X103633491Y-81358352D01*
X103639150Y-81378153D01*
X103642728Y-81394915D01*
X103646920Y-81424187D01*
X103650634Y-81432355D01*
X103650634Y-81432356D01*
X103657548Y-81447562D01*
X103663996Y-81465086D01*
X103671051Y-81489771D01*
X103675843Y-81497365D01*
X103675844Y-81497368D01*
X103686830Y-81514780D01*
X103694969Y-81529863D01*
X103707208Y-81556782D01*
X103713069Y-81563584D01*
X103723970Y-81576235D01*
X103735073Y-81591239D01*
X103748776Y-81612958D01*
X103755501Y-81618897D01*
X103755504Y-81618901D01*
X103770938Y-81632532D01*
X103782982Y-81644724D01*
X103796427Y-81660327D01*
X103796430Y-81660329D01*
X103802287Y-81667127D01*
X103809816Y-81672007D01*
X103809817Y-81672008D01*
X103823835Y-81681094D01*
X103838709Y-81692385D01*
X103851217Y-81703431D01*
X103857951Y-81709378D01*
X103884711Y-81721942D01*
X103899691Y-81730263D01*
X103916983Y-81741471D01*
X103916988Y-81741473D01*
X103924515Y-81746352D01*
X103933108Y-81748922D01*
X103933113Y-81748924D01*
X103949120Y-81753711D01*
X103966564Y-81760372D01*
X103981676Y-81767467D01*
X103981678Y-81767468D01*
X103989800Y-81771281D01*
X103998667Y-81772662D01*
X103998668Y-81772662D01*
X104001353Y-81773080D01*
X104019017Y-81775830D01*
X104035732Y-81779613D01*
X104055466Y-81785515D01*
X104055472Y-81785516D01*
X104064066Y-81788086D01*
X104073037Y-81788141D01*
X104073038Y-81788141D01*
X104083097Y-81788202D01*
X104098506Y-81788296D01*
X104099289Y-81788329D01*
X104100386Y-81788500D01*
X104131377Y-81788500D01*
X104132147Y-81788502D01*
X104205785Y-81788952D01*
X104205786Y-81788952D01*
X104209721Y-81788976D01*
X104211065Y-81788592D01*
X104212410Y-81788500D01*
X126991377Y-81788500D01*
X126992148Y-81788502D01*
X127069721Y-81788976D01*
X127098152Y-81780850D01*
X127114915Y-81777272D01*
X127115753Y-81777152D01*
X127144187Y-81773080D01*
X127167564Y-81762451D01*
X127185087Y-81756004D01*
X127209771Y-81748949D01*
X127217365Y-81744157D01*
X127217368Y-81744156D01*
X127234780Y-81733170D01*
X127249865Y-81725030D01*
X127276782Y-81712792D01*
X127296235Y-81696030D01*
X127311239Y-81684927D01*
X127332958Y-81671224D01*
X127338897Y-81664499D01*
X127338901Y-81664496D01*
X127352532Y-81649062D01*
X127364724Y-81637018D01*
X127380327Y-81623573D01*
X127380329Y-81623570D01*
X127387127Y-81617713D01*
X127401094Y-81596165D01*
X127412385Y-81581291D01*
X127423431Y-81568783D01*
X127423432Y-81568782D01*
X127429378Y-81562049D01*
X127441943Y-81535287D01*
X127450263Y-81520309D01*
X127461471Y-81503017D01*
X127461473Y-81503012D01*
X127466352Y-81495485D01*
X127468922Y-81486892D01*
X127468924Y-81486887D01*
X127473711Y-81470880D01*
X127480372Y-81453436D01*
X127487467Y-81438324D01*
X127487468Y-81438322D01*
X127491281Y-81430200D01*
X127495830Y-81400983D01*
X127499613Y-81384268D01*
X127505515Y-81364534D01*
X127505516Y-81364528D01*
X127508086Y-81355934D01*
X127508296Y-81321494D01*
X127508329Y-81320711D01*
X127508500Y-81319614D01*
X127508500Y-81288623D01*
X127508502Y-81287853D01*
X127508952Y-81214215D01*
X127508952Y-81214214D01*
X127508976Y-81210279D01*
X127508592Y-81208935D01*
X127508500Y-81207590D01*
X127508500Y-78706695D01*
X130717251Y-78706695D01*
X130717548Y-78711848D01*
X130717548Y-78711851D01*
X130723011Y-78806590D01*
X130730110Y-78929715D01*
X130731247Y-78934761D01*
X130731248Y-78934767D01*
X130751119Y-79022939D01*
X130779222Y-79147639D01*
X130863266Y-79354616D01*
X130979987Y-79545088D01*
X131126250Y-79713938D01*
X131298126Y-79856632D01*
X131491000Y-79969338D01*
X131699692Y-80049030D01*
X131704760Y-80050061D01*
X131704763Y-80050062D01*
X131812017Y-80071883D01*
X131918597Y-80093567D01*
X131923772Y-80093757D01*
X131923774Y-80093757D01*
X132136673Y-80101564D01*
X132136677Y-80101564D01*
X132141837Y-80101753D01*
X132146957Y-80101097D01*
X132146959Y-80101097D01*
X132358288Y-80074025D01*
X132358289Y-80074025D01*
X132363416Y-80073368D01*
X132368366Y-80071883D01*
X132572429Y-80010661D01*
X132572434Y-80010659D01*
X132577384Y-80009174D01*
X132777994Y-79910896D01*
X132959860Y-79781173D01*
X133118096Y-79623489D01*
X133177594Y-79540689D01*
X133245435Y-79446277D01*
X133248453Y-79442077D01*
X133347430Y-79241811D01*
X133412370Y-79028069D01*
X133441529Y-78806590D01*
X133443156Y-78740000D01*
X133424852Y-78517361D01*
X133370431Y-78300702D01*
X133281354Y-78095840D01*
X133160014Y-77908277D01*
X133009670Y-77743051D01*
X133005619Y-77739852D01*
X133005615Y-77739848D01*
X132838414Y-77607800D01*
X132838410Y-77607798D01*
X132834359Y-77604598D01*
X132793053Y-77581796D01*
X132743084Y-77531364D01*
X132728312Y-77461921D01*
X132753428Y-77395516D01*
X132780780Y-77368909D01*
X132824603Y-77337650D01*
X132959860Y-77241173D01*
X133118096Y-77083489D01*
X133177594Y-77000689D01*
X133245435Y-76906277D01*
X133248453Y-76902077D01*
X133347430Y-76701811D01*
X133412370Y-76488069D01*
X133441529Y-76266590D01*
X133443156Y-76200000D01*
X133424852Y-75977361D01*
X133370431Y-75760702D01*
X133281354Y-75555840D01*
X133160014Y-75368277D01*
X133009670Y-75203051D01*
X133005619Y-75199852D01*
X133005615Y-75199848D01*
X132838414Y-75067800D01*
X132838410Y-75067798D01*
X132834359Y-75064598D01*
X132792569Y-75041529D01*
X132742598Y-74991097D01*
X132727826Y-74921654D01*
X132752942Y-74855248D01*
X132780294Y-74828641D01*
X132955328Y-74703792D01*
X132963200Y-74697139D01*
X133114052Y-74546812D01*
X133120730Y-74538965D01*
X133245003Y-74366020D01*
X133250313Y-74357183D01*
X133344670Y-74166267D01*
X133348469Y-74156672D01*
X133410377Y-73952910D01*
X133412555Y-73942837D01*
X133413986Y-73931962D01*
X133411775Y-73917778D01*
X133398617Y-73914000D01*
X130763225Y-73914000D01*
X130749694Y-73917973D01*
X130748257Y-73927966D01*
X130778565Y-74062446D01*
X130781645Y-74072275D01*
X130861770Y-74269603D01*
X130866413Y-74278794D01*
X130977694Y-74460388D01*
X130983777Y-74468699D01*
X131123213Y-74629667D01*
X131130580Y-74636883D01*
X131294434Y-74772916D01*
X131302881Y-74778831D01*
X131371969Y-74819203D01*
X131420693Y-74870842D01*
X131433764Y-74940625D01*
X131407033Y-75006396D01*
X131366584Y-75039752D01*
X131353607Y-75046507D01*
X131349474Y-75049610D01*
X131349471Y-75049612D01*
X131325247Y-75067800D01*
X131174965Y-75180635D01*
X131020629Y-75342138D01*
X130894743Y-75526680D01*
X130800688Y-75729305D01*
X130740989Y-75944570D01*
X130717251Y-76166695D01*
X130717548Y-76171848D01*
X130717548Y-76171851D01*
X130723011Y-76266590D01*
X130730110Y-76389715D01*
X130731247Y-76394761D01*
X130731248Y-76394767D01*
X130751119Y-76482939D01*
X130779222Y-76607639D01*
X130863266Y-76814616D01*
X130979987Y-77005088D01*
X131126250Y-77173938D01*
X131298126Y-77316632D01*
X131368595Y-77357811D01*
X131371445Y-77359476D01*
X131420169Y-77411114D01*
X131433240Y-77480897D01*
X131406509Y-77546669D01*
X131366055Y-77580027D01*
X131353607Y-77586507D01*
X131349474Y-77589610D01*
X131349471Y-77589612D01*
X131325247Y-77607800D01*
X131174965Y-77720635D01*
X131020629Y-77882138D01*
X130894743Y-78066680D01*
X130800688Y-78269305D01*
X130740989Y-78484570D01*
X130717251Y-78706695D01*
X127508500Y-78706695D01*
X127508500Y-72018134D01*
X130721500Y-72018134D01*
X130728255Y-72080316D01*
X130779385Y-72216705D01*
X130866739Y-72333261D01*
X130983295Y-72420615D01*
X130991704Y-72423767D01*
X130991705Y-72423768D01*
X131100960Y-72464726D01*
X131157725Y-72507367D01*
X131182425Y-72573929D01*
X131167218Y-72643278D01*
X131147825Y-72669759D01*
X131024590Y-72798717D01*
X131018104Y-72806727D01*
X130898098Y-72982649D01*
X130893000Y-72991623D01*
X130803338Y-73184783D01*
X130799775Y-73194470D01*
X130744389Y-73394183D01*
X130745912Y-73402607D01*
X130758292Y-73406000D01*
X133398344Y-73406000D01*
X133411875Y-73402027D01*
X133413180Y-73392947D01*
X133371214Y-73225875D01*
X133367894Y-73216124D01*
X133282972Y-73020814D01*
X133278105Y-73011739D01*
X133162426Y-72832926D01*
X133156136Y-72824757D01*
X133012293Y-72666677D01*
X132981241Y-72602831D01*
X132989635Y-72532333D01*
X133034812Y-72477564D01*
X133061256Y-72463895D01*
X133168297Y-72423767D01*
X133176705Y-72420615D01*
X133293261Y-72333261D01*
X133380615Y-72216705D01*
X133431745Y-72080316D01*
X133438500Y-72018134D01*
X133438500Y-70221866D01*
X133431745Y-70159684D01*
X133380615Y-70023295D01*
X133293261Y-69906739D01*
X133176705Y-69819385D01*
X133040316Y-69768255D01*
X132978134Y-69761500D01*
X131181866Y-69761500D01*
X131119684Y-69768255D01*
X130983295Y-69819385D01*
X130866739Y-69906739D01*
X130779385Y-70023295D01*
X130728255Y-70159684D01*
X130721500Y-70221866D01*
X130721500Y-72018134D01*
X127508500Y-72018134D01*
X127508500Y-68588623D01*
X127508502Y-68587853D01*
X127508800Y-68539102D01*
X127508976Y-68510279D01*
X127500850Y-68481847D01*
X127497272Y-68465085D01*
X127494352Y-68444698D01*
X127493080Y-68435813D01*
X127482451Y-68412436D01*
X127476004Y-68394913D01*
X127471416Y-68378862D01*
X127468949Y-68370229D01*
X127464156Y-68362632D01*
X127453170Y-68345220D01*
X127445030Y-68330135D01*
X127442564Y-68324711D01*
X127432792Y-68303218D01*
X127416030Y-68283765D01*
X127404927Y-68268761D01*
X127391224Y-68247042D01*
X127384499Y-68241103D01*
X127384496Y-68241099D01*
X127369062Y-68227468D01*
X127357018Y-68215276D01*
X127343573Y-68199673D01*
X127343570Y-68199671D01*
X127337713Y-68192873D01*
X127324009Y-68183990D01*
X127316165Y-68178906D01*
X127301291Y-68167615D01*
X127288783Y-68156569D01*
X127288782Y-68156568D01*
X127282049Y-68150622D01*
X127255287Y-68138057D01*
X127240309Y-68129737D01*
X127223017Y-68118529D01*
X127223012Y-68118527D01*
X127215485Y-68113648D01*
X127206892Y-68111078D01*
X127206887Y-68111076D01*
X127190880Y-68106289D01*
X127173436Y-68099628D01*
X127158324Y-68092533D01*
X127158322Y-68092532D01*
X127150200Y-68088719D01*
X127141333Y-68087338D01*
X127141332Y-68087338D01*
X127130478Y-68085648D01*
X127120983Y-68084170D01*
X127104268Y-68080387D01*
X127084534Y-68074485D01*
X127084528Y-68074484D01*
X127075934Y-68071914D01*
X127066963Y-68071859D01*
X127066962Y-68071859D01*
X127056903Y-68071798D01*
X127041494Y-68071704D01*
X127040711Y-68071671D01*
X127039614Y-68071500D01*
X127008623Y-68071500D01*
X127007853Y-68071498D01*
X126934215Y-68071048D01*
X126934214Y-68071048D01*
X126930279Y-68071024D01*
X126928935Y-68071408D01*
X126927590Y-68071500D01*
X107640204Y-68071500D01*
X107572083Y-68051498D01*
X107525590Y-67997842D01*
X107515486Y-67927568D01*
X107544980Y-67862988D01*
X107570200Y-67840737D01*
X107577838Y-67835633D01*
X107580932Y-67832919D01*
X107580938Y-67832915D01*
X107797338Y-67643136D01*
X107800427Y-67640427D01*
X107803136Y-67637338D01*
X107992915Y-67420938D01*
X107992919Y-67420932D01*
X107995633Y-67417838D01*
X108160115Y-67171673D01*
X108291059Y-66906145D01*
X108386224Y-66625797D01*
X108443983Y-66335426D01*
X108463346Y-66040000D01*
X178936654Y-66040000D01*
X178956017Y-66335426D01*
X179013776Y-66625797D01*
X179108941Y-66906145D01*
X179239885Y-67171673D01*
X179404367Y-67417838D01*
X179407081Y-67420932D01*
X179407085Y-67420938D01*
X179596864Y-67637338D01*
X179599573Y-67640427D01*
X179602662Y-67643136D01*
X179819062Y-67832915D01*
X179819068Y-67832919D01*
X179822162Y-67835633D01*
X179825585Y-67837920D01*
X179825593Y-67837926D01*
X180009405Y-67960744D01*
X180068327Y-68000115D01*
X180072026Y-68001939D01*
X180072031Y-68001942D01*
X180128313Y-68029697D01*
X180333855Y-68131059D01*
X180337760Y-68132384D01*
X180337761Y-68132385D01*
X180610290Y-68224896D01*
X180610294Y-68224897D01*
X180614203Y-68226224D01*
X180618247Y-68227028D01*
X180618253Y-68227030D01*
X180900535Y-68283180D01*
X180900541Y-68283181D01*
X180904574Y-68283983D01*
X180908679Y-68284252D01*
X180908686Y-68284253D01*
X181195881Y-68303076D01*
X181200000Y-68303346D01*
X181204119Y-68303076D01*
X181491314Y-68284253D01*
X181491321Y-68284252D01*
X181495426Y-68283983D01*
X181499459Y-68283181D01*
X181499465Y-68283180D01*
X181781747Y-68227030D01*
X181781753Y-68227028D01*
X181785797Y-68226224D01*
X181789706Y-68224897D01*
X181789710Y-68224896D01*
X182062239Y-68132385D01*
X182062240Y-68132384D01*
X182066145Y-68131059D01*
X182271687Y-68029697D01*
X182327969Y-68001942D01*
X182327974Y-68001939D01*
X182331673Y-68000115D01*
X182390595Y-67960744D01*
X182574407Y-67837926D01*
X182574415Y-67837920D01*
X182577838Y-67835633D01*
X182580932Y-67832919D01*
X182580938Y-67832915D01*
X182797338Y-67643136D01*
X182800427Y-67640427D01*
X182803136Y-67637338D01*
X182992915Y-67420938D01*
X182992919Y-67420932D01*
X182995633Y-67417838D01*
X183160115Y-67171673D01*
X183291059Y-66906145D01*
X183386224Y-66625797D01*
X183443983Y-66335426D01*
X183463346Y-66040000D01*
X183443983Y-65744574D01*
X183386224Y-65454203D01*
X183291059Y-65173855D01*
X183160115Y-64908327D01*
X182995633Y-64662162D01*
X182992919Y-64659068D01*
X182992915Y-64659062D01*
X182803136Y-64442662D01*
X182800427Y-64439573D01*
X182797338Y-64436864D01*
X182580938Y-64247085D01*
X182580932Y-64247081D01*
X182577838Y-64244367D01*
X182574412Y-64242078D01*
X182574407Y-64242074D01*
X182335106Y-64082179D01*
X182331673Y-64079885D01*
X182327974Y-64078061D01*
X182327969Y-64078058D01*
X182191687Y-64010852D01*
X182066145Y-63948941D01*
X182062239Y-63947615D01*
X181789710Y-63855104D01*
X181789706Y-63855103D01*
X181785797Y-63853776D01*
X181781753Y-63852972D01*
X181781747Y-63852970D01*
X181499465Y-63796820D01*
X181499459Y-63796819D01*
X181495426Y-63796017D01*
X181491321Y-63795748D01*
X181491314Y-63795747D01*
X181204119Y-63776924D01*
X181200000Y-63776654D01*
X181195881Y-63776924D01*
X180908686Y-63795747D01*
X180908679Y-63795748D01*
X180904574Y-63796017D01*
X180900541Y-63796819D01*
X180900535Y-63796820D01*
X180618253Y-63852970D01*
X180618247Y-63852972D01*
X180614203Y-63853776D01*
X180610294Y-63855103D01*
X180610290Y-63855104D01*
X180337761Y-63947615D01*
X180333855Y-63948941D01*
X180208313Y-64010852D01*
X180072031Y-64078058D01*
X180072026Y-64078061D01*
X180068327Y-64079885D01*
X180064894Y-64082179D01*
X179825593Y-64242074D01*
X179825588Y-64242078D01*
X179822162Y-64244367D01*
X179819068Y-64247081D01*
X179819062Y-64247085D01*
X179602662Y-64436864D01*
X179599573Y-64439573D01*
X179596864Y-64442662D01*
X179407085Y-64659062D01*
X179407081Y-64659068D01*
X179404367Y-64662162D01*
X179239885Y-64908327D01*
X179108941Y-65173855D01*
X179013776Y-65454203D01*
X178956017Y-65744574D01*
X178936654Y-66040000D01*
X108463346Y-66040000D01*
X108443983Y-65744574D01*
X108386224Y-65454203D01*
X108291059Y-65173855D01*
X108160115Y-64908327D01*
X107995633Y-64662162D01*
X107992919Y-64659068D01*
X107992915Y-64659062D01*
X107803136Y-64442662D01*
X107800427Y-64439573D01*
X107797338Y-64436864D01*
X107580938Y-64247085D01*
X107580932Y-64247081D01*
X107577838Y-64244367D01*
X107574412Y-64242078D01*
X107574407Y-64242074D01*
X107335106Y-64082179D01*
X107331673Y-64079885D01*
X107327974Y-64078061D01*
X107327969Y-64078058D01*
X107191687Y-64010852D01*
X107066145Y-63948941D01*
X107062239Y-63947615D01*
X106789710Y-63855104D01*
X106789706Y-63855103D01*
X106785797Y-63853776D01*
X106781753Y-63852972D01*
X106781747Y-63852970D01*
X106499465Y-63796820D01*
X106499459Y-63796819D01*
X106495426Y-63796017D01*
X106491321Y-63795748D01*
X106491314Y-63795747D01*
X106204119Y-63776924D01*
X106200000Y-63776654D01*
X106195881Y-63776924D01*
X105908686Y-63795747D01*
X105908679Y-63795748D01*
X105904574Y-63796017D01*
X105900541Y-63796819D01*
X105900535Y-63796820D01*
X105618253Y-63852970D01*
X105618247Y-63852972D01*
X105614203Y-63853776D01*
X105610294Y-63855103D01*
X105610290Y-63855104D01*
X105337761Y-63947615D01*
X105333855Y-63948941D01*
X105208313Y-64010852D01*
X105072031Y-64078058D01*
X105072026Y-64078061D01*
X105068327Y-64079885D01*
X105064894Y-64082179D01*
X104825593Y-64242074D01*
X104825588Y-64242078D01*
X104822162Y-64244367D01*
X104819068Y-64247081D01*
X104819062Y-64247085D01*
X104602662Y-64436864D01*
X104599573Y-64439573D01*
X104596864Y-64442662D01*
X104407085Y-64659062D01*
X104407081Y-64659068D01*
X104404367Y-64662162D01*
X104239885Y-64908327D01*
X104108941Y-65173855D01*
X104013776Y-65454203D01*
X103956017Y-65744574D01*
X103936654Y-66040000D01*
X103956017Y-66335426D01*
X104013776Y-66625797D01*
X104108941Y-66906145D01*
X104239885Y-67171673D01*
X104404367Y-67417838D01*
X104407081Y-67420932D01*
X104407085Y-67420938D01*
X104596864Y-67637338D01*
X104599573Y-67640427D01*
X104602662Y-67643136D01*
X104819062Y-67832915D01*
X104819068Y-67832919D01*
X104822162Y-67835633D01*
X104829798Y-67840735D01*
X104875325Y-67895210D01*
X104884174Y-67965653D01*
X104853534Y-68029697D01*
X104793133Y-68067010D01*
X104759796Y-68071500D01*
X104148623Y-68071500D01*
X104147853Y-68071498D01*
X104147037Y-68071493D01*
X104070279Y-68071024D01*
X104047918Y-68077415D01*
X104041847Y-68079150D01*
X104025085Y-68082728D01*
X103995813Y-68086920D01*
X103987645Y-68090634D01*
X103987644Y-68090634D01*
X103972438Y-68097548D01*
X103954914Y-68103996D01*
X103930229Y-68111051D01*
X103922635Y-68115843D01*
X103922632Y-68115844D01*
X103905220Y-68126830D01*
X103890137Y-68134969D01*
X103863218Y-68147208D01*
X103856416Y-68153069D01*
X103843765Y-68163970D01*
X103828761Y-68175073D01*
X103807042Y-68188776D01*
X103801103Y-68195501D01*
X103801099Y-68195504D01*
X103787468Y-68210938D01*
X103775276Y-68222982D01*
X103759673Y-68236427D01*
X103759671Y-68236430D01*
X103752873Y-68242287D01*
X103747993Y-68249816D01*
X103747992Y-68249817D01*
X103738906Y-68263835D01*
X103727615Y-68278709D01*
X103716569Y-68291217D01*
X103710622Y-68297951D01*
X103704312Y-68311391D01*
X103698058Y-68324711D01*
X103689737Y-68339691D01*
X103678529Y-68356983D01*
X103678527Y-68356988D01*
X103673648Y-68364515D01*
X103671078Y-68373108D01*
X103671076Y-68373113D01*
X103666289Y-68389120D01*
X103659628Y-68406564D01*
X103652533Y-68421676D01*
X103648719Y-68429800D01*
X103647338Y-68438667D01*
X103647338Y-68438668D01*
X103644170Y-68459015D01*
X103640387Y-68475732D01*
X103634485Y-68495466D01*
X103634484Y-68495472D01*
X103631914Y-68504066D01*
X103631859Y-68513037D01*
X103631859Y-68513038D01*
X103631704Y-68538497D01*
X103631671Y-68539289D01*
X103631500Y-68540386D01*
X103631500Y-68571377D01*
X103631498Y-68572147D01*
X103631024Y-68649721D01*
X103631408Y-68651065D01*
X103631500Y-68652410D01*
X103631500Y-81271377D01*
X103631498Y-81272147D01*
X103631024Y-81349721D01*
X100508500Y-81349721D01*
X100508500Y-53340000D01*
X101876654Y-53340000D01*
X101896017Y-53635426D01*
X101953776Y-53925797D01*
X102048941Y-54206145D01*
X102179885Y-54471673D01*
X102344367Y-54717838D01*
X102347081Y-54720932D01*
X102347085Y-54720938D01*
X102536864Y-54937338D01*
X102539573Y-54940427D01*
X102542662Y-54943136D01*
X102759062Y-55132915D01*
X102759068Y-55132919D01*
X102762162Y-55135633D01*
X102765588Y-55137922D01*
X102765593Y-55137926D01*
X102949405Y-55260744D01*
X103008327Y-55300115D01*
X103012026Y-55301939D01*
X103012031Y-55301942D01*
X103148313Y-55369148D01*
X103273855Y-55431059D01*
X103277760Y-55432384D01*
X103277761Y-55432385D01*
X103550290Y-55524896D01*
X103550294Y-55524897D01*
X103554203Y-55526224D01*
X103558247Y-55527028D01*
X103558253Y-55527030D01*
X103840535Y-55583180D01*
X103840541Y-55583181D01*
X103844574Y-55583983D01*
X103848679Y-55584252D01*
X103848686Y-55584253D01*
X104135881Y-55603076D01*
X104140000Y-55603346D01*
X104144119Y-55603076D01*
X104431314Y-55584253D01*
X104431321Y-55584252D01*
X104435426Y-55583983D01*
X104439459Y-55583181D01*
X104439465Y-55583180D01*
X104721747Y-55527030D01*
X104721753Y-55527028D01*
X104725797Y-55526224D01*
X104729706Y-55524897D01*
X104729710Y-55524896D01*
X105002239Y-55432385D01*
X105002240Y-55432384D01*
X105006145Y-55431059D01*
X105131687Y-55369148D01*
X105267969Y-55301942D01*
X105267974Y-55301939D01*
X105271673Y-55300115D01*
X105330595Y-55260744D01*
X105514407Y-55137926D01*
X105514412Y-55137922D01*
X105517838Y-55135633D01*
X105520932Y-55132919D01*
X105520938Y-55132915D01*
X105737338Y-54943136D01*
X105740427Y-54940427D01*
X105743136Y-54937338D01*
X105932915Y-54720938D01*
X105932919Y-54720932D01*
X105935633Y-54717838D01*
X106100115Y-54471673D01*
X106231059Y-54206145D01*
X106326224Y-53925797D01*
X106383983Y-53635426D01*
X106403346Y-53340000D01*
X231416654Y-53340000D01*
X231436017Y-53635426D01*
X231493776Y-53925797D01*
X231588941Y-54206145D01*
X231719885Y-54471673D01*
X231884367Y-54717838D01*
X231887081Y-54720932D01*
X231887085Y-54720938D01*
X232076864Y-54937338D01*
X232079573Y-54940427D01*
X232082662Y-54943136D01*
X232299062Y-55132915D01*
X232299068Y-55132919D01*
X232302162Y-55135633D01*
X232305588Y-55137922D01*
X232305593Y-55137926D01*
X232489405Y-55260744D01*
X232548327Y-55300115D01*
X232552026Y-55301939D01*
X232552031Y-55301942D01*
X232688313Y-55369148D01*
X232813855Y-55431059D01*
X232817760Y-55432384D01*
X232817761Y-55432385D01*
X233090290Y-55524896D01*
X233090294Y-55524897D01*
X233094203Y-55526224D01*
X233098247Y-55527028D01*
X233098253Y-55527030D01*
X233380535Y-55583180D01*
X233380541Y-55583181D01*
X233384574Y-55583983D01*
X233388679Y-55584252D01*
X233388686Y-55584253D01*
X233675881Y-55603076D01*
X233680000Y-55603346D01*
X233684119Y-55603076D01*
X233971314Y-55584253D01*
X233971321Y-55584252D01*
X233975426Y-55583983D01*
X233979459Y-55583181D01*
X233979465Y-55583180D01*
X234261747Y-55527030D01*
X234261753Y-55527028D01*
X234265797Y-55526224D01*
X234269706Y-55524897D01*
X234269710Y-55524896D01*
X234542239Y-55432385D01*
X234542240Y-55432384D01*
X234546145Y-55431059D01*
X234671687Y-55369148D01*
X234807969Y-55301942D01*
X234807974Y-55301939D01*
X234811673Y-55300115D01*
X234870595Y-55260744D01*
X235054407Y-55137926D01*
X235054412Y-55137922D01*
X235057838Y-55135633D01*
X235060932Y-55132919D01*
X235060938Y-55132915D01*
X235277338Y-54943136D01*
X235280427Y-54940427D01*
X235283136Y-54937338D01*
X235472915Y-54720938D01*
X235472919Y-54720932D01*
X235475633Y-54717838D01*
X235640115Y-54471673D01*
X235771059Y-54206145D01*
X235866224Y-53925797D01*
X235923983Y-53635426D01*
X235943346Y-53340000D01*
X235923983Y-53044574D01*
X235866224Y-52754203D01*
X235771059Y-52473855D01*
X235640115Y-52208327D01*
X235475633Y-51962162D01*
X235472919Y-51959068D01*
X235472915Y-51959062D01*
X235283136Y-51742662D01*
X235280427Y-51739573D01*
X235277338Y-51736864D01*
X235060938Y-51547085D01*
X235060932Y-51547081D01*
X235057838Y-51544367D01*
X235054412Y-51542078D01*
X235054407Y-51542074D01*
X234815106Y-51382179D01*
X234811673Y-51379885D01*
X234807974Y-51378061D01*
X234807969Y-51378058D01*
X234671687Y-51310852D01*
X234546145Y-51248941D01*
X234542239Y-51247615D01*
X234269710Y-51155104D01*
X234269706Y-51155103D01*
X234265797Y-51153776D01*
X234261753Y-51152972D01*
X234261747Y-51152970D01*
X233979465Y-51096820D01*
X233979459Y-51096819D01*
X233975426Y-51096017D01*
X233971321Y-51095748D01*
X233971314Y-51095747D01*
X233684119Y-51076924D01*
X233680000Y-51076654D01*
X233675881Y-51076924D01*
X233388686Y-51095747D01*
X233388679Y-51095748D01*
X233384574Y-51096017D01*
X233380541Y-51096819D01*
X233380535Y-51096820D01*
X233098253Y-51152970D01*
X233098247Y-51152972D01*
X233094203Y-51153776D01*
X233090294Y-51155103D01*
X233090290Y-51155104D01*
X232817761Y-51247615D01*
X232813855Y-51248941D01*
X232688313Y-51310852D01*
X232552031Y-51378058D01*
X232552026Y-51378061D01*
X232548327Y-51379885D01*
X232544894Y-51382179D01*
X232305593Y-51542074D01*
X232305588Y-51542078D01*
X232302162Y-51544367D01*
X232299068Y-51547081D01*
X232299062Y-51547085D01*
X232082662Y-51736864D01*
X232079573Y-51739573D01*
X232076864Y-51742662D01*
X231887085Y-51959062D01*
X231887081Y-51959068D01*
X231884367Y-51962162D01*
X231719885Y-52208327D01*
X231588941Y-52473855D01*
X231493776Y-52754203D01*
X231436017Y-53044574D01*
X231416654Y-53340000D01*
X106403346Y-53340000D01*
X106383983Y-53044574D01*
X106326224Y-52754203D01*
X106231059Y-52473855D01*
X106100115Y-52208327D01*
X105935633Y-51962162D01*
X105932919Y-51959068D01*
X105932915Y-51959062D01*
X105743136Y-51742662D01*
X105740427Y-51739573D01*
X105737338Y-51736864D01*
X105520938Y-51547085D01*
X105520932Y-51547081D01*
X105517838Y-51544367D01*
X105514412Y-51542078D01*
X105514407Y-51542074D01*
X105275106Y-51382179D01*
X105271673Y-51379885D01*
X105267974Y-51378061D01*
X105267969Y-51378058D01*
X105131687Y-51310852D01*
X105006145Y-51248941D01*
X105002239Y-51247615D01*
X104729710Y-51155104D01*
X104729706Y-51155103D01*
X104725797Y-51153776D01*
X104721753Y-51152972D01*
X104721747Y-51152970D01*
X104439465Y-51096820D01*
X104439459Y-51096819D01*
X104435426Y-51096017D01*
X104431321Y-51095748D01*
X104431314Y-51095747D01*
X104144119Y-51076924D01*
X104140000Y-51076654D01*
X104135881Y-51076924D01*
X103848686Y-51095747D01*
X103848679Y-51095748D01*
X103844574Y-51096017D01*
X103840541Y-51096819D01*
X103840535Y-51096820D01*
X103558253Y-51152970D01*
X103558247Y-51152972D01*
X103554203Y-51153776D01*
X103550294Y-51155103D01*
X103550290Y-51155104D01*
X103277761Y-51247615D01*
X103273855Y-51248941D01*
X103148313Y-51310852D01*
X103012031Y-51378058D01*
X103012026Y-51378061D01*
X103008327Y-51379885D01*
X103004894Y-51382179D01*
X102765593Y-51542074D01*
X102765588Y-51542078D01*
X102762162Y-51544367D01*
X102759068Y-51547081D01*
X102759062Y-51547085D01*
X102542662Y-51736864D01*
X102539573Y-51739573D01*
X102536864Y-51742662D01*
X102347085Y-51959062D01*
X102347081Y-51959068D01*
X102344367Y-51962162D01*
X102179885Y-52208327D01*
X102048941Y-52473855D01*
X101953776Y-52754203D01*
X101896017Y-53044574D01*
X101876654Y-53340000D01*
X100508500Y-53340000D01*
X100508500Y-50634500D01*
X100528502Y-50566379D01*
X100582158Y-50519886D01*
X100634500Y-50508500D01*
X236665500Y-50508500D01*
X236733621Y-50528502D01*
G37*
G04 #@! TD.AperFunction*
M02*
