G04 #@! TF.GenerationSoftware,KiCad,Pcbnew,6.0.11*
G04 #@! TF.CreationDate,2023-04-26T02:10:52-07:00*
G04 #@! TF.ProjectId,ldrd,6c647264-2e6b-4696-9361-645f70636258,rev?*
G04 #@! TF.SameCoordinates,Original*
G04 #@! TF.FileFunction,Copper,L4,Bot*
G04 #@! TF.FilePolarity,Positive*
%FSLAX46Y46*%
G04 Gerber Fmt 4.6, Leading zero omitted, Abs format (unit mm)*
G04 Created by KiCad (PCBNEW 6.0.11) date 2023-04-26 02:10:52*
%MOMM*%
%LPD*%
G01*
G04 APERTURE LIST*
G04 #@! TA.AperFunction,ComponentPad*
%ADD10C,2.000000*%
G04 #@! TD*
G04 #@! TA.AperFunction,ComponentPad*
%ADD11C,3.500000*%
G04 #@! TD*
G04 #@! TA.AperFunction,ComponentPad*
%ADD12R,2.000000X2.000000*%
G04 #@! TD*
G04 #@! TA.AperFunction,ComponentPad*
%ADD13R,3.200000X2.000000*%
G04 #@! TD*
G04 #@! TA.AperFunction,ComponentPad*
%ADD14R,1.800000X1.800000*%
G04 #@! TD*
G04 #@! TA.AperFunction,ComponentPad*
%ADD15C,1.800000*%
G04 #@! TD*
G04 #@! TA.AperFunction,ComponentPad*
%ADD16R,1.700000X1.700000*%
G04 #@! TD*
G04 #@! TA.AperFunction,ComponentPad*
%ADD17O,1.700000X1.700000*%
G04 #@! TD*
G04 #@! TA.AperFunction,ComponentPad*
%ADD18O,1.600000X1.000000*%
G04 #@! TD*
G04 #@! TA.AperFunction,ComponentPad*
%ADD19O,2.100000X1.000000*%
G04 #@! TD*
G04 #@! TA.AperFunction,SMDPad,CuDef*
%ADD20C,2.000000*%
G04 #@! TD*
G04 #@! TA.AperFunction,ViaPad*
%ADD21C,0.800000*%
G04 #@! TD*
G04 #@! TA.AperFunction,Conductor*
%ADD22C,0.250000*%
G04 #@! TD*
G04 #@! TA.AperFunction,Conductor*
%ADD23C,0.200000*%
G04 #@! TD*
G04 APERTURE END LIST*
D10*
X230020000Y-114590000D03*
X223520000Y-114590000D03*
X230020000Y-119090000D03*
X223520000Y-119090000D03*
D11*
X106200000Y-97040000D03*
X233680000Y-53340000D03*
X233680000Y-146530000D03*
D12*
X215980000Y-130000000D03*
D10*
X215980000Y-135000000D03*
X215980000Y-132500000D03*
D13*
X223480000Y-126900000D03*
X223480000Y-138100000D03*
D10*
X230480000Y-135000000D03*
X230480000Y-130000000D03*
D11*
X181200000Y-66040000D03*
X181200000Y-97040000D03*
X106200000Y-66040000D03*
D14*
X227335000Y-103535000D03*
D15*
X224795000Y-103535000D03*
D11*
X104140000Y-53340000D03*
X104160000Y-146290000D03*
D16*
X132080000Y-71120000D03*
D17*
X132080000Y-73660000D03*
X132080000Y-76200000D03*
X132080000Y-78740000D03*
D18*
X102735000Y-139440000D03*
X102735000Y-130800000D03*
D19*
X106885000Y-130800000D03*
X106885000Y-139440000D03*
D20*
X140900000Y-124460000D03*
X156140000Y-124460000D03*
X156140000Y-134620000D03*
X140900000Y-134620000D03*
X140900000Y-129400000D03*
X148520000Y-134620000D03*
X148520000Y-139700000D03*
X156140000Y-129540000D03*
X148520000Y-129540000D03*
D16*
X118120000Y-147320000D03*
D17*
X120660000Y-147320000D03*
X123200000Y-147320000D03*
X125740000Y-147320000D03*
D20*
X148520000Y-124460000D03*
D21*
X137083947Y-111836053D03*
X119312844Y-111827156D03*
X210784133Y-111795867D03*
X106680000Y-121920000D03*
X144780000Y-134620000D03*
X152979227Y-132492787D03*
X152336227Y-111823773D03*
X167595853Y-111804147D03*
X182844133Y-111795867D03*
X104140000Y-132718670D03*
X199087118Y-145722482D03*
X198084133Y-111795867D03*
X171973401Y-145759367D03*
X108993401Y-138292992D03*
X106356170Y-111827156D03*
X196100914Y-145722482D03*
X200400520Y-110032193D03*
X140429785Y-110028429D03*
X110387507Y-110110711D03*
X114557500Y-125702532D03*
X104140000Y-127000000D03*
X185363205Y-109963669D03*
X144780000Y-129540000D03*
X153047888Y-134909844D03*
X215900000Y-109220000D03*
X132080000Y-127000000D03*
X140522625Y-138577716D03*
X153084420Y-144095580D03*
X170318196Y-109963669D03*
X125529596Y-110110711D03*
X171917437Y-143940541D03*
X128557500Y-144502500D03*
X163285719Y-134829725D03*
X155358787Y-109974534D03*
X152401567Y-140743999D03*
X144780000Y-127000000D03*
X157367374Y-138432086D03*
X146697490Y-136231201D03*
X153717564Y-147644665D03*
X151771802Y-129540000D03*
X144759911Y-136528363D03*
X144739823Y-137773822D03*
X134497052Y-136523852D03*
X133677401Y-143060568D03*
X134478168Y-135255000D03*
X132017608Y-144761344D03*
X121920000Y-144780000D03*
X146074980Y-140002876D03*
X143774827Y-145744367D03*
X146855390Y-145784768D03*
X150228859Y-145825169D03*
X160020000Y-142240000D03*
X158629590Y-134737647D03*
X127000000Y-121920000D03*
X127000000Y-119380000D03*
X158383249Y-129482375D03*
X156143049Y-116840000D03*
X111725000Y-139665000D03*
X129540000Y-134620000D03*
X144746370Y-132714999D03*
X110267404Y-136159082D03*
D22*
X140900000Y-134620000D02*
X144780000Y-134620000D01*
X140900000Y-129400000D02*
X144640000Y-129400000D01*
X144640000Y-129400000D02*
X144780000Y-129540000D01*
X157367374Y-138432086D02*
X157367374Y-138204025D01*
X144780000Y-127000000D02*
X144780000Y-114300000D01*
X149860000Y-129006167D02*
X149860000Y-114300000D01*
X140900000Y-124460000D02*
X143440000Y-127000000D01*
X151243349Y-132080000D02*
X151243349Y-130389516D01*
X155055461Y-140743999D02*
X152401567Y-140743999D01*
X157367374Y-138432086D02*
X155055461Y-140743999D01*
X157367374Y-138204025D02*
X151243349Y-132080000D01*
X151243349Y-130389516D02*
X149860000Y-129006167D01*
X143440000Y-127000000D02*
X144780000Y-127000000D01*
X149860000Y-114300000D02*
X144780000Y-114300000D01*
X148308691Y-134620000D02*
X146697490Y-136231201D01*
X148520000Y-134620000D02*
X148308691Y-134620000D01*
X233680000Y-109880000D02*
X227335000Y-103535000D01*
X233680000Y-133673833D02*
X233680000Y-109880000D01*
X153717564Y-147644665D02*
X153842899Y-147770000D01*
X219583833Y-147770000D02*
X233680000Y-133673833D01*
X153842899Y-147770000D02*
X219583833Y-147770000D01*
X224795000Y-103535000D02*
X168422744Y-103535000D01*
X151771802Y-120185942D02*
X151771802Y-129540000D01*
X168422744Y-103535000D02*
X151771802Y-120185942D01*
X147195000Y-125785000D02*
X147195000Y-134093274D01*
X122285000Y-145695000D02*
X135593274Y-145695000D01*
X147195000Y-134093274D02*
X144759911Y-136528363D01*
X120660000Y-147320000D02*
X122285000Y-145695000D01*
X135593274Y-145695000D02*
X144759911Y-136528363D01*
X148520000Y-124460000D02*
X147195000Y-125785000D01*
X148520000Y-129540000D02*
X149845000Y-130865000D01*
X145393822Y-137773822D02*
X144739823Y-137773822D01*
X124375000Y-146145000D02*
X123200000Y-147320000D01*
X145393822Y-137773822D02*
X137022644Y-146145000D01*
X149845000Y-130865000D02*
X149845000Y-135168833D01*
X149845000Y-135168833D02*
X147240011Y-137773822D01*
X147240011Y-137773822D02*
X145393822Y-137773822D01*
X137022644Y-146145000D02*
X124375000Y-146145000D01*
X134497052Y-136523852D02*
X134497052Y-142240917D01*
X134497052Y-142240917D02*
X133677401Y-143060568D01*
X134478168Y-135255000D02*
X132017608Y-137715560D01*
X132017608Y-137715560D02*
X132017608Y-144761344D01*
X121538299Y-144780000D02*
X119485000Y-146833299D01*
X119485000Y-147806701D02*
X120173299Y-148495000D01*
X138757856Y-147320000D02*
X146074980Y-140002876D01*
X120173299Y-148495000D02*
X126226701Y-148495000D01*
X126915000Y-147806701D02*
X126915000Y-147320000D01*
X146377856Y-139700000D02*
X146074980Y-140002876D01*
X148520000Y-139700000D02*
X146377856Y-139700000D01*
X126226701Y-148495000D02*
X126915000Y-147806701D01*
X126915000Y-147320000D02*
X138757856Y-147320000D01*
X121920000Y-144780000D02*
X121538299Y-144780000D01*
X119485000Y-146833299D02*
X119485000Y-147806701D01*
X143774827Y-145744367D02*
X146554194Y-142965000D01*
X146554194Y-142965000D02*
X203015000Y-142965000D01*
X203015000Y-142965000D02*
X215980000Y-130000000D01*
X147819578Y-144820580D02*
X206159420Y-144820580D01*
X146855390Y-145784768D02*
X147819578Y-144820580D01*
X206159420Y-144820580D02*
X215980000Y-135000000D01*
X220980000Y-131873833D02*
X220980000Y-121630000D01*
X154418204Y-147320000D02*
X205533833Y-147320000D01*
X152923373Y-145825169D02*
X154418204Y-147320000D01*
X205533833Y-147320000D02*
X220980000Y-131873833D01*
X223520000Y-119090000D02*
X230020000Y-119090000D01*
X150228859Y-145825169D02*
X152923373Y-145825169D01*
X220980000Y-121630000D02*
X223520000Y-119090000D01*
X133255000Y-114639695D02*
X133255000Y-77375000D01*
X160020000Y-136128057D02*
X160020000Y-142240000D01*
X156140000Y-134620000D02*
X158511943Y-134620000D01*
X133255000Y-77375000D02*
X132080000Y-76200000D01*
X158511943Y-134620000D02*
X160020000Y-136128057D01*
X158511943Y-134620000D02*
X158629590Y-134737647D01*
X127000000Y-120894695D02*
X133255000Y-114639695D01*
X127000000Y-121920000D02*
X127000000Y-120894695D01*
X156140000Y-129540000D02*
X158325624Y-129540000D01*
X132080000Y-78740000D02*
X132080000Y-114300000D01*
X132080000Y-114300000D02*
X127000000Y-119380000D01*
X158325624Y-129540000D02*
X158383249Y-129482375D01*
X156143049Y-116840000D02*
X156140000Y-116843049D01*
X156140000Y-116843049D02*
X156140000Y-124460000D01*
D23*
X129540000Y-134620000D02*
X116770000Y-134620000D01*
X116770000Y-134620000D02*
X111725000Y-139665000D01*
X144746370Y-132714999D02*
X113711487Y-132714999D01*
X113711487Y-132714999D02*
X110267404Y-136159082D01*
M02*
