G04 #@! TF.GenerationSoftware,KiCad,Pcbnew,6.0.11*
G04 #@! TF.CreationDate,2023-04-26T02:10:52-07:00*
G04 #@! TF.ProjectId,ldrd,6c647264-2e6b-4696-9361-645f70636258,rev?*
G04 #@! TF.SameCoordinates,Original*
G04 #@! TF.FileFunction,Soldermask,Bot*
G04 #@! TF.FilePolarity,Negative*
%FSLAX46Y46*%
G04 Gerber Fmt 4.6, Leading zero omitted, Abs format (unit mm)*
G04 Created by KiCad (PCBNEW 6.0.11) date 2023-04-26 02:10:52*
%MOMM*%
%LPD*%
G01*
G04 APERTURE LIST*
%ADD10C,2.000000*%
%ADD11C,3.500000*%
%ADD12R,2.000000X2.000000*%
%ADD13R,3.200000X2.000000*%
%ADD14R,1.800000X1.800000*%
%ADD15C,1.800000*%
%ADD16R,1.700000X1.700000*%
%ADD17O,1.700000X1.700000*%
%ADD18C,0.650000*%
%ADD19O,1.600000X1.000000*%
%ADD20O,2.100000X1.000000*%
G04 APERTURE END LIST*
D10*
X230020000Y-114590000D03*
X223520000Y-114590000D03*
X230020000Y-119090000D03*
X223520000Y-119090000D03*
D11*
X106200000Y-97040000D03*
X233680000Y-53340000D03*
X233680000Y-146530000D03*
D12*
X215980000Y-130000000D03*
D10*
X215980000Y-135000000D03*
X215980000Y-132500000D03*
D13*
X223480000Y-126900000D03*
X223480000Y-138100000D03*
D10*
X230480000Y-135000000D03*
X230480000Y-130000000D03*
D11*
X181200000Y-66040000D03*
X181200000Y-97040000D03*
X106200000Y-66040000D03*
D14*
X227335000Y-103535000D03*
D15*
X224795000Y-103535000D03*
D11*
X104140000Y-53340000D03*
X104160000Y-146290000D03*
D16*
X132080000Y-71120000D03*
D17*
X132080000Y-73660000D03*
X132080000Y-76200000D03*
X132080000Y-78740000D03*
D18*
X106385000Y-138010000D03*
X106385000Y-132230000D03*
D19*
X102735000Y-139440000D03*
X102735000Y-130800000D03*
D20*
X106885000Y-130800000D03*
X106885000Y-139440000D03*
D10*
X140900000Y-124460000D03*
X156140000Y-124460000D03*
X156140000Y-134620000D03*
X140900000Y-134620000D03*
X140900000Y-129400000D03*
X148520000Y-134620000D03*
X148520000Y-139700000D03*
X156140000Y-129540000D03*
X148520000Y-129540000D03*
D16*
X118120000Y-147320000D03*
D17*
X120660000Y-147320000D03*
X123200000Y-147320000D03*
X125740000Y-147320000D03*
D10*
X148520000Y-124460000D03*
M02*
