G04 #@! TF.GenerationSoftware,KiCad,Pcbnew,6.0.11*
G04 #@! TF.CreationDate,2023-04-26T05:07:27-07:00*
G04 #@! TF.ProjectId,ldrd,6c647264-2e6b-4696-9361-645f70636258,rev?*
G04 #@! TF.SameCoordinates,Original*
G04 #@! TF.FileFunction,Copper,L2,Inr*
G04 #@! TF.FilePolarity,Positive*
%FSLAX46Y46*%
G04 Gerber Fmt 4.6, Leading zero omitted, Abs format (unit mm)*
G04 Created by KiCad (PCBNEW 6.0.11) date 2023-04-26 05:07:27*
%MOMM*%
%LPD*%
G01*
G04 APERTURE LIST*
G04 #@! TA.AperFunction,ComponentPad*
%ADD10C,3.500000*%
G04 #@! TD*
G04 #@! TA.AperFunction,ComponentPad*
%ADD11R,2.000000X2.000000*%
G04 #@! TD*
G04 #@! TA.AperFunction,ComponentPad*
%ADD12C,2.000000*%
G04 #@! TD*
G04 #@! TA.AperFunction,ComponentPad*
%ADD13R,3.200000X2.000000*%
G04 #@! TD*
G04 #@! TA.AperFunction,ComponentPad*
%ADD14R,1.800000X1.800000*%
G04 #@! TD*
G04 #@! TA.AperFunction,ComponentPad*
%ADD15C,1.800000*%
G04 #@! TD*
G04 #@! TA.AperFunction,ComponentPad*
%ADD16R,1.700000X1.700000*%
G04 #@! TD*
G04 #@! TA.AperFunction,ComponentPad*
%ADD17O,1.700000X1.700000*%
G04 #@! TD*
G04 #@! TA.AperFunction,ComponentPad*
%ADD18O,1.600000X1.000000*%
G04 #@! TD*
G04 #@! TA.AperFunction,ComponentPad*
%ADD19O,2.100000X1.000000*%
G04 #@! TD*
G04 #@! TA.AperFunction,ViaPad*
%ADD20C,0.800000*%
G04 #@! TD*
G04 APERTURE END LIST*
D10*
X106200000Y-97040000D03*
X233680000Y-53340000D03*
X233680000Y-146530000D03*
D11*
X215980000Y-130000000D03*
D12*
X215980000Y-135000000D03*
X215980000Y-132500000D03*
D13*
X223480000Y-126900000D03*
X223480000Y-138100000D03*
D12*
X230480000Y-135000000D03*
X230480000Y-130000000D03*
D10*
X181200000Y-66040000D03*
D12*
X230020000Y-114590000D03*
X223520000Y-114590000D03*
X223520000Y-119090000D03*
X230020000Y-119090000D03*
D10*
X181200000Y-97040000D03*
X106200000Y-66040000D03*
D14*
X227335000Y-103535000D03*
D15*
X224795000Y-103535000D03*
D10*
X104140000Y-53340000D03*
X104160000Y-146290000D03*
D16*
X132080000Y-71120000D03*
D17*
X132080000Y-73660000D03*
X132080000Y-76200000D03*
X132080000Y-78740000D03*
D18*
X102735000Y-139440000D03*
X102735000Y-130800000D03*
D19*
X106885000Y-130800000D03*
X106885000Y-139440000D03*
D16*
X118120000Y-147320000D03*
D17*
X120660000Y-147320000D03*
X123200000Y-147320000D03*
X125740000Y-147320000D03*
D20*
X137083947Y-111836053D03*
X119312844Y-111827156D03*
X210784133Y-111795867D03*
X106680000Y-121920000D03*
X144780000Y-134620000D03*
X152979227Y-132492787D03*
X152336227Y-111823773D03*
X167595853Y-111804147D03*
X182844133Y-111795867D03*
X104140000Y-132718670D03*
X199087118Y-145722482D03*
X198084133Y-111795867D03*
X171973401Y-145759367D03*
X108993401Y-138292992D03*
X106356170Y-111827156D03*
X196100914Y-145722482D03*
X200400520Y-110032193D03*
X140429785Y-110028429D03*
X110387507Y-110110711D03*
X114557500Y-125702532D03*
X104140000Y-127000000D03*
X185363205Y-109963669D03*
X144780000Y-129540000D03*
X153047888Y-134909844D03*
X215900000Y-109220000D03*
X132080000Y-127000000D03*
X140522625Y-138577716D03*
X153084420Y-144095580D03*
X170318196Y-109963669D03*
X125529596Y-110110711D03*
X171917437Y-143940541D03*
X128557500Y-144502500D03*
X163285719Y-134829725D03*
X155358787Y-109974534D03*
X152401567Y-140743999D03*
X144780000Y-127000000D03*
X157367374Y-138432086D03*
X146697490Y-136231201D03*
X153717564Y-147644665D03*
X151771802Y-129540000D03*
X144759911Y-136528363D03*
X144739823Y-137773822D03*
X134497052Y-136523852D03*
X133677401Y-143060568D03*
X134478168Y-135255000D03*
X132017608Y-144761344D03*
X121920000Y-144780000D03*
X146074980Y-140002876D03*
X143774827Y-145744367D03*
X146855390Y-145784768D03*
X150228859Y-145825169D03*
X160020000Y-142240000D03*
X158629590Y-134737647D03*
X127000000Y-121920000D03*
X127000000Y-119380000D03*
X158383249Y-129482375D03*
X156143049Y-116840000D03*
X111725000Y-139665000D03*
X129540000Y-134620000D03*
X144746370Y-132714999D03*
X110267404Y-136159082D03*
G04 #@! TA.AperFunction,Conductor*
G36*
X236733621Y-50528502D02*
G01*
X236780114Y-50582158D01*
X236791500Y-50634500D01*
X236791500Y-149365500D01*
X236771498Y-149433621D01*
X236717842Y-149480114D01*
X236665500Y-149491500D01*
X100634500Y-149491500D01*
X100566379Y-149471498D01*
X100519886Y-149417842D01*
X100508500Y-149365500D01*
X100508500Y-146290000D01*
X101896654Y-146290000D01*
X101896924Y-146294119D01*
X101915568Y-146578571D01*
X101916017Y-146585426D01*
X101916819Y-146589459D01*
X101916820Y-146589465D01*
X101964946Y-146831406D01*
X101973776Y-146875797D01*
X101975103Y-146879706D01*
X101975104Y-146879710D01*
X102050837Y-147102813D01*
X102068941Y-147156145D01*
X102070765Y-147159843D01*
X102189120Y-147399843D01*
X102199885Y-147421673D01*
X102202179Y-147425106D01*
X102360248Y-147661673D01*
X102364367Y-147667838D01*
X102367081Y-147670932D01*
X102367085Y-147670938D01*
X102494891Y-147816672D01*
X102559573Y-147890427D01*
X102562662Y-147893136D01*
X102779062Y-148082915D01*
X102779068Y-148082919D01*
X102782162Y-148085633D01*
X102785588Y-148087922D01*
X102785593Y-148087926D01*
X102952265Y-148199292D01*
X103028327Y-148250115D01*
X103032026Y-148251939D01*
X103032031Y-148251942D01*
X103167241Y-148318620D01*
X103293855Y-148381059D01*
X103297760Y-148382384D01*
X103297761Y-148382385D01*
X103570290Y-148474896D01*
X103570294Y-148474897D01*
X103574203Y-148476224D01*
X103578247Y-148477028D01*
X103578253Y-148477030D01*
X103860535Y-148533180D01*
X103860541Y-148533181D01*
X103864574Y-148533983D01*
X103868679Y-148534252D01*
X103868686Y-148534253D01*
X104155881Y-148553076D01*
X104160000Y-148553346D01*
X104164119Y-148553076D01*
X104451314Y-148534253D01*
X104451321Y-148534252D01*
X104455426Y-148533983D01*
X104459459Y-148533181D01*
X104459465Y-148533180D01*
X104741747Y-148477030D01*
X104741753Y-148477028D01*
X104745797Y-148476224D01*
X104749706Y-148474897D01*
X104749710Y-148474896D01*
X105022239Y-148382385D01*
X105022240Y-148382384D01*
X105026145Y-148381059D01*
X105152759Y-148318620D01*
X105287969Y-148251942D01*
X105287974Y-148251939D01*
X105291673Y-148250115D01*
X105339536Y-148218134D01*
X116761500Y-148218134D01*
X116768255Y-148280316D01*
X116819385Y-148416705D01*
X116906739Y-148533261D01*
X117023295Y-148620615D01*
X117159684Y-148671745D01*
X117221866Y-148678500D01*
X119018134Y-148678500D01*
X119080316Y-148671745D01*
X119216705Y-148620615D01*
X119333261Y-148533261D01*
X119420615Y-148416705D01*
X119442799Y-148357529D01*
X119464598Y-148299382D01*
X119507240Y-148242618D01*
X119573802Y-148217918D01*
X119643150Y-148233126D01*
X119677817Y-148261114D01*
X119706250Y-148293938D01*
X119878126Y-148436632D01*
X120071000Y-148549338D01*
X120279692Y-148629030D01*
X120284760Y-148630061D01*
X120284763Y-148630062D01*
X120379862Y-148649410D01*
X120498597Y-148673567D01*
X120503772Y-148673757D01*
X120503774Y-148673757D01*
X120716673Y-148681564D01*
X120716677Y-148681564D01*
X120721837Y-148681753D01*
X120726957Y-148681097D01*
X120726959Y-148681097D01*
X120938288Y-148654025D01*
X120938289Y-148654025D01*
X120943416Y-148653368D01*
X120948366Y-148651883D01*
X121152429Y-148590661D01*
X121152434Y-148590659D01*
X121157384Y-148589174D01*
X121357994Y-148490896D01*
X121539860Y-148361173D01*
X121573224Y-148327926D01*
X121683616Y-148217918D01*
X121698096Y-148203489D01*
X121748650Y-148133136D01*
X121828453Y-148022077D01*
X121829776Y-148023028D01*
X121876645Y-147979857D01*
X121946580Y-147967625D01*
X122012026Y-147995144D01*
X122039875Y-148026994D01*
X122099987Y-148125088D01*
X122246250Y-148293938D01*
X122418126Y-148436632D01*
X122611000Y-148549338D01*
X122819692Y-148629030D01*
X122824760Y-148630061D01*
X122824763Y-148630062D01*
X122919862Y-148649410D01*
X123038597Y-148673567D01*
X123043772Y-148673757D01*
X123043774Y-148673757D01*
X123256673Y-148681564D01*
X123256677Y-148681564D01*
X123261837Y-148681753D01*
X123266957Y-148681097D01*
X123266959Y-148681097D01*
X123478288Y-148654025D01*
X123478289Y-148654025D01*
X123483416Y-148653368D01*
X123488366Y-148651883D01*
X123692429Y-148590661D01*
X123692434Y-148590659D01*
X123697384Y-148589174D01*
X123897994Y-148490896D01*
X124079860Y-148361173D01*
X124113224Y-148327926D01*
X124223616Y-148217918D01*
X124238096Y-148203489D01*
X124288650Y-148133136D01*
X124368453Y-148022077D01*
X124369640Y-148022930D01*
X124416960Y-147979362D01*
X124486897Y-147967145D01*
X124552338Y-147994678D01*
X124580166Y-148026511D01*
X124637694Y-148120388D01*
X124643777Y-148128699D01*
X124783213Y-148289667D01*
X124790580Y-148296883D01*
X124954434Y-148432916D01*
X124962881Y-148438831D01*
X125146756Y-148546279D01*
X125156042Y-148550729D01*
X125355001Y-148626703D01*
X125364899Y-148629579D01*
X125468250Y-148650606D01*
X125482299Y-148649410D01*
X125486000Y-148639065D01*
X125486000Y-148638517D01*
X125994000Y-148638517D01*
X125998064Y-148652359D01*
X126011478Y-148654393D01*
X126018184Y-148653534D01*
X126028262Y-148651392D01*
X126232255Y-148590191D01*
X126241842Y-148586433D01*
X126433095Y-148492739D01*
X126441945Y-148487464D01*
X126615328Y-148363792D01*
X126623200Y-148357139D01*
X126774052Y-148206812D01*
X126780730Y-148198965D01*
X126905003Y-148026020D01*
X126910313Y-148017183D01*
X127004670Y-147826267D01*
X127008469Y-147816672D01*
X127060729Y-147644665D01*
X152804060Y-147644665D01*
X152804750Y-147651230D01*
X152822679Y-147821811D01*
X152824022Y-147834593D01*
X152883037Y-148016221D01*
X152978524Y-148181609D01*
X152982942Y-148186516D01*
X152982943Y-148186517D01*
X153084567Y-148299382D01*
X153106311Y-148323531D01*
X153260812Y-148435783D01*
X153266840Y-148438467D01*
X153266842Y-148438468D01*
X153429245Y-148510774D01*
X153435276Y-148513459D01*
X153528437Y-148533261D01*
X153615620Y-148551793D01*
X153615625Y-148551793D01*
X153622077Y-148553165D01*
X153813051Y-148553165D01*
X153819503Y-148551793D01*
X153819508Y-148551793D01*
X153906691Y-148533261D01*
X153999852Y-148513459D01*
X154005883Y-148510774D01*
X154168286Y-148438468D01*
X154168288Y-148438467D01*
X154174316Y-148435783D01*
X154328817Y-148323531D01*
X154350561Y-148299382D01*
X154452185Y-148186517D01*
X154452186Y-148186516D01*
X154456604Y-148181609D01*
X154552091Y-148016221D01*
X154611106Y-147834593D01*
X154612450Y-147821811D01*
X154630378Y-147651230D01*
X154631068Y-147644665D01*
X154611106Y-147454737D01*
X154552091Y-147273109D01*
X154456604Y-147107721D01*
X154402728Y-147047885D01*
X154333239Y-146970710D01*
X154333238Y-146970709D01*
X154328817Y-146965799D01*
X154229721Y-146893801D01*
X154179658Y-146857428D01*
X154179657Y-146857427D01*
X154174316Y-146853547D01*
X154168288Y-146850863D01*
X154168286Y-146850862D01*
X154005883Y-146778556D01*
X154005882Y-146778556D01*
X153999852Y-146775871D01*
X153906452Y-146756018D01*
X153819508Y-146737537D01*
X153819503Y-146737537D01*
X153813051Y-146736165D01*
X153622077Y-146736165D01*
X153615625Y-146737537D01*
X153615620Y-146737537D01*
X153528676Y-146756018D01*
X153435276Y-146775871D01*
X153429246Y-146778556D01*
X153429245Y-146778556D01*
X153266842Y-146850862D01*
X153266840Y-146850863D01*
X153260812Y-146853547D01*
X153255471Y-146857427D01*
X153255470Y-146857428D01*
X153205407Y-146893801D01*
X153106311Y-146965799D01*
X153101890Y-146970709D01*
X153101889Y-146970710D01*
X153032401Y-147047885D01*
X152978524Y-147107721D01*
X152883037Y-147273109D01*
X152824022Y-147454737D01*
X152804060Y-147644665D01*
X127060729Y-147644665D01*
X127070377Y-147612910D01*
X127072555Y-147602837D01*
X127073986Y-147591962D01*
X127071775Y-147577778D01*
X127058617Y-147574000D01*
X126012115Y-147574000D01*
X125996876Y-147578475D01*
X125995671Y-147579865D01*
X125994000Y-147587548D01*
X125994000Y-148638517D01*
X125486000Y-148638517D01*
X125486000Y-147047885D01*
X125994000Y-147047885D01*
X125998475Y-147063124D01*
X125999865Y-147064329D01*
X126007548Y-147066000D01*
X127058344Y-147066000D01*
X127071875Y-147062027D01*
X127073180Y-147052947D01*
X127031214Y-146885875D01*
X127027894Y-146876124D01*
X126942972Y-146680814D01*
X126938105Y-146671739D01*
X126822426Y-146492926D01*
X126816136Y-146484757D01*
X126672806Y-146327240D01*
X126665273Y-146320215D01*
X126498139Y-146188222D01*
X126489552Y-146182517D01*
X126303117Y-146079599D01*
X126293705Y-146075369D01*
X126092959Y-146004280D01*
X126082988Y-146001646D01*
X126011837Y-145988972D01*
X125998540Y-145990432D01*
X125994000Y-146004989D01*
X125994000Y-147047885D01*
X125486000Y-147047885D01*
X125486000Y-146003102D01*
X125482082Y-145989758D01*
X125467806Y-145987771D01*
X125429324Y-145993660D01*
X125419288Y-145996051D01*
X125216868Y-146062212D01*
X125207359Y-146066209D01*
X125018463Y-146164542D01*
X125009738Y-146170036D01*
X124839433Y-146297905D01*
X124831726Y-146304748D01*
X124684590Y-146458717D01*
X124678109Y-146466722D01*
X124573498Y-146620074D01*
X124518587Y-146665076D01*
X124448062Y-146673247D01*
X124384315Y-146641993D01*
X124363618Y-146617509D01*
X124282822Y-146492617D01*
X124282820Y-146492614D01*
X124280014Y-146488277D01*
X124129670Y-146323051D01*
X124125619Y-146319852D01*
X124125615Y-146319848D01*
X123958414Y-146187800D01*
X123958410Y-146187798D01*
X123954359Y-146184598D01*
X123918028Y-146164542D01*
X123867494Y-146136646D01*
X123758789Y-146076638D01*
X123753920Y-146074914D01*
X123753916Y-146074912D01*
X123553087Y-146003795D01*
X123553083Y-146003794D01*
X123548212Y-146002069D01*
X123543119Y-146001162D01*
X123543116Y-146001161D01*
X123333373Y-145963800D01*
X123333367Y-145963799D01*
X123328284Y-145962894D01*
X123254452Y-145961992D01*
X123110081Y-145960228D01*
X123110079Y-145960228D01*
X123104911Y-145960165D01*
X122884091Y-145993955D01*
X122671756Y-146063357D01*
X122624892Y-146087753D01*
X122482175Y-146162047D01*
X122473607Y-146166507D01*
X122469474Y-146169610D01*
X122469471Y-146169612D01*
X122300724Y-146296311D01*
X122294965Y-146300635D01*
X122291393Y-146304373D01*
X122177808Y-146423233D01*
X122140629Y-146462138D01*
X122033201Y-146619621D01*
X121978293Y-146664621D01*
X121907768Y-146672792D01*
X121844021Y-146641538D01*
X121823324Y-146617054D01*
X121742822Y-146492617D01*
X121742820Y-146492614D01*
X121740014Y-146488277D01*
X121589670Y-146323051D01*
X121585619Y-146319852D01*
X121585615Y-146319848D01*
X121418414Y-146187800D01*
X121418410Y-146187798D01*
X121414359Y-146184598D01*
X121378028Y-146164542D01*
X121327494Y-146136646D01*
X121218789Y-146076638D01*
X121213920Y-146074914D01*
X121213916Y-146074912D01*
X121013087Y-146003795D01*
X121013083Y-146003794D01*
X121008212Y-146002069D01*
X121003119Y-146001162D01*
X121003116Y-146001161D01*
X120793373Y-145963800D01*
X120793367Y-145963799D01*
X120788284Y-145962894D01*
X120714452Y-145961992D01*
X120570081Y-145960228D01*
X120570079Y-145960228D01*
X120564911Y-145960165D01*
X120344091Y-145993955D01*
X120131756Y-146063357D01*
X120084892Y-146087753D01*
X119942175Y-146162047D01*
X119933607Y-146166507D01*
X119929474Y-146169610D01*
X119929471Y-146169612D01*
X119760724Y-146296311D01*
X119754965Y-146300635D01*
X119698537Y-146359684D01*
X119674283Y-146385064D01*
X119612759Y-146420494D01*
X119541846Y-146417037D01*
X119484060Y-146375791D01*
X119465207Y-146342243D01*
X119423767Y-146231703D01*
X119420615Y-146223295D01*
X119333261Y-146106739D01*
X119216705Y-146019385D01*
X119080316Y-145968255D01*
X119018134Y-145961500D01*
X117221866Y-145961500D01*
X117159684Y-145968255D01*
X117023295Y-146019385D01*
X116906739Y-146106739D01*
X116819385Y-146223295D01*
X116768255Y-146359684D01*
X116761500Y-146421866D01*
X116761500Y-148218134D01*
X105339536Y-148218134D01*
X105367735Y-148199292D01*
X105534407Y-148087926D01*
X105534412Y-148087922D01*
X105537838Y-148085633D01*
X105540932Y-148082919D01*
X105540938Y-148082915D01*
X105757338Y-147893136D01*
X105760427Y-147890427D01*
X105825109Y-147816672D01*
X105952915Y-147670938D01*
X105952919Y-147670932D01*
X105955633Y-147667838D01*
X105959753Y-147661673D01*
X106117821Y-147425106D01*
X106120115Y-147421673D01*
X106130881Y-147399843D01*
X106249235Y-147159843D01*
X106251059Y-147156145D01*
X106269163Y-147102813D01*
X106344896Y-146879710D01*
X106344897Y-146879706D01*
X106346224Y-146875797D01*
X106355054Y-146831406D01*
X106403180Y-146589465D01*
X106403181Y-146589459D01*
X106403983Y-146585426D01*
X106404433Y-146578571D01*
X106423076Y-146294119D01*
X106423346Y-146290000D01*
X106415483Y-146170036D01*
X106404253Y-145998686D01*
X106404252Y-145998679D01*
X106403983Y-145994574D01*
X106403160Y-145990432D01*
X106354214Y-145744367D01*
X142861323Y-145744367D01*
X142862013Y-145750932D01*
X142879645Y-145918688D01*
X142881285Y-145934295D01*
X142940300Y-146115923D01*
X142943603Y-146121645D01*
X142943604Y-146121646D01*
X142948960Y-146130923D01*
X143035787Y-146281311D01*
X143040205Y-146286218D01*
X143040206Y-146286219D01*
X143139447Y-146396437D01*
X143163574Y-146423233D01*
X143259498Y-146492926D01*
X143310526Y-146530000D01*
X143318075Y-146535485D01*
X143324103Y-146538169D01*
X143324105Y-146538170D01*
X143486508Y-146610476D01*
X143492539Y-146613161D01*
X143569563Y-146629533D01*
X143672883Y-146651495D01*
X143672888Y-146651495D01*
X143679340Y-146652867D01*
X143870314Y-146652867D01*
X143876766Y-146651495D01*
X143876771Y-146651495D01*
X143980091Y-146629533D01*
X144057115Y-146613161D01*
X144063146Y-146610476D01*
X144225549Y-146538170D01*
X144225551Y-146538169D01*
X144231579Y-146535485D01*
X144239129Y-146530000D01*
X144290156Y-146492926D01*
X144386080Y-146423233D01*
X144410207Y-146396437D01*
X144509448Y-146286219D01*
X144509449Y-146286218D01*
X144513867Y-146281311D01*
X144600694Y-146130923D01*
X144606050Y-146121646D01*
X144606051Y-146121645D01*
X144609354Y-146115923D01*
X144668369Y-145934295D01*
X144670010Y-145918688D01*
X144684085Y-145784768D01*
X145941886Y-145784768D01*
X145942576Y-145791333D01*
X145960608Y-145962894D01*
X145961848Y-145974696D01*
X146020863Y-146156324D01*
X146024166Y-146162046D01*
X146024167Y-146162047D01*
X146037187Y-146184598D01*
X146116350Y-146321712D01*
X146120768Y-146326619D01*
X146120769Y-146326620D01*
X146206529Y-146421866D01*
X146244137Y-146463634D01*
X146398638Y-146575886D01*
X146404666Y-146578570D01*
X146404668Y-146578571D01*
X146567071Y-146650877D01*
X146573102Y-146653562D01*
X146658618Y-146671739D01*
X146753446Y-146691896D01*
X146753451Y-146691896D01*
X146759903Y-146693268D01*
X146950877Y-146693268D01*
X146957329Y-146691896D01*
X146957334Y-146691896D01*
X147052162Y-146671739D01*
X147137678Y-146653562D01*
X147143709Y-146650877D01*
X147306112Y-146578571D01*
X147306114Y-146578570D01*
X147312142Y-146575886D01*
X147466643Y-146463634D01*
X147504251Y-146421866D01*
X147590011Y-146326620D01*
X147590012Y-146326619D01*
X147594430Y-146321712D01*
X147673593Y-146184598D01*
X147686613Y-146162047D01*
X147686614Y-146162046D01*
X147689917Y-146156324D01*
X147748932Y-145974696D01*
X147750173Y-145962894D01*
X147764648Y-145825169D01*
X149315355Y-145825169D01*
X149316045Y-145831734D01*
X149334255Y-146004989D01*
X149335317Y-146015097D01*
X149394332Y-146196725D01*
X149489819Y-146362113D01*
X149494237Y-146367020D01*
X149494238Y-146367021D01*
X149576807Y-146458723D01*
X149617606Y-146504035D01*
X149772107Y-146616287D01*
X149778135Y-146618971D01*
X149778137Y-146618972D01*
X149940540Y-146691278D01*
X149946571Y-146693963D01*
X150039971Y-146713816D01*
X150126915Y-146732297D01*
X150126920Y-146732297D01*
X150133372Y-146733669D01*
X150324346Y-146733669D01*
X150330798Y-146732297D01*
X150330803Y-146732297D01*
X150417747Y-146713816D01*
X150511147Y-146693963D01*
X150517178Y-146691278D01*
X150679581Y-146618972D01*
X150679583Y-146618971D01*
X150685611Y-146616287D01*
X150840112Y-146504035D01*
X150880911Y-146458723D01*
X150963480Y-146367021D01*
X150963481Y-146367020D01*
X150967899Y-146362113D01*
X151063386Y-146196725D01*
X151122401Y-146015097D01*
X151123464Y-146004989D01*
X151141673Y-145831734D01*
X151142363Y-145825169D01*
X151135447Y-145759367D01*
X171059897Y-145759367D01*
X171060587Y-145765932D01*
X171078913Y-145940290D01*
X171079859Y-145949295D01*
X171138874Y-146130923D01*
X171234361Y-146296311D01*
X171238779Y-146301218D01*
X171238780Y-146301219D01*
X171332433Y-146405231D01*
X171362148Y-146438233D01*
X171437001Y-146492617D01*
X171490662Y-146531604D01*
X171516649Y-146550485D01*
X171522677Y-146553169D01*
X171522679Y-146553170D01*
X171664443Y-146616287D01*
X171691113Y-146628161D01*
X171778238Y-146646680D01*
X171871457Y-146666495D01*
X171871462Y-146666495D01*
X171877914Y-146667867D01*
X172068888Y-146667867D01*
X172075340Y-146666495D01*
X172075345Y-146666495D01*
X172168564Y-146646680D01*
X172255689Y-146628161D01*
X172282359Y-146616287D01*
X172424123Y-146553170D01*
X172424125Y-146553169D01*
X172430153Y-146550485D01*
X172456141Y-146531604D01*
X172509801Y-146492617D01*
X172584654Y-146438233D01*
X172614369Y-146405231D01*
X172708022Y-146301219D01*
X172708023Y-146301218D01*
X172712441Y-146296311D01*
X172807928Y-146130923D01*
X172866943Y-145949295D01*
X172867890Y-145940290D01*
X172886215Y-145765932D01*
X172886905Y-145759367D01*
X172883028Y-145722482D01*
X195187410Y-145722482D01*
X195207372Y-145912410D01*
X195266387Y-146094038D01*
X195269690Y-146099760D01*
X195269691Y-146099761D01*
X195284054Y-146124638D01*
X195361874Y-146259426D01*
X195366292Y-146264333D01*
X195366293Y-146264334D01*
X195454334Y-146362113D01*
X195489661Y-146401348D01*
X195568622Y-146458717D01*
X195624238Y-146499124D01*
X195644162Y-146513600D01*
X195650190Y-146516284D01*
X195650192Y-146516285D01*
X195812595Y-146588591D01*
X195818626Y-146591276D01*
X195908954Y-146610476D01*
X195998970Y-146629610D01*
X195998975Y-146629610D01*
X196005427Y-146630982D01*
X196196401Y-146630982D01*
X196202853Y-146629610D01*
X196202858Y-146629610D01*
X196292874Y-146610476D01*
X196383202Y-146591276D01*
X196389233Y-146588591D01*
X196551636Y-146516285D01*
X196551638Y-146516284D01*
X196557666Y-146513600D01*
X196577591Y-146499124D01*
X196633206Y-146458717D01*
X196712167Y-146401348D01*
X196747494Y-146362113D01*
X196835535Y-146264334D01*
X196835536Y-146264333D01*
X196839954Y-146259426D01*
X196917774Y-146124638D01*
X196932137Y-146099761D01*
X196932138Y-146099760D01*
X196935441Y-146094038D01*
X196994456Y-145912410D01*
X197014418Y-145722482D01*
X198173614Y-145722482D01*
X198193576Y-145912410D01*
X198252591Y-146094038D01*
X198255894Y-146099760D01*
X198255895Y-146099761D01*
X198270258Y-146124638D01*
X198348078Y-146259426D01*
X198352496Y-146264333D01*
X198352497Y-146264334D01*
X198440538Y-146362113D01*
X198475865Y-146401348D01*
X198554826Y-146458717D01*
X198610442Y-146499124D01*
X198630366Y-146513600D01*
X198636394Y-146516284D01*
X198636396Y-146516285D01*
X198798799Y-146588591D01*
X198804830Y-146591276D01*
X198895158Y-146610476D01*
X198985174Y-146629610D01*
X198985179Y-146629610D01*
X198991631Y-146630982D01*
X199182605Y-146630982D01*
X199189057Y-146629610D01*
X199189062Y-146629610D01*
X199279078Y-146610476D01*
X199369406Y-146591276D01*
X199375437Y-146588591D01*
X199507035Y-146530000D01*
X231416654Y-146530000D01*
X231417742Y-146546604D01*
X231430257Y-146737537D01*
X231436017Y-146825426D01*
X231436819Y-146829459D01*
X231436820Y-146829465D01*
X231492970Y-147111747D01*
X231493776Y-147115797D01*
X231495103Y-147119706D01*
X231495104Y-147119710D01*
X231587615Y-147392239D01*
X231588941Y-147396145D01*
X231621072Y-147461300D01*
X231711498Y-147644665D01*
X231719885Y-147661673D01*
X231722179Y-147665106D01*
X231826886Y-147821811D01*
X231884367Y-147907838D01*
X231887081Y-147910932D01*
X231887085Y-147910938D01*
X232042300Y-148087926D01*
X232079573Y-148130427D01*
X232082662Y-148133136D01*
X232299062Y-148322915D01*
X232299068Y-148322919D01*
X232302162Y-148325633D01*
X232305588Y-148327922D01*
X232305593Y-148327926D01*
X232463338Y-148433327D01*
X232548327Y-148490115D01*
X232552026Y-148491939D01*
X232552031Y-148491942D01*
X232675999Y-148553076D01*
X232813855Y-148621059D01*
X232817760Y-148622384D01*
X232817761Y-148622385D01*
X233090290Y-148714896D01*
X233090294Y-148714897D01*
X233094203Y-148716224D01*
X233098247Y-148717028D01*
X233098253Y-148717030D01*
X233380535Y-148773180D01*
X233380541Y-148773181D01*
X233384574Y-148773983D01*
X233388679Y-148774252D01*
X233388686Y-148774253D01*
X233675881Y-148793076D01*
X233680000Y-148793346D01*
X233684119Y-148793076D01*
X233971314Y-148774253D01*
X233971321Y-148774252D01*
X233975426Y-148773983D01*
X233979459Y-148773181D01*
X233979465Y-148773180D01*
X234261747Y-148717030D01*
X234261753Y-148717028D01*
X234265797Y-148716224D01*
X234269706Y-148714897D01*
X234269710Y-148714896D01*
X234542239Y-148622385D01*
X234542240Y-148622384D01*
X234546145Y-148621059D01*
X234684001Y-148553076D01*
X234807969Y-148491942D01*
X234807974Y-148491939D01*
X234811673Y-148490115D01*
X234896662Y-148433327D01*
X235054407Y-148327926D01*
X235054412Y-148327922D01*
X235057838Y-148325633D01*
X235060932Y-148322919D01*
X235060938Y-148322915D01*
X235277338Y-148133136D01*
X235280427Y-148130427D01*
X235317700Y-148087926D01*
X235472915Y-147910938D01*
X235472919Y-147910932D01*
X235475633Y-147907838D01*
X235533115Y-147821811D01*
X235637821Y-147665106D01*
X235640115Y-147661673D01*
X235648503Y-147644665D01*
X235738928Y-147461300D01*
X235771059Y-147396145D01*
X235772385Y-147392239D01*
X235864896Y-147119710D01*
X235864897Y-147119706D01*
X235866224Y-147115797D01*
X235867030Y-147111747D01*
X235923180Y-146829465D01*
X235923181Y-146829459D01*
X235923983Y-146825426D01*
X235929744Y-146737537D01*
X235942258Y-146546604D01*
X235943346Y-146530000D01*
X235937331Y-146438233D01*
X235924253Y-146238686D01*
X235924252Y-146238679D01*
X235923983Y-146234574D01*
X235921740Y-146223295D01*
X235867030Y-145948253D01*
X235867028Y-145948247D01*
X235866224Y-145944203D01*
X235805710Y-145765932D01*
X235772385Y-145667761D01*
X235772384Y-145667760D01*
X235771059Y-145663855D01*
X235703213Y-145526276D01*
X235641942Y-145402031D01*
X235641939Y-145402026D01*
X235640115Y-145398327D01*
X235536273Y-145242916D01*
X235477926Y-145155593D01*
X235477922Y-145155588D01*
X235475633Y-145152162D01*
X235472919Y-145149068D01*
X235472915Y-145149062D01*
X235283136Y-144932662D01*
X235280427Y-144929573D01*
X235192245Y-144852239D01*
X235060938Y-144737085D01*
X235060932Y-144737081D01*
X235057838Y-144734367D01*
X235054412Y-144732078D01*
X235054407Y-144732074D01*
X234832489Y-144583794D01*
X234811673Y-144569885D01*
X234807974Y-144568061D01*
X234807969Y-144568058D01*
X234653888Y-144492074D01*
X234546145Y-144438941D01*
X234474819Y-144414729D01*
X234269710Y-144345104D01*
X234269706Y-144345103D01*
X234265797Y-144343776D01*
X234261753Y-144342972D01*
X234261747Y-144342970D01*
X233979465Y-144286820D01*
X233979459Y-144286819D01*
X233975426Y-144286017D01*
X233971321Y-144285748D01*
X233971314Y-144285747D01*
X233684119Y-144266924D01*
X233680000Y-144266654D01*
X233675881Y-144266924D01*
X233388686Y-144285747D01*
X233388679Y-144285748D01*
X233384574Y-144286017D01*
X233380541Y-144286819D01*
X233380535Y-144286820D01*
X233098253Y-144342970D01*
X233098247Y-144342972D01*
X233094203Y-144343776D01*
X233090294Y-144345103D01*
X233090290Y-144345104D01*
X232885181Y-144414729D01*
X232813855Y-144438941D01*
X232706112Y-144492074D01*
X232552031Y-144568058D01*
X232552026Y-144568061D01*
X232548327Y-144569885D01*
X232527511Y-144583794D01*
X232305593Y-144732074D01*
X232305588Y-144732078D01*
X232302162Y-144734367D01*
X232299068Y-144737081D01*
X232299062Y-144737085D01*
X232167755Y-144852239D01*
X232079573Y-144929573D01*
X232076864Y-144932662D01*
X231887085Y-145149062D01*
X231887081Y-145149068D01*
X231884367Y-145152162D01*
X231882078Y-145155588D01*
X231882074Y-145155593D01*
X231823727Y-145242916D01*
X231719885Y-145398327D01*
X231718061Y-145402026D01*
X231718058Y-145402031D01*
X231656787Y-145526276D01*
X231588941Y-145663855D01*
X231587616Y-145667760D01*
X231587615Y-145667761D01*
X231554291Y-145765932D01*
X231493776Y-145944203D01*
X231492972Y-145948247D01*
X231492970Y-145948253D01*
X231438261Y-146223295D01*
X231436017Y-146234574D01*
X231435748Y-146238679D01*
X231435747Y-146238686D01*
X231422669Y-146438233D01*
X231416654Y-146530000D01*
X199507035Y-146530000D01*
X199537840Y-146516285D01*
X199537842Y-146516284D01*
X199543870Y-146513600D01*
X199563795Y-146499124D01*
X199619410Y-146458717D01*
X199698371Y-146401348D01*
X199733698Y-146362113D01*
X199821739Y-146264334D01*
X199821740Y-146264333D01*
X199826158Y-146259426D01*
X199903978Y-146124638D01*
X199918341Y-146099761D01*
X199918342Y-146099760D01*
X199921645Y-146094038D01*
X199980660Y-145912410D01*
X200000622Y-145722482D01*
X199994460Y-145663855D01*
X199981350Y-145539117D01*
X199981350Y-145539115D01*
X199980660Y-145532554D01*
X199921645Y-145350926D01*
X199902026Y-145316944D01*
X199850755Y-145228141D01*
X199826158Y-145185538D01*
X199799196Y-145155593D01*
X199702793Y-145048527D01*
X199702792Y-145048526D01*
X199698371Y-145043616D01*
X199571271Y-144951272D01*
X199549212Y-144935245D01*
X199549211Y-144935244D01*
X199543870Y-144931364D01*
X199537842Y-144928680D01*
X199537840Y-144928679D01*
X199375437Y-144856373D01*
X199375436Y-144856373D01*
X199369406Y-144853688D01*
X199276006Y-144833835D01*
X199189062Y-144815354D01*
X199189057Y-144815354D01*
X199182605Y-144813982D01*
X198991631Y-144813982D01*
X198985179Y-144815354D01*
X198985174Y-144815354D01*
X198898230Y-144833835D01*
X198804830Y-144853688D01*
X198798800Y-144856373D01*
X198798799Y-144856373D01*
X198636396Y-144928679D01*
X198636394Y-144928680D01*
X198630366Y-144931364D01*
X198625025Y-144935244D01*
X198625024Y-144935245D01*
X198602965Y-144951272D01*
X198475865Y-145043616D01*
X198471444Y-145048526D01*
X198471443Y-145048527D01*
X198375041Y-145155593D01*
X198348078Y-145185538D01*
X198323481Y-145228141D01*
X198272211Y-145316944D01*
X198252591Y-145350926D01*
X198193576Y-145532554D01*
X198192886Y-145539115D01*
X198192886Y-145539117D01*
X198179776Y-145663855D01*
X198173614Y-145722482D01*
X197014418Y-145722482D01*
X197008256Y-145663855D01*
X196995146Y-145539117D01*
X196995146Y-145539115D01*
X196994456Y-145532554D01*
X196935441Y-145350926D01*
X196915822Y-145316944D01*
X196864551Y-145228141D01*
X196839954Y-145185538D01*
X196812992Y-145155593D01*
X196716589Y-145048527D01*
X196716588Y-145048526D01*
X196712167Y-145043616D01*
X196585067Y-144951272D01*
X196563008Y-144935245D01*
X196563007Y-144935244D01*
X196557666Y-144931364D01*
X196551638Y-144928680D01*
X196551636Y-144928679D01*
X196389233Y-144856373D01*
X196389232Y-144856373D01*
X196383202Y-144853688D01*
X196289802Y-144833835D01*
X196202858Y-144815354D01*
X196202853Y-144815354D01*
X196196401Y-144813982D01*
X196005427Y-144813982D01*
X195998975Y-144815354D01*
X195998970Y-144815354D01*
X195912026Y-144833835D01*
X195818626Y-144853688D01*
X195812596Y-144856373D01*
X195812595Y-144856373D01*
X195650192Y-144928679D01*
X195650190Y-144928680D01*
X195644162Y-144931364D01*
X195638821Y-144935244D01*
X195638820Y-144935245D01*
X195616761Y-144951272D01*
X195489661Y-145043616D01*
X195485240Y-145048526D01*
X195485239Y-145048527D01*
X195388837Y-145155593D01*
X195361874Y-145185538D01*
X195337277Y-145228141D01*
X195286007Y-145316944D01*
X195266387Y-145350926D01*
X195207372Y-145532554D01*
X195206682Y-145539115D01*
X195206682Y-145539117D01*
X195193572Y-145663855D01*
X195187410Y-145722482D01*
X172883028Y-145722482D01*
X172879457Y-145688500D01*
X172867633Y-145576002D01*
X172867633Y-145576000D01*
X172866943Y-145569439D01*
X172807928Y-145387811D01*
X172802897Y-145379096D01*
X172747598Y-145283317D01*
X172712441Y-145222423D01*
X172704084Y-145213141D01*
X172589076Y-145085412D01*
X172589075Y-145085411D01*
X172584654Y-145080501D01*
X172430153Y-144968249D01*
X172424125Y-144965565D01*
X172424123Y-144965564D01*
X172261720Y-144893258D01*
X172261719Y-144893258D01*
X172255689Y-144890573D01*
X172162288Y-144870720D01*
X172075345Y-144852239D01*
X172075340Y-144852239D01*
X172068888Y-144850867D01*
X171877914Y-144850867D01*
X171871462Y-144852239D01*
X171871457Y-144852239D01*
X171784514Y-144870720D01*
X171691113Y-144890573D01*
X171685083Y-144893258D01*
X171685082Y-144893258D01*
X171522679Y-144965564D01*
X171522677Y-144965565D01*
X171516649Y-144968249D01*
X171362148Y-145080501D01*
X171357727Y-145085411D01*
X171357726Y-145085412D01*
X171242719Y-145213141D01*
X171234361Y-145222423D01*
X171199204Y-145283317D01*
X171143906Y-145379096D01*
X171138874Y-145387811D01*
X171079859Y-145569439D01*
X171079169Y-145576000D01*
X171079169Y-145576002D01*
X171067345Y-145688500D01*
X171059897Y-145759367D01*
X151135447Y-145759367D01*
X151134757Y-145752802D01*
X151123091Y-145641804D01*
X151123091Y-145641802D01*
X151122401Y-145635241D01*
X151063386Y-145453613D01*
X151052813Y-145435299D01*
X151022091Y-145382088D01*
X150967899Y-145288225D01*
X150890726Y-145202515D01*
X150844534Y-145151214D01*
X150844533Y-145151213D01*
X150840112Y-145146303D01*
X150723554Y-145061618D01*
X150690953Y-145037932D01*
X150690952Y-145037931D01*
X150685611Y-145034051D01*
X150679583Y-145031367D01*
X150679581Y-145031366D01*
X150517178Y-144959060D01*
X150517177Y-144959060D01*
X150511147Y-144956375D01*
X150399587Y-144932662D01*
X150330803Y-144918041D01*
X150330798Y-144918041D01*
X150324346Y-144916669D01*
X150133372Y-144916669D01*
X150126920Y-144918041D01*
X150126915Y-144918041D01*
X150058131Y-144932662D01*
X149946571Y-144956375D01*
X149940541Y-144959060D01*
X149940540Y-144959060D01*
X149778137Y-145031366D01*
X149778135Y-145031367D01*
X149772107Y-145034051D01*
X149766766Y-145037931D01*
X149766765Y-145037932D01*
X149734164Y-145061618D01*
X149617606Y-145146303D01*
X149613185Y-145151213D01*
X149613184Y-145151214D01*
X149566993Y-145202515D01*
X149489819Y-145288225D01*
X149435627Y-145382088D01*
X149404906Y-145435299D01*
X149394332Y-145453613D01*
X149335317Y-145635241D01*
X149334627Y-145641802D01*
X149334627Y-145641804D01*
X149322961Y-145752802D01*
X149315355Y-145825169D01*
X147764648Y-145825169D01*
X147768204Y-145791333D01*
X147768894Y-145784768D01*
X147752642Y-145630138D01*
X147749622Y-145601403D01*
X147749622Y-145601401D01*
X147748932Y-145594840D01*
X147689917Y-145413212D01*
X147594430Y-145247824D01*
X147576708Y-145228141D01*
X147471065Y-145110813D01*
X147471064Y-145110812D01*
X147466643Y-145105902D01*
X147312142Y-144993650D01*
X147306114Y-144990966D01*
X147306112Y-144990965D01*
X147143709Y-144918659D01*
X147143708Y-144918659D01*
X147137678Y-144915974D01*
X147044277Y-144896121D01*
X146957334Y-144877640D01*
X146957329Y-144877640D01*
X146950877Y-144876268D01*
X146759903Y-144876268D01*
X146753451Y-144877640D01*
X146753446Y-144877640D01*
X146666503Y-144896121D01*
X146573102Y-144915974D01*
X146567072Y-144918659D01*
X146567071Y-144918659D01*
X146404668Y-144990965D01*
X146404666Y-144990966D01*
X146398638Y-144993650D01*
X146244137Y-145105902D01*
X146239716Y-145110812D01*
X146239715Y-145110813D01*
X146134073Y-145228141D01*
X146116350Y-145247824D01*
X146020863Y-145413212D01*
X145961848Y-145594840D01*
X145961158Y-145601401D01*
X145961158Y-145601403D01*
X145958138Y-145630138D01*
X145941886Y-145784768D01*
X144684085Y-145784768D01*
X144687641Y-145750932D01*
X144688331Y-145744367D01*
X144680354Y-145668472D01*
X144669059Y-145561002D01*
X144669059Y-145561000D01*
X144668369Y-145554439D01*
X144609354Y-145372811D01*
X144593415Y-145345203D01*
X144560518Y-145288225D01*
X144513867Y-145207423D01*
X144458835Y-145146303D01*
X144390502Y-145070412D01*
X144390501Y-145070411D01*
X144386080Y-145065501D01*
X144283490Y-144990965D01*
X144236921Y-144957130D01*
X144236920Y-144957129D01*
X144231579Y-144953249D01*
X144225551Y-144950565D01*
X144225549Y-144950564D01*
X144063146Y-144878258D01*
X144063145Y-144878258D01*
X144057115Y-144875573D01*
X143947338Y-144852239D01*
X143876771Y-144837239D01*
X143876766Y-144837239D01*
X143870314Y-144835867D01*
X143679340Y-144835867D01*
X143672888Y-144837239D01*
X143672883Y-144837239D01*
X143602316Y-144852239D01*
X143492539Y-144875573D01*
X143486509Y-144878258D01*
X143486508Y-144878258D01*
X143324105Y-144950564D01*
X143324103Y-144950565D01*
X143318075Y-144953249D01*
X143312734Y-144957129D01*
X143312733Y-144957130D01*
X143266164Y-144990965D01*
X143163574Y-145065501D01*
X143159153Y-145070411D01*
X143159152Y-145070412D01*
X143090820Y-145146303D01*
X143035787Y-145207423D01*
X142989136Y-145288225D01*
X142956240Y-145345203D01*
X142940300Y-145372811D01*
X142881285Y-145554439D01*
X142880595Y-145561000D01*
X142880595Y-145561002D01*
X142869300Y-145668472D01*
X142861323Y-145744367D01*
X106354214Y-145744367D01*
X106347030Y-145708253D01*
X106347028Y-145708247D01*
X106346224Y-145704203D01*
X106331273Y-145660157D01*
X106252385Y-145427761D01*
X106252384Y-145427760D01*
X106251059Y-145423855D01*
X106161830Y-145242916D01*
X106121942Y-145162031D01*
X106121939Y-145162026D01*
X106120115Y-145158327D01*
X106037077Y-145034051D01*
X105957926Y-144915593D01*
X105957922Y-144915588D01*
X105955633Y-144912162D01*
X105952919Y-144909068D01*
X105952915Y-144909062D01*
X105839730Y-144780000D01*
X121006496Y-144780000D01*
X121007186Y-144786565D01*
X121025034Y-144956375D01*
X121026458Y-144969928D01*
X121085473Y-145151556D01*
X121088776Y-145157278D01*
X121088777Y-145157279D01*
X121108394Y-145191256D01*
X121180960Y-145316944D01*
X121185378Y-145321851D01*
X121185379Y-145321852D01*
X121262487Y-145407489D01*
X121308747Y-145458866D01*
X121401529Y-145526276D01*
X121449325Y-145561002D01*
X121463248Y-145571118D01*
X121469276Y-145573802D01*
X121469278Y-145573803D01*
X121598891Y-145631510D01*
X121637712Y-145648794D01*
X121726944Y-145667761D01*
X121818056Y-145687128D01*
X121818061Y-145687128D01*
X121824513Y-145688500D01*
X122015487Y-145688500D01*
X122021939Y-145687128D01*
X122021944Y-145687128D01*
X122113056Y-145667761D01*
X122202288Y-145648794D01*
X122241109Y-145631510D01*
X122370722Y-145573803D01*
X122370724Y-145573802D01*
X122376752Y-145571118D01*
X122390676Y-145561002D01*
X122438471Y-145526276D01*
X122531253Y-145458866D01*
X122577513Y-145407489D01*
X122654621Y-145321852D01*
X122654622Y-145321851D01*
X122659040Y-145316944D01*
X122731606Y-145191256D01*
X122751223Y-145157279D01*
X122751224Y-145157278D01*
X122754527Y-145151556D01*
X122813542Y-144969928D01*
X122814967Y-144956375D01*
X122832814Y-144786565D01*
X122833504Y-144780000D01*
X122831543Y-144761344D01*
X131104104Y-144761344D01*
X131104794Y-144767909D01*
X131122382Y-144935245D01*
X131124066Y-144951272D01*
X131183081Y-145132900D01*
X131186384Y-145138622D01*
X131186385Y-145138623D01*
X131193852Y-145151556D01*
X131278568Y-145298288D01*
X131282986Y-145303195D01*
X131282987Y-145303196D01*
X131376893Y-145407489D01*
X131406355Y-145440210D01*
X131560856Y-145552462D01*
X131566884Y-145555146D01*
X131566886Y-145555147D01*
X131729289Y-145627453D01*
X131735320Y-145630138D01*
X131823089Y-145648794D01*
X131915664Y-145668472D01*
X131915669Y-145668472D01*
X131922121Y-145669844D01*
X132113095Y-145669844D01*
X132119547Y-145668472D01*
X132119552Y-145668472D01*
X132212127Y-145648794D01*
X132299896Y-145630138D01*
X132305927Y-145627453D01*
X132468330Y-145555147D01*
X132468332Y-145555146D01*
X132474360Y-145552462D01*
X132628861Y-145440210D01*
X132658323Y-145407489D01*
X132752229Y-145303196D01*
X132752230Y-145303195D01*
X132756648Y-145298288D01*
X132841364Y-145151556D01*
X132848831Y-145138623D01*
X132848832Y-145138622D01*
X132852135Y-145132900D01*
X132911150Y-144951272D01*
X132912835Y-144935245D01*
X132930422Y-144767909D01*
X132931112Y-144761344D01*
X132911150Y-144571416D01*
X132852135Y-144389788D01*
X132756648Y-144224400D01*
X132628861Y-144082478D01*
X132529765Y-144010480D01*
X132479702Y-143974107D01*
X132479701Y-143974106D01*
X132474360Y-143970226D01*
X132468332Y-143967542D01*
X132468330Y-143967541D01*
X132305927Y-143895235D01*
X132305926Y-143895235D01*
X132299896Y-143892550D01*
X132200864Y-143871500D01*
X132119552Y-143854216D01*
X132119547Y-143854216D01*
X132113095Y-143852844D01*
X131922121Y-143852844D01*
X131915669Y-143854216D01*
X131915664Y-143854216D01*
X131834352Y-143871500D01*
X131735320Y-143892550D01*
X131729290Y-143895235D01*
X131729289Y-143895235D01*
X131566886Y-143967541D01*
X131566884Y-143967542D01*
X131560856Y-143970226D01*
X131555515Y-143974106D01*
X131555514Y-143974107D01*
X131505451Y-144010480D01*
X131406355Y-144082478D01*
X131278568Y-144224400D01*
X131183081Y-144389788D01*
X131124066Y-144571416D01*
X131104104Y-144761344D01*
X122831543Y-144761344D01*
X122813542Y-144590072D01*
X122754527Y-144408444D01*
X122659040Y-144243056D01*
X122531253Y-144101134D01*
X122429112Y-144026924D01*
X122382094Y-143992763D01*
X122382093Y-143992762D01*
X122376752Y-143988882D01*
X122370724Y-143986198D01*
X122370722Y-143986197D01*
X122208319Y-143913891D01*
X122208318Y-143913891D01*
X122202288Y-143911206D01*
X122108064Y-143891178D01*
X122021944Y-143872872D01*
X122021939Y-143872872D01*
X122015487Y-143871500D01*
X121824513Y-143871500D01*
X121818061Y-143872872D01*
X121818056Y-143872872D01*
X121731936Y-143891178D01*
X121637712Y-143911206D01*
X121631682Y-143913891D01*
X121631681Y-143913891D01*
X121469278Y-143986197D01*
X121469276Y-143986198D01*
X121463248Y-143988882D01*
X121457907Y-143992762D01*
X121457906Y-143992763D01*
X121410888Y-144026924D01*
X121308747Y-144101134D01*
X121180960Y-144243056D01*
X121085473Y-144408444D01*
X121026458Y-144590072D01*
X121006496Y-144780000D01*
X105839730Y-144780000D01*
X105763136Y-144692662D01*
X105760427Y-144689573D01*
X105654452Y-144596635D01*
X105540938Y-144497085D01*
X105540932Y-144497081D01*
X105537838Y-144494367D01*
X105534412Y-144492078D01*
X105534407Y-144492074D01*
X105295106Y-144332179D01*
X105291673Y-144329885D01*
X105287974Y-144328061D01*
X105287969Y-144328058D01*
X105105649Y-144238148D01*
X105026145Y-144198941D01*
X105022239Y-144197615D01*
X104749710Y-144105104D01*
X104749706Y-144105103D01*
X104745797Y-144103776D01*
X104741753Y-144102972D01*
X104741747Y-144102970D01*
X104459465Y-144046820D01*
X104459459Y-144046819D01*
X104455426Y-144046017D01*
X104451321Y-144045748D01*
X104451314Y-144045747D01*
X104164119Y-144026924D01*
X104160000Y-144026654D01*
X104155881Y-144026924D01*
X103868686Y-144045747D01*
X103868679Y-144045748D01*
X103864574Y-144046017D01*
X103860541Y-144046819D01*
X103860535Y-144046820D01*
X103578253Y-144102970D01*
X103578247Y-144102972D01*
X103574203Y-144103776D01*
X103570294Y-144105103D01*
X103570290Y-144105104D01*
X103297761Y-144197615D01*
X103293855Y-144198941D01*
X103214351Y-144238148D01*
X103032031Y-144328058D01*
X103032026Y-144328061D01*
X103028327Y-144329885D01*
X103024894Y-144332179D01*
X102785593Y-144492074D01*
X102785588Y-144492078D01*
X102782162Y-144494367D01*
X102779068Y-144497081D01*
X102779062Y-144497085D01*
X102665548Y-144596635D01*
X102559573Y-144689573D01*
X102556864Y-144692662D01*
X102367085Y-144909062D01*
X102367081Y-144909068D01*
X102364367Y-144912162D01*
X102362078Y-144915588D01*
X102362074Y-144915593D01*
X102282923Y-145034051D01*
X102199885Y-145158327D01*
X102198061Y-145162026D01*
X102198058Y-145162031D01*
X102158170Y-145242916D01*
X102068941Y-145423855D01*
X102067616Y-145427760D01*
X102067615Y-145427761D01*
X101988728Y-145660157D01*
X101973776Y-145704203D01*
X101972972Y-145708247D01*
X101972970Y-145708253D01*
X101916841Y-145990432D01*
X101916017Y-145994574D01*
X101915748Y-145998679D01*
X101915747Y-145998686D01*
X101904517Y-146170036D01*
X101896654Y-146290000D01*
X100508500Y-146290000D01*
X100508500Y-143060568D01*
X132763897Y-143060568D01*
X132783859Y-143250496D01*
X132842874Y-143432124D01*
X132938361Y-143597512D01*
X133066148Y-143739434D01*
X133220649Y-143851686D01*
X133226677Y-143854370D01*
X133226679Y-143854371D01*
X133360364Y-143913891D01*
X133395113Y-143929362D01*
X133488514Y-143949215D01*
X133575457Y-143967696D01*
X133575462Y-143967696D01*
X133581914Y-143969068D01*
X133772888Y-143969068D01*
X133779340Y-143967696D01*
X133779345Y-143967696D01*
X133866288Y-143949215D01*
X133959689Y-143929362D01*
X133994438Y-143913891D01*
X134128123Y-143854371D01*
X134128125Y-143854370D01*
X134134153Y-143851686D01*
X134288654Y-143739434D01*
X134416441Y-143597512D01*
X134511928Y-143432124D01*
X134570943Y-143250496D01*
X134590905Y-143060568D01*
X134570943Y-142870640D01*
X134511928Y-142689012D01*
X134416441Y-142523624D01*
X134326168Y-142423365D01*
X134293076Y-142386613D01*
X134293075Y-142386612D01*
X134288654Y-142381702D01*
X134134153Y-142269450D01*
X134128125Y-142266766D01*
X134128123Y-142266765D01*
X134068007Y-142240000D01*
X159106496Y-142240000D01*
X159126458Y-142429928D01*
X159185473Y-142611556D01*
X159280960Y-142776944D01*
X159285378Y-142781851D01*
X159285379Y-142781852D01*
X159404325Y-142913955D01*
X159408747Y-142918866D01*
X159563248Y-143031118D01*
X159569276Y-143033802D01*
X159569278Y-143033803D01*
X159629394Y-143060568D01*
X159737712Y-143108794D01*
X159831112Y-143128647D01*
X159918056Y-143147128D01*
X159918061Y-143147128D01*
X159924513Y-143148500D01*
X160115487Y-143148500D01*
X160121939Y-143147128D01*
X160121944Y-143147128D01*
X160208888Y-143128647D01*
X160302288Y-143108794D01*
X160410606Y-143060568D01*
X160470722Y-143033803D01*
X160470724Y-143033802D01*
X160476752Y-143031118D01*
X160631253Y-142918866D01*
X160635675Y-142913955D01*
X160754621Y-142781852D01*
X160754622Y-142781851D01*
X160759040Y-142776944D01*
X160854527Y-142611556D01*
X160913542Y-142429928D01*
X160933504Y-142240000D01*
X160913542Y-142050072D01*
X160854527Y-141868444D01*
X160759040Y-141703056D01*
X160631253Y-141561134D01*
X160476752Y-141448882D01*
X160470724Y-141446198D01*
X160470722Y-141446197D01*
X160308319Y-141373891D01*
X160308318Y-141373891D01*
X160302288Y-141371206D01*
X160208887Y-141351353D01*
X160121944Y-141332872D01*
X160121939Y-141332872D01*
X160115487Y-141331500D01*
X159924513Y-141331500D01*
X159918061Y-141332872D01*
X159918056Y-141332872D01*
X159831113Y-141351353D01*
X159737712Y-141371206D01*
X159731682Y-141373891D01*
X159731681Y-141373891D01*
X159569278Y-141446197D01*
X159569276Y-141446198D01*
X159563248Y-141448882D01*
X159408747Y-141561134D01*
X159280960Y-141703056D01*
X159185473Y-141868444D01*
X159126458Y-142050072D01*
X159106496Y-142240000D01*
X134068007Y-142240000D01*
X133965720Y-142194459D01*
X133965719Y-142194459D01*
X133959689Y-142191774D01*
X133866289Y-142171921D01*
X133779345Y-142153440D01*
X133779340Y-142153440D01*
X133772888Y-142152068D01*
X133581914Y-142152068D01*
X133575462Y-142153440D01*
X133575457Y-142153440D01*
X133488513Y-142171921D01*
X133395113Y-142191774D01*
X133389083Y-142194459D01*
X133389082Y-142194459D01*
X133226679Y-142266765D01*
X133226677Y-142266766D01*
X133220649Y-142269450D01*
X133066148Y-142381702D01*
X133061727Y-142386612D01*
X133061726Y-142386613D01*
X133028635Y-142423365D01*
X132938361Y-142523624D01*
X132842874Y-142689012D01*
X132783859Y-142870640D01*
X132763897Y-143060568D01*
X100508500Y-143060568D01*
X100508500Y-141166913D01*
X127000000Y-141166913D01*
X132099016Y-141128880D01*
X132097370Y-140002876D01*
X145161476Y-140002876D01*
X145162166Y-140009441D01*
X145168536Y-140070044D01*
X145181438Y-140192804D01*
X145240453Y-140374432D01*
X145335940Y-140539820D01*
X145340358Y-140544727D01*
X145340359Y-140544728D01*
X145459305Y-140676831D01*
X145463727Y-140681742D01*
X145618228Y-140793994D01*
X145624256Y-140796678D01*
X145624258Y-140796679D01*
X145786661Y-140868985D01*
X145792692Y-140871670D01*
X145886093Y-140891523D01*
X145973036Y-140910004D01*
X145973041Y-140910004D01*
X145979493Y-140911376D01*
X146170467Y-140911376D01*
X146176919Y-140910004D01*
X146176924Y-140910004D01*
X146263867Y-140891523D01*
X146357268Y-140871670D01*
X146363299Y-140868985D01*
X146525702Y-140796679D01*
X146525704Y-140796678D01*
X146531732Y-140793994D01*
X146600544Y-140743999D01*
X151488063Y-140743999D01*
X151488753Y-140750564D01*
X151505511Y-140910004D01*
X151508025Y-140933927D01*
X151567040Y-141115555D01*
X151570343Y-141121277D01*
X151570344Y-141121278D01*
X151572162Y-141124427D01*
X151662527Y-141280943D01*
X151790314Y-141422865D01*
X151944815Y-141535117D01*
X151950843Y-141537801D01*
X151950845Y-141537802D01*
X152113248Y-141610108D01*
X152119279Y-141612793D01*
X152212680Y-141632646D01*
X152299623Y-141651127D01*
X152299628Y-141651127D01*
X152306080Y-141652499D01*
X152497054Y-141652499D01*
X152503506Y-141651127D01*
X152503511Y-141651127D01*
X152590454Y-141632646D01*
X152683855Y-141612793D01*
X152689886Y-141610108D01*
X152852289Y-141537802D01*
X152852291Y-141537801D01*
X152858319Y-141535117D01*
X153012820Y-141422865D01*
X153140607Y-141280943D01*
X153230972Y-141124427D01*
X153232790Y-141121278D01*
X153232791Y-141121277D01*
X153236094Y-141115555D01*
X153295109Y-140933927D01*
X153297624Y-140910004D01*
X153314381Y-140750564D01*
X153315071Y-140743999D01*
X153308528Y-140681742D01*
X153295799Y-140560634D01*
X153295799Y-140560632D01*
X153295109Y-140554071D01*
X153236094Y-140372443D01*
X153140607Y-140207055D01*
X153127776Y-140192804D01*
X153017242Y-140070044D01*
X153017241Y-140070043D01*
X153012820Y-140065133D01*
X152858319Y-139952881D01*
X152852291Y-139950197D01*
X152852289Y-139950196D01*
X152689886Y-139877890D01*
X152689885Y-139877890D01*
X152683855Y-139875205D01*
X152588460Y-139854928D01*
X152503511Y-139836871D01*
X152503506Y-139836871D01*
X152497054Y-139835499D01*
X152306080Y-139835499D01*
X152299628Y-139836871D01*
X152299623Y-139836871D01*
X152214674Y-139854928D01*
X152119279Y-139875205D01*
X152113249Y-139877890D01*
X152113248Y-139877890D01*
X151950845Y-139950196D01*
X151950843Y-139950197D01*
X151944815Y-139952881D01*
X151790314Y-140065133D01*
X151785893Y-140070043D01*
X151785892Y-140070044D01*
X151675359Y-140192804D01*
X151662527Y-140207055D01*
X151567040Y-140372443D01*
X151508025Y-140554071D01*
X151507335Y-140560632D01*
X151507335Y-140560634D01*
X151494606Y-140681742D01*
X151488063Y-140743999D01*
X146600544Y-140743999D01*
X146686233Y-140681742D01*
X146690655Y-140676831D01*
X146809601Y-140544728D01*
X146809602Y-140544727D01*
X146814020Y-140539820D01*
X146909507Y-140374432D01*
X146968522Y-140192804D01*
X146981425Y-140070044D01*
X146987794Y-140009441D01*
X146988484Y-140002876D01*
X146975348Y-139877890D01*
X146969212Y-139819511D01*
X146969212Y-139819509D01*
X146968522Y-139812948D01*
X146909507Y-139631320D01*
X146814020Y-139465932D01*
X146686233Y-139324010D01*
X146547486Y-139223204D01*
X146537074Y-139215639D01*
X146537073Y-139215638D01*
X146531732Y-139211758D01*
X146525704Y-139209074D01*
X146525702Y-139209073D01*
X146363299Y-139136767D01*
X146363298Y-139136767D01*
X146357268Y-139134082D01*
X146248451Y-139110952D01*
X146176924Y-139095748D01*
X146176919Y-139095748D01*
X146170467Y-139094376D01*
X145979493Y-139094376D01*
X145973041Y-139095748D01*
X145973036Y-139095748D01*
X145901509Y-139110952D01*
X145792692Y-139134082D01*
X145786662Y-139136767D01*
X145786661Y-139136767D01*
X145624258Y-139209073D01*
X145624256Y-139209074D01*
X145618228Y-139211758D01*
X145612887Y-139215638D01*
X145612886Y-139215639D01*
X145602474Y-139223204D01*
X145463727Y-139324010D01*
X145335940Y-139465932D01*
X145240453Y-139631320D01*
X145181438Y-139812948D01*
X145180748Y-139819509D01*
X145180748Y-139819511D01*
X145174612Y-139877890D01*
X145161476Y-140002876D01*
X132097370Y-140002876D01*
X132094112Y-137773822D01*
X143826319Y-137773822D01*
X143846281Y-137963750D01*
X143905296Y-138145378D01*
X144000783Y-138310766D01*
X144005201Y-138315673D01*
X144005202Y-138315674D01*
X144104109Y-138425521D01*
X144128570Y-138452688D01*
X144203552Y-138507166D01*
X144271090Y-138556235D01*
X144283071Y-138564940D01*
X144289099Y-138567624D01*
X144289101Y-138567625D01*
X144451504Y-138639931D01*
X144457535Y-138642616D01*
X144531148Y-138658263D01*
X144637879Y-138680950D01*
X144637884Y-138680950D01*
X144644336Y-138682322D01*
X144835310Y-138682322D01*
X144841762Y-138680950D01*
X144841767Y-138680950D01*
X144948498Y-138658263D01*
X145022111Y-138642616D01*
X145028142Y-138639931D01*
X145190545Y-138567625D01*
X145190547Y-138567624D01*
X145196575Y-138564940D01*
X145208557Y-138556235D01*
X145276094Y-138507166D01*
X145351076Y-138452688D01*
X145369626Y-138432086D01*
X156453870Y-138432086D01*
X156454560Y-138438651D01*
X156468116Y-138567625D01*
X156473832Y-138622014D01*
X156532847Y-138803642D01*
X156536150Y-138809364D01*
X156536151Y-138809365D01*
X156555680Y-138843190D01*
X156628334Y-138969030D01*
X156632752Y-138973937D01*
X156632753Y-138973938D01*
X156716077Y-139066479D01*
X156756121Y-139110952D01*
X156811973Y-139151531D01*
X156900210Y-139215639D01*
X156910622Y-139223204D01*
X156916650Y-139225888D01*
X156916652Y-139225889D01*
X157055530Y-139287721D01*
X157085086Y-139300880D01*
X157175636Y-139320127D01*
X157265430Y-139339214D01*
X157265435Y-139339214D01*
X157271887Y-139340586D01*
X157462861Y-139340586D01*
X157469313Y-139339214D01*
X157469318Y-139339214D01*
X157559112Y-139320127D01*
X157649662Y-139300880D01*
X157679218Y-139287721D01*
X157818096Y-139225889D01*
X157818098Y-139225888D01*
X157824126Y-139223204D01*
X157834539Y-139215639D01*
X157922775Y-139151531D01*
X157927451Y-139148134D01*
X221371500Y-139148134D01*
X221378255Y-139210316D01*
X221429385Y-139346705D01*
X221516739Y-139463261D01*
X221633295Y-139550615D01*
X221769684Y-139601745D01*
X221831866Y-139608500D01*
X225128134Y-139608500D01*
X225190316Y-139601745D01*
X225326705Y-139550615D01*
X225443261Y-139463261D01*
X225530615Y-139346705D01*
X225581745Y-139210316D01*
X225588500Y-139148134D01*
X225588500Y-137051866D01*
X225581745Y-136989684D01*
X225530615Y-136853295D01*
X225443261Y-136736739D01*
X225326705Y-136649385D01*
X225190316Y-136598255D01*
X225128134Y-136591500D01*
X221831866Y-136591500D01*
X221769684Y-136598255D01*
X221633295Y-136649385D01*
X221516739Y-136736739D01*
X221429385Y-136853295D01*
X221378255Y-136989684D01*
X221371500Y-137051866D01*
X221371500Y-139148134D01*
X157927451Y-139148134D01*
X157978627Y-139110952D01*
X158018671Y-139066479D01*
X158101995Y-138973938D01*
X158101996Y-138973937D01*
X158106414Y-138969030D01*
X158179068Y-138843190D01*
X158198597Y-138809365D01*
X158198598Y-138809364D01*
X158201901Y-138803642D01*
X158260916Y-138622014D01*
X158266633Y-138567625D01*
X158280188Y-138438651D01*
X158280878Y-138432086D01*
X158260916Y-138242158D01*
X158201901Y-138060530D01*
X158106414Y-137895142D01*
X157978627Y-137753220D01*
X157824126Y-137640968D01*
X157818098Y-137638284D01*
X157818096Y-137638283D01*
X157655693Y-137565977D01*
X157655692Y-137565977D01*
X157649662Y-137563292D01*
X157545559Y-137541164D01*
X157469318Y-137524958D01*
X157469313Y-137524958D01*
X157462861Y-137523586D01*
X157271887Y-137523586D01*
X157265435Y-137524958D01*
X157265430Y-137524958D01*
X157189189Y-137541164D01*
X157085086Y-137563292D01*
X157079056Y-137565977D01*
X157079055Y-137565977D01*
X156916652Y-137638283D01*
X156916650Y-137638284D01*
X156910622Y-137640968D01*
X156756121Y-137753220D01*
X156628334Y-137895142D01*
X156532847Y-138060530D01*
X156473832Y-138242158D01*
X156453870Y-138432086D01*
X145369626Y-138432086D01*
X145375537Y-138425521D01*
X145474444Y-138315674D01*
X145474445Y-138315673D01*
X145478863Y-138310766D01*
X145574350Y-138145378D01*
X145633365Y-137963750D01*
X145653327Y-137773822D01*
X145639364Y-137640968D01*
X145634055Y-137590457D01*
X145634055Y-137590455D01*
X145633365Y-137583894D01*
X145574350Y-137402266D01*
X145478863Y-137236878D01*
X145477735Y-137235625D01*
X145454489Y-137170480D01*
X145470567Y-137101327D01*
X145486647Y-137078972D01*
X145494532Y-137070215D01*
X145494533Y-137070214D01*
X145498951Y-137065307D01*
X145594438Y-136899919D01*
X145653453Y-136718291D01*
X145655457Y-136699221D01*
X145682468Y-136633565D01*
X145740689Y-136592934D01*
X145811634Y-136590229D01*
X145872779Y-136626310D01*
X145889886Y-136649389D01*
X145958450Y-136768145D01*
X146086237Y-136910067D01*
X146240738Y-137022319D01*
X146246766Y-137025003D01*
X146246768Y-137025004D01*
X146367983Y-137078972D01*
X146415202Y-137099995D01*
X146508602Y-137119848D01*
X146595546Y-137138329D01*
X146595551Y-137138329D01*
X146602003Y-137139701D01*
X146792977Y-137139701D01*
X146799429Y-137138329D01*
X146799434Y-137138329D01*
X146886378Y-137119848D01*
X146979778Y-137099995D01*
X147026997Y-137078972D01*
X147148212Y-137025004D01*
X147148214Y-137025003D01*
X147154242Y-137022319D01*
X147308743Y-136910067D01*
X147436530Y-136768145D01*
X147532017Y-136602757D01*
X147591032Y-136421129D01*
X147599724Y-136338435D01*
X147610304Y-136237766D01*
X147610994Y-136231201D01*
X147602701Y-136152296D01*
X147591722Y-136047836D01*
X147591722Y-136047834D01*
X147591032Y-136041273D01*
X147532017Y-135859645D01*
X147436530Y-135694257D01*
X147429963Y-135686963D01*
X147313165Y-135557246D01*
X147313164Y-135557245D01*
X147308743Y-135552335D01*
X147198402Y-135472167D01*
X147159584Y-135443964D01*
X147159583Y-135443963D01*
X147154242Y-135440083D01*
X147148214Y-135437399D01*
X147148212Y-135437398D01*
X146985809Y-135365092D01*
X146985808Y-135365092D01*
X146979778Y-135362407D01*
X146886377Y-135342554D01*
X146799434Y-135324073D01*
X146799429Y-135324073D01*
X146792977Y-135322701D01*
X146602003Y-135322701D01*
X146595551Y-135324073D01*
X146595546Y-135324073D01*
X146508603Y-135342554D01*
X146415202Y-135362407D01*
X146409172Y-135365092D01*
X146409171Y-135365092D01*
X146246768Y-135437398D01*
X146246766Y-135437399D01*
X146240738Y-135440083D01*
X146235397Y-135443963D01*
X146235396Y-135443964D01*
X146196578Y-135472167D01*
X146086237Y-135552335D01*
X146081816Y-135557245D01*
X146081815Y-135557246D01*
X145965018Y-135686963D01*
X145958450Y-135694257D01*
X145862963Y-135859645D01*
X145803948Y-136041273D01*
X145803258Y-136047836D01*
X145803258Y-136047837D01*
X145801944Y-136060342D01*
X145774933Y-136125999D01*
X145716712Y-136166630D01*
X145645767Y-136169335D01*
X145584622Y-136133254D01*
X145567515Y-136110175D01*
X145527734Y-136041273D01*
X145498951Y-135991419D01*
X145473589Y-135963251D01*
X145375586Y-135854408D01*
X145375585Y-135854407D01*
X145371164Y-135849497D01*
X145216663Y-135737245D01*
X145210637Y-135734562D01*
X145210630Y-135734558D01*
X145118996Y-135693761D01*
X145064900Y-135647781D01*
X145044250Y-135579854D01*
X145063602Y-135511546D01*
X145118995Y-135463547D01*
X145230722Y-135413803D01*
X145230724Y-135413802D01*
X145236752Y-135411118D01*
X145391253Y-135298866D01*
X145519040Y-135156944D01*
X145614527Y-134991556D01*
X145673542Y-134809928D01*
X145681139Y-134737647D01*
X157716086Y-134737647D01*
X157736048Y-134927575D01*
X157795063Y-135109203D01*
X157890550Y-135274591D01*
X157894968Y-135279498D01*
X157894969Y-135279499D01*
X157933868Y-135322701D01*
X158018337Y-135416513D01*
X158088644Y-135467594D01*
X158134048Y-135500582D01*
X158172838Y-135528765D01*
X158178866Y-135531449D01*
X158178868Y-135531450D01*
X158287586Y-135579854D01*
X158347302Y-135606441D01*
X158440703Y-135626294D01*
X158527646Y-135644775D01*
X158527651Y-135644775D01*
X158534103Y-135646147D01*
X158725077Y-135646147D01*
X158731529Y-135644775D01*
X158731534Y-135644775D01*
X158818477Y-135626294D01*
X158911878Y-135606441D01*
X158971594Y-135579854D01*
X159080312Y-135531450D01*
X159080314Y-135531449D01*
X159086342Y-135528765D01*
X159125133Y-135500582D01*
X159170536Y-135467594D01*
X159240843Y-135416513D01*
X159325312Y-135322701D01*
X159364211Y-135279499D01*
X159364212Y-135279498D01*
X159368630Y-135274591D01*
X159464117Y-135109203D01*
X159499599Y-135000000D01*
X214466835Y-135000000D01*
X214485465Y-135236711D01*
X214486619Y-135241518D01*
X214486620Y-135241524D01*
X214498972Y-135292973D01*
X214540895Y-135467594D01*
X214542788Y-135472165D01*
X214542789Y-135472167D01*
X214614854Y-135646147D01*
X214631760Y-135686963D01*
X214634346Y-135691183D01*
X214753241Y-135885202D01*
X214753245Y-135885208D01*
X214755824Y-135889416D01*
X214910031Y-136069969D01*
X215090584Y-136224176D01*
X215094792Y-136226755D01*
X215094798Y-136226759D01*
X215277037Y-136338435D01*
X215293037Y-136348240D01*
X215297607Y-136350133D01*
X215297611Y-136350135D01*
X215484164Y-136427407D01*
X215512406Y-136439105D01*
X215592609Y-136458360D01*
X215738476Y-136493380D01*
X215738482Y-136493381D01*
X215743289Y-136494535D01*
X215980000Y-136513165D01*
X216216711Y-136494535D01*
X216221518Y-136493381D01*
X216221524Y-136493380D01*
X216367391Y-136458360D01*
X216447594Y-136439105D01*
X216475836Y-136427407D01*
X216662389Y-136350135D01*
X216662393Y-136350133D01*
X216666963Y-136348240D01*
X216682963Y-136338435D01*
X216865202Y-136226759D01*
X216865208Y-136226755D01*
X216869416Y-136224176D01*
X217049969Y-136069969D01*
X217204176Y-135889416D01*
X217206755Y-135885208D01*
X217206759Y-135885202D01*
X217325654Y-135691183D01*
X217328240Y-135686963D01*
X217345147Y-135646147D01*
X217417211Y-135472167D01*
X217417212Y-135472165D01*
X217419105Y-135467594D01*
X217461028Y-135292973D01*
X217473380Y-135241524D01*
X217473381Y-135241518D01*
X217474535Y-135236711D01*
X217493165Y-135000000D01*
X228966835Y-135000000D01*
X228985465Y-135236711D01*
X228986619Y-135241518D01*
X228986620Y-135241524D01*
X228998972Y-135292973D01*
X229040895Y-135467594D01*
X229042788Y-135472165D01*
X229042789Y-135472167D01*
X229114854Y-135646147D01*
X229131760Y-135686963D01*
X229134346Y-135691183D01*
X229253241Y-135885202D01*
X229253245Y-135885208D01*
X229255824Y-135889416D01*
X229410031Y-136069969D01*
X229590584Y-136224176D01*
X229594792Y-136226755D01*
X229594798Y-136226759D01*
X229777037Y-136338435D01*
X229793037Y-136348240D01*
X229797607Y-136350133D01*
X229797611Y-136350135D01*
X229984164Y-136427407D01*
X230012406Y-136439105D01*
X230092609Y-136458360D01*
X230238476Y-136493380D01*
X230238482Y-136493381D01*
X230243289Y-136494535D01*
X230480000Y-136513165D01*
X230716711Y-136494535D01*
X230721518Y-136493381D01*
X230721524Y-136493380D01*
X230867391Y-136458360D01*
X230947594Y-136439105D01*
X230975836Y-136427407D01*
X231162389Y-136350135D01*
X231162393Y-136350133D01*
X231166963Y-136348240D01*
X231182963Y-136338435D01*
X231365202Y-136226759D01*
X231365208Y-136226755D01*
X231369416Y-136224176D01*
X231549969Y-136069969D01*
X231704176Y-135889416D01*
X231706755Y-135885208D01*
X231706759Y-135885202D01*
X231825654Y-135691183D01*
X231828240Y-135686963D01*
X231845147Y-135646147D01*
X231917211Y-135472167D01*
X231917212Y-135472165D01*
X231919105Y-135467594D01*
X231961028Y-135292973D01*
X231973380Y-135241524D01*
X231973381Y-135241518D01*
X231974535Y-135236711D01*
X231993165Y-135000000D01*
X231974535Y-134763289D01*
X231965049Y-134723774D01*
X231920260Y-134537218D01*
X231919105Y-134532406D01*
X231890722Y-134463882D01*
X231830135Y-134317611D01*
X231830133Y-134317607D01*
X231828240Y-134313037D01*
X231785150Y-134242721D01*
X231706759Y-134114798D01*
X231706755Y-134114792D01*
X231704176Y-134110584D01*
X231559452Y-133941134D01*
X231553177Y-133933787D01*
X231549969Y-133930031D01*
X231369416Y-133775824D01*
X231365208Y-133773245D01*
X231365202Y-133773241D01*
X231171183Y-133654346D01*
X231166963Y-133651760D01*
X231162393Y-133649867D01*
X231162389Y-133649865D01*
X230952167Y-133562789D01*
X230952165Y-133562788D01*
X230947594Y-133560895D01*
X230867391Y-133541640D01*
X230721524Y-133506620D01*
X230721518Y-133506619D01*
X230716711Y-133505465D01*
X230480000Y-133486835D01*
X230243289Y-133505465D01*
X230238482Y-133506619D01*
X230238476Y-133506620D01*
X230092609Y-133541640D01*
X230012406Y-133560895D01*
X230007835Y-133562788D01*
X230007833Y-133562789D01*
X229797611Y-133649865D01*
X229797607Y-133649867D01*
X229793037Y-133651760D01*
X229788817Y-133654346D01*
X229594798Y-133773241D01*
X229594792Y-133773245D01*
X229590584Y-133775824D01*
X229410031Y-133930031D01*
X229406823Y-133933787D01*
X229400548Y-133941134D01*
X229255824Y-134110584D01*
X229253245Y-134114792D01*
X229253241Y-134114798D01*
X229174850Y-134242721D01*
X229131760Y-134313037D01*
X229129867Y-134317607D01*
X229129865Y-134317611D01*
X229069278Y-134463882D01*
X229040895Y-134532406D01*
X229039740Y-134537218D01*
X228994952Y-134723774D01*
X228985465Y-134763289D01*
X228966835Y-135000000D01*
X217493165Y-135000000D01*
X217474535Y-134763289D01*
X217465049Y-134723774D01*
X217420260Y-134537218D01*
X217419105Y-134532406D01*
X217390722Y-134463882D01*
X217330135Y-134317611D01*
X217330133Y-134317607D01*
X217328240Y-134313037D01*
X217285150Y-134242721D01*
X217206759Y-134114798D01*
X217206755Y-134114792D01*
X217204176Y-134110584D01*
X217059452Y-133941134D01*
X217053177Y-133933787D01*
X217049969Y-133930031D01*
X216887474Y-133791247D01*
X216853598Y-133745314D01*
X216844122Y-133723332D01*
X215992812Y-132872022D01*
X215978868Y-132864408D01*
X215977035Y-132864539D01*
X215970420Y-132868790D01*
X215118920Y-133720290D01*
X215097974Y-133758648D01*
X215069218Y-133794072D01*
X214981661Y-133868853D01*
X214910031Y-133930031D01*
X214906823Y-133933787D01*
X214900548Y-133941134D01*
X214755824Y-134110584D01*
X214753245Y-134114792D01*
X214753241Y-134114798D01*
X214674850Y-134242721D01*
X214631760Y-134313037D01*
X214629867Y-134317607D01*
X214629865Y-134317611D01*
X214569278Y-134463882D01*
X214540895Y-134532406D01*
X214539740Y-134537218D01*
X214494952Y-134723774D01*
X214485465Y-134763289D01*
X214466835Y-135000000D01*
X159499599Y-135000000D01*
X159523132Y-134927575D01*
X159543094Y-134737647D01*
X159526119Y-134576134D01*
X159523822Y-134554282D01*
X159523822Y-134554280D01*
X159523132Y-134547719D01*
X159464117Y-134366091D01*
X159368630Y-134200703D01*
X159240843Y-134058781D01*
X159086342Y-133946529D01*
X159080314Y-133943845D01*
X159080312Y-133943844D01*
X158917909Y-133871538D01*
X158917908Y-133871538D01*
X158911878Y-133868853D01*
X158818477Y-133849000D01*
X158731534Y-133830519D01*
X158731529Y-133830519D01*
X158725077Y-133829147D01*
X158534103Y-133829147D01*
X158527651Y-133830519D01*
X158527646Y-133830519D01*
X158440703Y-133849000D01*
X158347302Y-133868853D01*
X158341272Y-133871538D01*
X158341271Y-133871538D01*
X158178868Y-133943844D01*
X158178866Y-133943845D01*
X158172838Y-133946529D01*
X158018337Y-134058781D01*
X157890550Y-134200703D01*
X157795063Y-134366091D01*
X157736048Y-134547719D01*
X157735358Y-134554280D01*
X157735358Y-134554282D01*
X157733061Y-134576134D01*
X157716086Y-134737647D01*
X145681139Y-134737647D01*
X145693504Y-134620000D01*
X145683817Y-134527833D01*
X145674232Y-134436635D01*
X145674232Y-134436633D01*
X145673542Y-134430072D01*
X145614527Y-134248444D01*
X145519040Y-134083056D01*
X145493687Y-134054898D01*
X145395675Y-133946045D01*
X145395674Y-133946044D01*
X145391253Y-133941134D01*
X145236752Y-133828882D01*
X145230724Y-133826198D01*
X145230722Y-133826197D01*
X145116000Y-133775120D01*
X145061904Y-133729140D01*
X145041255Y-133661213D01*
X145060607Y-133592905D01*
X145116000Y-133544906D01*
X145197092Y-133508802D01*
X145197094Y-133508801D01*
X145203122Y-133506117D01*
X145357623Y-133393865D01*
X145460126Y-133280024D01*
X145480991Y-133256851D01*
X145480992Y-133256850D01*
X145485410Y-133251943D01*
X145543684Y-133151009D01*
X145577593Y-133092278D01*
X145577594Y-133092277D01*
X145580897Y-133086555D01*
X145639912Y-132904927D01*
X145643371Y-132872022D01*
X145659184Y-132721564D01*
X145659874Y-132714999D01*
X145640988Y-132535305D01*
X145640602Y-132531634D01*
X145640602Y-132531632D01*
X145639912Y-132525071D01*
X145629422Y-132492787D01*
X152065723Y-132492787D01*
X152085685Y-132682715D01*
X152144700Y-132864343D01*
X152148003Y-132870065D01*
X152148004Y-132870066D01*
X152168131Y-132904927D01*
X152240187Y-133029731D01*
X152244605Y-133034638D01*
X152244606Y-133034639D01*
X152299810Y-133095949D01*
X152367974Y-133171653D01*
X152382440Y-133182163D01*
X152485239Y-133256851D01*
X152522475Y-133283905D01*
X152528503Y-133286589D01*
X152528505Y-133286590D01*
X152689895Y-133358445D01*
X152696939Y-133361581D01*
X152790339Y-133381434D01*
X152877283Y-133399915D01*
X152877288Y-133399915D01*
X152883740Y-133401287D01*
X153074714Y-133401287D01*
X153081166Y-133399915D01*
X153081171Y-133399915D01*
X153168115Y-133381434D01*
X153261515Y-133361581D01*
X153268559Y-133358445D01*
X153429949Y-133286590D01*
X153429951Y-133286589D01*
X153435979Y-133283905D01*
X153473216Y-133256851D01*
X153576014Y-133182163D01*
X153590480Y-133171653D01*
X153658644Y-133095949D01*
X153713848Y-133034639D01*
X153713849Y-133034638D01*
X153718267Y-133029731D01*
X153790323Y-132904927D01*
X153810450Y-132870066D01*
X153810451Y-132870065D01*
X153813754Y-132864343D01*
X153872769Y-132682715D01*
X153891455Y-132504930D01*
X214467725Y-132504930D01*
X214485572Y-132731699D01*
X214487115Y-132741446D01*
X214540217Y-132962627D01*
X214543266Y-132972012D01*
X214630313Y-133182163D01*
X214634795Y-133190958D01*
X214737432Y-133358445D01*
X214747890Y-133367907D01*
X214756666Y-133364124D01*
X215890905Y-132229885D01*
X215953217Y-132195859D01*
X216024032Y-132200924D01*
X216069095Y-132229885D01*
X217200290Y-133361080D01*
X217212670Y-133367840D01*
X217220320Y-133362113D01*
X217325205Y-133190958D01*
X217329687Y-133182163D01*
X217416734Y-132972012D01*
X217419783Y-132962627D01*
X217472885Y-132741446D01*
X217474428Y-132731699D01*
X217492275Y-132504930D01*
X217492275Y-132495070D01*
X217474428Y-132268301D01*
X217472885Y-132258554D01*
X217419783Y-132037373D01*
X217416734Y-132027988D01*
X217329687Y-131817837D01*
X217325205Y-131809042D01*
X217203770Y-131610879D01*
X217205851Y-131609604D01*
X217185280Y-131552261D01*
X217201242Y-131483082D01*
X217235497Y-131444026D01*
X217336080Y-131368643D01*
X217336081Y-131368642D01*
X217343261Y-131363261D01*
X217430615Y-131246705D01*
X217481745Y-131110316D01*
X217488500Y-131048134D01*
X217488500Y-130000000D01*
X228966835Y-130000000D01*
X228985465Y-130236711D01*
X228986619Y-130241518D01*
X228986620Y-130241524D01*
X228994940Y-130276178D01*
X229040895Y-130467594D01*
X229042788Y-130472165D01*
X229042789Y-130472167D01*
X229073372Y-130546000D01*
X229131760Y-130686963D01*
X229134346Y-130691183D01*
X229253241Y-130885202D01*
X229253245Y-130885208D01*
X229255824Y-130889416D01*
X229388464Y-131044717D01*
X229399130Y-131057205D01*
X229410031Y-131069969D01*
X229590584Y-131224176D01*
X229594792Y-131226755D01*
X229594798Y-131226759D01*
X229788817Y-131345654D01*
X229793037Y-131348240D01*
X229797607Y-131350133D01*
X229797611Y-131350135D01*
X230012406Y-131439105D01*
X230060349Y-131450615D01*
X230238476Y-131493380D01*
X230238482Y-131493381D01*
X230243289Y-131494535D01*
X230480000Y-131513165D01*
X230716711Y-131494535D01*
X230721518Y-131493381D01*
X230721524Y-131493380D01*
X230899651Y-131450615D01*
X230947594Y-131439105D01*
X231162389Y-131350135D01*
X231162393Y-131350133D01*
X231166963Y-131348240D01*
X231171183Y-131345654D01*
X231365202Y-131226759D01*
X231365208Y-131226755D01*
X231369416Y-131224176D01*
X231549969Y-131069969D01*
X231560871Y-131057205D01*
X231571536Y-131044717D01*
X231704176Y-130889416D01*
X231706755Y-130885208D01*
X231706759Y-130885202D01*
X231825654Y-130691183D01*
X231828240Y-130686963D01*
X231886629Y-130546000D01*
X231917211Y-130472167D01*
X231917212Y-130472165D01*
X231919105Y-130467594D01*
X231965060Y-130276178D01*
X231973380Y-130241524D01*
X231973381Y-130241518D01*
X231974535Y-130236711D01*
X231993165Y-130000000D01*
X231974535Y-129763289D01*
X231954199Y-129678581D01*
X231920260Y-129537218D01*
X231919105Y-129532406D01*
X231898382Y-129482375D01*
X231830135Y-129317611D01*
X231830133Y-129317607D01*
X231828240Y-129313037D01*
X231811775Y-129286169D01*
X231706759Y-129114798D01*
X231706755Y-129114792D01*
X231704176Y-129110584D01*
X231568618Y-128951866D01*
X231553177Y-128933787D01*
X231549969Y-128930031D01*
X231369416Y-128775824D01*
X231365208Y-128773245D01*
X231365202Y-128773241D01*
X231171183Y-128654346D01*
X231166963Y-128651760D01*
X231162393Y-128649867D01*
X231162389Y-128649865D01*
X230952167Y-128562789D01*
X230952165Y-128562788D01*
X230947594Y-128560895D01*
X230867391Y-128541640D01*
X230721524Y-128506620D01*
X230721518Y-128506619D01*
X230716711Y-128505465D01*
X230480000Y-128486835D01*
X230243289Y-128505465D01*
X230238482Y-128506619D01*
X230238476Y-128506620D01*
X230092609Y-128541640D01*
X230012406Y-128560895D01*
X230007835Y-128562788D01*
X230007833Y-128562789D01*
X229797611Y-128649865D01*
X229797607Y-128649867D01*
X229793037Y-128651760D01*
X229788817Y-128654346D01*
X229594798Y-128773241D01*
X229594792Y-128773245D01*
X229590584Y-128775824D01*
X229410031Y-128930031D01*
X229406823Y-128933787D01*
X229391382Y-128951866D01*
X229255824Y-129110584D01*
X229253245Y-129114792D01*
X229253241Y-129114798D01*
X229148225Y-129286169D01*
X229131760Y-129313037D01*
X229129867Y-129317607D01*
X229129865Y-129317611D01*
X229061618Y-129482375D01*
X229040895Y-129532406D01*
X229039740Y-129537218D01*
X229005802Y-129678581D01*
X228985465Y-129763289D01*
X228966835Y-130000000D01*
X217488500Y-130000000D01*
X217488500Y-128951866D01*
X217481745Y-128889684D01*
X217430615Y-128753295D01*
X217343261Y-128636739D01*
X217226705Y-128549385D01*
X217090316Y-128498255D01*
X217028134Y-128491500D01*
X214931866Y-128491500D01*
X214869684Y-128498255D01*
X214733295Y-128549385D01*
X214616739Y-128636739D01*
X214529385Y-128753295D01*
X214478255Y-128889684D01*
X214471500Y-128951866D01*
X214471500Y-131048134D01*
X214478255Y-131110316D01*
X214529385Y-131246705D01*
X214616739Y-131363261D01*
X214623919Y-131368642D01*
X214623920Y-131368643D01*
X214724503Y-131444026D01*
X214767018Y-131500885D01*
X214772044Y-131571704D01*
X214754824Y-131610017D01*
X214756230Y-131610879D01*
X214634795Y-131809042D01*
X214630313Y-131817837D01*
X214543266Y-132027988D01*
X214540217Y-132037373D01*
X214487115Y-132258554D01*
X214485572Y-132268301D01*
X214467725Y-132495070D01*
X214467725Y-132504930D01*
X153891455Y-132504930D01*
X153892731Y-132492787D01*
X153892041Y-132486222D01*
X153873459Y-132309422D01*
X153873459Y-132309420D01*
X153872769Y-132302859D01*
X153813754Y-132121231D01*
X153718267Y-131955843D01*
X153611622Y-131837401D01*
X153594902Y-131818832D01*
X153594901Y-131818831D01*
X153590480Y-131813921D01*
X153435979Y-131701669D01*
X153429951Y-131698985D01*
X153429949Y-131698984D01*
X153267546Y-131626678D01*
X153267545Y-131626678D01*
X153261515Y-131623993D01*
X153168114Y-131604140D01*
X153081171Y-131585659D01*
X153081166Y-131585659D01*
X153074714Y-131584287D01*
X152883740Y-131584287D01*
X152877288Y-131585659D01*
X152877283Y-131585659D01*
X152790340Y-131604140D01*
X152696939Y-131623993D01*
X152690909Y-131626678D01*
X152690908Y-131626678D01*
X152528505Y-131698984D01*
X152528503Y-131698985D01*
X152522475Y-131701669D01*
X152367974Y-131813921D01*
X152363553Y-131818831D01*
X152363552Y-131818832D01*
X152346833Y-131837401D01*
X152240187Y-131955843D01*
X152144700Y-132121231D01*
X152085685Y-132302859D01*
X152084995Y-132309420D01*
X152084995Y-132309422D01*
X152066413Y-132486222D01*
X152065723Y-132492787D01*
X145629422Y-132492787D01*
X145580897Y-132343443D01*
X145485410Y-132178055D01*
X145434246Y-132121231D01*
X145362045Y-132041044D01*
X145362044Y-132041043D01*
X145357623Y-132036133D01*
X145247114Y-131955843D01*
X145208464Y-131927762D01*
X145208463Y-131927761D01*
X145203122Y-131923881D01*
X145197094Y-131921197D01*
X145197092Y-131921196D01*
X145034689Y-131848890D01*
X145034688Y-131848890D01*
X145028658Y-131846205D01*
X144935257Y-131826352D01*
X144848314Y-131807871D01*
X144848309Y-131807871D01*
X144841857Y-131806499D01*
X144650883Y-131806499D01*
X144644431Y-131807871D01*
X144644426Y-131807871D01*
X144557483Y-131826352D01*
X144464082Y-131846205D01*
X144458052Y-131848890D01*
X144458051Y-131848890D01*
X144295648Y-131921196D01*
X144295646Y-131921197D01*
X144289618Y-131923881D01*
X144284277Y-131927761D01*
X144284276Y-131927762D01*
X144245626Y-131955843D01*
X144135117Y-132036133D01*
X144130696Y-132041043D01*
X144130695Y-132041044D01*
X144058495Y-132121231D01*
X144007330Y-132178055D01*
X143911843Y-132343443D01*
X143852828Y-132525071D01*
X143852138Y-132531632D01*
X143852138Y-132531634D01*
X143851752Y-132535305D01*
X143832866Y-132714999D01*
X143833556Y-132721564D01*
X143849370Y-132872022D01*
X143852828Y-132904927D01*
X143911843Y-133086555D01*
X143915146Y-133092277D01*
X143915147Y-133092278D01*
X143949056Y-133151009D01*
X144007330Y-133251943D01*
X144011748Y-133256850D01*
X144011749Y-133256851D01*
X144032614Y-133280024D01*
X144135117Y-133393865D01*
X144289618Y-133506117D01*
X144295646Y-133508801D01*
X144295648Y-133508802D01*
X144410370Y-133559879D01*
X144464466Y-133605859D01*
X144485115Y-133673786D01*
X144465763Y-133742094D01*
X144410370Y-133790093D01*
X144329278Y-133826197D01*
X144329276Y-133826198D01*
X144323248Y-133828882D01*
X144168747Y-133941134D01*
X144164326Y-133946044D01*
X144164325Y-133946045D01*
X144066314Y-134054898D01*
X144040960Y-134083056D01*
X143945473Y-134248444D01*
X143886458Y-134430072D01*
X143885768Y-134436633D01*
X143885768Y-134436635D01*
X143876183Y-134527833D01*
X143866496Y-134620000D01*
X143886458Y-134809928D01*
X143945473Y-134991556D01*
X144040960Y-135156944D01*
X144168747Y-135298866D01*
X144323248Y-135411118D01*
X144329274Y-135413801D01*
X144329281Y-135413805D01*
X144420915Y-135454602D01*
X144475011Y-135500582D01*
X144495661Y-135568509D01*
X144476309Y-135636817D01*
X144420916Y-135684816D01*
X144309189Y-135734560D01*
X144309187Y-135734561D01*
X144303159Y-135737245D01*
X144148658Y-135849497D01*
X144144237Y-135854407D01*
X144144236Y-135854408D01*
X144046234Y-135963251D01*
X144020871Y-135991419D01*
X143992088Y-136041273D01*
X143931293Y-136146573D01*
X143925384Y-136156807D01*
X143866369Y-136338435D01*
X143865679Y-136344996D01*
X143865679Y-136344998D01*
X143857018Y-136427407D01*
X143846407Y-136528363D01*
X143847097Y-136534928D01*
X143856702Y-136626310D01*
X143866369Y-136718291D01*
X143925384Y-136899919D01*
X144020871Y-137065307D01*
X144021999Y-137066560D01*
X144045245Y-137131705D01*
X144029167Y-137200858D01*
X144013087Y-137223213D01*
X144000783Y-137236878D01*
X143905296Y-137402266D01*
X143846281Y-137583894D01*
X143845591Y-137590455D01*
X143845591Y-137590457D01*
X143840282Y-137640968D01*
X143826319Y-137773822D01*
X132094112Y-137773822D01*
X132090430Y-135255000D01*
X133564664Y-135255000D01*
X133565354Y-135261565D01*
X133583835Y-135437398D01*
X133584626Y-135444928D01*
X133643641Y-135626556D01*
X133646944Y-135632278D01*
X133646945Y-135632279D01*
X133705996Y-135734558D01*
X133739128Y-135791944D01*
X133743546Y-135796851D01*
X133743547Y-135796852D01*
X133760429Y-135815601D01*
X133791146Y-135879609D01*
X133782383Y-135950062D01*
X133765618Y-135976152D01*
X133766313Y-135976657D01*
X133762431Y-135982000D01*
X133758012Y-135986908D01*
X133754710Y-135992627D01*
X133754708Y-135992630D01*
X133673519Y-136133254D01*
X133662525Y-136152296D01*
X133603510Y-136333924D01*
X133602820Y-136340485D01*
X133602820Y-136340487D01*
X133584712Y-136512777D01*
X133583548Y-136523852D01*
X133584238Y-136530417D01*
X133596411Y-136646233D01*
X133603510Y-136713780D01*
X133662525Y-136895408D01*
X133665828Y-136901130D01*
X133665829Y-136901131D01*
X133694159Y-136950200D01*
X133758012Y-137060796D01*
X133885799Y-137202718D01*
X133949371Y-137248906D01*
X134009855Y-137292850D01*
X134040300Y-137314970D01*
X134046328Y-137317654D01*
X134046330Y-137317655D01*
X134199531Y-137385864D01*
X134214764Y-137392646D01*
X134287267Y-137408057D01*
X134395108Y-137430980D01*
X134395113Y-137430980D01*
X134401565Y-137432352D01*
X134592539Y-137432352D01*
X134598991Y-137430980D01*
X134598996Y-137430980D01*
X134706837Y-137408057D01*
X134779340Y-137392646D01*
X134794573Y-137385864D01*
X134947774Y-137317655D01*
X134947776Y-137317654D01*
X134953804Y-137314970D01*
X134984250Y-137292850D01*
X135044733Y-137248906D01*
X135108305Y-137202718D01*
X135236092Y-137060796D01*
X135299945Y-136950200D01*
X135328275Y-136901131D01*
X135328276Y-136901130D01*
X135331579Y-136895408D01*
X135390594Y-136713780D01*
X135397694Y-136646233D01*
X135409866Y-136530417D01*
X135410556Y-136523852D01*
X135409392Y-136512777D01*
X135391284Y-136340487D01*
X135391284Y-136340485D01*
X135390594Y-136333924D01*
X135331579Y-136152296D01*
X135316397Y-136125999D01*
X135239395Y-135992629D01*
X135236092Y-135986908D01*
X135214791Y-135963251D01*
X135184074Y-135899243D01*
X135192837Y-135828790D01*
X135209602Y-135802700D01*
X135208907Y-135802195D01*
X135212789Y-135796852D01*
X135217208Y-135791944D01*
X135270307Y-135699975D01*
X135309391Y-135632279D01*
X135309392Y-135632278D01*
X135312695Y-135626556D01*
X135371710Y-135444928D01*
X135372502Y-135437398D01*
X135390982Y-135261565D01*
X135391672Y-135255000D01*
X135371710Y-135065072D01*
X135312695Y-134883444D01*
X135217208Y-134718056D01*
X135089421Y-134576134D01*
X134934920Y-134463882D01*
X134928892Y-134461198D01*
X134928890Y-134461197D01*
X134766487Y-134388891D01*
X134766486Y-134388891D01*
X134760456Y-134386206D01*
X134665823Y-134366091D01*
X134580112Y-134347872D01*
X134580107Y-134347872D01*
X134573655Y-134346500D01*
X134382681Y-134346500D01*
X134376229Y-134347872D01*
X134376224Y-134347872D01*
X134290513Y-134366091D01*
X134195880Y-134386206D01*
X134189850Y-134388891D01*
X134189849Y-134388891D01*
X134027446Y-134461197D01*
X134027444Y-134461198D01*
X134021416Y-134463882D01*
X133866915Y-134576134D01*
X133739128Y-134718056D01*
X133643641Y-134883444D01*
X133584626Y-135065072D01*
X133564664Y-135255000D01*
X132090430Y-135255000D01*
X132082076Y-129540000D01*
X150858298Y-129540000D01*
X150878260Y-129729928D01*
X150937275Y-129911556D01*
X151032762Y-130076944D01*
X151037180Y-130081851D01*
X151037181Y-130081852D01*
X151156127Y-130213955D01*
X151160549Y-130218866D01*
X151315050Y-130331118D01*
X151321078Y-130333802D01*
X151321080Y-130333803D01*
X151363167Y-130352541D01*
X151489514Y-130408794D01*
X151572715Y-130426479D01*
X151669858Y-130447128D01*
X151669863Y-130447128D01*
X151676315Y-130448500D01*
X151867289Y-130448500D01*
X151873741Y-130447128D01*
X151873746Y-130447128D01*
X151970889Y-130426479D01*
X152054090Y-130408794D01*
X152180437Y-130352541D01*
X152222524Y-130333803D01*
X152222526Y-130333802D01*
X152228554Y-130331118D01*
X152383055Y-130218866D01*
X152387477Y-130213955D01*
X152506423Y-130081852D01*
X152506424Y-130081851D01*
X152510842Y-130076944D01*
X152606329Y-129911556D01*
X152665344Y-129729928D01*
X152685306Y-129540000D01*
X152679939Y-129488940D01*
X152679249Y-129482375D01*
X157469745Y-129482375D01*
X157470435Y-129488940D01*
X157476492Y-129546565D01*
X157489707Y-129672303D01*
X157548722Y-129853931D01*
X157644209Y-130019319D01*
X157648627Y-130024226D01*
X157648628Y-130024227D01*
X157713367Y-130096127D01*
X157771996Y-130161241D01*
X157926497Y-130273493D01*
X157932525Y-130276177D01*
X157932527Y-130276178D01*
X158055925Y-130331118D01*
X158100961Y-130351169D01*
X158194362Y-130371022D01*
X158281305Y-130389503D01*
X158281310Y-130389503D01*
X158287762Y-130390875D01*
X158478736Y-130390875D01*
X158485188Y-130389503D01*
X158485193Y-130389503D01*
X158572136Y-130371022D01*
X158665537Y-130351169D01*
X158710573Y-130331118D01*
X158833971Y-130276178D01*
X158833973Y-130276177D01*
X158840001Y-130273493D01*
X158994502Y-130161241D01*
X159053131Y-130096127D01*
X159117870Y-130024227D01*
X159117871Y-130024226D01*
X159122289Y-130019319D01*
X159217776Y-129853931D01*
X159276791Y-129672303D01*
X159290007Y-129546565D01*
X159296063Y-129488940D01*
X159296753Y-129482375D01*
X159276791Y-129292447D01*
X159217776Y-129110819D01*
X159122289Y-128945431D01*
X159042892Y-128857251D01*
X158998924Y-128808420D01*
X158998923Y-128808419D01*
X158994502Y-128803509D01*
X158840001Y-128691257D01*
X158833973Y-128688573D01*
X158833971Y-128688572D01*
X158671568Y-128616266D01*
X158671567Y-128616266D01*
X158665537Y-128613581D01*
X158572136Y-128593728D01*
X158485193Y-128575247D01*
X158485188Y-128575247D01*
X158478736Y-128573875D01*
X158287762Y-128573875D01*
X158281310Y-128575247D01*
X158281305Y-128575247D01*
X158194362Y-128593728D01*
X158100961Y-128613581D01*
X158094931Y-128616266D01*
X158094930Y-128616266D01*
X157932527Y-128688572D01*
X157932525Y-128688573D01*
X157926497Y-128691257D01*
X157771996Y-128803509D01*
X157767575Y-128808419D01*
X157767574Y-128808420D01*
X157723607Y-128857251D01*
X157644209Y-128945431D01*
X157548722Y-129110819D01*
X157489707Y-129292447D01*
X157469745Y-129482375D01*
X152679249Y-129482375D01*
X152666034Y-129356635D01*
X152666034Y-129356633D01*
X152665344Y-129350072D01*
X152606329Y-129168444D01*
X152510842Y-129003056D01*
X152464751Y-128951866D01*
X152387477Y-128866045D01*
X152387476Y-128866044D01*
X152383055Y-128861134D01*
X152228554Y-128748882D01*
X152222526Y-128746198D01*
X152222524Y-128746197D01*
X152060121Y-128673891D01*
X152060120Y-128673891D01*
X152054090Y-128671206D01*
X151953689Y-128649865D01*
X151873746Y-128632872D01*
X151873741Y-128632872D01*
X151867289Y-128631500D01*
X151676315Y-128631500D01*
X151669863Y-128632872D01*
X151669858Y-128632872D01*
X151589915Y-128649865D01*
X151489514Y-128671206D01*
X151483484Y-128673891D01*
X151483483Y-128673891D01*
X151321080Y-128746197D01*
X151321078Y-128746198D01*
X151315050Y-128748882D01*
X151160549Y-128861134D01*
X151156128Y-128866044D01*
X151156127Y-128866045D01*
X151078854Y-128951866D01*
X151032762Y-129003056D01*
X150937275Y-129168444D01*
X150878260Y-129350072D01*
X150877570Y-129356633D01*
X150877570Y-129356635D01*
X150863665Y-129488940D01*
X150858298Y-129540000D01*
X132082076Y-129540000D01*
X132080000Y-128120000D01*
X127000000Y-128120000D01*
X127000000Y-141166913D01*
X100508500Y-141166913D01*
X100508500Y-139705768D01*
X101462425Y-139705768D01*
X101494138Y-139813521D01*
X101498731Y-139824889D01*
X101584607Y-139989154D01*
X101591321Y-139999415D01*
X101707468Y-140143873D01*
X101716046Y-140152632D01*
X101858039Y-140271778D01*
X101868159Y-140278708D01*
X102030585Y-140368002D01*
X102041858Y-140372834D01*
X102218538Y-140428880D01*
X102230532Y-140431430D01*
X102374761Y-140447607D01*
X102381785Y-140448000D01*
X102462885Y-140448000D01*
X102478124Y-140443525D01*
X102479329Y-140442135D01*
X102481000Y-140434452D01*
X102481000Y-140429885D01*
X102989000Y-140429885D01*
X102993475Y-140445124D01*
X102994865Y-140446329D01*
X103002548Y-140448000D01*
X103081657Y-140448000D01*
X103087805Y-140447699D01*
X103225603Y-140434188D01*
X103237638Y-140431805D01*
X103415076Y-140378233D01*
X103426416Y-140373559D01*
X103590077Y-140286540D01*
X103600294Y-140279751D01*
X103743933Y-140162603D01*
X103752637Y-140153959D01*
X103870784Y-140011144D01*
X103877644Y-140000973D01*
X103965804Y-139837924D01*
X103970556Y-139826619D01*
X104006250Y-139711308D01*
X104006331Y-139705768D01*
X105362425Y-139705768D01*
X105394138Y-139813521D01*
X105398731Y-139824889D01*
X105484607Y-139989154D01*
X105491321Y-139999415D01*
X105607468Y-140143873D01*
X105616046Y-140152632D01*
X105758039Y-140271778D01*
X105768159Y-140278708D01*
X105930585Y-140368002D01*
X105941858Y-140372834D01*
X106118538Y-140428880D01*
X106130532Y-140431430D01*
X106274761Y-140447607D01*
X106281785Y-140448000D01*
X106612885Y-140448000D01*
X106628124Y-140443525D01*
X106629329Y-140442135D01*
X106631000Y-140434452D01*
X106631000Y-140429885D01*
X107139000Y-140429885D01*
X107143475Y-140445124D01*
X107144865Y-140446329D01*
X107152548Y-140448000D01*
X107481657Y-140448000D01*
X107487805Y-140447699D01*
X107625603Y-140434188D01*
X107637638Y-140431805D01*
X107815076Y-140378233D01*
X107826416Y-140373559D01*
X107990077Y-140286540D01*
X108000294Y-140279751D01*
X108143933Y-140162603D01*
X108152637Y-140153959D01*
X108270784Y-140011144D01*
X108277644Y-140000973D01*
X108365804Y-139837924D01*
X108370556Y-139826619D01*
X108406250Y-139711308D01*
X108406456Y-139697205D01*
X108399701Y-139694000D01*
X107157115Y-139694000D01*
X107141876Y-139698475D01*
X107140671Y-139699865D01*
X107139000Y-139707548D01*
X107139000Y-140429885D01*
X106631000Y-140429885D01*
X106631000Y-139712115D01*
X106626525Y-139696876D01*
X106625135Y-139695671D01*
X106617452Y-139694000D01*
X105377076Y-139694000D01*
X105363545Y-139697973D01*
X105362425Y-139705768D01*
X104006331Y-139705768D01*
X104006456Y-139697205D01*
X103999701Y-139694000D01*
X103007115Y-139694000D01*
X102991876Y-139698475D01*
X102990671Y-139699865D01*
X102989000Y-139707548D01*
X102989000Y-140429885D01*
X102481000Y-140429885D01*
X102481000Y-139712115D01*
X102476525Y-139696876D01*
X102475135Y-139695671D01*
X102467452Y-139694000D01*
X101477076Y-139694000D01*
X101463545Y-139697973D01*
X101462425Y-139705768D01*
X100508500Y-139705768D01*
X100508500Y-139665000D01*
X110811496Y-139665000D01*
X110812186Y-139671565D01*
X110828483Y-139826619D01*
X110831458Y-139854928D01*
X110890473Y-140036556D01*
X110985960Y-140201944D01*
X110990378Y-140206851D01*
X110990379Y-140206852D01*
X111056018Y-140279751D01*
X111113747Y-140343866D01*
X111212843Y-140415864D01*
X111257075Y-140448000D01*
X111268248Y-140456118D01*
X111274276Y-140458802D01*
X111274278Y-140458803D01*
X111436681Y-140531109D01*
X111442712Y-140533794D01*
X111508572Y-140547793D01*
X111623056Y-140572128D01*
X111623061Y-140572128D01*
X111629513Y-140573500D01*
X111820487Y-140573500D01*
X111826939Y-140572128D01*
X111826944Y-140572128D01*
X111941428Y-140547793D01*
X112007288Y-140533794D01*
X112013319Y-140531109D01*
X112175722Y-140458803D01*
X112175724Y-140458802D01*
X112181752Y-140456118D01*
X112192926Y-140448000D01*
X112237157Y-140415864D01*
X112336253Y-140343866D01*
X112393982Y-140279751D01*
X112459621Y-140206852D01*
X112459622Y-140206851D01*
X112464040Y-140201944D01*
X112559527Y-140036556D01*
X112618542Y-139854928D01*
X112621518Y-139826619D01*
X112637814Y-139671565D01*
X112638504Y-139665000D01*
X112634965Y-139631320D01*
X112619232Y-139481635D01*
X112619232Y-139481633D01*
X112618542Y-139475072D01*
X112559527Y-139293444D01*
X112464040Y-139128056D01*
X112436544Y-139097518D01*
X112340675Y-138991045D01*
X112340674Y-138991044D01*
X112336253Y-138986134D01*
X112190978Y-138880585D01*
X112187094Y-138877763D01*
X112187093Y-138877762D01*
X112181752Y-138873882D01*
X112175724Y-138871198D01*
X112175722Y-138871197D01*
X112013319Y-138798891D01*
X112013318Y-138798891D01*
X112007288Y-138796206D01*
X111913888Y-138776353D01*
X111826944Y-138757872D01*
X111826939Y-138757872D01*
X111820487Y-138756500D01*
X111629513Y-138756500D01*
X111623061Y-138757872D01*
X111623056Y-138757872D01*
X111536112Y-138776353D01*
X111442712Y-138796206D01*
X111436682Y-138798891D01*
X111436681Y-138798891D01*
X111274278Y-138871197D01*
X111274276Y-138871198D01*
X111268248Y-138873882D01*
X111262907Y-138877762D01*
X111262906Y-138877763D01*
X111259022Y-138880585D01*
X111113747Y-138986134D01*
X111109326Y-138991044D01*
X111109325Y-138991045D01*
X111013457Y-139097518D01*
X110985960Y-139128056D01*
X110890473Y-139293444D01*
X110831458Y-139475072D01*
X110830768Y-139481633D01*
X110830768Y-139481635D01*
X110815036Y-139631320D01*
X110811496Y-139665000D01*
X100508500Y-139665000D01*
X100508500Y-139182795D01*
X101463544Y-139182795D01*
X101470299Y-139186000D01*
X102462885Y-139186000D01*
X102478124Y-139181525D01*
X102479329Y-139180135D01*
X102481000Y-139172452D01*
X102481000Y-139167885D01*
X102989000Y-139167885D01*
X102993475Y-139183124D01*
X102994865Y-139184329D01*
X103002548Y-139186000D01*
X103992924Y-139186000D01*
X104003839Y-139182795D01*
X105363544Y-139182795D01*
X105370299Y-139186000D01*
X108392924Y-139186000D01*
X108408163Y-139181525D01*
X108417244Y-139171045D01*
X108433293Y-139135903D01*
X108493018Y-139097518D01*
X108564015Y-139097518D01*
X108579763Y-139103306D01*
X108711113Y-139161786D01*
X108797438Y-139180135D01*
X108891457Y-139200120D01*
X108891462Y-139200120D01*
X108897914Y-139201492D01*
X109088888Y-139201492D01*
X109095340Y-139200120D01*
X109095345Y-139200120D01*
X109189364Y-139180135D01*
X109275689Y-139161786D01*
X109281720Y-139159101D01*
X109444123Y-139086795D01*
X109444125Y-139086794D01*
X109450153Y-139084110D01*
X109604654Y-138971858D01*
X109612349Y-138963312D01*
X109728022Y-138834844D01*
X109728023Y-138834843D01*
X109732441Y-138829936D01*
X109827928Y-138664548D01*
X109886943Y-138482920D01*
X109889713Y-138456571D01*
X109906215Y-138299557D01*
X109906215Y-138299556D01*
X109906905Y-138292992D01*
X109891390Y-138145378D01*
X109887633Y-138109627D01*
X109887633Y-138109625D01*
X109886943Y-138103064D01*
X109827928Y-137921436D01*
X109816049Y-137900860D01*
X109742703Y-137773822D01*
X109732441Y-137756048D01*
X109726399Y-137749337D01*
X109609076Y-137619037D01*
X109609075Y-137619036D01*
X109604654Y-137614126D01*
X109450153Y-137501874D01*
X109444125Y-137499190D01*
X109444123Y-137499189D01*
X109281720Y-137426883D01*
X109281719Y-137426883D01*
X109275689Y-137424198D01*
X109172508Y-137402266D01*
X109095345Y-137385864D01*
X109095340Y-137385864D01*
X109088888Y-137384492D01*
X108897914Y-137384492D01*
X108891462Y-137385864D01*
X108891457Y-137385864D01*
X108814294Y-137402266D01*
X108711113Y-137424198D01*
X108705083Y-137426883D01*
X108705082Y-137426883D01*
X108542679Y-137499189D01*
X108542677Y-137499190D01*
X108536649Y-137501874D01*
X108382148Y-137614126D01*
X108377727Y-137619036D01*
X108377726Y-137619037D01*
X108260404Y-137749337D01*
X108254361Y-137756048D01*
X108244099Y-137773822D01*
X108170754Y-137900860D01*
X108158874Y-137921436D01*
X108099859Y-138103064D01*
X108099169Y-138109625D01*
X108099169Y-138109627D01*
X108095412Y-138145378D01*
X108079897Y-138292992D01*
X108093882Y-138426049D01*
X108081110Y-138495886D01*
X108032608Y-138547732D01*
X107963775Y-138565127D01*
X107907871Y-138549632D01*
X107839415Y-138511998D01*
X107828142Y-138507166D01*
X107651462Y-138451120D01*
X107639468Y-138448570D01*
X107495239Y-138432393D01*
X107488215Y-138432000D01*
X107300023Y-138432000D01*
X107231902Y-138411998D01*
X107185409Y-138358342D01*
X107175305Y-138288068D01*
X107183034Y-138259208D01*
X107189995Y-138241803D01*
X107192530Y-138235466D01*
X107193644Y-138228738D01*
X107193645Y-138228734D01*
X107220993Y-138063539D01*
X107220993Y-138063536D01*
X107222108Y-138056802D01*
X107217561Y-137970028D01*
X107212987Y-137882766D01*
X107212630Y-137875953D01*
X107189304Y-137791266D01*
X107166352Y-137707941D01*
X107164539Y-137701359D01*
X107080078Y-137541164D01*
X107075673Y-137535951D01*
X107075670Y-137535947D01*
X106967594Y-137408057D01*
X106967590Y-137408053D01*
X106963187Y-137402843D01*
X106954947Y-137396543D01*
X106824743Y-137296994D01*
X106824739Y-137296991D01*
X106819322Y-137292850D01*
X106699290Y-137236878D01*
X106661369Y-137219195D01*
X106661366Y-137219194D01*
X106655192Y-137216315D01*
X106648544Y-137214829D01*
X106648541Y-137214828D01*
X106483494Y-137177936D01*
X106483495Y-137177936D01*
X106478457Y-137176810D01*
X106472912Y-137176500D01*
X106339756Y-137176500D01*
X106204963Y-137191143D01*
X106121609Y-137219195D01*
X106039796Y-137246728D01*
X106039794Y-137246729D01*
X106033325Y-137248906D01*
X105878095Y-137342177D01*
X105873138Y-137346865D01*
X105873135Y-137346867D01*
X105784189Y-137430980D01*
X105746515Y-137466607D01*
X105742683Y-137472245D01*
X105742680Y-137472249D01*
X105666806Y-137583894D01*
X105644723Y-137616388D01*
X105577470Y-137784534D01*
X105576356Y-137791262D01*
X105576355Y-137791266D01*
X105553765Y-137927721D01*
X105547892Y-137963198D01*
X105548249Y-137970015D01*
X105548249Y-137970019D01*
X105552993Y-138060530D01*
X105557370Y-138144047D01*
X105559181Y-138150620D01*
X105559181Y-138150623D01*
X105582551Y-138235466D01*
X105605461Y-138318641D01*
X105689922Y-138478836D01*
X105694329Y-138484051D01*
X105694331Y-138484054D01*
X105700451Y-138491295D01*
X105729145Y-138556235D01*
X105718175Y-138626378D01*
X105683852Y-138670269D01*
X105626067Y-138717397D01*
X105617363Y-138726041D01*
X105499216Y-138868856D01*
X105492356Y-138879027D01*
X105404196Y-139042076D01*
X105399444Y-139053381D01*
X105363750Y-139168692D01*
X105363544Y-139182795D01*
X104003839Y-139182795D01*
X104006455Y-139182027D01*
X104007575Y-139174232D01*
X103975862Y-139066479D01*
X103971269Y-139055111D01*
X103885393Y-138890846D01*
X103878679Y-138880585D01*
X103762532Y-138736127D01*
X103753954Y-138727368D01*
X103611961Y-138608222D01*
X103601841Y-138601292D01*
X103439415Y-138511998D01*
X103428142Y-138507166D01*
X103251462Y-138451120D01*
X103239468Y-138448570D01*
X103095239Y-138432393D01*
X103088215Y-138432000D01*
X103007115Y-138432000D01*
X102991876Y-138436475D01*
X102990671Y-138437865D01*
X102989000Y-138445548D01*
X102989000Y-139167885D01*
X102481000Y-139167885D01*
X102481000Y-138450115D01*
X102476525Y-138434876D01*
X102475135Y-138433671D01*
X102467452Y-138432000D01*
X102388343Y-138432000D01*
X102382195Y-138432301D01*
X102244397Y-138445812D01*
X102232362Y-138448195D01*
X102054924Y-138501767D01*
X102043584Y-138506441D01*
X101879923Y-138593460D01*
X101869706Y-138600249D01*
X101726067Y-138717397D01*
X101717363Y-138726041D01*
X101599216Y-138868856D01*
X101592356Y-138879027D01*
X101504196Y-139042076D01*
X101499444Y-139053381D01*
X101463750Y-139168692D01*
X101463544Y-139182795D01*
X100508500Y-139182795D01*
X100508500Y-136159082D01*
X109353900Y-136159082D01*
X109354590Y-136165647D01*
X109372751Y-136338435D01*
X109373862Y-136349010D01*
X109432877Y-136530638D01*
X109528364Y-136696026D01*
X109656151Y-136837948D01*
X109810652Y-136950200D01*
X109816680Y-136952884D01*
X109816682Y-136952885D01*
X109978665Y-137025004D01*
X109985116Y-137027876D01*
X110078516Y-137047729D01*
X110165460Y-137066210D01*
X110165465Y-137066210D01*
X110171917Y-137067582D01*
X110362891Y-137067582D01*
X110369343Y-137066210D01*
X110369348Y-137066210D01*
X110456292Y-137047729D01*
X110549692Y-137027876D01*
X110556143Y-137025004D01*
X110718126Y-136952885D01*
X110718128Y-136952884D01*
X110724156Y-136950200D01*
X110878657Y-136837948D01*
X111006444Y-136696026D01*
X111101931Y-136530638D01*
X111160946Y-136349010D01*
X111162058Y-136338435D01*
X111180218Y-136165647D01*
X111180908Y-136159082D01*
X111163887Y-135997134D01*
X111161636Y-135975717D01*
X111161636Y-135975715D01*
X111160946Y-135969154D01*
X111101931Y-135787526D01*
X111006444Y-135622138D01*
X110992311Y-135606441D01*
X110883079Y-135485127D01*
X110883078Y-135485126D01*
X110878657Y-135480216D01*
X110724156Y-135367964D01*
X110718128Y-135365280D01*
X110718126Y-135365279D01*
X110555723Y-135292973D01*
X110555722Y-135292973D01*
X110549692Y-135290288D01*
X110448943Y-135268873D01*
X110369348Y-135251954D01*
X110369343Y-135251954D01*
X110362891Y-135250582D01*
X110171917Y-135250582D01*
X110165465Y-135251954D01*
X110165460Y-135251954D01*
X110085865Y-135268873D01*
X109985116Y-135290288D01*
X109979086Y-135292973D01*
X109979085Y-135292973D01*
X109816682Y-135365279D01*
X109816680Y-135365280D01*
X109810652Y-135367964D01*
X109656151Y-135480216D01*
X109651730Y-135485126D01*
X109651729Y-135485127D01*
X109542498Y-135606441D01*
X109528364Y-135622138D01*
X109432877Y-135787526D01*
X109373862Y-135969154D01*
X109373172Y-135975715D01*
X109373172Y-135975717D01*
X109370921Y-135997134D01*
X109353900Y-136159082D01*
X100508500Y-136159082D01*
X100508500Y-132718670D01*
X103226496Y-132718670D01*
X103227186Y-132725235D01*
X103245326Y-132897823D01*
X103246458Y-132908598D01*
X103305473Y-133090226D01*
X103400960Y-133255614D01*
X103405378Y-133260521D01*
X103405379Y-133260522D01*
X103502069Y-133367907D01*
X103528747Y-133397536D01*
X103627843Y-133469534D01*
X103672854Y-133502236D01*
X103683248Y-133509788D01*
X103689276Y-133512472D01*
X103689278Y-133512473D01*
X103851681Y-133584779D01*
X103857712Y-133587464D01*
X103944253Y-133605859D01*
X104038056Y-133625798D01*
X104038061Y-133625798D01*
X104044513Y-133627170D01*
X104235487Y-133627170D01*
X104241939Y-133625798D01*
X104241944Y-133625798D01*
X104335747Y-133605859D01*
X104422288Y-133587464D01*
X104428319Y-133584779D01*
X104590722Y-133512473D01*
X104590724Y-133512472D01*
X104596752Y-133509788D01*
X104607147Y-133502236D01*
X104652157Y-133469534D01*
X104751253Y-133397536D01*
X104777931Y-133367907D01*
X104874621Y-133260522D01*
X104874622Y-133260521D01*
X104879040Y-133255614D01*
X104974527Y-133090226D01*
X105033542Y-132908598D01*
X105034675Y-132897823D01*
X105052814Y-132725235D01*
X105053504Y-132718670D01*
X105035217Y-132544680D01*
X105034232Y-132535305D01*
X105034232Y-132535303D01*
X105033542Y-132528742D01*
X104974527Y-132347114D01*
X104969104Y-132337720D01*
X104890124Y-132200924D01*
X104879040Y-132181726D01*
X104874300Y-132176461D01*
X104755675Y-132044715D01*
X104755674Y-132044714D01*
X104751253Y-132039804D01*
X104596752Y-131927552D01*
X104590724Y-131924868D01*
X104590722Y-131924867D01*
X104428319Y-131852561D01*
X104428318Y-131852561D01*
X104422288Y-131849876D01*
X104328888Y-131830023D01*
X104241944Y-131811542D01*
X104241939Y-131811542D01*
X104235487Y-131810170D01*
X104044513Y-131810170D01*
X104038061Y-131811542D01*
X104038056Y-131811542D01*
X103951112Y-131830023D01*
X103857712Y-131849876D01*
X103851682Y-131852561D01*
X103851681Y-131852561D01*
X103689278Y-131924867D01*
X103689276Y-131924868D01*
X103683248Y-131927552D01*
X103528747Y-132039804D01*
X103524326Y-132044714D01*
X103524325Y-132044715D01*
X103405701Y-132176461D01*
X103400960Y-132181726D01*
X103389876Y-132200924D01*
X103310897Y-132337720D01*
X103305473Y-132347114D01*
X103246458Y-132528742D01*
X103245768Y-132535303D01*
X103245768Y-132535305D01*
X103244783Y-132544680D01*
X103226496Y-132718670D01*
X100508500Y-132718670D01*
X100508500Y-131065768D01*
X101462425Y-131065768D01*
X101494138Y-131173521D01*
X101498731Y-131184889D01*
X101584607Y-131349154D01*
X101591321Y-131359415D01*
X101707468Y-131503873D01*
X101716046Y-131512632D01*
X101858039Y-131631778D01*
X101868159Y-131638708D01*
X102030585Y-131728002D01*
X102041858Y-131732834D01*
X102218538Y-131788880D01*
X102230532Y-131791430D01*
X102374761Y-131807607D01*
X102381785Y-131808000D01*
X102462885Y-131808000D01*
X102478124Y-131803525D01*
X102479329Y-131802135D01*
X102481000Y-131794452D01*
X102481000Y-131789885D01*
X102989000Y-131789885D01*
X102993475Y-131805124D01*
X102994865Y-131806329D01*
X103002548Y-131808000D01*
X103081657Y-131808000D01*
X103087805Y-131807699D01*
X103225603Y-131794188D01*
X103237638Y-131791805D01*
X103415076Y-131738233D01*
X103426416Y-131733559D01*
X103590077Y-131646540D01*
X103600294Y-131639751D01*
X103743933Y-131522603D01*
X103752637Y-131513959D01*
X103870784Y-131371144D01*
X103877644Y-131360973D01*
X103965804Y-131197924D01*
X103970556Y-131186619D01*
X104006250Y-131071308D01*
X104006331Y-131065768D01*
X105362425Y-131065768D01*
X105394138Y-131173521D01*
X105398731Y-131184889D01*
X105484607Y-131349154D01*
X105491321Y-131359415D01*
X105607468Y-131503873D01*
X105616046Y-131512632D01*
X105687215Y-131572350D01*
X105726542Y-131631459D01*
X105727668Y-131702447D01*
X105710436Y-131739695D01*
X105667057Y-131803525D01*
X105644723Y-131836388D01*
X105577470Y-132004534D01*
X105576356Y-132011262D01*
X105576355Y-132011266D01*
X105557110Y-132127516D01*
X105547892Y-132183198D01*
X105548249Y-132190015D01*
X105548249Y-132190019D01*
X105553151Y-132283539D01*
X105557370Y-132364047D01*
X105559181Y-132370620D01*
X105559181Y-132370623D01*
X105582551Y-132455466D01*
X105605461Y-132538641D01*
X105689922Y-132698836D01*
X105694327Y-132704049D01*
X105694330Y-132704053D01*
X105802406Y-132831943D01*
X105802410Y-132831947D01*
X105806813Y-132837157D01*
X105812237Y-132841304D01*
X105812238Y-132841305D01*
X105945257Y-132943006D01*
X105945261Y-132943009D01*
X105950678Y-132947150D01*
X106037372Y-132987576D01*
X106108631Y-133020805D01*
X106108634Y-133020806D01*
X106114808Y-133023685D01*
X106121456Y-133025171D01*
X106121459Y-133025172D01*
X106227421Y-133048857D01*
X106291543Y-133063190D01*
X106297088Y-133063500D01*
X106430244Y-133063500D01*
X106565037Y-133048857D01*
X106683190Y-133009094D01*
X106730204Y-132993272D01*
X106730206Y-132993271D01*
X106736675Y-132991094D01*
X106891905Y-132897823D01*
X106896862Y-132893135D01*
X106896865Y-132893133D01*
X107018527Y-132778082D01*
X107018529Y-132778080D01*
X107023485Y-132773393D01*
X107027317Y-132767755D01*
X107027320Y-132767751D01*
X107121442Y-132629255D01*
X107125277Y-132623612D01*
X107192530Y-132455466D01*
X107193644Y-132448738D01*
X107193645Y-132448734D01*
X107220993Y-132283539D01*
X107220993Y-132283536D01*
X107222108Y-132276802D01*
X107221663Y-132268301D01*
X107212987Y-132102766D01*
X107212630Y-132095953D01*
X107196495Y-132037373D01*
X107187449Y-132004534D01*
X107177237Y-131967459D01*
X107178431Y-131896474D01*
X107217814Y-131837401D01*
X107282881Y-131808999D01*
X107298713Y-131808000D01*
X107481657Y-131808000D01*
X107487805Y-131807699D01*
X107625603Y-131794188D01*
X107637638Y-131791805D01*
X107815076Y-131738233D01*
X107826416Y-131733559D01*
X107990077Y-131646540D01*
X108000294Y-131639751D01*
X108143933Y-131522603D01*
X108152637Y-131513959D01*
X108270784Y-131371144D01*
X108277644Y-131360973D01*
X108365804Y-131197924D01*
X108370556Y-131186619D01*
X108406250Y-131071308D01*
X108406456Y-131057205D01*
X108399701Y-131054000D01*
X105377076Y-131054000D01*
X105363545Y-131057973D01*
X105362425Y-131065768D01*
X104006331Y-131065768D01*
X104006456Y-131057205D01*
X103999701Y-131054000D01*
X103007115Y-131054000D01*
X102991876Y-131058475D01*
X102990671Y-131059865D01*
X102989000Y-131067548D01*
X102989000Y-131789885D01*
X102481000Y-131789885D01*
X102481000Y-131072115D01*
X102476525Y-131056876D01*
X102475135Y-131055671D01*
X102467452Y-131054000D01*
X101477076Y-131054000D01*
X101463545Y-131057973D01*
X101462425Y-131065768D01*
X100508500Y-131065768D01*
X100508500Y-130542795D01*
X101463544Y-130542795D01*
X101470299Y-130546000D01*
X102462885Y-130546000D01*
X102478124Y-130541525D01*
X102479329Y-130540135D01*
X102481000Y-130532452D01*
X102481000Y-130527885D01*
X102989000Y-130527885D01*
X102993475Y-130543124D01*
X102994865Y-130544329D01*
X103002548Y-130546000D01*
X103992924Y-130546000D01*
X104003839Y-130542795D01*
X105363544Y-130542795D01*
X105370299Y-130546000D01*
X106612885Y-130546000D01*
X106628124Y-130541525D01*
X106629329Y-130540135D01*
X106631000Y-130532452D01*
X106631000Y-130527885D01*
X107139000Y-130527885D01*
X107143475Y-130543124D01*
X107144865Y-130544329D01*
X107152548Y-130546000D01*
X108392924Y-130546000D01*
X108406455Y-130542027D01*
X108407575Y-130534232D01*
X108375862Y-130426479D01*
X108371269Y-130415111D01*
X108285393Y-130250846D01*
X108278679Y-130240585D01*
X108162532Y-130096127D01*
X108153954Y-130087368D01*
X108011961Y-129968222D01*
X108001841Y-129961292D01*
X107839415Y-129871998D01*
X107828142Y-129867166D01*
X107651462Y-129811120D01*
X107639468Y-129808570D01*
X107495239Y-129792393D01*
X107488215Y-129792000D01*
X107157115Y-129792000D01*
X107141876Y-129796475D01*
X107140671Y-129797865D01*
X107139000Y-129805548D01*
X107139000Y-130527885D01*
X106631000Y-130527885D01*
X106631000Y-129810115D01*
X106626525Y-129794876D01*
X106625135Y-129793671D01*
X106617452Y-129792000D01*
X106288343Y-129792000D01*
X106282195Y-129792301D01*
X106144397Y-129805812D01*
X106132362Y-129808195D01*
X105954924Y-129861767D01*
X105943584Y-129866441D01*
X105779923Y-129953460D01*
X105769706Y-129960249D01*
X105626067Y-130077397D01*
X105617363Y-130086041D01*
X105499216Y-130228856D01*
X105492356Y-130239027D01*
X105404196Y-130402076D01*
X105399444Y-130413381D01*
X105363750Y-130528692D01*
X105363544Y-130542795D01*
X104003839Y-130542795D01*
X104006455Y-130542027D01*
X104007575Y-130534232D01*
X103975862Y-130426479D01*
X103971269Y-130415111D01*
X103885393Y-130250846D01*
X103878679Y-130240585D01*
X103762532Y-130096127D01*
X103753954Y-130087368D01*
X103611961Y-129968222D01*
X103601841Y-129961292D01*
X103439415Y-129871998D01*
X103428142Y-129867166D01*
X103251462Y-129811120D01*
X103239468Y-129808570D01*
X103095239Y-129792393D01*
X103088215Y-129792000D01*
X103007115Y-129792000D01*
X102991876Y-129796475D01*
X102990671Y-129797865D01*
X102989000Y-129805548D01*
X102989000Y-130527885D01*
X102481000Y-130527885D01*
X102481000Y-129810115D01*
X102476525Y-129794876D01*
X102475135Y-129793671D01*
X102467452Y-129792000D01*
X102388343Y-129792000D01*
X102382195Y-129792301D01*
X102244397Y-129805812D01*
X102232362Y-129808195D01*
X102054924Y-129861767D01*
X102043584Y-129866441D01*
X101879923Y-129953460D01*
X101869706Y-129960249D01*
X101726067Y-130077397D01*
X101717363Y-130086041D01*
X101599216Y-130228856D01*
X101592356Y-130239027D01*
X101504196Y-130402076D01*
X101499444Y-130413381D01*
X101463750Y-130528692D01*
X101463544Y-130542795D01*
X100508500Y-130542795D01*
X100508500Y-127948134D01*
X221371500Y-127948134D01*
X221378255Y-128010316D01*
X221429385Y-128146705D01*
X221516739Y-128263261D01*
X221633295Y-128350615D01*
X221769684Y-128401745D01*
X221831866Y-128408500D01*
X225128134Y-128408500D01*
X225190316Y-128401745D01*
X225326705Y-128350615D01*
X225443261Y-128263261D01*
X225530615Y-128146705D01*
X225581745Y-128010316D01*
X225588500Y-127948134D01*
X225588500Y-125851866D01*
X225581745Y-125789684D01*
X225530615Y-125653295D01*
X225443261Y-125536739D01*
X225326705Y-125449385D01*
X225190316Y-125398255D01*
X225128134Y-125391500D01*
X221831866Y-125391500D01*
X221769684Y-125398255D01*
X221633295Y-125449385D01*
X221516739Y-125536739D01*
X221429385Y-125653295D01*
X221378255Y-125789684D01*
X221371500Y-125851866D01*
X221371500Y-127948134D01*
X100508500Y-127948134D01*
X100508500Y-127000000D01*
X143866496Y-127000000D01*
X143886458Y-127189928D01*
X143945473Y-127371556D01*
X144040960Y-127536944D01*
X144168747Y-127678866D01*
X144323248Y-127791118D01*
X144329276Y-127793802D01*
X144329278Y-127793803D01*
X144491681Y-127866109D01*
X144497712Y-127868794D01*
X144591112Y-127888647D01*
X144678056Y-127907128D01*
X144678061Y-127907128D01*
X144684513Y-127908500D01*
X144875487Y-127908500D01*
X144881939Y-127907128D01*
X144881944Y-127907128D01*
X144968888Y-127888647D01*
X145062288Y-127868794D01*
X145068319Y-127866109D01*
X145230722Y-127793803D01*
X145230724Y-127793802D01*
X145236752Y-127791118D01*
X145391253Y-127678866D01*
X145519040Y-127536944D01*
X145614527Y-127371556D01*
X145673542Y-127189928D01*
X145693504Y-127000000D01*
X145673542Y-126810072D01*
X145614527Y-126628444D01*
X145519040Y-126463056D01*
X145391253Y-126321134D01*
X145236752Y-126208882D01*
X145230724Y-126206198D01*
X145230722Y-126206197D01*
X145068319Y-126133891D01*
X145068318Y-126133891D01*
X145062288Y-126131206D01*
X144968887Y-126111353D01*
X144881944Y-126092872D01*
X144881939Y-126092872D01*
X144875487Y-126091500D01*
X144684513Y-126091500D01*
X144678061Y-126092872D01*
X144678056Y-126092872D01*
X144591113Y-126111353D01*
X144497712Y-126131206D01*
X144491682Y-126133891D01*
X144491681Y-126133891D01*
X144329278Y-126206197D01*
X144329276Y-126206198D01*
X144323248Y-126208882D01*
X144168747Y-126321134D01*
X144040960Y-126463056D01*
X143945473Y-126628444D01*
X143886458Y-126810072D01*
X143866496Y-127000000D01*
X100508500Y-127000000D01*
X100508500Y-121920000D01*
X105766496Y-121920000D01*
X105786458Y-122109928D01*
X105845473Y-122291556D01*
X105940960Y-122456944D01*
X106068747Y-122598866D01*
X106223248Y-122711118D01*
X106229276Y-122713802D01*
X106229278Y-122713803D01*
X106391681Y-122786109D01*
X106397712Y-122788794D01*
X106491113Y-122808647D01*
X106578056Y-122827128D01*
X106578061Y-122827128D01*
X106584513Y-122828500D01*
X106775487Y-122828500D01*
X106781939Y-122827128D01*
X106781944Y-122827128D01*
X106868887Y-122808647D01*
X106962288Y-122788794D01*
X106968319Y-122786109D01*
X107130722Y-122713803D01*
X107130724Y-122713802D01*
X107136752Y-122711118D01*
X107291253Y-122598866D01*
X107419040Y-122456944D01*
X107514527Y-122291556D01*
X107573542Y-122109928D01*
X107593504Y-121920000D01*
X126086496Y-121920000D01*
X126106458Y-122109928D01*
X126165473Y-122291556D01*
X126260960Y-122456944D01*
X126388747Y-122598866D01*
X126543248Y-122711118D01*
X126549276Y-122713802D01*
X126549278Y-122713803D01*
X126711681Y-122786109D01*
X126717712Y-122788794D01*
X126811113Y-122808647D01*
X126898056Y-122827128D01*
X126898061Y-122827128D01*
X126904513Y-122828500D01*
X127095487Y-122828500D01*
X127101939Y-122827128D01*
X127101944Y-122827128D01*
X127188887Y-122808647D01*
X127282288Y-122788794D01*
X127288319Y-122786109D01*
X127450722Y-122713803D01*
X127450724Y-122713802D01*
X127456752Y-122711118D01*
X127611253Y-122598866D01*
X127739040Y-122456944D01*
X127834527Y-122291556D01*
X127893542Y-122109928D01*
X127913504Y-121920000D01*
X127893542Y-121730072D01*
X127834527Y-121548444D01*
X127739040Y-121383056D01*
X127611253Y-121241134D01*
X127456752Y-121128882D01*
X127450724Y-121126198D01*
X127450722Y-121126197D01*
X127288319Y-121053891D01*
X127288318Y-121053891D01*
X127282288Y-121051206D01*
X127188888Y-121031353D01*
X127101944Y-121012872D01*
X127101939Y-121012872D01*
X127095487Y-121011500D01*
X126904513Y-121011500D01*
X126898061Y-121012872D01*
X126898056Y-121012872D01*
X126811112Y-121031353D01*
X126717712Y-121051206D01*
X126711682Y-121053891D01*
X126711681Y-121053891D01*
X126549278Y-121126197D01*
X126549276Y-121126198D01*
X126543248Y-121128882D01*
X126388747Y-121241134D01*
X126260960Y-121383056D01*
X126165473Y-121548444D01*
X126106458Y-121730072D01*
X126086496Y-121920000D01*
X107593504Y-121920000D01*
X107573542Y-121730072D01*
X107514527Y-121548444D01*
X107419040Y-121383056D01*
X107291253Y-121241134D01*
X107136752Y-121128882D01*
X107130724Y-121126198D01*
X107130722Y-121126197D01*
X106968319Y-121053891D01*
X106968318Y-121053891D01*
X106962288Y-121051206D01*
X106868888Y-121031353D01*
X106781944Y-121012872D01*
X106781939Y-121012872D01*
X106775487Y-121011500D01*
X106584513Y-121011500D01*
X106578061Y-121012872D01*
X106578056Y-121012872D01*
X106491112Y-121031353D01*
X106397712Y-121051206D01*
X106391682Y-121053891D01*
X106391681Y-121053891D01*
X106229278Y-121126197D01*
X106229276Y-121126198D01*
X106223248Y-121128882D01*
X106068747Y-121241134D01*
X105940960Y-121383056D01*
X105845473Y-121548444D01*
X105786458Y-121730072D01*
X105766496Y-121920000D01*
X100508500Y-121920000D01*
X100508500Y-119380000D01*
X126086496Y-119380000D01*
X126087186Y-119386565D01*
X126105162Y-119557594D01*
X126106458Y-119569928D01*
X126165473Y-119751556D01*
X126260960Y-119916944D01*
X126265378Y-119921851D01*
X126265379Y-119921852D01*
X126384325Y-120053955D01*
X126388747Y-120058866D01*
X126543248Y-120171118D01*
X126549276Y-120173802D01*
X126549278Y-120173803D01*
X126711681Y-120246109D01*
X126717712Y-120248794D01*
X126811112Y-120268647D01*
X126898056Y-120287128D01*
X126898061Y-120287128D01*
X126904513Y-120288500D01*
X127095487Y-120288500D01*
X127101939Y-120287128D01*
X127101944Y-120287128D01*
X127188888Y-120268647D01*
X127282288Y-120248794D01*
X127288319Y-120246109D01*
X127450722Y-120173803D01*
X127450724Y-120173802D01*
X127456752Y-120171118D01*
X127611253Y-120058866D01*
X127615675Y-120053955D01*
X127734621Y-119921852D01*
X127734622Y-119921851D01*
X127739040Y-119916944D01*
X127834527Y-119751556D01*
X127893542Y-119569928D01*
X127894839Y-119557594D01*
X127912814Y-119386565D01*
X127913504Y-119380000D01*
X127893542Y-119190072D01*
X127861026Y-119090000D01*
X222006835Y-119090000D01*
X222025465Y-119326711D01*
X222026619Y-119331518D01*
X222026620Y-119331524D01*
X222061640Y-119477391D01*
X222080895Y-119557594D01*
X222082788Y-119562165D01*
X222082789Y-119562167D01*
X222163607Y-119757279D01*
X222171760Y-119776963D01*
X222174346Y-119781183D01*
X222293241Y-119975202D01*
X222293245Y-119975208D01*
X222295824Y-119979416D01*
X222450031Y-120159969D01*
X222453787Y-120163177D01*
X222474618Y-120180968D01*
X222630584Y-120314176D01*
X222634792Y-120316755D01*
X222634798Y-120316759D01*
X222828817Y-120435654D01*
X222833037Y-120438240D01*
X222837607Y-120440133D01*
X222837611Y-120440135D01*
X223047833Y-120527211D01*
X223052406Y-120529105D01*
X223132609Y-120548360D01*
X223278476Y-120583380D01*
X223278482Y-120583381D01*
X223283289Y-120584535D01*
X223520000Y-120603165D01*
X223756711Y-120584535D01*
X223761518Y-120583381D01*
X223761524Y-120583380D01*
X223907391Y-120548360D01*
X223987594Y-120529105D01*
X223992167Y-120527211D01*
X224202389Y-120440135D01*
X224202393Y-120440133D01*
X224206963Y-120438240D01*
X224211183Y-120435654D01*
X224405202Y-120316759D01*
X224405208Y-120316755D01*
X224409416Y-120314176D01*
X224565382Y-120180968D01*
X224586213Y-120163177D01*
X224589969Y-120159969D01*
X224744176Y-119979416D01*
X224746755Y-119975208D01*
X224746759Y-119975202D01*
X224865654Y-119781183D01*
X224868240Y-119776963D01*
X224876394Y-119757279D01*
X224957211Y-119562167D01*
X224957212Y-119562165D01*
X224959105Y-119557594D01*
X224978360Y-119477391D01*
X225013380Y-119331524D01*
X225013381Y-119331518D01*
X225014535Y-119326711D01*
X225033165Y-119090000D01*
X228506835Y-119090000D01*
X228525465Y-119326711D01*
X228526619Y-119331518D01*
X228526620Y-119331524D01*
X228561640Y-119477391D01*
X228580895Y-119557594D01*
X228582788Y-119562165D01*
X228582789Y-119562167D01*
X228663607Y-119757279D01*
X228671760Y-119776963D01*
X228674346Y-119781183D01*
X228793241Y-119975202D01*
X228793245Y-119975208D01*
X228795824Y-119979416D01*
X228950031Y-120159969D01*
X228953787Y-120163177D01*
X228974618Y-120180968D01*
X229130584Y-120314176D01*
X229134792Y-120316755D01*
X229134798Y-120316759D01*
X229328817Y-120435654D01*
X229333037Y-120438240D01*
X229337607Y-120440133D01*
X229337611Y-120440135D01*
X229547833Y-120527211D01*
X229552406Y-120529105D01*
X229632609Y-120548360D01*
X229778476Y-120583380D01*
X229778482Y-120583381D01*
X229783289Y-120584535D01*
X230020000Y-120603165D01*
X230256711Y-120584535D01*
X230261518Y-120583381D01*
X230261524Y-120583380D01*
X230407391Y-120548360D01*
X230487594Y-120529105D01*
X230492167Y-120527211D01*
X230702389Y-120440135D01*
X230702393Y-120440133D01*
X230706963Y-120438240D01*
X230711183Y-120435654D01*
X230905202Y-120316759D01*
X230905208Y-120316755D01*
X230909416Y-120314176D01*
X231065382Y-120180968D01*
X231086213Y-120163177D01*
X231089969Y-120159969D01*
X231244176Y-119979416D01*
X231246755Y-119975208D01*
X231246759Y-119975202D01*
X231365654Y-119781183D01*
X231368240Y-119776963D01*
X231376394Y-119757279D01*
X231457211Y-119562167D01*
X231457212Y-119562165D01*
X231459105Y-119557594D01*
X231478360Y-119477391D01*
X231513380Y-119331524D01*
X231513381Y-119331518D01*
X231514535Y-119326711D01*
X231533165Y-119090000D01*
X231514535Y-118853289D01*
X231512079Y-118843056D01*
X231460260Y-118627218D01*
X231459105Y-118622406D01*
X231413045Y-118511206D01*
X231370135Y-118407611D01*
X231370133Y-118407607D01*
X231368240Y-118403037D01*
X231365654Y-118398817D01*
X231246759Y-118204798D01*
X231246755Y-118204792D01*
X231244176Y-118200584D01*
X231089969Y-118020031D01*
X230909416Y-117865824D01*
X230905208Y-117863245D01*
X230905202Y-117863241D01*
X230711183Y-117744346D01*
X230706963Y-117741760D01*
X230702393Y-117739867D01*
X230702389Y-117739865D01*
X230492167Y-117652789D01*
X230492165Y-117652788D01*
X230487594Y-117650895D01*
X230389051Y-117627237D01*
X230261524Y-117596620D01*
X230261518Y-117596619D01*
X230256711Y-117595465D01*
X230020000Y-117576835D01*
X229783289Y-117595465D01*
X229778482Y-117596619D01*
X229778476Y-117596620D01*
X229650949Y-117627237D01*
X229552406Y-117650895D01*
X229547835Y-117652788D01*
X229547833Y-117652789D01*
X229337611Y-117739865D01*
X229337607Y-117739867D01*
X229333037Y-117741760D01*
X229328817Y-117744346D01*
X229134798Y-117863241D01*
X229134792Y-117863245D01*
X229130584Y-117865824D01*
X228950031Y-118020031D01*
X228795824Y-118200584D01*
X228793245Y-118204792D01*
X228793241Y-118204798D01*
X228674346Y-118398817D01*
X228671760Y-118403037D01*
X228669867Y-118407607D01*
X228669865Y-118407611D01*
X228626955Y-118511206D01*
X228580895Y-118622406D01*
X228579740Y-118627218D01*
X228527922Y-118843056D01*
X228525465Y-118853289D01*
X228506835Y-119090000D01*
X225033165Y-119090000D01*
X225014535Y-118853289D01*
X225012079Y-118843056D01*
X224960260Y-118627218D01*
X224959105Y-118622406D01*
X224913045Y-118511206D01*
X224870135Y-118407611D01*
X224870133Y-118407607D01*
X224868240Y-118403037D01*
X224865654Y-118398817D01*
X224746759Y-118204798D01*
X224746755Y-118204792D01*
X224744176Y-118200584D01*
X224589969Y-118020031D01*
X224409416Y-117865824D01*
X224405208Y-117863245D01*
X224405202Y-117863241D01*
X224211183Y-117744346D01*
X224206963Y-117741760D01*
X224202393Y-117739867D01*
X224202389Y-117739865D01*
X223992167Y-117652789D01*
X223992165Y-117652788D01*
X223987594Y-117650895D01*
X223889051Y-117627237D01*
X223761524Y-117596620D01*
X223761518Y-117596619D01*
X223756711Y-117595465D01*
X223520000Y-117576835D01*
X223283289Y-117595465D01*
X223278482Y-117596619D01*
X223278476Y-117596620D01*
X223150949Y-117627237D01*
X223052406Y-117650895D01*
X223047835Y-117652788D01*
X223047833Y-117652789D01*
X222837611Y-117739865D01*
X222837607Y-117739867D01*
X222833037Y-117741760D01*
X222828817Y-117744346D01*
X222634798Y-117863241D01*
X222634792Y-117863245D01*
X222630584Y-117865824D01*
X222450031Y-118020031D01*
X222295824Y-118200584D01*
X222293245Y-118204792D01*
X222293241Y-118204798D01*
X222174346Y-118398817D01*
X222171760Y-118403037D01*
X222169867Y-118407607D01*
X222169865Y-118407611D01*
X222126955Y-118511206D01*
X222080895Y-118622406D01*
X222079740Y-118627218D01*
X222027922Y-118843056D01*
X222025465Y-118853289D01*
X222006835Y-119090000D01*
X127861026Y-119090000D01*
X127834527Y-119008444D01*
X127739040Y-118843056D01*
X127611253Y-118701134D01*
X127502894Y-118622406D01*
X127462094Y-118592763D01*
X127462093Y-118592762D01*
X127456752Y-118588882D01*
X127450724Y-118586198D01*
X127450722Y-118586197D01*
X127288319Y-118513891D01*
X127288318Y-118513891D01*
X127282288Y-118511206D01*
X127188887Y-118491353D01*
X127101944Y-118472872D01*
X127101939Y-118472872D01*
X127095487Y-118471500D01*
X126904513Y-118471500D01*
X126898061Y-118472872D01*
X126898056Y-118472872D01*
X126811113Y-118491353D01*
X126717712Y-118511206D01*
X126711682Y-118513891D01*
X126711681Y-118513891D01*
X126549278Y-118586197D01*
X126549276Y-118586198D01*
X126543248Y-118588882D01*
X126537907Y-118592762D01*
X126537906Y-118592763D01*
X126497106Y-118622406D01*
X126388747Y-118701134D01*
X126260960Y-118843056D01*
X126165473Y-119008444D01*
X126106458Y-119190072D01*
X126086496Y-119380000D01*
X100508500Y-119380000D01*
X100508500Y-116840000D01*
X155229545Y-116840000D01*
X155249507Y-117029928D01*
X155308522Y-117211556D01*
X155404009Y-117376944D01*
X155531796Y-117518866D01*
X155686297Y-117631118D01*
X155692325Y-117633802D01*
X155692327Y-117633803D01*
X155730717Y-117650895D01*
X155860761Y-117708794D01*
X155954162Y-117728647D01*
X156041105Y-117747128D01*
X156041110Y-117747128D01*
X156047562Y-117748500D01*
X156238536Y-117748500D01*
X156244988Y-117747128D01*
X156244993Y-117747128D01*
X156331936Y-117728647D01*
X156425337Y-117708794D01*
X156555381Y-117650895D01*
X156593771Y-117633803D01*
X156593773Y-117633802D01*
X156599801Y-117631118D01*
X156754302Y-117518866D01*
X156882089Y-117376944D01*
X156977576Y-117211556D01*
X157036591Y-117029928D01*
X157056553Y-116840000D01*
X157036591Y-116650072D01*
X156977576Y-116468444D01*
X156882089Y-116303056D01*
X156754302Y-116161134D01*
X156599801Y-116048882D01*
X156593773Y-116046198D01*
X156593771Y-116046197D01*
X156431368Y-115973891D01*
X156431367Y-115973891D01*
X156425337Y-115971206D01*
X156331937Y-115951353D01*
X156244993Y-115932872D01*
X156244988Y-115932872D01*
X156238536Y-115931500D01*
X156047562Y-115931500D01*
X156041110Y-115932872D01*
X156041105Y-115932872D01*
X155954161Y-115951353D01*
X155860761Y-115971206D01*
X155854731Y-115973891D01*
X155854730Y-115973891D01*
X155692327Y-116046197D01*
X155692325Y-116046198D01*
X155686297Y-116048882D01*
X155531796Y-116161134D01*
X155404009Y-116303056D01*
X155308522Y-116468444D01*
X155249507Y-116650072D01*
X155229545Y-116840000D01*
X100508500Y-116840000D01*
X100508500Y-114590000D01*
X222006835Y-114590000D01*
X222025465Y-114826711D01*
X222080895Y-115057594D01*
X222171760Y-115276963D01*
X222174346Y-115281183D01*
X222293241Y-115475202D01*
X222293245Y-115475208D01*
X222295824Y-115479416D01*
X222450031Y-115659969D01*
X222630584Y-115814176D01*
X222634792Y-115816755D01*
X222634798Y-115816759D01*
X222822038Y-115931500D01*
X222833037Y-115938240D01*
X222837607Y-115940133D01*
X222837611Y-115940135D01*
X223047833Y-116027211D01*
X223052406Y-116029105D01*
X223132609Y-116048360D01*
X223278476Y-116083380D01*
X223278482Y-116083381D01*
X223283289Y-116084535D01*
X223520000Y-116103165D01*
X223756711Y-116084535D01*
X223761518Y-116083381D01*
X223761524Y-116083380D01*
X223907391Y-116048360D01*
X223987594Y-116029105D01*
X223992167Y-116027211D01*
X224202389Y-115940135D01*
X224202393Y-115940133D01*
X224206963Y-115938240D01*
X224217962Y-115931500D01*
X224405202Y-115816759D01*
X224405208Y-115816755D01*
X224409416Y-115814176D01*
X224589969Y-115659969D01*
X224744176Y-115479416D01*
X224746755Y-115475208D01*
X224746759Y-115475202D01*
X224865654Y-115281183D01*
X224868240Y-115276963D01*
X224959105Y-115057594D01*
X225014535Y-114826711D01*
X225033165Y-114590000D01*
X228506835Y-114590000D01*
X228525465Y-114826711D01*
X228580895Y-115057594D01*
X228671760Y-115276963D01*
X228674346Y-115281183D01*
X228793241Y-115475202D01*
X228793245Y-115475208D01*
X228795824Y-115479416D01*
X228950031Y-115659969D01*
X229130584Y-115814176D01*
X229134792Y-115816755D01*
X229134798Y-115816759D01*
X229322038Y-115931500D01*
X229333037Y-115938240D01*
X229337607Y-115940133D01*
X229337611Y-115940135D01*
X229547833Y-116027211D01*
X229552406Y-116029105D01*
X229632609Y-116048360D01*
X229778476Y-116083380D01*
X229778482Y-116083381D01*
X229783289Y-116084535D01*
X230020000Y-116103165D01*
X230256711Y-116084535D01*
X230261518Y-116083381D01*
X230261524Y-116083380D01*
X230407391Y-116048360D01*
X230487594Y-116029105D01*
X230492167Y-116027211D01*
X230702389Y-115940135D01*
X230702393Y-115940133D01*
X230706963Y-115938240D01*
X230717962Y-115931500D01*
X230905202Y-115816759D01*
X230905208Y-115816755D01*
X230909416Y-115814176D01*
X231089969Y-115659969D01*
X231244176Y-115479416D01*
X231246755Y-115475208D01*
X231246759Y-115475202D01*
X231365654Y-115281183D01*
X231368240Y-115276963D01*
X231459105Y-115057594D01*
X231514535Y-114826711D01*
X231533165Y-114590000D01*
X231514535Y-114353289D01*
X231459105Y-114122406D01*
X231368240Y-113903037D01*
X231365654Y-113898817D01*
X231246759Y-113704798D01*
X231246755Y-113704792D01*
X231244176Y-113700584D01*
X231089969Y-113520031D01*
X230909416Y-113365824D01*
X230905208Y-113363245D01*
X230905202Y-113363241D01*
X230711183Y-113244346D01*
X230706963Y-113241760D01*
X230702393Y-113239867D01*
X230702389Y-113239865D01*
X230492167Y-113152789D01*
X230492165Y-113152788D01*
X230487594Y-113150895D01*
X230407391Y-113131640D01*
X230261524Y-113096620D01*
X230261518Y-113096619D01*
X230256711Y-113095465D01*
X230020000Y-113076835D01*
X229783289Y-113095465D01*
X229778482Y-113096619D01*
X229778476Y-113096620D01*
X229632609Y-113131640D01*
X229552406Y-113150895D01*
X229547835Y-113152788D01*
X229547833Y-113152789D01*
X229337611Y-113239865D01*
X229337607Y-113239867D01*
X229333037Y-113241760D01*
X229328817Y-113244346D01*
X229134798Y-113363241D01*
X229134792Y-113363245D01*
X229130584Y-113365824D01*
X228950031Y-113520031D01*
X228795824Y-113700584D01*
X228793245Y-113704792D01*
X228793241Y-113704798D01*
X228674346Y-113898817D01*
X228671760Y-113903037D01*
X228580895Y-114122406D01*
X228525465Y-114353289D01*
X228506835Y-114590000D01*
X225033165Y-114590000D01*
X225014535Y-114353289D01*
X224959105Y-114122406D01*
X224868240Y-113903037D01*
X224865654Y-113898817D01*
X224746759Y-113704798D01*
X224746755Y-113704792D01*
X224744176Y-113700584D01*
X224589969Y-113520031D01*
X224409416Y-113365824D01*
X224405208Y-113363245D01*
X224405202Y-113363241D01*
X224211183Y-113244346D01*
X224206963Y-113241760D01*
X224202393Y-113239867D01*
X224202389Y-113239865D01*
X223992167Y-113152789D01*
X223992165Y-113152788D01*
X223987594Y-113150895D01*
X223907391Y-113131640D01*
X223761524Y-113096620D01*
X223761518Y-113096619D01*
X223756711Y-113095465D01*
X223520000Y-113076835D01*
X223283289Y-113095465D01*
X223278482Y-113096619D01*
X223278476Y-113096620D01*
X223132609Y-113131640D01*
X223052406Y-113150895D01*
X223047835Y-113152788D01*
X223047833Y-113152789D01*
X222837611Y-113239865D01*
X222837607Y-113239867D01*
X222833037Y-113241760D01*
X222828817Y-113244346D01*
X222634798Y-113363241D01*
X222634792Y-113363245D01*
X222630584Y-113365824D01*
X222450031Y-113520031D01*
X222295824Y-113700584D01*
X222293245Y-113704792D01*
X222293241Y-113704798D01*
X222174346Y-113898817D01*
X222171760Y-113903037D01*
X222080895Y-114122406D01*
X222025465Y-114353289D01*
X222006835Y-114590000D01*
X100508500Y-114590000D01*
X100508500Y-111827156D01*
X105442666Y-111827156D01*
X105443356Y-111833721D01*
X105461583Y-112007138D01*
X105462628Y-112017084D01*
X105521643Y-112198712D01*
X105617130Y-112364100D01*
X105621548Y-112369007D01*
X105621549Y-112369008D01*
X105727696Y-112486896D01*
X105744917Y-112506022D01*
X105844013Y-112578020D01*
X105871445Y-112597950D01*
X105899418Y-112618274D01*
X105905446Y-112620958D01*
X105905448Y-112620959D01*
X106067851Y-112693265D01*
X106073882Y-112695950D01*
X106152435Y-112712647D01*
X106254226Y-112734284D01*
X106254231Y-112734284D01*
X106260683Y-112735656D01*
X106451657Y-112735656D01*
X106458109Y-112734284D01*
X106458114Y-112734284D01*
X106559905Y-112712647D01*
X106638458Y-112695950D01*
X106644489Y-112693265D01*
X106806892Y-112620959D01*
X106806894Y-112620958D01*
X106812922Y-112618274D01*
X106840896Y-112597950D01*
X106868327Y-112578020D01*
X106967423Y-112506022D01*
X106984644Y-112486896D01*
X107090791Y-112369008D01*
X107090792Y-112369007D01*
X107095210Y-112364100D01*
X107190697Y-112198712D01*
X107249712Y-112017084D01*
X107250758Y-112007138D01*
X107268984Y-111833721D01*
X107269674Y-111827156D01*
X118399340Y-111827156D01*
X118400030Y-111833721D01*
X118418257Y-112007138D01*
X118419302Y-112017084D01*
X118478317Y-112198712D01*
X118573804Y-112364100D01*
X118578222Y-112369007D01*
X118578223Y-112369008D01*
X118684370Y-112486896D01*
X118701591Y-112506022D01*
X118800687Y-112578020D01*
X118828119Y-112597950D01*
X118856092Y-112618274D01*
X118862120Y-112620958D01*
X118862122Y-112620959D01*
X119024525Y-112693265D01*
X119030556Y-112695950D01*
X119109109Y-112712647D01*
X119210900Y-112734284D01*
X119210905Y-112734284D01*
X119217357Y-112735656D01*
X119408331Y-112735656D01*
X119414783Y-112734284D01*
X119414788Y-112734284D01*
X119516579Y-112712647D01*
X119595132Y-112695950D01*
X119601163Y-112693265D01*
X119763566Y-112620959D01*
X119763568Y-112620958D01*
X119769596Y-112618274D01*
X119797570Y-112597950D01*
X119825001Y-112578020D01*
X119924097Y-112506022D01*
X119941318Y-112486896D01*
X120047465Y-112369008D01*
X120047466Y-112369007D01*
X120051884Y-112364100D01*
X120147371Y-112198712D01*
X120206386Y-112017084D01*
X120207432Y-112007138D01*
X120225413Y-111836053D01*
X136170443Y-111836053D01*
X136171133Y-111842618D01*
X136188425Y-112007138D01*
X136190405Y-112025981D01*
X136249420Y-112207609D01*
X136344907Y-112372997D01*
X136349325Y-112377904D01*
X136349326Y-112377905D01*
X136436510Y-112474733D01*
X136472694Y-112514919D01*
X136566542Y-112583104D01*
X136613989Y-112617576D01*
X136627195Y-112627171D01*
X136633223Y-112629855D01*
X136633225Y-112629856D01*
X136775645Y-112693265D01*
X136801659Y-112704847D01*
X136895059Y-112724700D01*
X136982003Y-112743181D01*
X136982008Y-112743181D01*
X136988460Y-112744553D01*
X137179434Y-112744553D01*
X137185886Y-112743181D01*
X137185891Y-112743181D01*
X137272835Y-112724700D01*
X137366235Y-112704847D01*
X137392249Y-112693265D01*
X137534669Y-112629856D01*
X137534671Y-112629855D01*
X137540699Y-112627171D01*
X137553906Y-112617576D01*
X137601352Y-112583104D01*
X137695200Y-112514919D01*
X137731384Y-112474733D01*
X137818568Y-112377905D01*
X137818569Y-112377904D01*
X137822987Y-112372997D01*
X137918474Y-112207609D01*
X137977489Y-112025981D01*
X137979470Y-112007138D01*
X137996761Y-111842618D01*
X137997451Y-111836053D01*
X137996160Y-111823773D01*
X151422723Y-111823773D01*
X151442685Y-112013701D01*
X151501700Y-112195329D01*
X151597187Y-112360717D01*
X151601605Y-112365624D01*
X151601606Y-112365625D01*
X151707303Y-112483013D01*
X151724974Y-112502639D01*
X151824070Y-112574637D01*
X151847121Y-112591384D01*
X151879475Y-112614891D01*
X151885503Y-112617575D01*
X151885505Y-112617576D01*
X152047908Y-112689882D01*
X152053939Y-112692567D01*
X152141953Y-112711275D01*
X152234283Y-112730901D01*
X152234288Y-112730901D01*
X152240740Y-112732273D01*
X152431714Y-112732273D01*
X152438166Y-112730901D01*
X152438171Y-112730901D01*
X152530501Y-112711275D01*
X152618515Y-112692567D01*
X152624546Y-112689882D01*
X152786949Y-112617576D01*
X152786951Y-112617575D01*
X152792979Y-112614891D01*
X152825334Y-112591384D01*
X152848384Y-112574637D01*
X152947480Y-112502639D01*
X152965151Y-112483013D01*
X153070848Y-112365625D01*
X153070849Y-112365624D01*
X153075267Y-112360717D01*
X153170754Y-112195329D01*
X153229769Y-112013701D01*
X153249731Y-111823773D01*
X153247668Y-111804147D01*
X166682349Y-111804147D01*
X166702311Y-111994075D01*
X166761326Y-112175703D01*
X166764629Y-112181425D01*
X166764630Y-112181426D01*
X166772657Y-112195329D01*
X166856813Y-112341091D01*
X166861231Y-112345998D01*
X166861232Y-112345999D01*
X166885541Y-112372997D01*
X166984600Y-112483013D01*
X167028515Y-112514919D01*
X167127705Y-112586985D01*
X167139101Y-112595265D01*
X167145129Y-112597949D01*
X167145131Y-112597950D01*
X167298049Y-112666033D01*
X167313565Y-112672941D01*
X167393266Y-112689882D01*
X167493909Y-112711275D01*
X167493914Y-112711275D01*
X167500366Y-112712647D01*
X167691340Y-112712647D01*
X167697792Y-112711275D01*
X167697797Y-112711275D01*
X167798440Y-112689882D01*
X167878141Y-112672941D01*
X167893657Y-112666033D01*
X168046575Y-112597950D01*
X168046577Y-112597949D01*
X168052605Y-112595265D01*
X168064002Y-112586985D01*
X168163191Y-112514919D01*
X168207106Y-112483013D01*
X168306165Y-112372997D01*
X168330474Y-112345999D01*
X168330475Y-112345998D01*
X168334893Y-112341091D01*
X168419049Y-112195329D01*
X168427076Y-112181426D01*
X168427077Y-112181425D01*
X168430380Y-112175703D01*
X168489395Y-111994075D01*
X168509357Y-111804147D01*
X168508487Y-111795867D01*
X181930629Y-111795867D01*
X181950591Y-111985795D01*
X182009606Y-112167423D01*
X182012909Y-112173145D01*
X182012910Y-112173146D01*
X182027671Y-112198712D01*
X182105093Y-112332811D01*
X182109511Y-112337718D01*
X182109512Y-112337719D01*
X182145696Y-112377905D01*
X182232880Y-112474733D01*
X182387381Y-112586985D01*
X182393409Y-112589669D01*
X182393411Y-112589670D01*
X182483671Y-112629856D01*
X182561845Y-112664661D01*
X182655246Y-112684514D01*
X182742189Y-112702995D01*
X182742194Y-112702995D01*
X182748646Y-112704367D01*
X182939620Y-112704367D01*
X182946072Y-112702995D01*
X182946077Y-112702995D01*
X183033021Y-112684514D01*
X183126421Y-112664661D01*
X183204595Y-112629856D01*
X183294855Y-112589670D01*
X183294857Y-112589669D01*
X183300885Y-112586985D01*
X183455386Y-112474733D01*
X183542570Y-112377905D01*
X183578754Y-112337719D01*
X183578755Y-112337718D01*
X183583173Y-112332811D01*
X183660595Y-112198712D01*
X183675356Y-112173146D01*
X183675357Y-112173145D01*
X183678660Y-112167423D01*
X183737675Y-111985795D01*
X183757637Y-111795867D01*
X197170629Y-111795867D01*
X197190591Y-111985795D01*
X197249606Y-112167423D01*
X197252909Y-112173145D01*
X197252910Y-112173146D01*
X197267671Y-112198712D01*
X197345093Y-112332811D01*
X197349511Y-112337718D01*
X197349512Y-112337719D01*
X197385696Y-112377905D01*
X197472880Y-112474733D01*
X197627381Y-112586985D01*
X197633409Y-112589669D01*
X197633411Y-112589670D01*
X197723671Y-112629856D01*
X197801845Y-112664661D01*
X197895246Y-112684514D01*
X197982189Y-112702995D01*
X197982194Y-112702995D01*
X197988646Y-112704367D01*
X198179620Y-112704367D01*
X198186072Y-112702995D01*
X198186077Y-112702995D01*
X198273021Y-112684514D01*
X198366421Y-112664661D01*
X198444595Y-112629856D01*
X198534855Y-112589670D01*
X198534857Y-112589669D01*
X198540885Y-112586985D01*
X198695386Y-112474733D01*
X198782570Y-112377905D01*
X198818754Y-112337719D01*
X198818755Y-112337718D01*
X198823173Y-112332811D01*
X198900595Y-112198712D01*
X198915356Y-112173146D01*
X198915357Y-112173145D01*
X198918660Y-112167423D01*
X198977675Y-111985795D01*
X198997637Y-111795867D01*
X209870629Y-111795867D01*
X209890591Y-111985795D01*
X209949606Y-112167423D01*
X209952909Y-112173145D01*
X209952910Y-112173146D01*
X209967671Y-112198712D01*
X210045093Y-112332811D01*
X210049511Y-112337718D01*
X210049512Y-112337719D01*
X210085696Y-112377905D01*
X210172880Y-112474733D01*
X210327381Y-112586985D01*
X210333409Y-112589669D01*
X210333411Y-112589670D01*
X210423671Y-112629856D01*
X210501845Y-112664661D01*
X210595246Y-112684514D01*
X210682189Y-112702995D01*
X210682194Y-112702995D01*
X210688646Y-112704367D01*
X210879620Y-112704367D01*
X210886072Y-112702995D01*
X210886077Y-112702995D01*
X210973021Y-112684514D01*
X211066421Y-112664661D01*
X211144595Y-112629856D01*
X211234855Y-112589670D01*
X211234857Y-112589669D01*
X211240885Y-112586985D01*
X211395386Y-112474733D01*
X211482570Y-112377905D01*
X211518754Y-112337719D01*
X211518755Y-112337718D01*
X211523173Y-112332811D01*
X211600595Y-112198712D01*
X211615356Y-112173146D01*
X211615357Y-112173145D01*
X211618660Y-112167423D01*
X211677675Y-111985795D01*
X211697637Y-111795867D01*
X211696947Y-111789302D01*
X211678365Y-111612502D01*
X211678365Y-111612500D01*
X211677675Y-111605939D01*
X211618660Y-111424311D01*
X211523173Y-111258923D01*
X211435992Y-111162098D01*
X211399808Y-111121912D01*
X211399807Y-111121911D01*
X211395386Y-111117001D01*
X211296196Y-111044935D01*
X211246227Y-111008630D01*
X211246226Y-111008629D01*
X211240885Y-111004749D01*
X211234857Y-111002065D01*
X211234855Y-111002064D01*
X211072452Y-110929758D01*
X211072451Y-110929758D01*
X211066421Y-110927073D01*
X210973020Y-110907220D01*
X210886077Y-110888739D01*
X210886072Y-110888739D01*
X210879620Y-110887367D01*
X210688646Y-110887367D01*
X210682194Y-110888739D01*
X210682189Y-110888739D01*
X210595246Y-110907220D01*
X210501845Y-110927073D01*
X210495815Y-110929758D01*
X210495814Y-110929758D01*
X210333411Y-111002064D01*
X210333409Y-111002065D01*
X210327381Y-111004749D01*
X210322040Y-111008629D01*
X210322039Y-111008630D01*
X210272070Y-111044935D01*
X210172880Y-111117001D01*
X210168459Y-111121911D01*
X210168458Y-111121912D01*
X210132275Y-111162098D01*
X210045093Y-111258923D01*
X209949606Y-111424311D01*
X209890591Y-111605939D01*
X209889901Y-111612500D01*
X209889901Y-111612502D01*
X209871319Y-111789302D01*
X209870629Y-111795867D01*
X198997637Y-111795867D01*
X198996947Y-111789302D01*
X198978365Y-111612502D01*
X198978365Y-111612500D01*
X198977675Y-111605939D01*
X198918660Y-111424311D01*
X198823173Y-111258923D01*
X198735992Y-111162098D01*
X198699808Y-111121912D01*
X198699807Y-111121911D01*
X198695386Y-111117001D01*
X198596196Y-111044935D01*
X198546227Y-111008630D01*
X198546226Y-111008629D01*
X198540885Y-111004749D01*
X198534857Y-111002065D01*
X198534855Y-111002064D01*
X198372452Y-110929758D01*
X198372451Y-110929758D01*
X198366421Y-110927073D01*
X198273020Y-110907220D01*
X198186077Y-110888739D01*
X198186072Y-110888739D01*
X198179620Y-110887367D01*
X197988646Y-110887367D01*
X197982194Y-110888739D01*
X197982189Y-110888739D01*
X197895246Y-110907220D01*
X197801845Y-110927073D01*
X197795815Y-110929758D01*
X197795814Y-110929758D01*
X197633411Y-111002064D01*
X197633409Y-111002065D01*
X197627381Y-111004749D01*
X197622040Y-111008629D01*
X197622039Y-111008630D01*
X197572070Y-111044935D01*
X197472880Y-111117001D01*
X197468459Y-111121911D01*
X197468458Y-111121912D01*
X197432275Y-111162098D01*
X197345093Y-111258923D01*
X197249606Y-111424311D01*
X197190591Y-111605939D01*
X197189901Y-111612500D01*
X197189901Y-111612502D01*
X197171319Y-111789302D01*
X197170629Y-111795867D01*
X183757637Y-111795867D01*
X183756947Y-111789302D01*
X183738365Y-111612502D01*
X183738365Y-111612500D01*
X183737675Y-111605939D01*
X183678660Y-111424311D01*
X183583173Y-111258923D01*
X183495992Y-111162098D01*
X183459808Y-111121912D01*
X183459807Y-111121911D01*
X183455386Y-111117001D01*
X183356196Y-111044935D01*
X183306227Y-111008630D01*
X183306226Y-111008629D01*
X183300885Y-111004749D01*
X183294857Y-111002065D01*
X183294855Y-111002064D01*
X183132452Y-110929758D01*
X183132451Y-110929758D01*
X183126421Y-110927073D01*
X183033020Y-110907220D01*
X182946077Y-110888739D01*
X182946072Y-110888739D01*
X182939620Y-110887367D01*
X182748646Y-110887367D01*
X182742194Y-110888739D01*
X182742189Y-110888739D01*
X182655246Y-110907220D01*
X182561845Y-110927073D01*
X182555815Y-110929758D01*
X182555814Y-110929758D01*
X182393411Y-111002064D01*
X182393409Y-111002065D01*
X182387381Y-111004749D01*
X182382040Y-111008629D01*
X182382039Y-111008630D01*
X182332070Y-111044935D01*
X182232880Y-111117001D01*
X182228459Y-111121911D01*
X182228458Y-111121912D01*
X182192275Y-111162098D01*
X182105093Y-111258923D01*
X182009606Y-111424311D01*
X181950591Y-111605939D01*
X181949901Y-111612500D01*
X181949901Y-111612502D01*
X181931319Y-111789302D01*
X181930629Y-111795867D01*
X168508487Y-111795867D01*
X168493438Y-111652688D01*
X168490085Y-111620782D01*
X168490085Y-111620780D01*
X168489395Y-111614219D01*
X168430380Y-111432591D01*
X168422296Y-111418588D01*
X168353314Y-111299109D01*
X168334893Y-111267203D01*
X168323019Y-111254015D01*
X168211528Y-111130192D01*
X168211527Y-111130191D01*
X168207106Y-111125281D01*
X168089616Y-111039919D01*
X168057947Y-111016910D01*
X168057946Y-111016909D01*
X168052605Y-111013029D01*
X168046577Y-111010345D01*
X168046575Y-111010344D01*
X167884172Y-110938038D01*
X167884171Y-110938038D01*
X167878141Y-110935353D01*
X167783673Y-110915273D01*
X167697797Y-110897019D01*
X167697792Y-110897019D01*
X167691340Y-110895647D01*
X167500366Y-110895647D01*
X167493914Y-110897019D01*
X167493909Y-110897019D01*
X167408033Y-110915273D01*
X167313565Y-110935353D01*
X167307535Y-110938038D01*
X167307534Y-110938038D01*
X167145131Y-111010344D01*
X167145129Y-111010345D01*
X167139101Y-111013029D01*
X167133760Y-111016909D01*
X167133759Y-111016910D01*
X167102090Y-111039919D01*
X166984600Y-111125281D01*
X166980179Y-111130191D01*
X166980178Y-111130192D01*
X166868688Y-111254015D01*
X166856813Y-111267203D01*
X166838392Y-111299109D01*
X166769411Y-111418588D01*
X166761326Y-111432591D01*
X166702311Y-111614219D01*
X166701621Y-111620780D01*
X166701621Y-111620782D01*
X166698268Y-111652688D01*
X166682349Y-111804147D01*
X153247668Y-111804147D01*
X153246108Y-111789302D01*
X153230459Y-111640408D01*
X153230459Y-111640406D01*
X153229769Y-111633845D01*
X153170754Y-111452217D01*
X153154643Y-111424311D01*
X153078568Y-111292547D01*
X153075267Y-111286829D01*
X153050141Y-111258923D01*
X152951902Y-111149818D01*
X152951901Y-111149817D01*
X152947480Y-111144907D01*
X152809881Y-111044935D01*
X152798321Y-111036536D01*
X152798320Y-111036535D01*
X152792979Y-111032655D01*
X152786951Y-111029971D01*
X152786949Y-111029970D01*
X152624546Y-110957664D01*
X152624545Y-110957664D01*
X152618515Y-110954979D01*
X152519728Y-110933981D01*
X152438171Y-110916645D01*
X152438166Y-110916645D01*
X152431714Y-110915273D01*
X152240740Y-110915273D01*
X152234288Y-110916645D01*
X152234283Y-110916645D01*
X152152726Y-110933981D01*
X152053939Y-110954979D01*
X152047909Y-110957664D01*
X152047908Y-110957664D01*
X151885505Y-111029970D01*
X151885503Y-111029971D01*
X151879475Y-111032655D01*
X151874134Y-111036535D01*
X151874133Y-111036536D01*
X151862573Y-111044935D01*
X151724974Y-111144907D01*
X151720553Y-111149817D01*
X151720552Y-111149818D01*
X151622314Y-111258923D01*
X151597187Y-111286829D01*
X151593886Y-111292547D01*
X151517812Y-111424311D01*
X151501700Y-111452217D01*
X151442685Y-111633845D01*
X151441995Y-111640406D01*
X151441995Y-111640408D01*
X151426346Y-111789302D01*
X151422723Y-111823773D01*
X137996160Y-111823773D01*
X137977489Y-111646125D01*
X137918474Y-111464497D01*
X137822987Y-111299109D01*
X137786804Y-111258923D01*
X137699622Y-111162098D01*
X137699621Y-111162097D01*
X137695200Y-111157187D01*
X137540699Y-111044935D01*
X137534671Y-111042251D01*
X137534669Y-111042250D01*
X137372266Y-110969944D01*
X137372265Y-110969944D01*
X137366235Y-110967259D01*
X137272834Y-110947406D01*
X137185891Y-110928925D01*
X137185886Y-110928925D01*
X137179434Y-110927553D01*
X136988460Y-110927553D01*
X136982008Y-110928925D01*
X136982003Y-110928925D01*
X136895060Y-110947406D01*
X136801659Y-110967259D01*
X136795629Y-110969944D01*
X136795628Y-110969944D01*
X136633225Y-111042250D01*
X136633223Y-111042251D01*
X136627195Y-111044935D01*
X136472694Y-111157187D01*
X136468273Y-111162097D01*
X136468272Y-111162098D01*
X136381091Y-111258923D01*
X136344907Y-111299109D01*
X136249420Y-111464497D01*
X136190405Y-111646125D01*
X136170443Y-111836053D01*
X120225413Y-111836053D01*
X120225658Y-111833721D01*
X120226348Y-111827156D01*
X120206386Y-111637228D01*
X120147371Y-111455600D01*
X120137716Y-111438876D01*
X120060322Y-111304827D01*
X120051884Y-111290212D01*
X120026748Y-111262295D01*
X119928519Y-111153201D01*
X119928518Y-111153200D01*
X119924097Y-111148290D01*
X119825001Y-111076292D01*
X119774938Y-111039919D01*
X119774937Y-111039918D01*
X119769596Y-111036038D01*
X119763568Y-111033354D01*
X119763566Y-111033353D01*
X119601163Y-110961047D01*
X119601162Y-110961047D01*
X119595132Y-110958362D01*
X119486884Y-110935353D01*
X119414788Y-110920028D01*
X119414783Y-110920028D01*
X119408331Y-110918656D01*
X119217357Y-110918656D01*
X119210905Y-110920028D01*
X119210900Y-110920028D01*
X119138804Y-110935353D01*
X119030556Y-110958362D01*
X119024526Y-110961047D01*
X119024525Y-110961047D01*
X118862122Y-111033353D01*
X118862120Y-111033354D01*
X118856092Y-111036038D01*
X118850751Y-111039918D01*
X118850750Y-111039919D01*
X118800687Y-111076292D01*
X118701591Y-111148290D01*
X118697170Y-111153200D01*
X118697169Y-111153201D01*
X118598941Y-111262295D01*
X118573804Y-111290212D01*
X118565366Y-111304827D01*
X118487973Y-111438876D01*
X118478317Y-111455600D01*
X118419302Y-111637228D01*
X118399340Y-111827156D01*
X107269674Y-111827156D01*
X107249712Y-111637228D01*
X107190697Y-111455600D01*
X107181042Y-111438876D01*
X107103648Y-111304827D01*
X107095210Y-111290212D01*
X107070074Y-111262295D01*
X106971845Y-111153201D01*
X106971844Y-111153200D01*
X106967423Y-111148290D01*
X106868327Y-111076292D01*
X106818264Y-111039919D01*
X106818263Y-111039918D01*
X106812922Y-111036038D01*
X106806894Y-111033354D01*
X106806892Y-111033353D01*
X106644489Y-110961047D01*
X106644488Y-110961047D01*
X106638458Y-110958362D01*
X106530210Y-110935353D01*
X106458114Y-110920028D01*
X106458109Y-110920028D01*
X106451657Y-110918656D01*
X106260683Y-110918656D01*
X106254231Y-110920028D01*
X106254226Y-110920028D01*
X106182130Y-110935353D01*
X106073882Y-110958362D01*
X106067852Y-110961047D01*
X106067851Y-110961047D01*
X105905448Y-111033353D01*
X105905446Y-111033354D01*
X105899418Y-111036038D01*
X105894077Y-111039918D01*
X105894076Y-111039919D01*
X105844013Y-111076292D01*
X105744917Y-111148290D01*
X105740496Y-111153200D01*
X105740495Y-111153201D01*
X105642267Y-111262295D01*
X105617130Y-111290212D01*
X105608692Y-111304827D01*
X105531299Y-111438876D01*
X105521643Y-111455600D01*
X105462628Y-111637228D01*
X105442666Y-111827156D01*
X100508500Y-111827156D01*
X100508500Y-103500469D01*
X223382095Y-103500469D01*
X223395427Y-103731697D01*
X223396564Y-103736743D01*
X223396565Y-103736749D01*
X223428741Y-103879523D01*
X223446346Y-103957642D01*
X223533484Y-104172237D01*
X223654501Y-104369719D01*
X223806147Y-104544784D01*
X223984349Y-104692730D01*
X224184322Y-104809584D01*
X224400694Y-104892209D01*
X224405760Y-104893240D01*
X224405761Y-104893240D01*
X224458846Y-104904040D01*
X224627656Y-104938385D01*
X224757089Y-104943131D01*
X224853949Y-104946683D01*
X224853953Y-104946683D01*
X224859113Y-104946872D01*
X224864233Y-104946216D01*
X224864235Y-104946216D01*
X224938166Y-104936745D01*
X225088847Y-104917442D01*
X225093795Y-104915957D01*
X225093802Y-104915956D01*
X225305747Y-104852369D01*
X225310690Y-104850886D01*
X225391236Y-104811427D01*
X225514049Y-104751262D01*
X225514052Y-104751260D01*
X225518684Y-104748991D01*
X225707243Y-104614494D01*
X225752309Y-104569585D01*
X225814681Y-104535669D01*
X225885487Y-104540857D01*
X225942249Y-104583503D01*
X225959231Y-104614607D01*
X225984385Y-104681705D01*
X226071739Y-104798261D01*
X226188295Y-104885615D01*
X226324684Y-104936745D01*
X226386866Y-104943500D01*
X228283134Y-104943500D01*
X228345316Y-104936745D01*
X228481705Y-104885615D01*
X228598261Y-104798261D01*
X228685615Y-104681705D01*
X228736745Y-104545316D01*
X228743500Y-104483134D01*
X228743500Y-102586866D01*
X228736745Y-102524684D01*
X228685615Y-102388295D01*
X228598261Y-102271739D01*
X228481705Y-102184385D01*
X228345316Y-102133255D01*
X228283134Y-102126500D01*
X226386866Y-102126500D01*
X226324684Y-102133255D01*
X226188295Y-102184385D01*
X226071739Y-102271739D01*
X225984385Y-102388295D01*
X225981233Y-102396703D01*
X225981232Y-102396705D01*
X225960538Y-102451906D01*
X225917897Y-102508671D01*
X225851335Y-102533371D01*
X225781986Y-102518164D01*
X225759167Y-102501666D01*
X225758887Y-102501358D01*
X225626373Y-102396705D01*
X225581177Y-102361011D01*
X225581172Y-102361008D01*
X225577123Y-102357810D01*
X225572607Y-102355317D01*
X225572604Y-102355315D01*
X225378879Y-102248373D01*
X225378875Y-102248371D01*
X225374355Y-102245876D01*
X225369486Y-102244152D01*
X225369482Y-102244150D01*
X225160903Y-102170288D01*
X225160899Y-102170287D01*
X225156028Y-102168562D01*
X225150935Y-102167655D01*
X225150932Y-102167654D01*
X224933095Y-102128851D01*
X224933089Y-102128850D01*
X224928006Y-102127945D01*
X224855096Y-102127054D01*
X224701581Y-102125179D01*
X224701579Y-102125179D01*
X224696411Y-102125116D01*
X224467464Y-102160150D01*
X224247314Y-102232106D01*
X224242726Y-102234494D01*
X224242722Y-102234496D01*
X224046461Y-102336663D01*
X224041872Y-102339052D01*
X224037739Y-102342155D01*
X224037736Y-102342157D01*
X223860790Y-102475012D01*
X223856655Y-102478117D01*
X223696639Y-102645564D01*
X223566119Y-102836899D01*
X223468602Y-103046981D01*
X223406707Y-103270169D01*
X223382095Y-103500469D01*
X100508500Y-103500469D01*
X100508500Y-97040000D01*
X103936654Y-97040000D01*
X103956017Y-97335426D01*
X104013776Y-97625797D01*
X104108941Y-97906145D01*
X104239885Y-98171673D01*
X104404367Y-98417838D01*
X104407081Y-98420932D01*
X104407085Y-98420938D01*
X104596864Y-98637338D01*
X104599573Y-98640427D01*
X104602662Y-98643136D01*
X104819062Y-98832915D01*
X104819068Y-98832919D01*
X104822162Y-98835633D01*
X104825588Y-98837922D01*
X104825593Y-98837926D01*
X105009405Y-98960744D01*
X105068327Y-99000115D01*
X105072026Y-99001939D01*
X105072031Y-99001942D01*
X105208313Y-99069148D01*
X105333855Y-99131059D01*
X105337760Y-99132384D01*
X105337761Y-99132385D01*
X105610290Y-99224896D01*
X105610294Y-99224897D01*
X105614203Y-99226224D01*
X105618247Y-99227028D01*
X105618253Y-99227030D01*
X105900535Y-99283180D01*
X105900541Y-99283181D01*
X105904574Y-99283983D01*
X105908679Y-99284252D01*
X105908686Y-99284253D01*
X106195881Y-99303076D01*
X106200000Y-99303346D01*
X106204119Y-99303076D01*
X106491314Y-99284253D01*
X106491321Y-99284252D01*
X106495426Y-99283983D01*
X106499459Y-99283181D01*
X106499465Y-99283180D01*
X106781747Y-99227030D01*
X106781753Y-99227028D01*
X106785797Y-99226224D01*
X106789706Y-99224897D01*
X106789710Y-99224896D01*
X107062239Y-99132385D01*
X107062240Y-99132384D01*
X107066145Y-99131059D01*
X107191687Y-99069148D01*
X107327969Y-99001942D01*
X107327974Y-99001939D01*
X107331673Y-99000115D01*
X107390595Y-98960744D01*
X107574407Y-98837926D01*
X107574412Y-98837922D01*
X107577838Y-98835633D01*
X107580932Y-98832919D01*
X107580938Y-98832915D01*
X107797338Y-98643136D01*
X107800427Y-98640427D01*
X107803136Y-98637338D01*
X107992915Y-98420938D01*
X107992919Y-98420932D01*
X107995633Y-98417838D01*
X108160115Y-98171673D01*
X108291059Y-97906145D01*
X108386224Y-97625797D01*
X108443983Y-97335426D01*
X108463346Y-97040000D01*
X178936654Y-97040000D01*
X178956017Y-97335426D01*
X179013776Y-97625797D01*
X179108941Y-97906145D01*
X179239885Y-98171673D01*
X179404367Y-98417838D01*
X179407081Y-98420932D01*
X179407085Y-98420938D01*
X179596864Y-98637338D01*
X179599573Y-98640427D01*
X179602662Y-98643136D01*
X179819062Y-98832915D01*
X179819068Y-98832919D01*
X179822162Y-98835633D01*
X179825588Y-98837922D01*
X179825593Y-98837926D01*
X180009405Y-98960744D01*
X180068327Y-99000115D01*
X180072026Y-99001939D01*
X180072031Y-99001942D01*
X180208313Y-99069148D01*
X180333855Y-99131059D01*
X180337760Y-99132384D01*
X180337761Y-99132385D01*
X180610290Y-99224896D01*
X180610294Y-99224897D01*
X180614203Y-99226224D01*
X180618247Y-99227028D01*
X180618253Y-99227030D01*
X180900535Y-99283180D01*
X180900541Y-99283181D01*
X180904574Y-99283983D01*
X180908679Y-99284252D01*
X180908686Y-99284253D01*
X181195881Y-99303076D01*
X181200000Y-99303346D01*
X181204119Y-99303076D01*
X181491314Y-99284253D01*
X181491321Y-99284252D01*
X181495426Y-99283983D01*
X181499459Y-99283181D01*
X181499465Y-99283180D01*
X181781747Y-99227030D01*
X181781753Y-99227028D01*
X181785797Y-99226224D01*
X181789706Y-99224897D01*
X181789710Y-99224896D01*
X182062239Y-99132385D01*
X182062240Y-99132384D01*
X182066145Y-99131059D01*
X182191687Y-99069148D01*
X182327969Y-99001942D01*
X182327974Y-99001939D01*
X182331673Y-99000115D01*
X182390595Y-98960744D01*
X182574407Y-98837926D01*
X182574412Y-98837922D01*
X182577838Y-98835633D01*
X182580932Y-98832919D01*
X182580938Y-98832915D01*
X182797338Y-98643136D01*
X182800427Y-98640427D01*
X182803136Y-98637338D01*
X182992915Y-98420938D01*
X182992919Y-98420932D01*
X182995633Y-98417838D01*
X183160115Y-98171673D01*
X183291059Y-97906145D01*
X183386224Y-97625797D01*
X183443983Y-97335426D01*
X183463346Y-97040000D01*
X183443983Y-96744574D01*
X183386224Y-96454203D01*
X183291059Y-96173855D01*
X183160115Y-95908327D01*
X182995633Y-95662162D01*
X182992919Y-95659068D01*
X182992915Y-95659062D01*
X182803136Y-95442662D01*
X182800427Y-95439573D01*
X182797338Y-95436864D01*
X182580938Y-95247085D01*
X182580932Y-95247081D01*
X182577838Y-95244367D01*
X182574412Y-95242078D01*
X182574407Y-95242074D01*
X182335106Y-95082179D01*
X182331673Y-95079885D01*
X182327974Y-95078061D01*
X182327969Y-95078058D01*
X182191687Y-95010852D01*
X182066145Y-94948941D01*
X182062239Y-94947615D01*
X181789710Y-94855104D01*
X181789706Y-94855103D01*
X181785797Y-94853776D01*
X181781753Y-94852972D01*
X181781747Y-94852970D01*
X181499465Y-94796820D01*
X181499459Y-94796819D01*
X181495426Y-94796017D01*
X181491321Y-94795748D01*
X181491314Y-94795747D01*
X181204119Y-94776924D01*
X181200000Y-94776654D01*
X181195881Y-94776924D01*
X180908686Y-94795747D01*
X180908679Y-94795748D01*
X180904574Y-94796017D01*
X180900541Y-94796819D01*
X180900535Y-94796820D01*
X180618253Y-94852970D01*
X180618247Y-94852972D01*
X180614203Y-94853776D01*
X180610294Y-94855103D01*
X180610290Y-94855104D01*
X180337761Y-94947615D01*
X180333855Y-94948941D01*
X180208313Y-95010852D01*
X180072031Y-95078058D01*
X180072026Y-95078061D01*
X180068327Y-95079885D01*
X180064894Y-95082179D01*
X179825593Y-95242074D01*
X179825588Y-95242078D01*
X179822162Y-95244367D01*
X179819068Y-95247081D01*
X179819062Y-95247085D01*
X179602662Y-95436864D01*
X179599573Y-95439573D01*
X179596864Y-95442662D01*
X179407085Y-95659062D01*
X179407081Y-95659068D01*
X179404367Y-95662162D01*
X179239885Y-95908327D01*
X179108941Y-96173855D01*
X179013776Y-96454203D01*
X178956017Y-96744574D01*
X178936654Y-97040000D01*
X108463346Y-97040000D01*
X108443983Y-96744574D01*
X108386224Y-96454203D01*
X108291059Y-96173855D01*
X108160115Y-95908327D01*
X107995633Y-95662162D01*
X107992919Y-95659068D01*
X107992915Y-95659062D01*
X107803136Y-95442662D01*
X107800427Y-95439573D01*
X107797338Y-95436864D01*
X107580938Y-95247085D01*
X107580932Y-95247081D01*
X107577838Y-95244367D01*
X107574412Y-95242078D01*
X107574407Y-95242074D01*
X107335106Y-95082179D01*
X107331673Y-95079885D01*
X107327974Y-95078061D01*
X107327969Y-95078058D01*
X107191687Y-95010852D01*
X107066145Y-94948941D01*
X107062239Y-94947615D01*
X106789710Y-94855104D01*
X106789706Y-94855103D01*
X106785797Y-94853776D01*
X106781753Y-94852972D01*
X106781747Y-94852970D01*
X106499465Y-94796820D01*
X106499459Y-94796819D01*
X106495426Y-94796017D01*
X106491321Y-94795748D01*
X106491314Y-94795747D01*
X106204119Y-94776924D01*
X106200000Y-94776654D01*
X106195881Y-94776924D01*
X105908686Y-94795747D01*
X105908679Y-94795748D01*
X105904574Y-94796017D01*
X105900541Y-94796819D01*
X105900535Y-94796820D01*
X105618253Y-94852970D01*
X105618247Y-94852972D01*
X105614203Y-94853776D01*
X105610294Y-94855103D01*
X105610290Y-94855104D01*
X105337761Y-94947615D01*
X105333855Y-94948941D01*
X105208313Y-95010852D01*
X105072031Y-95078058D01*
X105072026Y-95078061D01*
X105068327Y-95079885D01*
X105064894Y-95082179D01*
X104825593Y-95242074D01*
X104825588Y-95242078D01*
X104822162Y-95244367D01*
X104819068Y-95247081D01*
X104819062Y-95247085D01*
X104602662Y-95436864D01*
X104599573Y-95439573D01*
X104596864Y-95442662D01*
X104407085Y-95659062D01*
X104407081Y-95659068D01*
X104404367Y-95662162D01*
X104239885Y-95908327D01*
X104108941Y-96173855D01*
X104013776Y-96454203D01*
X103956017Y-96744574D01*
X103936654Y-97040000D01*
X100508500Y-97040000D01*
X100508500Y-81349721D01*
X103631024Y-81349721D01*
X103633491Y-81358352D01*
X103639150Y-81378153D01*
X103642728Y-81394915D01*
X103646920Y-81424187D01*
X103650634Y-81432355D01*
X103650634Y-81432356D01*
X103657548Y-81447562D01*
X103663996Y-81465086D01*
X103671051Y-81489771D01*
X103675843Y-81497365D01*
X103675844Y-81497368D01*
X103686830Y-81514780D01*
X103694969Y-81529863D01*
X103707208Y-81556782D01*
X103713069Y-81563584D01*
X103723970Y-81576235D01*
X103735073Y-81591239D01*
X103748776Y-81612958D01*
X103755501Y-81618897D01*
X103755504Y-81618901D01*
X103770938Y-81632532D01*
X103782982Y-81644724D01*
X103796427Y-81660327D01*
X103796430Y-81660329D01*
X103802287Y-81667127D01*
X103809816Y-81672007D01*
X103809817Y-81672008D01*
X103823835Y-81681094D01*
X103838709Y-81692385D01*
X103851217Y-81703431D01*
X103857951Y-81709378D01*
X103884711Y-81721942D01*
X103899691Y-81730263D01*
X103916983Y-81741471D01*
X103916988Y-81741473D01*
X103924515Y-81746352D01*
X103933108Y-81748922D01*
X103933113Y-81748924D01*
X103949120Y-81753711D01*
X103966564Y-81760372D01*
X103981676Y-81767467D01*
X103981678Y-81767468D01*
X103989800Y-81771281D01*
X103998667Y-81772662D01*
X103998668Y-81772662D01*
X104001353Y-81773080D01*
X104019017Y-81775830D01*
X104035732Y-81779613D01*
X104055466Y-81785515D01*
X104055472Y-81785516D01*
X104064066Y-81788086D01*
X104073037Y-81788141D01*
X104073038Y-81788141D01*
X104083097Y-81788202D01*
X104098506Y-81788296D01*
X104099289Y-81788329D01*
X104100386Y-81788500D01*
X104131377Y-81788500D01*
X104132147Y-81788502D01*
X104205785Y-81788952D01*
X104205786Y-81788952D01*
X104209721Y-81788976D01*
X104211065Y-81788592D01*
X104212410Y-81788500D01*
X126991377Y-81788500D01*
X126992148Y-81788502D01*
X127069721Y-81788976D01*
X127098152Y-81780850D01*
X127114915Y-81777272D01*
X127115753Y-81777152D01*
X127144187Y-81773080D01*
X127167564Y-81762451D01*
X127185087Y-81756004D01*
X127209771Y-81748949D01*
X127217365Y-81744157D01*
X127217368Y-81744156D01*
X127234780Y-81733170D01*
X127249865Y-81725030D01*
X127276782Y-81712792D01*
X127296235Y-81696030D01*
X127311239Y-81684927D01*
X127332958Y-81671224D01*
X127338897Y-81664499D01*
X127338901Y-81664496D01*
X127352532Y-81649062D01*
X127364724Y-81637018D01*
X127380327Y-81623573D01*
X127380329Y-81623570D01*
X127387127Y-81617713D01*
X127401094Y-81596165D01*
X127412385Y-81581291D01*
X127423431Y-81568783D01*
X127423432Y-81568782D01*
X127429378Y-81562049D01*
X127441943Y-81535287D01*
X127450263Y-81520309D01*
X127461471Y-81503017D01*
X127461473Y-81503012D01*
X127466352Y-81495485D01*
X127468922Y-81486892D01*
X127468924Y-81486887D01*
X127473711Y-81470880D01*
X127480372Y-81453436D01*
X127487467Y-81438324D01*
X127487468Y-81438322D01*
X127491281Y-81430200D01*
X127495830Y-81400983D01*
X127499613Y-81384268D01*
X127505515Y-81364534D01*
X127505516Y-81364528D01*
X127508086Y-81355934D01*
X127508296Y-81321494D01*
X127508329Y-81320711D01*
X127508500Y-81319614D01*
X127508500Y-81288623D01*
X127508502Y-81287853D01*
X127508952Y-81214215D01*
X127508952Y-81214214D01*
X127508976Y-81210279D01*
X127508592Y-81208935D01*
X127508500Y-81207590D01*
X127508500Y-78706695D01*
X130717251Y-78706695D01*
X130717548Y-78711848D01*
X130717548Y-78711851D01*
X130723011Y-78806590D01*
X130730110Y-78929715D01*
X130731247Y-78934761D01*
X130731248Y-78934767D01*
X130751119Y-79022939D01*
X130779222Y-79147639D01*
X130863266Y-79354616D01*
X130979987Y-79545088D01*
X131126250Y-79713938D01*
X131298126Y-79856632D01*
X131491000Y-79969338D01*
X131699692Y-80049030D01*
X131704760Y-80050061D01*
X131704763Y-80050062D01*
X131812017Y-80071883D01*
X131918597Y-80093567D01*
X131923772Y-80093757D01*
X131923774Y-80093757D01*
X132136673Y-80101564D01*
X132136677Y-80101564D01*
X132141837Y-80101753D01*
X132146957Y-80101097D01*
X132146959Y-80101097D01*
X132358288Y-80074025D01*
X132358289Y-80074025D01*
X132363416Y-80073368D01*
X132368366Y-80071883D01*
X132572429Y-80010661D01*
X132572434Y-80010659D01*
X132577384Y-80009174D01*
X132777994Y-79910896D01*
X132959860Y-79781173D01*
X133118096Y-79623489D01*
X133177594Y-79540689D01*
X133245435Y-79446277D01*
X133248453Y-79442077D01*
X133347430Y-79241811D01*
X133412370Y-79028069D01*
X133441529Y-78806590D01*
X133443156Y-78740000D01*
X133424852Y-78517361D01*
X133370431Y-78300702D01*
X133281354Y-78095840D01*
X133160014Y-77908277D01*
X133009670Y-77743051D01*
X133005619Y-77739852D01*
X133005615Y-77739848D01*
X132838414Y-77607800D01*
X132838410Y-77607798D01*
X132834359Y-77604598D01*
X132793053Y-77581796D01*
X132743084Y-77531364D01*
X132728312Y-77461921D01*
X132753428Y-77395516D01*
X132780780Y-77368909D01*
X132824603Y-77337650D01*
X132959860Y-77241173D01*
X133118096Y-77083489D01*
X133177594Y-77000689D01*
X133245435Y-76906277D01*
X133248453Y-76902077D01*
X133347430Y-76701811D01*
X133412370Y-76488069D01*
X133441529Y-76266590D01*
X133443156Y-76200000D01*
X133424852Y-75977361D01*
X133370431Y-75760702D01*
X133281354Y-75555840D01*
X133160014Y-75368277D01*
X133009670Y-75203051D01*
X133005619Y-75199852D01*
X133005615Y-75199848D01*
X132838414Y-75067800D01*
X132838410Y-75067798D01*
X132834359Y-75064598D01*
X132793053Y-75041796D01*
X132743084Y-74991364D01*
X132728312Y-74921921D01*
X132753428Y-74855516D01*
X132780780Y-74828909D01*
X132824603Y-74797650D01*
X132959860Y-74701173D01*
X133118096Y-74543489D01*
X133177594Y-74460689D01*
X133245435Y-74366277D01*
X133248453Y-74362077D01*
X133347430Y-74161811D01*
X133412370Y-73948069D01*
X133441529Y-73726590D01*
X133443156Y-73660000D01*
X133424852Y-73437361D01*
X133370431Y-73220702D01*
X133281354Y-73015840D01*
X133160014Y-72828277D01*
X133156540Y-72824459D01*
X133156533Y-72824450D01*
X133012435Y-72666088D01*
X132981383Y-72602242D01*
X132989779Y-72531744D01*
X133034956Y-72476976D01*
X133061400Y-72463307D01*
X133168052Y-72423325D01*
X133183649Y-72414786D01*
X133285724Y-72338285D01*
X133298285Y-72325724D01*
X133374786Y-72223649D01*
X133383324Y-72208054D01*
X133428478Y-72087606D01*
X133432105Y-72072351D01*
X133437631Y-72021486D01*
X133438000Y-72014672D01*
X133438000Y-71392115D01*
X133433525Y-71376876D01*
X133432135Y-71375671D01*
X133424452Y-71374000D01*
X130740116Y-71374000D01*
X130724877Y-71378475D01*
X130723672Y-71379865D01*
X130722001Y-71387548D01*
X130722001Y-72014669D01*
X130722371Y-72021490D01*
X130727895Y-72072352D01*
X130731521Y-72087604D01*
X130776676Y-72208054D01*
X130785214Y-72223649D01*
X130861715Y-72325724D01*
X130874276Y-72338285D01*
X130976351Y-72414786D01*
X130991946Y-72423324D01*
X131100827Y-72464142D01*
X131157591Y-72506784D01*
X131182291Y-72573345D01*
X131167083Y-72642694D01*
X131147691Y-72669175D01*
X131024200Y-72798401D01*
X131020629Y-72802138D01*
X130894743Y-72986680D01*
X130800688Y-73189305D01*
X130740989Y-73404570D01*
X130717251Y-73626695D01*
X130717548Y-73631848D01*
X130717548Y-73631851D01*
X130723011Y-73726590D01*
X130730110Y-73849715D01*
X130731247Y-73854761D01*
X130731248Y-73854767D01*
X130751119Y-73942939D01*
X130779222Y-74067639D01*
X130863266Y-74274616D01*
X130979987Y-74465088D01*
X131126250Y-74633938D01*
X131298126Y-74776632D01*
X131368595Y-74817811D01*
X131371445Y-74819476D01*
X131420169Y-74871114D01*
X131433240Y-74940897D01*
X131406509Y-75006669D01*
X131366055Y-75040027D01*
X131353607Y-75046507D01*
X131349474Y-75049610D01*
X131349471Y-75049612D01*
X131325247Y-75067800D01*
X131174965Y-75180635D01*
X131020629Y-75342138D01*
X130894743Y-75526680D01*
X130800688Y-75729305D01*
X130740989Y-75944570D01*
X130717251Y-76166695D01*
X130717548Y-76171848D01*
X130717548Y-76171851D01*
X130723011Y-76266590D01*
X130730110Y-76389715D01*
X130731247Y-76394761D01*
X130731248Y-76394767D01*
X130751119Y-76482939D01*
X130779222Y-76607639D01*
X130863266Y-76814616D01*
X130979987Y-77005088D01*
X131126250Y-77173938D01*
X131298126Y-77316632D01*
X131368595Y-77357811D01*
X131371445Y-77359476D01*
X131420169Y-77411114D01*
X131433240Y-77480897D01*
X131406509Y-77546669D01*
X131366055Y-77580027D01*
X131353607Y-77586507D01*
X131349474Y-77589610D01*
X131349471Y-77589612D01*
X131325247Y-77607800D01*
X131174965Y-77720635D01*
X131020629Y-77882138D01*
X130894743Y-78066680D01*
X130800688Y-78269305D01*
X130740989Y-78484570D01*
X130717251Y-78706695D01*
X127508500Y-78706695D01*
X127508500Y-70847885D01*
X130722000Y-70847885D01*
X130726475Y-70863124D01*
X130727865Y-70864329D01*
X130735548Y-70866000D01*
X131807885Y-70866000D01*
X131823124Y-70861525D01*
X131824329Y-70860135D01*
X131826000Y-70852452D01*
X131826000Y-70847885D01*
X132334000Y-70847885D01*
X132338475Y-70863124D01*
X132339865Y-70864329D01*
X132347548Y-70866000D01*
X133419884Y-70866000D01*
X133435123Y-70861525D01*
X133436328Y-70860135D01*
X133437999Y-70852452D01*
X133437999Y-70225331D01*
X133437629Y-70218510D01*
X133432105Y-70167648D01*
X133428479Y-70152396D01*
X133383324Y-70031946D01*
X133374786Y-70016351D01*
X133298285Y-69914276D01*
X133285724Y-69901715D01*
X133183649Y-69825214D01*
X133168054Y-69816676D01*
X133047606Y-69771522D01*
X133032351Y-69767895D01*
X132981486Y-69762369D01*
X132974672Y-69762000D01*
X132352115Y-69762000D01*
X132336876Y-69766475D01*
X132335671Y-69767865D01*
X132334000Y-69775548D01*
X132334000Y-70847885D01*
X131826000Y-70847885D01*
X131826000Y-69780116D01*
X131821525Y-69764877D01*
X131820135Y-69763672D01*
X131812452Y-69762001D01*
X131185331Y-69762001D01*
X131178510Y-69762371D01*
X131127648Y-69767895D01*
X131112396Y-69771521D01*
X130991946Y-69816676D01*
X130976351Y-69825214D01*
X130874276Y-69901715D01*
X130861715Y-69914276D01*
X130785214Y-70016351D01*
X130776676Y-70031946D01*
X130731522Y-70152394D01*
X130727895Y-70167649D01*
X130722369Y-70218514D01*
X130722000Y-70225328D01*
X130722000Y-70847885D01*
X127508500Y-70847885D01*
X127508500Y-68588623D01*
X127508502Y-68587853D01*
X127508800Y-68539102D01*
X127508976Y-68510279D01*
X127500850Y-68481847D01*
X127497272Y-68465085D01*
X127494352Y-68444698D01*
X127493080Y-68435813D01*
X127482451Y-68412436D01*
X127476004Y-68394913D01*
X127471416Y-68378862D01*
X127468949Y-68370229D01*
X127464156Y-68362632D01*
X127453170Y-68345220D01*
X127445030Y-68330135D01*
X127442564Y-68324711D01*
X127432792Y-68303218D01*
X127416030Y-68283765D01*
X127404927Y-68268761D01*
X127391224Y-68247042D01*
X127384499Y-68241103D01*
X127384496Y-68241099D01*
X127369062Y-68227468D01*
X127357018Y-68215276D01*
X127343573Y-68199673D01*
X127343570Y-68199671D01*
X127337713Y-68192873D01*
X127324009Y-68183990D01*
X127316165Y-68178906D01*
X127301291Y-68167615D01*
X127288783Y-68156569D01*
X127288782Y-68156568D01*
X127282049Y-68150622D01*
X127255287Y-68138057D01*
X127240309Y-68129737D01*
X127223017Y-68118529D01*
X127223012Y-68118527D01*
X127215485Y-68113648D01*
X127206892Y-68111078D01*
X127206887Y-68111076D01*
X127190880Y-68106289D01*
X127173436Y-68099628D01*
X127158324Y-68092533D01*
X127158322Y-68092532D01*
X127150200Y-68088719D01*
X127141333Y-68087338D01*
X127141332Y-68087338D01*
X127130478Y-68085648D01*
X127120983Y-68084170D01*
X127104268Y-68080387D01*
X127084534Y-68074485D01*
X127084528Y-68074484D01*
X127075934Y-68071914D01*
X127066963Y-68071859D01*
X127066962Y-68071859D01*
X127056903Y-68071798D01*
X127041494Y-68071704D01*
X127040711Y-68071671D01*
X127039614Y-68071500D01*
X127008623Y-68071500D01*
X127007853Y-68071498D01*
X126934215Y-68071048D01*
X126934214Y-68071048D01*
X126930279Y-68071024D01*
X126928935Y-68071408D01*
X126927590Y-68071500D01*
X107640204Y-68071500D01*
X107572083Y-68051498D01*
X107525590Y-67997842D01*
X107515486Y-67927568D01*
X107544980Y-67862988D01*
X107570200Y-67840737D01*
X107577838Y-67835633D01*
X107580932Y-67832919D01*
X107580938Y-67832915D01*
X107797338Y-67643136D01*
X107800427Y-67640427D01*
X107803136Y-67637338D01*
X107992915Y-67420938D01*
X107992919Y-67420932D01*
X107995633Y-67417838D01*
X108160115Y-67171673D01*
X108291059Y-66906145D01*
X108386224Y-66625797D01*
X108443983Y-66335426D01*
X108463346Y-66040000D01*
X178936654Y-66040000D01*
X178956017Y-66335426D01*
X179013776Y-66625797D01*
X179108941Y-66906145D01*
X179239885Y-67171673D01*
X179404367Y-67417838D01*
X179407081Y-67420932D01*
X179407085Y-67420938D01*
X179596864Y-67637338D01*
X179599573Y-67640427D01*
X179602662Y-67643136D01*
X179819062Y-67832915D01*
X179819068Y-67832919D01*
X179822162Y-67835633D01*
X179825585Y-67837920D01*
X179825593Y-67837926D01*
X180009405Y-67960744D01*
X180068327Y-68000115D01*
X180072026Y-68001939D01*
X180072031Y-68001942D01*
X180128313Y-68029697D01*
X180333855Y-68131059D01*
X180337760Y-68132384D01*
X180337761Y-68132385D01*
X180610290Y-68224896D01*
X180610294Y-68224897D01*
X180614203Y-68226224D01*
X180618247Y-68227028D01*
X180618253Y-68227030D01*
X180900535Y-68283180D01*
X180900541Y-68283181D01*
X180904574Y-68283983D01*
X180908679Y-68284252D01*
X180908686Y-68284253D01*
X181195881Y-68303076D01*
X181200000Y-68303346D01*
X181204119Y-68303076D01*
X181491314Y-68284253D01*
X181491321Y-68284252D01*
X181495426Y-68283983D01*
X181499459Y-68283181D01*
X181499465Y-68283180D01*
X181781747Y-68227030D01*
X181781753Y-68227028D01*
X181785797Y-68226224D01*
X181789706Y-68224897D01*
X181789710Y-68224896D01*
X182062239Y-68132385D01*
X182062240Y-68132384D01*
X182066145Y-68131059D01*
X182271687Y-68029697D01*
X182327969Y-68001942D01*
X182327974Y-68001939D01*
X182331673Y-68000115D01*
X182390595Y-67960744D01*
X182574407Y-67837926D01*
X182574415Y-67837920D01*
X182577838Y-67835633D01*
X182580932Y-67832919D01*
X182580938Y-67832915D01*
X182797338Y-67643136D01*
X182800427Y-67640427D01*
X182803136Y-67637338D01*
X182992915Y-67420938D01*
X182992919Y-67420932D01*
X182995633Y-67417838D01*
X183160115Y-67171673D01*
X183291059Y-66906145D01*
X183386224Y-66625797D01*
X183443983Y-66335426D01*
X183463346Y-66040000D01*
X183443983Y-65744574D01*
X183386224Y-65454203D01*
X183291059Y-65173855D01*
X183160115Y-64908327D01*
X182995633Y-64662162D01*
X182992919Y-64659068D01*
X182992915Y-64659062D01*
X182803136Y-64442662D01*
X182800427Y-64439573D01*
X182797338Y-64436864D01*
X182580938Y-64247085D01*
X182580932Y-64247081D01*
X182577838Y-64244367D01*
X182574412Y-64242078D01*
X182574407Y-64242074D01*
X182335106Y-64082179D01*
X182331673Y-64079885D01*
X182327974Y-64078061D01*
X182327969Y-64078058D01*
X182191687Y-64010852D01*
X182066145Y-63948941D01*
X182062239Y-63947615D01*
X181789710Y-63855104D01*
X181789706Y-63855103D01*
X181785797Y-63853776D01*
X181781753Y-63852972D01*
X181781747Y-63852970D01*
X181499465Y-63796820D01*
X181499459Y-63796819D01*
X181495426Y-63796017D01*
X181491321Y-63795748D01*
X181491314Y-63795747D01*
X181204119Y-63776924D01*
X181200000Y-63776654D01*
X181195881Y-63776924D01*
X180908686Y-63795747D01*
X180908679Y-63795748D01*
X180904574Y-63796017D01*
X180900541Y-63796819D01*
X180900535Y-63796820D01*
X180618253Y-63852970D01*
X180618247Y-63852972D01*
X180614203Y-63853776D01*
X180610294Y-63855103D01*
X180610290Y-63855104D01*
X180337761Y-63947615D01*
X180333855Y-63948941D01*
X180208313Y-64010852D01*
X180072031Y-64078058D01*
X180072026Y-64078061D01*
X180068327Y-64079885D01*
X180064894Y-64082179D01*
X179825593Y-64242074D01*
X179825588Y-64242078D01*
X179822162Y-64244367D01*
X179819068Y-64247081D01*
X179819062Y-64247085D01*
X179602662Y-64436864D01*
X179599573Y-64439573D01*
X179596864Y-64442662D01*
X179407085Y-64659062D01*
X179407081Y-64659068D01*
X179404367Y-64662162D01*
X179239885Y-64908327D01*
X179108941Y-65173855D01*
X179013776Y-65454203D01*
X178956017Y-65744574D01*
X178936654Y-66040000D01*
X108463346Y-66040000D01*
X108443983Y-65744574D01*
X108386224Y-65454203D01*
X108291059Y-65173855D01*
X108160115Y-64908327D01*
X107995633Y-64662162D01*
X107992919Y-64659068D01*
X107992915Y-64659062D01*
X107803136Y-64442662D01*
X107800427Y-64439573D01*
X107797338Y-64436864D01*
X107580938Y-64247085D01*
X107580932Y-64247081D01*
X107577838Y-64244367D01*
X107574412Y-64242078D01*
X107574407Y-64242074D01*
X107335106Y-64082179D01*
X107331673Y-64079885D01*
X107327974Y-64078061D01*
X107327969Y-64078058D01*
X107191687Y-64010852D01*
X107066145Y-63948941D01*
X107062239Y-63947615D01*
X106789710Y-63855104D01*
X106789706Y-63855103D01*
X106785797Y-63853776D01*
X106781753Y-63852972D01*
X106781747Y-63852970D01*
X106499465Y-63796820D01*
X106499459Y-63796819D01*
X106495426Y-63796017D01*
X106491321Y-63795748D01*
X106491314Y-63795747D01*
X106204119Y-63776924D01*
X106200000Y-63776654D01*
X106195881Y-63776924D01*
X105908686Y-63795747D01*
X105908679Y-63795748D01*
X105904574Y-63796017D01*
X105900541Y-63796819D01*
X105900535Y-63796820D01*
X105618253Y-63852970D01*
X105618247Y-63852972D01*
X105614203Y-63853776D01*
X105610294Y-63855103D01*
X105610290Y-63855104D01*
X105337761Y-63947615D01*
X105333855Y-63948941D01*
X105208313Y-64010852D01*
X105072031Y-64078058D01*
X105072026Y-64078061D01*
X105068327Y-64079885D01*
X105064894Y-64082179D01*
X104825593Y-64242074D01*
X104825588Y-64242078D01*
X104822162Y-64244367D01*
X104819068Y-64247081D01*
X104819062Y-64247085D01*
X104602662Y-64436864D01*
X104599573Y-64439573D01*
X104596864Y-64442662D01*
X104407085Y-64659062D01*
X104407081Y-64659068D01*
X104404367Y-64662162D01*
X104239885Y-64908327D01*
X104108941Y-65173855D01*
X104013776Y-65454203D01*
X103956017Y-65744574D01*
X103936654Y-66040000D01*
X103956017Y-66335426D01*
X104013776Y-66625797D01*
X104108941Y-66906145D01*
X104239885Y-67171673D01*
X104404367Y-67417838D01*
X104407081Y-67420932D01*
X104407085Y-67420938D01*
X104596864Y-67637338D01*
X104599573Y-67640427D01*
X104602662Y-67643136D01*
X104819062Y-67832915D01*
X104819068Y-67832919D01*
X104822162Y-67835633D01*
X104829798Y-67840735D01*
X104875325Y-67895210D01*
X104884174Y-67965653D01*
X104853534Y-68029697D01*
X104793133Y-68067010D01*
X104759796Y-68071500D01*
X104148623Y-68071500D01*
X104147853Y-68071498D01*
X104147037Y-68071493D01*
X104070279Y-68071024D01*
X104047918Y-68077415D01*
X104041847Y-68079150D01*
X104025085Y-68082728D01*
X103995813Y-68086920D01*
X103987645Y-68090634D01*
X103987644Y-68090634D01*
X103972438Y-68097548D01*
X103954914Y-68103996D01*
X103930229Y-68111051D01*
X103922635Y-68115843D01*
X103922632Y-68115844D01*
X103905220Y-68126830D01*
X103890137Y-68134969D01*
X103863218Y-68147208D01*
X103856416Y-68153069D01*
X103843765Y-68163970D01*
X103828761Y-68175073D01*
X103807042Y-68188776D01*
X103801103Y-68195501D01*
X103801099Y-68195504D01*
X103787468Y-68210938D01*
X103775276Y-68222982D01*
X103759673Y-68236427D01*
X103759671Y-68236430D01*
X103752873Y-68242287D01*
X103747993Y-68249816D01*
X103747992Y-68249817D01*
X103738906Y-68263835D01*
X103727615Y-68278709D01*
X103716569Y-68291217D01*
X103710622Y-68297951D01*
X103704312Y-68311391D01*
X103698058Y-68324711D01*
X103689737Y-68339691D01*
X103678529Y-68356983D01*
X103678527Y-68356988D01*
X103673648Y-68364515D01*
X103671078Y-68373108D01*
X103671076Y-68373113D01*
X103666289Y-68389120D01*
X103659628Y-68406564D01*
X103652533Y-68421676D01*
X103648719Y-68429800D01*
X103647338Y-68438667D01*
X103647338Y-68438668D01*
X103644170Y-68459015D01*
X103640387Y-68475732D01*
X103634485Y-68495466D01*
X103634484Y-68495472D01*
X103631914Y-68504066D01*
X103631859Y-68513037D01*
X103631859Y-68513038D01*
X103631704Y-68538497D01*
X103631671Y-68539289D01*
X103631500Y-68540386D01*
X103631500Y-68571377D01*
X103631498Y-68572147D01*
X103631024Y-68649721D01*
X103631408Y-68651065D01*
X103631500Y-68652410D01*
X103631500Y-81271377D01*
X103631498Y-81272147D01*
X103631024Y-81349721D01*
X100508500Y-81349721D01*
X100508500Y-53340000D01*
X101876654Y-53340000D01*
X101896017Y-53635426D01*
X101953776Y-53925797D01*
X102048941Y-54206145D01*
X102179885Y-54471673D01*
X102344367Y-54717838D01*
X102347081Y-54720932D01*
X102347085Y-54720938D01*
X102536864Y-54937338D01*
X102539573Y-54940427D01*
X102542662Y-54943136D01*
X102759062Y-55132915D01*
X102759068Y-55132919D01*
X102762162Y-55135633D01*
X102765588Y-55137922D01*
X102765593Y-55137926D01*
X102949405Y-55260744D01*
X103008327Y-55300115D01*
X103012026Y-55301939D01*
X103012031Y-55301942D01*
X103148313Y-55369148D01*
X103273855Y-55431059D01*
X103277760Y-55432384D01*
X103277761Y-55432385D01*
X103550290Y-55524896D01*
X103550294Y-55524897D01*
X103554203Y-55526224D01*
X103558247Y-55527028D01*
X103558253Y-55527030D01*
X103840535Y-55583180D01*
X103840541Y-55583181D01*
X103844574Y-55583983D01*
X103848679Y-55584252D01*
X103848686Y-55584253D01*
X104135881Y-55603076D01*
X104140000Y-55603346D01*
X104144119Y-55603076D01*
X104431314Y-55584253D01*
X104431321Y-55584252D01*
X104435426Y-55583983D01*
X104439459Y-55583181D01*
X104439465Y-55583180D01*
X104721747Y-55527030D01*
X104721753Y-55527028D01*
X104725797Y-55526224D01*
X104729706Y-55524897D01*
X104729710Y-55524896D01*
X105002239Y-55432385D01*
X105002240Y-55432384D01*
X105006145Y-55431059D01*
X105131687Y-55369148D01*
X105267969Y-55301942D01*
X105267974Y-55301939D01*
X105271673Y-55300115D01*
X105330595Y-55260744D01*
X105514407Y-55137926D01*
X105514412Y-55137922D01*
X105517838Y-55135633D01*
X105520932Y-55132919D01*
X105520938Y-55132915D01*
X105737338Y-54943136D01*
X105740427Y-54940427D01*
X105743136Y-54937338D01*
X105932915Y-54720938D01*
X105932919Y-54720932D01*
X105935633Y-54717838D01*
X106100115Y-54471673D01*
X106231059Y-54206145D01*
X106326224Y-53925797D01*
X106383983Y-53635426D01*
X106403346Y-53340000D01*
X231416654Y-53340000D01*
X231436017Y-53635426D01*
X231493776Y-53925797D01*
X231588941Y-54206145D01*
X231719885Y-54471673D01*
X231884367Y-54717838D01*
X231887081Y-54720932D01*
X231887085Y-54720938D01*
X232076864Y-54937338D01*
X232079573Y-54940427D01*
X232082662Y-54943136D01*
X232299062Y-55132915D01*
X232299068Y-55132919D01*
X232302162Y-55135633D01*
X232305588Y-55137922D01*
X232305593Y-55137926D01*
X232489405Y-55260744D01*
X232548327Y-55300115D01*
X232552026Y-55301939D01*
X232552031Y-55301942D01*
X232688313Y-55369148D01*
X232813855Y-55431059D01*
X232817760Y-55432384D01*
X232817761Y-55432385D01*
X233090290Y-55524896D01*
X233090294Y-55524897D01*
X233094203Y-55526224D01*
X233098247Y-55527028D01*
X233098253Y-55527030D01*
X233380535Y-55583180D01*
X233380541Y-55583181D01*
X233384574Y-55583983D01*
X233388679Y-55584252D01*
X233388686Y-55584253D01*
X233675881Y-55603076D01*
X233680000Y-55603346D01*
X233684119Y-55603076D01*
X233971314Y-55584253D01*
X233971321Y-55584252D01*
X233975426Y-55583983D01*
X233979459Y-55583181D01*
X233979465Y-55583180D01*
X234261747Y-55527030D01*
X234261753Y-55527028D01*
X234265797Y-55526224D01*
X234269706Y-55524897D01*
X234269710Y-55524896D01*
X234542239Y-55432385D01*
X234542240Y-55432384D01*
X234546145Y-55431059D01*
X234671687Y-55369148D01*
X234807969Y-55301942D01*
X234807974Y-55301939D01*
X234811673Y-55300115D01*
X234870595Y-55260744D01*
X235054407Y-55137926D01*
X235054412Y-55137922D01*
X235057838Y-55135633D01*
X235060932Y-55132919D01*
X235060938Y-55132915D01*
X235277338Y-54943136D01*
X235280427Y-54940427D01*
X235283136Y-54937338D01*
X235472915Y-54720938D01*
X235472919Y-54720932D01*
X235475633Y-54717838D01*
X235640115Y-54471673D01*
X235771059Y-54206145D01*
X235866224Y-53925797D01*
X235923983Y-53635426D01*
X235943346Y-53340000D01*
X235923983Y-53044574D01*
X235866224Y-52754203D01*
X235771059Y-52473855D01*
X235640115Y-52208327D01*
X235475633Y-51962162D01*
X235472919Y-51959068D01*
X235472915Y-51959062D01*
X235283136Y-51742662D01*
X235280427Y-51739573D01*
X235277338Y-51736864D01*
X235060938Y-51547085D01*
X235060932Y-51547081D01*
X235057838Y-51544367D01*
X235054412Y-51542078D01*
X235054407Y-51542074D01*
X234815106Y-51382179D01*
X234811673Y-51379885D01*
X234807974Y-51378061D01*
X234807969Y-51378058D01*
X234671687Y-51310852D01*
X234546145Y-51248941D01*
X234542239Y-51247615D01*
X234269710Y-51155104D01*
X234269706Y-51155103D01*
X234265797Y-51153776D01*
X234261753Y-51152972D01*
X234261747Y-51152970D01*
X233979465Y-51096820D01*
X233979459Y-51096819D01*
X233975426Y-51096017D01*
X233971321Y-51095748D01*
X233971314Y-51095747D01*
X233684119Y-51076924D01*
X233680000Y-51076654D01*
X233675881Y-51076924D01*
X233388686Y-51095747D01*
X233388679Y-51095748D01*
X233384574Y-51096017D01*
X233380541Y-51096819D01*
X233380535Y-51096820D01*
X233098253Y-51152970D01*
X233098247Y-51152972D01*
X233094203Y-51153776D01*
X233090294Y-51155103D01*
X233090290Y-51155104D01*
X232817761Y-51247615D01*
X232813855Y-51248941D01*
X232688313Y-51310852D01*
X232552031Y-51378058D01*
X232552026Y-51378061D01*
X232548327Y-51379885D01*
X232544894Y-51382179D01*
X232305593Y-51542074D01*
X232305588Y-51542078D01*
X232302162Y-51544367D01*
X232299068Y-51547081D01*
X232299062Y-51547085D01*
X232082662Y-51736864D01*
X232079573Y-51739573D01*
X232076864Y-51742662D01*
X231887085Y-51959062D01*
X231887081Y-51959068D01*
X231884367Y-51962162D01*
X231719885Y-52208327D01*
X231588941Y-52473855D01*
X231493776Y-52754203D01*
X231436017Y-53044574D01*
X231416654Y-53340000D01*
X106403346Y-53340000D01*
X106383983Y-53044574D01*
X106326224Y-52754203D01*
X106231059Y-52473855D01*
X106100115Y-52208327D01*
X105935633Y-51962162D01*
X105932919Y-51959068D01*
X105932915Y-51959062D01*
X105743136Y-51742662D01*
X105740427Y-51739573D01*
X105737338Y-51736864D01*
X105520938Y-51547085D01*
X105520932Y-51547081D01*
X105517838Y-51544367D01*
X105514412Y-51542078D01*
X105514407Y-51542074D01*
X105275106Y-51382179D01*
X105271673Y-51379885D01*
X105267974Y-51378061D01*
X105267969Y-51378058D01*
X105131687Y-51310852D01*
X105006145Y-51248941D01*
X105002239Y-51247615D01*
X104729710Y-51155104D01*
X104729706Y-51155103D01*
X104725797Y-51153776D01*
X104721753Y-51152972D01*
X104721747Y-51152970D01*
X104439465Y-51096820D01*
X104439459Y-51096819D01*
X104435426Y-51096017D01*
X104431321Y-51095748D01*
X104431314Y-51095747D01*
X104144119Y-51076924D01*
X104140000Y-51076654D01*
X104135881Y-51076924D01*
X103848686Y-51095747D01*
X103848679Y-51095748D01*
X103844574Y-51096017D01*
X103840541Y-51096819D01*
X103840535Y-51096820D01*
X103558253Y-51152970D01*
X103558247Y-51152972D01*
X103554203Y-51153776D01*
X103550294Y-51155103D01*
X103550290Y-51155104D01*
X103277761Y-51247615D01*
X103273855Y-51248941D01*
X103148313Y-51310852D01*
X103012031Y-51378058D01*
X103012026Y-51378061D01*
X103008327Y-51379885D01*
X103004894Y-51382179D01*
X102765593Y-51542074D01*
X102765588Y-51542078D01*
X102762162Y-51544367D01*
X102759068Y-51547081D01*
X102759062Y-51547085D01*
X102542662Y-51736864D01*
X102539573Y-51739573D01*
X102536864Y-51742662D01*
X102347085Y-51959062D01*
X102347081Y-51959068D01*
X102344367Y-51962162D01*
X102179885Y-52208327D01*
X102048941Y-52473855D01*
X101953776Y-52754203D01*
X101896017Y-53044574D01*
X101876654Y-53340000D01*
X100508500Y-53340000D01*
X100508500Y-50634500D01*
X100528502Y-50566379D01*
X100582158Y-50519886D01*
X100634500Y-50508500D01*
X236665500Y-50508500D01*
X236733621Y-50528502D01*
G37*
G04 #@! TD.AperFunction*
M02*
