G04 #@! TF.GenerationSoftware,KiCad,Pcbnew,6.0.11*
G04 #@! TF.CreationDate,2023-05-03T19:55:58-07:00*
G04 #@! TF.ProjectId,ldrd,6c647264-2e6b-4696-9361-645f70636258,rev?*
G04 #@! TF.SameCoordinates,Original*
G04 #@! TF.FileFunction,Paste,Top*
G04 #@! TF.FilePolarity,Positive*
%FSLAX46Y46*%
G04 Gerber Fmt 4.6, Leading zero omitted, Abs format (unit mm)*
G04 Created by KiCad (PCBNEW 6.0.11) date 2023-05-03 19:55:58*
%MOMM*%
%LPD*%
G01*
G04 APERTURE LIST*
G04 Aperture macros list*
%AMRoundRect*
0 Rectangle with rounded corners*
0 $1 Rounding radius*
0 $2 $3 $4 $5 $6 $7 $8 $9 X,Y pos of 4 corners*
0 Add a 4 corners polygon primitive as box body*
4,1,4,$2,$3,$4,$5,$6,$7,$8,$9,$2,$3,0*
0 Add four circle primitives for the rounded corners*
1,1,$1+$1,$2,$3*
1,1,$1+$1,$4,$5*
1,1,$1+$1,$6,$7*
1,1,$1+$1,$8,$9*
0 Add four rect primitives between the rounded corners*
20,1,$1+$1,$2,$3,$4,$5,0*
20,1,$1+$1,$4,$5,$6,$7,0*
20,1,$1+$1,$6,$7,$8,$9,0*
20,1,$1+$1,$8,$9,$2,$3,0*%
%AMFreePoly0*
4,1,9,0.500000,-0.675000,-0.050000,-0.675000,-0.050000,-0.275000,-0.500000,-0.275000,-0.500000,0.275000,-0.050000,0.275000,-0.050000,0.525000,0.500000,0.525000,0.500000,-0.675000,0.500000,-0.675000,$1*%
%AMFreePoly1*
4,1,9,0.050000,0.275000,0.500000,0.275000,0.500000,-0.275000,0.050000,-0.275000,0.050000,-0.675000,-0.500000,-0.675000,-0.500000,0.525000,0.050000,0.525000,0.050000,0.275000,0.050000,0.275000,$1*%
G04 Aperture macros list end*
%ADD10RoundRect,0.250000X0.475000X-0.250000X0.475000X0.250000X-0.475000X0.250000X-0.475000X-0.250000X0*%
%ADD11RoundRect,0.225000X0.250000X-0.225000X0.250000X0.225000X-0.250000X0.225000X-0.250000X-0.225000X0*%
%ADD12FreePoly0,0.000000*%
%ADD13R,0.700000X1.200000*%
%ADD14R,0.450000X1.200000*%
%ADD15FreePoly1,0.000000*%
%ADD16RoundRect,0.200000X0.275000X-0.200000X0.275000X0.200000X-0.275000X0.200000X-0.275000X-0.200000X0*%
%ADD17RoundRect,0.200000X-0.275000X0.200000X-0.275000X-0.200000X0.275000X-0.200000X0.275000X0.200000X0*%
%ADD18RoundRect,0.150000X-0.512500X-0.150000X0.512500X-0.150000X0.512500X0.150000X-0.512500X0.150000X0*%
%ADD19RoundRect,0.150000X0.825000X0.150000X-0.825000X0.150000X-0.825000X-0.150000X0.825000X-0.150000X0*%
%ADD20R,0.700000X2.100000*%
%ADD21R,2.100000X0.700000*%
%ADD22R,2.000000X1.500000*%
%ADD23R,2.000000X3.800000*%
%ADD24R,1.150000X0.600000*%
%ADD25R,1.150000X0.300000*%
%ADD26R,0.650000X0.400000*%
G04 APERTURE END LIST*
D10*
X134930000Y-125870000D03*
X134930000Y-123970000D03*
D11*
X203682720Y-145695580D03*
X203682720Y-144145580D03*
D12*
X210000000Y-110000000D03*
D13*
X211350000Y-110075000D03*
D14*
X212375000Y-110075000D03*
D15*
X213600000Y-110000000D03*
D16*
X151699375Y-145745580D03*
X151699375Y-144095580D03*
D11*
X200685448Y-145695580D03*
X200685448Y-144145580D03*
D16*
X167465000Y-145745580D03*
X167465000Y-144095580D03*
X158005625Y-145745580D03*
X158005625Y-144095580D03*
D11*
X206680000Y-145695580D03*
X206680000Y-144145580D03*
X197688176Y-145695580D03*
X197688176Y-144145580D03*
D17*
X142240000Y-144095580D03*
X142240000Y-145745580D03*
D18*
X103002500Y-123510000D03*
X103002500Y-124460000D03*
X103002500Y-125410000D03*
X105277500Y-125410000D03*
X105277500Y-123510000D03*
D19*
X142765000Y-139065000D03*
X142765000Y-137795000D03*
X142765000Y-136525000D03*
X142765000Y-135255000D03*
X142765000Y-133985000D03*
X142765000Y-132715000D03*
X142765000Y-131445000D03*
X142765000Y-130175000D03*
X137815000Y-130175000D03*
X137815000Y-131445000D03*
X137815000Y-132715000D03*
X137815000Y-133985000D03*
X137815000Y-135255000D03*
X137815000Y-136525000D03*
X137815000Y-137795000D03*
X137815000Y-139065000D03*
D12*
X105000000Y-110000000D03*
D13*
X106350000Y-110075000D03*
D14*
X107375000Y-110075000D03*
D15*
X108600000Y-110000000D03*
D10*
X145090000Y-125870000D03*
X145090000Y-123970000D03*
D16*
X164311875Y-145745580D03*
X164311875Y-144095580D03*
D11*
X182701816Y-145695580D03*
X182701816Y-144145580D03*
D12*
X165000000Y-110000000D03*
D13*
X166350000Y-110075000D03*
D14*
X167375000Y-110075000D03*
D15*
X168600000Y-110000000D03*
D12*
X180000000Y-110000000D03*
D13*
X181350000Y-110075000D03*
D14*
X182375000Y-110075000D03*
D15*
X183600000Y-110000000D03*
D10*
X140010000Y-125870000D03*
X140010000Y-123970000D03*
D11*
X185699088Y-145695580D03*
X185699088Y-144145580D03*
X191693632Y-145695580D03*
X191693632Y-144145580D03*
D16*
X148546250Y-145745580D03*
X148546250Y-144095580D03*
X154852500Y-145745580D03*
X154852500Y-144095580D03*
X145393125Y-145745580D03*
X145393125Y-144095580D03*
D11*
X179704544Y-145695580D03*
X179704544Y-144145580D03*
X176707272Y-145695580D03*
X176707272Y-144145580D03*
D12*
X135000000Y-110000000D03*
D13*
X136350000Y-110075000D03*
D14*
X137375000Y-110075000D03*
D15*
X138600000Y-110000000D03*
D11*
X194690904Y-145695580D03*
X194690904Y-144145580D03*
D12*
X120000000Y-110000000D03*
D13*
X121350000Y-110075000D03*
D14*
X122375000Y-110075000D03*
D15*
X123600000Y-110000000D03*
D20*
X128557500Y-127820000D03*
X127557500Y-127820000D03*
X126557500Y-127820000D03*
X125557500Y-127820000D03*
X124557500Y-127820000D03*
X123557500Y-127820000D03*
X122557500Y-127820000D03*
X121557500Y-127820000D03*
X120557500Y-127820000D03*
X119557500Y-127820000D03*
X118557500Y-127820000D03*
X117557500Y-127820000D03*
X116557500Y-127820000D03*
X115557500Y-127820000D03*
X114557500Y-127820000D03*
D21*
X112757500Y-131120000D03*
X112757500Y-132120000D03*
X112757500Y-133120000D03*
X112757500Y-134120000D03*
X112757500Y-135120000D03*
X112757500Y-136120000D03*
X112757500Y-137120000D03*
X112757500Y-138120000D03*
D20*
X114557500Y-141420000D03*
X115557500Y-141420000D03*
X116557500Y-141420000D03*
X117557500Y-141420000D03*
X118557500Y-141420000D03*
X119557500Y-141420000D03*
X120557500Y-141420000D03*
X121557500Y-141420000D03*
X122557500Y-141420000D03*
X123557500Y-141420000D03*
X124557500Y-141420000D03*
X125557500Y-141420000D03*
X126557500Y-141420000D03*
X127557500Y-141420000D03*
X128557500Y-141420000D03*
D16*
X161158750Y-145745580D03*
X161158750Y-144095580D03*
D12*
X150000000Y-110000000D03*
D13*
X151350000Y-110075000D03*
D14*
X152375000Y-110075000D03*
D15*
X153600000Y-110000000D03*
D22*
X154940000Y-132560000D03*
X154940000Y-134860000D03*
D23*
X161240000Y-134860000D03*
D22*
X154940000Y-137160000D03*
D12*
X195000000Y-110000000D03*
D13*
X196350000Y-110075000D03*
D14*
X197375000Y-110075000D03*
D15*
X198600000Y-110000000D03*
D11*
X173710000Y-145695580D03*
X173710000Y-144145580D03*
X188696360Y-145695580D03*
X188696360Y-144145580D03*
D24*
X107360000Y-131920000D03*
X107360000Y-132720000D03*
D25*
X107360000Y-133870000D03*
X107360000Y-134870000D03*
X107360000Y-135370000D03*
X107360000Y-136370000D03*
D24*
X107360000Y-137520000D03*
X107360000Y-138320000D03*
D25*
X107360000Y-136870000D03*
X107360000Y-135870000D03*
X107360000Y-134370000D03*
X107360000Y-133370000D03*
D26*
X133670000Y-144130000D03*
X133670000Y-144780000D03*
X133670000Y-145430000D03*
X135570000Y-145430000D03*
X135570000Y-144780000D03*
X135570000Y-144130000D03*
M02*
