G04 #@! TF.GenerationSoftware,KiCad,Pcbnew,6.0.11*
G04 #@! TF.CreationDate,2023-05-03T19:55:58-07:00*
G04 #@! TF.ProjectId,ldrd,6c647264-2e6b-4696-9361-645f70636258,rev?*
G04 #@! TF.SameCoordinates,Original*
G04 #@! TF.FileFunction,Legend,Bot*
G04 #@! TF.FilePolarity,Positive*
%FSLAX46Y46*%
G04 Gerber Fmt 4.6, Leading zero omitted, Abs format (unit mm)*
G04 Created by KiCad (PCBNEW 6.0.11) date 2023-05-03 19:55:58*
%MOMM*%
%LPD*%
G01*
G04 APERTURE LIST*
%ADD10C,0.300000*%
%ADD11C,0.150000*%
%ADD12C,0.120000*%
%ADD13C,3.500000*%
%ADD14R,2.000000X2.000000*%
%ADD15C,2.000000*%
%ADD16R,3.200000X2.000000*%
%ADD17R,1.800000X1.800000*%
%ADD18C,1.800000*%
%ADD19R,1.700000X1.700000*%
%ADD20O,1.700000X1.700000*%
%ADD21C,0.650000*%
%ADD22O,1.600000X1.000000*%
%ADD23O,2.100000X1.000000*%
G04 APERTURE END LIST*
D10*
X138362142Y-70555726D02*
X138505000Y-70484297D01*
X138719285Y-70484297D01*
X138933571Y-70555726D01*
X139076428Y-70698583D01*
X139147857Y-70841440D01*
X139219285Y-71127154D01*
X139219285Y-71341440D01*
X139147857Y-71627154D01*
X139076428Y-71770011D01*
X138933571Y-71912868D01*
X138719285Y-71984297D01*
X138576428Y-71984297D01*
X138362142Y-71912868D01*
X138290714Y-71841440D01*
X138290714Y-71341440D01*
X138576428Y-71341440D01*
X137647857Y-71984297D02*
X137647857Y-70484297D01*
X136790714Y-71984297D01*
X136790714Y-70484297D01*
X136076428Y-71984297D02*
X136076428Y-70484297D01*
X135719285Y-70484297D01*
X135505000Y-70555726D01*
X135362142Y-70698583D01*
X135290714Y-70841440D01*
X135219285Y-71127154D01*
X135219285Y-71341440D01*
X135290714Y-71627154D01*
X135362142Y-71770011D01*
X135505000Y-71912868D01*
X135719285Y-71984297D01*
X136076428Y-71984297D01*
X138433571Y-72899297D02*
X139147857Y-72899297D01*
X139219285Y-73613583D01*
X139147857Y-73542154D01*
X139005000Y-73470726D01*
X138647857Y-73470726D01*
X138505000Y-73542154D01*
X138433571Y-73613583D01*
X138362142Y-73756440D01*
X138362142Y-74113583D01*
X138433571Y-74256440D01*
X138505000Y-74327868D01*
X138647857Y-74399297D01*
X139005000Y-74399297D01*
X139147857Y-74327868D01*
X139219285Y-74256440D01*
X137933571Y-72899297D02*
X137433571Y-74399297D01*
X136933571Y-72899297D01*
X139219285Y-76742868D02*
X139005000Y-76814297D01*
X138647857Y-76814297D01*
X138505000Y-76742868D01*
X138433571Y-76671440D01*
X138362142Y-76528583D01*
X138362142Y-76385726D01*
X138433571Y-76242868D01*
X138505000Y-76171440D01*
X138647857Y-76100011D01*
X138933571Y-76028583D01*
X139076428Y-75957154D01*
X139147857Y-75885726D01*
X139219285Y-75742868D01*
X139219285Y-75600011D01*
X139147857Y-75457154D01*
X139076428Y-75385726D01*
X138933571Y-75314297D01*
X138576428Y-75314297D01*
X138362142Y-75385726D01*
X137719285Y-76814297D02*
X137719285Y-75314297D01*
X137362142Y-75314297D01*
X137147857Y-75385726D01*
X137005000Y-75528583D01*
X136933571Y-75671440D01*
X136862142Y-75957154D01*
X136862142Y-76171440D01*
X136933571Y-76457154D01*
X137005000Y-76600011D01*
X137147857Y-76742868D01*
X137362142Y-76814297D01*
X137719285Y-76814297D01*
X136290714Y-76385726D02*
X135576428Y-76385726D01*
X136433571Y-76814297D02*
X135933571Y-75314297D01*
X135433571Y-76814297D01*
X139219285Y-79157868D02*
X139005000Y-79229297D01*
X138647857Y-79229297D01*
X138505000Y-79157868D01*
X138433571Y-79086440D01*
X138362142Y-78943583D01*
X138362142Y-78800726D01*
X138433571Y-78657868D01*
X138505000Y-78586440D01*
X138647857Y-78515011D01*
X138933571Y-78443583D01*
X139076428Y-78372154D01*
X139147857Y-78300726D01*
X139219285Y-78157868D01*
X139219285Y-78015011D01*
X139147857Y-77872154D01*
X139076428Y-77800726D01*
X138933571Y-77729297D01*
X138576428Y-77729297D01*
X138362142Y-77800726D01*
X136862142Y-79086440D02*
X136933571Y-79157868D01*
X137147857Y-79229297D01*
X137290714Y-79229297D01*
X137505000Y-79157868D01*
X137647857Y-79015011D01*
X137719285Y-78872154D01*
X137790714Y-78586440D01*
X137790714Y-78372154D01*
X137719285Y-78086440D01*
X137647857Y-77943583D01*
X137505000Y-77800726D01*
X137290714Y-77729297D01*
X137147857Y-77729297D01*
X136933571Y-77800726D01*
X136862142Y-77872154D01*
X135505000Y-79229297D02*
X136219285Y-79229297D01*
X136219285Y-77729297D01*
D11*
X115242380Y-146986666D02*
X115956666Y-146986666D01*
X116099523Y-146939047D01*
X116194761Y-146843809D01*
X116242380Y-146700952D01*
X116242380Y-146605714D01*
X115337619Y-147415238D02*
X115290000Y-147462857D01*
X115242380Y-147558095D01*
X115242380Y-147796190D01*
X115290000Y-147891428D01*
X115337619Y-147939047D01*
X115432857Y-147986666D01*
X115528095Y-147986666D01*
X115670952Y-147939047D01*
X116242380Y-147367619D01*
X116242380Y-147986666D01*
D12*
X142100000Y-124460000D02*
G75*
G03*
X142100000Y-124460000I-1200000J0D01*
G01*
X157340000Y-124460000D02*
G75*
G03*
X157340000Y-124460000I-1200000J0D01*
G01*
X157340000Y-134620000D02*
G75*
G03*
X157340000Y-134620000I-1200000J0D01*
G01*
X142100000Y-134620000D02*
G75*
G03*
X142100000Y-134620000I-1200000J0D01*
G01*
X142100000Y-129400000D02*
G75*
G03*
X142100000Y-129400000I-1200000J0D01*
G01*
X149720000Y-134620000D02*
G75*
G03*
X149720000Y-134620000I-1200000J0D01*
G01*
X149720000Y-139700000D02*
G75*
G03*
X149720000Y-139700000I-1200000J0D01*
G01*
X157340000Y-129540000D02*
G75*
G03*
X157340000Y-129540000I-1200000J0D01*
G01*
X149720000Y-129540000D02*
G75*
G03*
X149720000Y-129540000I-1200000J0D01*
G01*
X116790000Y-145990000D02*
X116790000Y-147320000D01*
X118120000Y-145990000D02*
X116790000Y-145990000D01*
X119390000Y-148650000D02*
X127070000Y-148650000D01*
X119390000Y-145990000D02*
X119390000Y-148650000D01*
X119390000Y-145990000D02*
X127070000Y-145990000D01*
X127070000Y-145990000D02*
X127070000Y-148650000D01*
X149720000Y-124460000D02*
G75*
G03*
X149720000Y-124460000I-1200000J0D01*
G01*
%LPC*%
D13*
X106200000Y-97040000D03*
X233680000Y-53340000D03*
X233680000Y-146530000D03*
D14*
X215980000Y-130000000D03*
D15*
X215980000Y-135000000D03*
X215980000Y-132500000D03*
D16*
X223480000Y-126900000D03*
X223480000Y-138100000D03*
D15*
X230480000Y-135000000D03*
X230480000Y-130000000D03*
D13*
X181200000Y-66040000D03*
D15*
X230020000Y-114590000D03*
X223520000Y-114590000D03*
X223520000Y-119090000D03*
X230020000Y-119090000D03*
D13*
X181200000Y-97040000D03*
X106200000Y-66040000D03*
D17*
X227335000Y-103535000D03*
D18*
X224795000Y-103535000D03*
D13*
X104140000Y-53340000D03*
X104160000Y-146290000D03*
D19*
X132080000Y-71120000D03*
D20*
X132080000Y-73660000D03*
X132080000Y-76200000D03*
X132080000Y-78740000D03*
D21*
X106385000Y-138010000D03*
X106385000Y-132230000D03*
D22*
X102735000Y-139440000D03*
X102735000Y-130800000D03*
D23*
X106885000Y-130800000D03*
X106885000Y-139440000D03*
D15*
X140900000Y-124460000D03*
X156140000Y-124460000D03*
X156140000Y-134620000D03*
X140900000Y-134620000D03*
X140900000Y-129400000D03*
X148520000Y-134620000D03*
X148520000Y-139700000D03*
X156140000Y-129540000D03*
X148520000Y-129540000D03*
D19*
X118120000Y-147320000D03*
D20*
X120660000Y-147320000D03*
X123200000Y-147320000D03*
X125740000Y-147320000D03*
D15*
X148520000Y-124460000D03*
M02*
