G04 #@! TF.GenerationSoftware,KiCad,Pcbnew,6.0.11*
G04 #@! TF.CreationDate,2023-05-03T19:55:58-07:00*
G04 #@! TF.ProjectId,ldrd,6c647264-2e6b-4696-9361-645f70636258,rev?*
G04 #@! TF.SameCoordinates,Original*
G04 #@! TF.FileFunction,Legend,Top*
G04 #@! TF.FilePolarity,Positive*
%FSLAX46Y46*%
G04 Gerber Fmt 4.6, Leading zero omitted, Abs format (unit mm)*
G04 Created by KiCad (PCBNEW 6.0.11) date 2023-05-03 19:55:58*
%MOMM*%
%LPD*%
G01*
G04 APERTURE LIST*
G04 Aperture macros list*
%AMRoundRect*
0 Rectangle with rounded corners*
0 $1 Rounding radius*
0 $2 $3 $4 $5 $6 $7 $8 $9 X,Y pos of 4 corners*
0 Add a 4 corners polygon primitive as box body*
4,1,4,$2,$3,$4,$5,$6,$7,$8,$9,$2,$3,0*
0 Add four circle primitives for the rounded corners*
1,1,$1+$1,$2,$3*
1,1,$1+$1,$4,$5*
1,1,$1+$1,$6,$7*
1,1,$1+$1,$8,$9*
0 Add four rect primitives between the rounded corners*
20,1,$1+$1,$2,$3,$4,$5,0*
20,1,$1+$1,$4,$5,$6,$7,0*
20,1,$1+$1,$6,$7,$8,$9,0*
20,1,$1+$1,$8,$9,$2,$3,0*%
%AMFreePoly0*
4,1,9,0.500000,-0.675000,-0.050000,-0.675000,-0.050000,-0.275000,-0.500000,-0.275000,-0.500000,0.275000,-0.050000,0.275000,-0.050000,0.525000,0.500000,0.525000,0.500000,-0.675000,0.500000,-0.675000,$1*%
%AMFreePoly1*
4,1,9,0.050000,0.275000,0.500000,0.275000,0.500000,-0.275000,0.050000,-0.275000,0.050000,-0.675000,-0.500000,-0.675000,-0.500000,0.525000,0.050000,0.525000,0.050000,0.275000,0.050000,0.275000,$1*%
G04 Aperture macros list end*
%ADD10C,0.200000*%
%ADD11C,0.300000*%
%ADD12C,1.000000*%
%ADD13C,0.150000*%
%ADD14C,0.120000*%
%ADD15C,0.100000*%
%ADD16C,3.500000*%
%ADD17RoundRect,0.250000X0.475000X-0.250000X0.475000X0.250000X-0.475000X0.250000X-0.475000X-0.250000X0*%
%ADD18RoundRect,0.225000X0.250000X-0.225000X0.250000X0.225000X-0.250000X0.225000X-0.250000X-0.225000X0*%
%ADD19FreePoly0,0.000000*%
%ADD20R,0.700000X1.200000*%
%ADD21R,0.450000X1.200000*%
%ADD22FreePoly1,0.000000*%
%ADD23RoundRect,0.200000X0.275000X-0.200000X0.275000X0.200000X-0.275000X0.200000X-0.275000X-0.200000X0*%
%ADD24RoundRect,0.200000X-0.275000X0.200000X-0.275000X-0.200000X0.275000X-0.200000X0.275000X0.200000X0*%
%ADD25R,2.000000X2.000000*%
%ADD26C,2.000000*%
%ADD27R,3.200000X2.000000*%
%ADD28RoundRect,0.150000X-0.512500X-0.150000X0.512500X-0.150000X0.512500X0.150000X-0.512500X0.150000X0*%
%ADD29RoundRect,0.150000X0.825000X0.150000X-0.825000X0.150000X-0.825000X-0.150000X0.825000X-0.150000X0*%
%ADD30R,1.800000X1.800000*%
%ADD31C,1.800000*%
%ADD32R,0.700000X2.100000*%
%ADD33R,2.100000X0.700000*%
%ADD34R,2.000000X1.500000*%
%ADD35R,2.000000X3.800000*%
%ADD36R,1.700000X1.700000*%
%ADD37O,1.700000X1.700000*%
%ADD38C,0.650000*%
%ADD39R,1.150000X0.600000*%
%ADD40R,1.150000X0.300000*%
%ADD41O,1.600000X1.000000*%
%ADD42O,2.100000X1.000000*%
%ADD43R,0.650000X0.400000*%
G04 APERTURE END LIST*
D10*
X105000000Y-120000000D02*
X215000000Y-120000000D01*
D11*
X152737857Y-122431071D02*
X153595000Y-122431071D01*
X153166428Y-123931071D02*
X153166428Y-122431071D01*
X154309285Y-123931071D02*
X154166428Y-123859642D01*
X154095000Y-123788214D01*
X154023571Y-123645357D01*
X154023571Y-123216785D01*
X154095000Y-123073928D01*
X154166428Y-123002500D01*
X154309285Y-122931071D01*
X154523571Y-122931071D01*
X154666428Y-123002500D01*
X154737857Y-123073928D01*
X154809285Y-123216785D01*
X154809285Y-123645357D01*
X154737857Y-123788214D01*
X154666428Y-123859642D01*
X154523571Y-123931071D01*
X154309285Y-123931071D01*
X155452142Y-123788214D02*
X155523571Y-123859642D01*
X155452142Y-123931071D01*
X155380714Y-123859642D01*
X155452142Y-123788214D01*
X155452142Y-123931071D01*
X155452142Y-123002500D02*
X155523571Y-123073928D01*
X155452142Y-123145357D01*
X155380714Y-123073928D01*
X155452142Y-123002500D01*
X155452142Y-123145357D01*
X157309285Y-123931071D02*
X157309285Y-122431071D01*
X157809285Y-123502500D01*
X158309285Y-122431071D01*
X158309285Y-123931071D01*
X159666428Y-123931071D02*
X159666428Y-123145357D01*
X159595000Y-123002500D01*
X159452142Y-122931071D01*
X159166428Y-122931071D01*
X159023571Y-123002500D01*
X159666428Y-123859642D02*
X159523571Y-123931071D01*
X159166428Y-123931071D01*
X159023571Y-123859642D01*
X158952142Y-123716785D01*
X158952142Y-123573928D01*
X159023571Y-123431071D01*
X159166428Y-123359642D01*
X159523571Y-123359642D01*
X159666428Y-123288214D01*
X160380714Y-123931071D02*
X160380714Y-122931071D01*
X160380714Y-123216785D02*
X160452142Y-123073928D01*
X160523571Y-123002500D01*
X160666428Y-122931071D01*
X160809285Y-122931071D01*
X161309285Y-123931071D02*
X161309285Y-122931071D01*
X161309285Y-122431071D02*
X161237857Y-122502500D01*
X161309285Y-122573928D01*
X161380714Y-122502500D01*
X161309285Y-122431071D01*
X161309285Y-122573928D01*
X162666428Y-123931071D02*
X162666428Y-123145357D01*
X162595000Y-123002500D01*
X162452142Y-122931071D01*
X162166428Y-122931071D01*
X162023571Y-123002500D01*
X162666428Y-123859642D02*
X162523571Y-123931071D01*
X162166428Y-123931071D01*
X162023571Y-123859642D01*
X161952142Y-123716785D01*
X161952142Y-123573928D01*
X162023571Y-123431071D01*
X162166428Y-123359642D01*
X162523571Y-123359642D01*
X162666428Y-123288214D01*
X163380714Y-122931071D02*
X163380714Y-123931071D01*
X163380714Y-123073928D02*
X163452142Y-123002500D01*
X163595000Y-122931071D01*
X163809285Y-122931071D01*
X163952142Y-123002500D01*
X164023571Y-123145357D01*
X164023571Y-123931071D01*
X164737857Y-123931071D02*
X164737857Y-122931071D01*
X164737857Y-122431071D02*
X164666428Y-122502500D01*
X164737857Y-122573928D01*
X164809285Y-122502500D01*
X164737857Y-122431071D01*
X164737857Y-122573928D01*
X166023571Y-123859642D02*
X165880714Y-123931071D01*
X165595000Y-123931071D01*
X165452142Y-123859642D01*
X165380714Y-123716785D01*
X165380714Y-123145357D01*
X165452142Y-123002500D01*
X165595000Y-122931071D01*
X165880714Y-122931071D01*
X166023571Y-123002500D01*
X166095000Y-123145357D01*
X166095000Y-123288214D01*
X165380714Y-123431071D01*
X153452142Y-125560357D02*
X152952142Y-125560357D01*
X152952142Y-126346071D02*
X152952142Y-124846071D01*
X153666428Y-124846071D01*
X154237857Y-126346071D02*
X154237857Y-125346071D01*
X154237857Y-125631785D02*
X154309285Y-125488928D01*
X154380714Y-125417500D01*
X154523571Y-125346071D01*
X154666428Y-125346071D01*
X155380714Y-126346071D02*
X155237857Y-126274642D01*
X155166428Y-126203214D01*
X155095000Y-126060357D01*
X155095000Y-125631785D01*
X155166428Y-125488928D01*
X155237857Y-125417500D01*
X155380714Y-125346071D01*
X155595000Y-125346071D01*
X155737857Y-125417500D01*
X155809285Y-125488928D01*
X155880714Y-125631785D01*
X155880714Y-126060357D01*
X155809285Y-126203214D01*
X155737857Y-126274642D01*
X155595000Y-126346071D01*
X155380714Y-126346071D01*
X156523571Y-126346071D02*
X156523571Y-125346071D01*
X156523571Y-125488928D02*
X156595000Y-125417500D01*
X156737857Y-125346071D01*
X156952142Y-125346071D01*
X157095000Y-125417500D01*
X157166428Y-125560357D01*
X157166428Y-126346071D01*
X157166428Y-125560357D02*
X157237857Y-125417500D01*
X157380714Y-125346071D01*
X157595000Y-125346071D01*
X157737857Y-125417500D01*
X157809285Y-125560357D01*
X157809285Y-126346071D01*
X158523571Y-126203214D02*
X158595000Y-126274642D01*
X158523571Y-126346071D01*
X158452142Y-126274642D01*
X158523571Y-126203214D01*
X158523571Y-126346071D01*
X158523571Y-125417500D02*
X158595000Y-125488928D01*
X158523571Y-125560357D01*
X158452142Y-125488928D01*
X158523571Y-125417500D01*
X158523571Y-125560357D01*
X160237857Y-124846071D02*
X161237857Y-124846071D01*
X160237857Y-126346071D01*
X161237857Y-126346071D01*
X161809285Y-126346071D02*
X161809285Y-125346071D01*
X161809285Y-124846071D02*
X161737857Y-124917500D01*
X161809285Y-124988928D01*
X161880714Y-124917500D01*
X161809285Y-124846071D01*
X161809285Y-124988928D01*
X162380714Y-125346071D02*
X162737857Y-126346071D01*
X163095000Y-125346071D02*
X162737857Y-126346071D01*
X162595000Y-126703214D01*
X162523571Y-126774642D01*
X162380714Y-126846071D01*
X164309285Y-126346071D02*
X164309285Y-125560357D01*
X164237857Y-125417500D01*
X164095000Y-125346071D01*
X163809285Y-125346071D01*
X163666428Y-125417500D01*
X164309285Y-126274642D02*
X164166428Y-126346071D01*
X163809285Y-126346071D01*
X163666428Y-126274642D01*
X163595000Y-126131785D01*
X163595000Y-125988928D01*
X163666428Y-125846071D01*
X163809285Y-125774642D01*
X164166428Y-125774642D01*
X164309285Y-125703214D01*
X165666428Y-126346071D02*
X165666428Y-124846071D01*
X165666428Y-126274642D02*
X165523571Y-126346071D01*
X165237857Y-126346071D01*
X165095000Y-126274642D01*
X165023571Y-126203214D01*
X164952142Y-126060357D01*
X164952142Y-125631785D01*
X165023571Y-125488928D01*
X165095000Y-125417500D01*
X165237857Y-125346071D01*
X165523571Y-125346071D01*
X165666428Y-125417500D01*
X166380714Y-126346071D02*
X166380714Y-125346071D01*
X166380714Y-124846071D02*
X166309285Y-124917500D01*
X166380714Y-124988928D01*
X166452142Y-124917500D01*
X166380714Y-124846071D01*
X166380714Y-124988928D01*
X167095000Y-126346071D02*
X167095000Y-124846071D01*
X167237857Y-125774642D02*
X167666428Y-126346071D01*
X167666428Y-125346071D02*
X167095000Y-125917500D01*
X163392857Y-114178571D02*
X164321428Y-114178571D01*
X163821428Y-114750000D01*
X164035714Y-114750000D01*
X164178571Y-114821428D01*
X164250000Y-114892857D01*
X164321428Y-115035714D01*
X164321428Y-115392857D01*
X164250000Y-115535714D01*
X164178571Y-115607142D01*
X164035714Y-115678571D01*
X163607142Y-115678571D01*
X163464285Y-115607142D01*
X163392857Y-115535714D01*
X166750000Y-115678571D02*
X166750000Y-114178571D01*
X166750000Y-115607142D02*
X166607142Y-115678571D01*
X166321428Y-115678571D01*
X166178571Y-115607142D01*
X166107142Y-115535714D01*
X166035714Y-115392857D01*
X166035714Y-114964285D01*
X166107142Y-114821428D01*
X166178571Y-114750000D01*
X166321428Y-114678571D01*
X166607142Y-114678571D01*
X166750000Y-114750000D01*
X168107142Y-115678571D02*
X168107142Y-114892857D01*
X168035714Y-114750000D01*
X167892857Y-114678571D01*
X167607142Y-114678571D01*
X167464285Y-114750000D01*
X168107142Y-115607142D02*
X167964285Y-115678571D01*
X167607142Y-115678571D01*
X167464285Y-115607142D01*
X167392857Y-115464285D01*
X167392857Y-115321428D01*
X167464285Y-115178571D01*
X167607142Y-115107142D01*
X167964285Y-115107142D01*
X168107142Y-115035714D01*
X168678571Y-114678571D02*
X169035714Y-115678571D01*
X169392857Y-114678571D02*
X169035714Y-115678571D01*
X168892857Y-116035714D01*
X168821428Y-116107142D01*
X168678571Y-116178571D01*
X169892857Y-115607142D02*
X170035714Y-115678571D01*
X170321428Y-115678571D01*
X170464285Y-115607142D01*
X170535714Y-115464285D01*
X170535714Y-115392857D01*
X170464285Y-115250000D01*
X170321428Y-115178571D01*
X170107142Y-115178571D01*
X169964285Y-115107142D01*
X169892857Y-114964285D01*
X169892857Y-114892857D01*
X169964285Y-114750000D01*
X170107142Y-114678571D01*
X170321428Y-114678571D01*
X170464285Y-114750000D01*
X209357142Y-115678571D02*
X208500000Y-115678571D01*
X208928571Y-115678571D02*
X208928571Y-114178571D01*
X208785714Y-114392857D01*
X208642857Y-114535714D01*
X208500000Y-114607142D01*
X211142857Y-115678571D02*
X211142857Y-114178571D01*
X211785714Y-115678571D02*
X211785714Y-114892857D01*
X211714285Y-114750000D01*
X211571428Y-114678571D01*
X211357142Y-114678571D01*
X211214285Y-114750000D01*
X211142857Y-114821428D01*
X212714285Y-115678571D02*
X212571428Y-115607142D01*
X212500000Y-115535714D01*
X212428571Y-115392857D01*
X212428571Y-114964285D01*
X212500000Y-114821428D01*
X212571428Y-114750000D01*
X212714285Y-114678571D01*
X212928571Y-114678571D01*
X213071428Y-114750000D01*
X213142857Y-114821428D01*
X213214285Y-114964285D01*
X213214285Y-115392857D01*
X213142857Y-115535714D01*
X213071428Y-115607142D01*
X212928571Y-115678571D01*
X212714285Y-115678571D01*
X214500000Y-114678571D02*
X214500000Y-115678571D01*
X213857142Y-114678571D02*
X213857142Y-115464285D01*
X213928571Y-115607142D01*
X214071428Y-115678571D01*
X214285714Y-115678571D01*
X214428571Y-115607142D01*
X214500000Y-115535714D01*
X215214285Y-115678571D02*
X215214285Y-114678571D01*
X215214285Y-114964285D02*
X215285714Y-114821428D01*
X215357142Y-114750000D01*
X215500000Y-114678571D01*
X215642857Y-114678571D01*
X179928571Y-115678571D02*
X179071428Y-115678571D01*
X179500000Y-115678571D02*
X179500000Y-114178571D01*
X179357142Y-114392857D01*
X179214285Y-114535714D01*
X179071428Y-114607142D01*
X182357142Y-115678571D02*
X182357142Y-114178571D01*
X182357142Y-115607142D02*
X182214285Y-115678571D01*
X181928571Y-115678571D01*
X181785714Y-115607142D01*
X181714285Y-115535714D01*
X181642857Y-115392857D01*
X181642857Y-114964285D01*
X181714285Y-114821428D01*
X181785714Y-114750000D01*
X181928571Y-114678571D01*
X182214285Y-114678571D01*
X182357142Y-114750000D01*
X183714285Y-115678571D02*
X183714285Y-114892857D01*
X183642857Y-114750000D01*
X183500000Y-114678571D01*
X183214285Y-114678571D01*
X183071428Y-114750000D01*
X183714285Y-115607142D02*
X183571428Y-115678571D01*
X183214285Y-115678571D01*
X183071428Y-115607142D01*
X183000000Y-115464285D01*
X183000000Y-115321428D01*
X183071428Y-115178571D01*
X183214285Y-115107142D01*
X183571428Y-115107142D01*
X183714285Y-115035714D01*
X184285714Y-114678571D02*
X184642857Y-115678571D01*
X185000000Y-114678571D02*
X184642857Y-115678571D01*
X184500000Y-116035714D01*
X184428571Y-116107142D01*
X184285714Y-116178571D01*
X143744285Y-87038571D02*
X143030000Y-87038571D01*
X143030000Y-85538571D01*
X145101428Y-86895714D02*
X145030000Y-86967142D01*
X144815714Y-87038571D01*
X144672857Y-87038571D01*
X144458571Y-86967142D01*
X144315714Y-86824285D01*
X144244285Y-86681428D01*
X144172857Y-86395714D01*
X144172857Y-86181428D01*
X144244285Y-85895714D01*
X144315714Y-85752857D01*
X144458571Y-85610000D01*
X144672857Y-85538571D01*
X144815714Y-85538571D01*
X145030000Y-85610000D01*
X145101428Y-85681428D01*
X145744285Y-87038571D02*
X145744285Y-85538571D01*
X146101428Y-85538571D01*
X146315714Y-85610000D01*
X146458571Y-85752857D01*
X146530000Y-85895714D01*
X146601428Y-86181428D01*
X146601428Y-86395714D01*
X146530000Y-86681428D01*
X146458571Y-86824285D01*
X146315714Y-86967142D01*
X146101428Y-87038571D01*
X145744285Y-87038571D01*
D12*
X191136190Y-68301904D02*
X188755238Y-68301904D01*
X188755238Y-63301904D01*
X192802857Y-67825714D02*
X193040952Y-68063809D01*
X192802857Y-68301904D01*
X192564761Y-68063809D01*
X192802857Y-67825714D01*
X192802857Y-68301904D01*
X195183809Y-68301904D02*
X195183809Y-63301904D01*
X196374285Y-63301904D01*
X197088571Y-63540000D01*
X197564761Y-64016190D01*
X197802857Y-64492380D01*
X198040952Y-65444761D01*
X198040952Y-66159047D01*
X197802857Y-67111428D01*
X197564761Y-67587619D01*
X197088571Y-68063809D01*
X196374285Y-68301904D01*
X195183809Y-68301904D01*
X200183809Y-67825714D02*
X200421904Y-68063809D01*
X200183809Y-68301904D01*
X199945714Y-68063809D01*
X200183809Y-67825714D01*
X200183809Y-68301904D01*
X205421904Y-68301904D02*
X203755238Y-65920952D01*
X202564761Y-68301904D02*
X202564761Y-63301904D01*
X204469523Y-63301904D01*
X204945714Y-63540000D01*
X205183809Y-63778095D01*
X205421904Y-64254285D01*
X205421904Y-64968571D01*
X205183809Y-65444761D01*
X204945714Y-65682857D01*
X204469523Y-65920952D01*
X202564761Y-65920952D01*
X207564761Y-67825714D02*
X207802857Y-68063809D01*
X207564761Y-68301904D01*
X207326666Y-68063809D01*
X207564761Y-67825714D01*
X207564761Y-68301904D01*
X209945714Y-68301904D02*
X209945714Y-63301904D01*
X211136190Y-63301904D01*
X211850476Y-63540000D01*
X212326666Y-64016190D01*
X212564761Y-64492380D01*
X212802857Y-65444761D01*
X212802857Y-66159047D01*
X212564761Y-67111428D01*
X212326666Y-67587619D01*
X211850476Y-68063809D01*
X211136190Y-68301904D01*
X209945714Y-68301904D01*
D11*
X101857142Y-114178571D02*
X102785714Y-114178571D01*
X102285714Y-114750000D01*
X102500000Y-114750000D01*
X102642857Y-114821428D01*
X102714285Y-114892857D01*
X102785714Y-115035714D01*
X102785714Y-115392857D01*
X102714285Y-115535714D01*
X102642857Y-115607142D01*
X102500000Y-115678571D01*
X102071428Y-115678571D01*
X101928571Y-115607142D01*
X101857142Y-115535714D01*
X104571428Y-115678571D02*
X104571428Y-114678571D01*
X104571428Y-114821428D02*
X104642857Y-114750000D01*
X104785714Y-114678571D01*
X105000000Y-114678571D01*
X105142857Y-114750000D01*
X105214285Y-114892857D01*
X105214285Y-115678571D01*
X105214285Y-114892857D02*
X105285714Y-114750000D01*
X105428571Y-114678571D01*
X105642857Y-114678571D01*
X105785714Y-114750000D01*
X105857142Y-114892857D01*
X105857142Y-115678571D01*
X106785714Y-115678571D02*
X106642857Y-115607142D01*
X106571428Y-115535714D01*
X106500000Y-115392857D01*
X106500000Y-114964285D01*
X106571428Y-114821428D01*
X106642857Y-114750000D01*
X106785714Y-114678571D01*
X107000000Y-114678571D01*
X107142857Y-114750000D01*
X107214285Y-114821428D01*
X107285714Y-114964285D01*
X107285714Y-115392857D01*
X107214285Y-115535714D01*
X107142857Y-115607142D01*
X107000000Y-115678571D01*
X106785714Y-115678571D01*
X107928571Y-114678571D02*
X107928571Y-115678571D01*
X107928571Y-114821428D02*
X108000000Y-114750000D01*
X108142857Y-114678571D01*
X108357142Y-114678571D01*
X108500000Y-114750000D01*
X108571428Y-114892857D01*
X108571428Y-115678571D01*
X109071428Y-114678571D02*
X109642857Y-114678571D01*
X109285714Y-114178571D02*
X109285714Y-115464285D01*
X109357142Y-115607142D01*
X109500000Y-115678571D01*
X109642857Y-115678571D01*
X110142857Y-115678571D02*
X110142857Y-114178571D01*
X110785714Y-115678571D02*
X110785714Y-114892857D01*
X110714285Y-114750000D01*
X110571428Y-114678571D01*
X110357142Y-114678571D01*
X110214285Y-114750000D01*
X110142857Y-114821428D01*
X111428571Y-115607142D02*
X111571428Y-115678571D01*
X111857142Y-115678571D01*
X112000000Y-115607142D01*
X112071428Y-115464285D01*
X112071428Y-115392857D01*
X112000000Y-115250000D01*
X111857142Y-115178571D01*
X111642857Y-115178571D01*
X111500000Y-115107142D01*
X111428571Y-114964285D01*
X111428571Y-114892857D01*
X111500000Y-114750000D01*
X111642857Y-114678571D01*
X111857142Y-114678571D01*
X112000000Y-114750000D01*
X132642857Y-114178571D02*
X133571428Y-114178571D01*
X133071428Y-114750000D01*
X133285714Y-114750000D01*
X133428571Y-114821428D01*
X133500000Y-114892857D01*
X133571428Y-115035714D01*
X133571428Y-115392857D01*
X133500000Y-115535714D01*
X133428571Y-115607142D01*
X133285714Y-115678571D01*
X132857142Y-115678571D01*
X132714285Y-115607142D01*
X132642857Y-115535714D01*
X135214285Y-114678571D02*
X135500000Y-115678571D01*
X135785714Y-114964285D01*
X136071428Y-115678571D01*
X136357142Y-114678571D01*
X137500000Y-115607142D02*
X137357142Y-115678571D01*
X137071428Y-115678571D01*
X136928571Y-115607142D01*
X136857142Y-115464285D01*
X136857142Y-114892857D01*
X136928571Y-114750000D01*
X137071428Y-114678571D01*
X137357142Y-114678571D01*
X137500000Y-114750000D01*
X137571428Y-114892857D01*
X137571428Y-115035714D01*
X136857142Y-115178571D01*
X138785714Y-115607142D02*
X138642857Y-115678571D01*
X138357142Y-115678571D01*
X138214285Y-115607142D01*
X138142857Y-115464285D01*
X138142857Y-114892857D01*
X138214285Y-114750000D01*
X138357142Y-114678571D01*
X138642857Y-114678571D01*
X138785714Y-114750000D01*
X138857142Y-114892857D01*
X138857142Y-115035714D01*
X138142857Y-115178571D01*
X139500000Y-115678571D02*
X139500000Y-114178571D01*
X139642857Y-115107142D02*
X140071428Y-115678571D01*
X140071428Y-114678571D02*
X139500000Y-115250000D01*
X140642857Y-115607142D02*
X140785714Y-115678571D01*
X141071428Y-115678571D01*
X141214285Y-115607142D01*
X141285714Y-115464285D01*
X141285714Y-115392857D01*
X141214285Y-115250000D01*
X141071428Y-115178571D01*
X140857142Y-115178571D01*
X140714285Y-115107142D01*
X140642857Y-114964285D01*
X140642857Y-114892857D01*
X140714285Y-114750000D01*
X140857142Y-114678571D01*
X141071428Y-114678571D01*
X141214285Y-114750000D01*
X192821428Y-114178571D02*
X193750000Y-114178571D01*
X193250000Y-114750000D01*
X193464285Y-114750000D01*
X193607142Y-114821428D01*
X193678571Y-114892857D01*
X193750000Y-115035714D01*
X193750000Y-115392857D01*
X193678571Y-115535714D01*
X193607142Y-115607142D01*
X193464285Y-115678571D01*
X193035714Y-115678571D01*
X192892857Y-115607142D01*
X192821428Y-115535714D01*
X195535714Y-115678571D02*
X195535714Y-114178571D01*
X196178571Y-115678571D02*
X196178571Y-114892857D01*
X196107142Y-114750000D01*
X195964285Y-114678571D01*
X195750000Y-114678571D01*
X195607142Y-114750000D01*
X195535714Y-114821428D01*
X197107142Y-115678571D02*
X196964285Y-115607142D01*
X196892857Y-115535714D01*
X196821428Y-115392857D01*
X196821428Y-114964285D01*
X196892857Y-114821428D01*
X196964285Y-114750000D01*
X197107142Y-114678571D01*
X197321428Y-114678571D01*
X197464285Y-114750000D01*
X197535714Y-114821428D01*
X197607142Y-114964285D01*
X197607142Y-115392857D01*
X197535714Y-115535714D01*
X197464285Y-115607142D01*
X197321428Y-115678571D01*
X197107142Y-115678571D01*
X198892857Y-114678571D02*
X198892857Y-115678571D01*
X198250000Y-114678571D02*
X198250000Y-115464285D01*
X198321428Y-115607142D01*
X198464285Y-115678571D01*
X198678571Y-115678571D01*
X198821428Y-115607142D01*
X198892857Y-115535714D01*
X199607142Y-115678571D02*
X199607142Y-114678571D01*
X199607142Y-114964285D02*
X199678571Y-114821428D01*
X199750000Y-114750000D01*
X199892857Y-114678571D01*
X200035714Y-114678571D01*
X200464285Y-115607142D02*
X200607142Y-115678571D01*
X200892857Y-115678571D01*
X201035714Y-115607142D01*
X201107142Y-115464285D01*
X201107142Y-115392857D01*
X201035714Y-115250000D01*
X200892857Y-115178571D01*
X200678571Y-115178571D01*
X200535714Y-115107142D01*
X200464285Y-114964285D01*
X200464285Y-114892857D01*
X200535714Y-114750000D01*
X200678571Y-114678571D01*
X200892857Y-114678571D01*
X201035714Y-114750000D01*
X118392857Y-115678571D02*
X117535714Y-115678571D01*
X117964285Y-115678571D02*
X117964285Y-114178571D01*
X117821428Y-114392857D01*
X117678571Y-114535714D01*
X117535714Y-114607142D01*
X120178571Y-115678571D02*
X120178571Y-114678571D01*
X120178571Y-114821428D02*
X120250000Y-114750000D01*
X120392857Y-114678571D01*
X120607142Y-114678571D01*
X120750000Y-114750000D01*
X120821428Y-114892857D01*
X120821428Y-115678571D01*
X120821428Y-114892857D02*
X120892857Y-114750000D01*
X121035714Y-114678571D01*
X121250000Y-114678571D01*
X121392857Y-114750000D01*
X121464285Y-114892857D01*
X121464285Y-115678571D01*
X122392857Y-115678571D02*
X122250000Y-115607142D01*
X122178571Y-115535714D01*
X122107142Y-115392857D01*
X122107142Y-114964285D01*
X122178571Y-114821428D01*
X122250000Y-114750000D01*
X122392857Y-114678571D01*
X122607142Y-114678571D01*
X122750000Y-114750000D01*
X122821428Y-114821428D01*
X122892857Y-114964285D01*
X122892857Y-115392857D01*
X122821428Y-115535714D01*
X122750000Y-115607142D01*
X122607142Y-115678571D01*
X122392857Y-115678571D01*
X123535714Y-114678571D02*
X123535714Y-115678571D01*
X123535714Y-114821428D02*
X123607142Y-114750000D01*
X123750000Y-114678571D01*
X123964285Y-114678571D01*
X124107142Y-114750000D01*
X124178571Y-114892857D01*
X124178571Y-115678571D01*
X124678571Y-114678571D02*
X125250000Y-114678571D01*
X124892857Y-114178571D02*
X124892857Y-115464285D01*
X124964285Y-115607142D01*
X125107142Y-115678571D01*
X125250000Y-115678571D01*
X125750000Y-115678571D02*
X125750000Y-114178571D01*
X126392857Y-115678571D02*
X126392857Y-114892857D01*
X126321428Y-114750000D01*
X126178571Y-114678571D01*
X125964285Y-114678571D01*
X125821428Y-114750000D01*
X125750000Y-114821428D01*
X149178571Y-115678571D02*
X148321428Y-115678571D01*
X148750000Y-115678571D02*
X148750000Y-114178571D01*
X148607142Y-114392857D01*
X148464285Y-114535714D01*
X148321428Y-114607142D01*
X150821428Y-114678571D02*
X151107142Y-115678571D01*
X151392857Y-114964285D01*
X151678571Y-115678571D01*
X151964285Y-114678571D01*
X153107142Y-115607142D02*
X152964285Y-115678571D01*
X152678571Y-115678571D01*
X152535714Y-115607142D01*
X152464285Y-115464285D01*
X152464285Y-114892857D01*
X152535714Y-114750000D01*
X152678571Y-114678571D01*
X152964285Y-114678571D01*
X153107142Y-114750000D01*
X153178571Y-114892857D01*
X153178571Y-115035714D01*
X152464285Y-115178571D01*
X154392857Y-115607142D02*
X154250000Y-115678571D01*
X153964285Y-115678571D01*
X153821428Y-115607142D01*
X153750000Y-115464285D01*
X153750000Y-114892857D01*
X153821428Y-114750000D01*
X153964285Y-114678571D01*
X154250000Y-114678571D01*
X154392857Y-114750000D01*
X154464285Y-114892857D01*
X154464285Y-115035714D01*
X153750000Y-115178571D01*
X155107142Y-115678571D02*
X155107142Y-114178571D01*
X155250000Y-115107142D02*
X155678571Y-115678571D01*
X155678571Y-114678571D02*
X155107142Y-115250000D01*
X216266428Y-63096071D02*
X215552142Y-63096071D01*
X215552142Y-61596071D01*
X216980714Y-63096071D02*
X216837857Y-63024642D01*
X216766428Y-62953214D01*
X216695000Y-62810357D01*
X216695000Y-62381785D01*
X216766428Y-62238928D01*
X216837857Y-62167500D01*
X216980714Y-62096071D01*
X217195000Y-62096071D01*
X217337857Y-62167500D01*
X217409285Y-62238928D01*
X217480714Y-62381785D01*
X217480714Y-62810357D01*
X217409285Y-62953214D01*
X217337857Y-63024642D01*
X217195000Y-63096071D01*
X216980714Y-63096071D01*
X218123571Y-62096071D02*
X218123571Y-63096071D01*
X218123571Y-62238928D02*
X218195000Y-62167500D01*
X218337857Y-62096071D01*
X218552142Y-62096071D01*
X218695000Y-62167500D01*
X218766428Y-62310357D01*
X218766428Y-63096071D01*
X220123571Y-62096071D02*
X220123571Y-63310357D01*
X220052142Y-63453214D01*
X219980714Y-63524642D01*
X219837857Y-63596071D01*
X219623571Y-63596071D01*
X219480714Y-63524642D01*
X220123571Y-63024642D02*
X219980714Y-63096071D01*
X219695000Y-63096071D01*
X219552142Y-63024642D01*
X219480714Y-62953214D01*
X219409285Y-62810357D01*
X219409285Y-62381785D01*
X219480714Y-62238928D01*
X219552142Y-62167500D01*
X219695000Y-62096071D01*
X219980714Y-62096071D01*
X220123571Y-62167500D01*
X215552142Y-65511071D02*
X215552142Y-64011071D01*
X215909285Y-64011071D01*
X216123571Y-64082500D01*
X216266428Y-64225357D01*
X216337857Y-64368214D01*
X216409285Y-64653928D01*
X216409285Y-64868214D01*
X216337857Y-65153928D01*
X216266428Y-65296785D01*
X216123571Y-65439642D01*
X215909285Y-65511071D01*
X215552142Y-65511071D01*
X217052142Y-65511071D02*
X217052142Y-64511071D01*
X217052142Y-64011071D02*
X216980714Y-64082500D01*
X217052142Y-64153928D01*
X217123571Y-64082500D01*
X217052142Y-64011071D01*
X217052142Y-64153928D01*
X217695000Y-65439642D02*
X217837857Y-65511071D01*
X218123571Y-65511071D01*
X218266428Y-65439642D01*
X218337857Y-65296785D01*
X218337857Y-65225357D01*
X218266428Y-65082500D01*
X218123571Y-65011071D01*
X217909285Y-65011071D01*
X217766428Y-64939642D01*
X217695000Y-64796785D01*
X217695000Y-64725357D01*
X217766428Y-64582500D01*
X217909285Y-64511071D01*
X218123571Y-64511071D01*
X218266428Y-64582500D01*
X218766428Y-64511071D02*
X219337857Y-64511071D01*
X218980714Y-64011071D02*
X218980714Y-65296785D01*
X219052142Y-65439642D01*
X219195000Y-65511071D01*
X219337857Y-65511071D01*
X220480714Y-65511071D02*
X220480714Y-64725357D01*
X220409285Y-64582500D01*
X220266428Y-64511071D01*
X219980714Y-64511071D01*
X219837857Y-64582500D01*
X220480714Y-65439642D02*
X220337857Y-65511071D01*
X219980714Y-65511071D01*
X219837857Y-65439642D01*
X219766428Y-65296785D01*
X219766428Y-65153928D01*
X219837857Y-65011071D01*
X219980714Y-64939642D01*
X220337857Y-64939642D01*
X220480714Y-64868214D01*
X221195000Y-64511071D02*
X221195000Y-65511071D01*
X221195000Y-64653928D02*
X221266428Y-64582500D01*
X221409285Y-64511071D01*
X221623571Y-64511071D01*
X221766428Y-64582500D01*
X221837857Y-64725357D01*
X221837857Y-65511071D01*
X223195000Y-65439642D02*
X223052142Y-65511071D01*
X222766428Y-65511071D01*
X222623571Y-65439642D01*
X222552142Y-65368214D01*
X222480714Y-65225357D01*
X222480714Y-64796785D01*
X222552142Y-64653928D01*
X222623571Y-64582500D01*
X222766428Y-64511071D01*
X223052142Y-64511071D01*
X223195000Y-64582500D01*
X224409285Y-65439642D02*
X224266428Y-65511071D01*
X223980714Y-65511071D01*
X223837857Y-65439642D01*
X223766428Y-65296785D01*
X223766428Y-64725357D01*
X223837857Y-64582500D01*
X223980714Y-64511071D01*
X224266428Y-64511071D01*
X224409285Y-64582500D01*
X224480714Y-64725357D01*
X224480714Y-64868214D01*
X223766428Y-65011071D01*
X216409285Y-67926071D02*
X215909285Y-67211785D01*
X215552142Y-67926071D02*
X215552142Y-66426071D01*
X216123571Y-66426071D01*
X216266428Y-66497500D01*
X216337857Y-66568928D01*
X216409285Y-66711785D01*
X216409285Y-66926071D01*
X216337857Y-67068928D01*
X216266428Y-67140357D01*
X216123571Y-67211785D01*
X215552142Y-67211785D01*
X217623571Y-67854642D02*
X217480714Y-67926071D01*
X217195000Y-67926071D01*
X217052142Y-67854642D01*
X216980714Y-67711785D01*
X216980714Y-67140357D01*
X217052142Y-66997500D01*
X217195000Y-66926071D01*
X217480714Y-66926071D01*
X217623571Y-66997500D01*
X217695000Y-67140357D01*
X217695000Y-67283214D01*
X216980714Y-67426071D01*
X218552142Y-67926071D02*
X218409285Y-67854642D01*
X218337857Y-67711785D01*
X218337857Y-66426071D01*
X219766428Y-67926071D02*
X219766428Y-67140357D01*
X219695000Y-66997500D01*
X219552142Y-66926071D01*
X219266428Y-66926071D01*
X219123571Y-66997500D01*
X219766428Y-67854642D02*
X219623571Y-67926071D01*
X219266428Y-67926071D01*
X219123571Y-67854642D01*
X219052142Y-67711785D01*
X219052142Y-67568928D01*
X219123571Y-67426071D01*
X219266428Y-67354642D01*
X219623571Y-67354642D01*
X219766428Y-67283214D01*
X220266428Y-66926071D02*
X220837857Y-66926071D01*
X220480714Y-66426071D02*
X220480714Y-67711785D01*
X220552142Y-67854642D01*
X220695000Y-67926071D01*
X220837857Y-67926071D01*
X221337857Y-67926071D02*
X221337857Y-66926071D01*
X221337857Y-66426071D02*
X221266428Y-66497500D01*
X221337857Y-66568928D01*
X221409285Y-66497500D01*
X221337857Y-66426071D01*
X221337857Y-66568928D01*
X222266428Y-67926071D02*
X222123571Y-67854642D01*
X222052142Y-67783214D01*
X221980714Y-67640357D01*
X221980714Y-67211785D01*
X222052142Y-67068928D01*
X222123571Y-66997500D01*
X222266428Y-66926071D01*
X222480714Y-66926071D01*
X222623571Y-66997500D01*
X222695000Y-67068928D01*
X222766428Y-67211785D01*
X222766428Y-67640357D01*
X222695000Y-67783214D01*
X222623571Y-67854642D01*
X222480714Y-67926071D01*
X222266428Y-67926071D01*
X223409285Y-66926071D02*
X223409285Y-67926071D01*
X223409285Y-67068928D02*
X223480714Y-66997500D01*
X223623571Y-66926071D01*
X223837857Y-66926071D01*
X223980714Y-66997500D01*
X224052142Y-67140357D01*
X224052142Y-67926071D01*
X224695000Y-67854642D02*
X224837857Y-67926071D01*
X225123571Y-67926071D01*
X225266428Y-67854642D01*
X225337857Y-67711785D01*
X225337857Y-67640357D01*
X225266428Y-67497500D01*
X225123571Y-67426071D01*
X224909285Y-67426071D01*
X224766428Y-67354642D01*
X224695000Y-67211785D01*
X224695000Y-67140357D01*
X224766428Y-66997500D01*
X224909285Y-66926071D01*
X225123571Y-66926071D01*
X225266428Y-66997500D01*
X225980714Y-67926071D02*
X225980714Y-66426071D01*
X226623571Y-67926071D02*
X226623571Y-67140357D01*
X226552142Y-66997500D01*
X226409285Y-66926071D01*
X226195000Y-66926071D01*
X226052142Y-66997500D01*
X225980714Y-67068928D01*
X227337857Y-67926071D02*
X227337857Y-66926071D01*
X227337857Y-66426071D02*
X227266428Y-66497500D01*
X227337857Y-66568928D01*
X227409285Y-66497500D01*
X227337857Y-66426071D01*
X227337857Y-66568928D01*
X228052142Y-66926071D02*
X228052142Y-68426071D01*
X228052142Y-66997500D02*
X228195000Y-66926071D01*
X228480714Y-66926071D01*
X228623571Y-66997500D01*
X228695000Y-67068928D01*
X228766428Y-67211785D01*
X228766428Y-67640357D01*
X228695000Y-67783214D01*
X228623571Y-67854642D01*
X228480714Y-67926071D01*
X228195000Y-67926071D01*
X228052142Y-67854642D01*
X215552142Y-70341071D02*
X215552142Y-68841071D01*
X215909285Y-68841071D01*
X216123571Y-68912500D01*
X216266428Y-69055357D01*
X216337857Y-69198214D01*
X216409285Y-69483928D01*
X216409285Y-69698214D01*
X216337857Y-69983928D01*
X216266428Y-70126785D01*
X216123571Y-70269642D01*
X215909285Y-70341071D01*
X215552142Y-70341071D01*
X217623571Y-70269642D02*
X217480714Y-70341071D01*
X217195000Y-70341071D01*
X217052142Y-70269642D01*
X216980714Y-70126785D01*
X216980714Y-69555357D01*
X217052142Y-69412500D01*
X217195000Y-69341071D01*
X217480714Y-69341071D01*
X217623571Y-69412500D01*
X217695000Y-69555357D01*
X217695000Y-69698214D01*
X216980714Y-69841071D01*
X218195000Y-69341071D02*
X218552142Y-70341071D01*
X218909285Y-69341071D01*
X219480714Y-70341071D02*
X219480714Y-69341071D01*
X219480714Y-68841071D02*
X219409285Y-68912500D01*
X219480714Y-68983928D01*
X219552142Y-68912500D01*
X219480714Y-68841071D01*
X219480714Y-68983928D01*
X220837857Y-70269642D02*
X220695000Y-70341071D01*
X220409285Y-70341071D01*
X220266428Y-70269642D01*
X220195000Y-70198214D01*
X220123571Y-70055357D01*
X220123571Y-69626785D01*
X220195000Y-69483928D01*
X220266428Y-69412500D01*
X220409285Y-69341071D01*
X220695000Y-69341071D01*
X220837857Y-69412500D01*
X222052142Y-70269642D02*
X221909285Y-70341071D01*
X221623571Y-70341071D01*
X221480714Y-70269642D01*
X221409285Y-70126785D01*
X221409285Y-69555357D01*
X221480714Y-69412500D01*
X221623571Y-69341071D01*
X221909285Y-69341071D01*
X222052142Y-69412500D01*
X222123571Y-69555357D01*
X222123571Y-69698214D01*
X221409285Y-69841071D01*
D13*
X133607142Y-125086666D02*
X133654761Y-125134285D01*
X133702380Y-125277142D01*
X133702380Y-125372380D01*
X133654761Y-125515238D01*
X133559523Y-125610476D01*
X133464285Y-125658095D01*
X133273809Y-125705714D01*
X133130952Y-125705714D01*
X132940476Y-125658095D01*
X132845238Y-125610476D01*
X132750000Y-125515238D01*
X132702380Y-125372380D01*
X132702380Y-125277142D01*
X132750000Y-125134285D01*
X132797619Y-125086666D01*
X132702380Y-124753333D02*
X132702380Y-124134285D01*
X133083333Y-124467619D01*
X133083333Y-124324761D01*
X133130952Y-124229523D01*
X133178571Y-124181904D01*
X133273809Y-124134285D01*
X133511904Y-124134285D01*
X133607142Y-124181904D01*
X133654761Y-124229523D01*
X133702380Y-124324761D01*
X133702380Y-124610476D01*
X133654761Y-124705714D01*
X133607142Y-124753333D01*
X202609862Y-145563437D02*
X202657481Y-145611056D01*
X202705100Y-145753913D01*
X202705100Y-145849151D01*
X202657481Y-145992008D01*
X202562243Y-146087246D01*
X202467005Y-146134865D01*
X202276529Y-146182484D01*
X202133672Y-146182484D01*
X201943196Y-146134865D01*
X201847958Y-146087246D01*
X201752720Y-145992008D01*
X201705100Y-145849151D01*
X201705100Y-145753913D01*
X201752720Y-145611056D01*
X201800339Y-145563437D01*
X202705100Y-144611056D02*
X202705100Y-145182484D01*
X202705100Y-144896770D02*
X201705100Y-144896770D01*
X201847958Y-144992008D01*
X201943196Y-145087246D01*
X201990815Y-145182484D01*
X201705100Y-144277722D02*
X201705100Y-143658675D01*
X202086053Y-143992008D01*
X202086053Y-143849151D01*
X202133672Y-143753913D01*
X202181291Y-143706294D01*
X202276529Y-143658675D01*
X202514624Y-143658675D01*
X202609862Y-143706294D01*
X202657481Y-143753913D01*
X202705100Y-143849151D01*
X202705100Y-144134865D01*
X202657481Y-144230103D01*
X202609862Y-144277722D01*
X211293904Y-109055380D02*
X211293904Y-108055380D01*
X211532000Y-108055380D01*
X211674857Y-108103000D01*
X211770095Y-108198238D01*
X211817714Y-108293476D01*
X211865333Y-108483952D01*
X211865333Y-108626809D01*
X211817714Y-108817285D01*
X211770095Y-108912523D01*
X211674857Y-109007761D01*
X211532000Y-109055380D01*
X211293904Y-109055380D01*
X212341523Y-109055380D02*
X212532000Y-109055380D01*
X212627238Y-109007761D01*
X212674857Y-108960142D01*
X212770095Y-108817285D01*
X212817714Y-108626809D01*
X212817714Y-108245857D01*
X212770095Y-108150619D01*
X212722476Y-108103000D01*
X212627238Y-108055380D01*
X212436761Y-108055380D01*
X212341523Y-108103000D01*
X212293904Y-108150619D01*
X212246285Y-108245857D01*
X212246285Y-108483952D01*
X212293904Y-108579190D01*
X212341523Y-108626809D01*
X212436761Y-108674428D01*
X212627238Y-108674428D01*
X212722476Y-108626809D01*
X212770095Y-108579190D01*
X212817714Y-108483952D01*
X150721755Y-145087246D02*
X150245565Y-145420580D01*
X150721755Y-145658675D02*
X149721755Y-145658675D01*
X149721755Y-145277722D01*
X149769375Y-145182484D01*
X149816994Y-145134865D01*
X149912232Y-145087246D01*
X150055089Y-145087246D01*
X150150327Y-145134865D01*
X150197946Y-145182484D01*
X150245565Y-145277722D01*
X150245565Y-145658675D01*
X150055089Y-144230103D02*
X150721755Y-144230103D01*
X149674136Y-144468199D02*
X150388422Y-144706294D01*
X150388422Y-144087246D01*
X199612590Y-145563437D02*
X199660209Y-145611056D01*
X199707828Y-145753913D01*
X199707828Y-145849151D01*
X199660209Y-145992008D01*
X199564971Y-146087246D01*
X199469733Y-146134865D01*
X199279257Y-146182484D01*
X199136400Y-146182484D01*
X198945924Y-146134865D01*
X198850686Y-146087246D01*
X198755448Y-145992008D01*
X198707828Y-145849151D01*
X198707828Y-145753913D01*
X198755448Y-145611056D01*
X198803067Y-145563437D01*
X199707828Y-144611056D02*
X199707828Y-145182484D01*
X199707828Y-144896770D02*
X198707828Y-144896770D01*
X198850686Y-144992008D01*
X198945924Y-145087246D01*
X198993543Y-145182484D01*
X198803067Y-144230103D02*
X198755448Y-144182484D01*
X198707828Y-144087246D01*
X198707828Y-143849151D01*
X198755448Y-143753913D01*
X198803067Y-143706294D01*
X198898305Y-143658675D01*
X198993543Y-143658675D01*
X199136400Y-143706294D01*
X199707828Y-144277722D01*
X199707828Y-143658675D01*
X166487380Y-145563437D02*
X166011190Y-145896770D01*
X166487380Y-146134865D02*
X165487380Y-146134865D01*
X165487380Y-145753913D01*
X165535000Y-145658675D01*
X165582619Y-145611056D01*
X165677857Y-145563437D01*
X165820714Y-145563437D01*
X165915952Y-145611056D01*
X165963571Y-145658675D01*
X166011190Y-145753913D01*
X166011190Y-146134865D01*
X166487380Y-144611056D02*
X166487380Y-145182484D01*
X166487380Y-144896770D02*
X165487380Y-144896770D01*
X165630238Y-144992008D01*
X165725476Y-145087246D01*
X165773095Y-145182484D01*
X165487380Y-144277722D02*
X165487380Y-143611056D01*
X166487380Y-144039627D01*
X157028005Y-145087246D02*
X156551815Y-145420580D01*
X157028005Y-145658675D02*
X156028005Y-145658675D01*
X156028005Y-145277722D01*
X156075625Y-145182484D01*
X156123244Y-145134865D01*
X156218482Y-145087246D01*
X156361339Y-145087246D01*
X156456577Y-145134865D01*
X156504196Y-145182484D01*
X156551815Y-145277722D01*
X156551815Y-145658675D01*
X156028005Y-144230103D02*
X156028005Y-144420580D01*
X156075625Y-144515818D01*
X156123244Y-144563437D01*
X156266101Y-144658675D01*
X156456577Y-144706294D01*
X156837529Y-144706294D01*
X156932767Y-144658675D01*
X156980386Y-144611056D01*
X157028005Y-144515818D01*
X157028005Y-144325341D01*
X156980386Y-144230103D01*
X156932767Y-144182484D01*
X156837529Y-144134865D01*
X156599434Y-144134865D01*
X156504196Y-144182484D01*
X156456577Y-144230103D01*
X156408958Y-144325341D01*
X156408958Y-144515818D01*
X156456577Y-144611056D01*
X156504196Y-144658675D01*
X156599434Y-144706294D01*
X205607142Y-145563437D02*
X205654761Y-145611056D01*
X205702380Y-145753913D01*
X205702380Y-145849151D01*
X205654761Y-145992008D01*
X205559523Y-146087246D01*
X205464285Y-146134865D01*
X205273809Y-146182484D01*
X205130952Y-146182484D01*
X204940476Y-146134865D01*
X204845238Y-146087246D01*
X204750000Y-145992008D01*
X204702380Y-145849151D01*
X204702380Y-145753913D01*
X204750000Y-145611056D01*
X204797619Y-145563437D01*
X205702380Y-144611056D02*
X205702380Y-145182484D01*
X205702380Y-144896770D02*
X204702380Y-144896770D01*
X204845238Y-144992008D01*
X204940476Y-145087246D01*
X204988095Y-145182484D01*
X204702380Y-143706294D02*
X204702380Y-144182484D01*
X205178571Y-144230103D01*
X205130952Y-144182484D01*
X205083333Y-144087246D01*
X205083333Y-143849151D01*
X205130952Y-143753913D01*
X205178571Y-143706294D01*
X205273809Y-143658675D01*
X205511904Y-143658675D01*
X205607142Y-143706294D01*
X205654761Y-143753913D01*
X205702380Y-143849151D01*
X205702380Y-144087246D01*
X205654761Y-144182484D01*
X205607142Y-144230103D01*
X196615318Y-145563437D02*
X196662937Y-145611056D01*
X196710556Y-145753913D01*
X196710556Y-145849151D01*
X196662937Y-145992008D01*
X196567699Y-146087246D01*
X196472461Y-146134865D01*
X196281985Y-146182484D01*
X196139128Y-146182484D01*
X195948652Y-146134865D01*
X195853414Y-146087246D01*
X195758176Y-145992008D01*
X195710556Y-145849151D01*
X195710556Y-145753913D01*
X195758176Y-145611056D01*
X195805795Y-145563437D01*
X196710556Y-144611056D02*
X196710556Y-145182484D01*
X196710556Y-144896770D02*
X195710556Y-144896770D01*
X195853414Y-144992008D01*
X195948652Y-145087246D01*
X195996271Y-145182484D01*
X196710556Y-143658675D02*
X196710556Y-144230103D01*
X196710556Y-143944389D02*
X195710556Y-143944389D01*
X195853414Y-144039627D01*
X195948652Y-144134865D01*
X195996271Y-144230103D01*
X141276638Y-145087246D02*
X140800448Y-145420580D01*
X141276638Y-145658675D02*
X140276638Y-145658675D01*
X140276638Y-145277722D01*
X140324258Y-145182484D01*
X140371877Y-145134865D01*
X140467115Y-145087246D01*
X140609972Y-145087246D01*
X140705210Y-145134865D01*
X140752829Y-145182484D01*
X140800448Y-145277722D01*
X140800448Y-145658675D01*
X141276638Y-144134865D02*
X141276638Y-144706294D01*
X141276638Y-144420580D02*
X140276638Y-144420580D01*
X140419496Y-144515818D01*
X140514734Y-144611056D01*
X140562353Y-144706294D01*
X217446666Y-125704761D02*
X217589523Y-125752380D01*
X217827619Y-125752380D01*
X217922857Y-125704761D01*
X217970476Y-125657142D01*
X218018095Y-125561904D01*
X218018095Y-125466666D01*
X217970476Y-125371428D01*
X217922857Y-125323809D01*
X217827619Y-125276190D01*
X217637142Y-125228571D01*
X217541904Y-125180952D01*
X217494285Y-125133333D01*
X217446666Y-125038095D01*
X217446666Y-124942857D01*
X217494285Y-124847619D01*
X217541904Y-124800000D01*
X217637142Y-124752380D01*
X217875238Y-124752380D01*
X218018095Y-124800000D01*
X218351428Y-124752380D02*
X218589523Y-125752380D01*
X218780000Y-125038095D01*
X218970476Y-125752380D01*
X219208571Y-124752380D01*
X219541904Y-124847619D02*
X219589523Y-124800000D01*
X219684761Y-124752380D01*
X219922857Y-124752380D01*
X220018095Y-124800000D01*
X220065714Y-124847619D01*
X220113333Y-124942857D01*
X220113333Y-125038095D01*
X220065714Y-125180952D01*
X219494285Y-125752380D01*
X220113333Y-125752380D01*
X103378095Y-121512380D02*
X103378095Y-122321904D01*
X103425714Y-122417142D01*
X103473333Y-122464761D01*
X103568571Y-122512380D01*
X103759047Y-122512380D01*
X103854285Y-122464761D01*
X103901904Y-122417142D01*
X103949523Y-122321904D01*
X103949523Y-121512380D01*
X104949523Y-122512380D02*
X104378095Y-122512380D01*
X104663809Y-122512380D02*
X104663809Y-121512380D01*
X104568571Y-121655238D01*
X104473333Y-121750476D01*
X104378095Y-121798095D01*
X139528095Y-139972380D02*
X139528095Y-140781904D01*
X139575714Y-140877142D01*
X139623333Y-140924761D01*
X139718571Y-140972380D01*
X139909047Y-140972380D01*
X140004285Y-140924761D01*
X140051904Y-140877142D01*
X140099523Y-140781904D01*
X140099523Y-139972380D01*
X140480476Y-139972380D02*
X141099523Y-139972380D01*
X140766190Y-140353333D01*
X140909047Y-140353333D01*
X141004285Y-140400952D01*
X141051904Y-140448571D01*
X141099523Y-140543809D01*
X141099523Y-140781904D01*
X141051904Y-140877142D01*
X141004285Y-140924761D01*
X140909047Y-140972380D01*
X140623333Y-140972380D01*
X140528095Y-140924761D01*
X140480476Y-140877142D01*
X106293904Y-109055380D02*
X106293904Y-108055380D01*
X106532000Y-108055380D01*
X106674857Y-108103000D01*
X106770095Y-108198238D01*
X106817714Y-108293476D01*
X106865333Y-108483952D01*
X106865333Y-108626809D01*
X106817714Y-108817285D01*
X106770095Y-108912523D01*
X106674857Y-109007761D01*
X106532000Y-109055380D01*
X106293904Y-109055380D01*
X107246285Y-108150619D02*
X107293904Y-108103000D01*
X107389142Y-108055380D01*
X107627238Y-108055380D01*
X107722476Y-108103000D01*
X107770095Y-108150619D01*
X107817714Y-108245857D01*
X107817714Y-108341095D01*
X107770095Y-108483952D01*
X107198666Y-109055380D01*
X107817714Y-109055380D01*
X143767142Y-125562857D02*
X143814761Y-125610476D01*
X143862380Y-125753333D01*
X143862380Y-125848571D01*
X143814761Y-125991428D01*
X143719523Y-126086666D01*
X143624285Y-126134285D01*
X143433809Y-126181904D01*
X143290952Y-126181904D01*
X143100476Y-126134285D01*
X143005238Y-126086666D01*
X142910000Y-125991428D01*
X142862380Y-125848571D01*
X142862380Y-125753333D01*
X142910000Y-125610476D01*
X142957619Y-125562857D01*
X143862380Y-124610476D02*
X143862380Y-125181904D01*
X143862380Y-124896190D02*
X142862380Y-124896190D01*
X143005238Y-124991428D01*
X143100476Y-125086666D01*
X143148095Y-125181904D01*
X143195714Y-123753333D02*
X143862380Y-123753333D01*
X142814761Y-123991428D02*
X143529047Y-124229523D01*
X143529047Y-123610476D01*
X163334255Y-145563437D02*
X162858065Y-145896770D01*
X163334255Y-146134865D02*
X162334255Y-146134865D01*
X162334255Y-145753913D01*
X162381875Y-145658675D01*
X162429494Y-145611056D01*
X162524732Y-145563437D01*
X162667589Y-145563437D01*
X162762827Y-145611056D01*
X162810446Y-145658675D01*
X162858065Y-145753913D01*
X162858065Y-146134865D01*
X163334255Y-144611056D02*
X163334255Y-145182484D01*
X163334255Y-144896770D02*
X162334255Y-144896770D01*
X162477113Y-144992008D01*
X162572351Y-145087246D01*
X162619970Y-145182484D01*
X162334255Y-143992008D02*
X162334255Y-143896770D01*
X162381875Y-143801532D01*
X162429494Y-143753913D01*
X162524732Y-143706294D01*
X162715208Y-143658675D01*
X162953303Y-143658675D01*
X163143779Y-143706294D01*
X163239017Y-143753913D01*
X163286636Y-143801532D01*
X163334255Y-143896770D01*
X163334255Y-143992008D01*
X163286636Y-144087246D01*
X163239017Y-144134865D01*
X163143779Y-144182484D01*
X162953303Y-144230103D01*
X162715208Y-144230103D01*
X162524732Y-144182484D01*
X162429494Y-144134865D01*
X162381875Y-144087246D01*
X162334255Y-143992008D01*
X181628958Y-145087246D02*
X181676577Y-145134865D01*
X181724196Y-145277722D01*
X181724196Y-145372960D01*
X181676577Y-145515818D01*
X181581339Y-145611056D01*
X181486101Y-145658675D01*
X181295625Y-145706294D01*
X181152768Y-145706294D01*
X180962292Y-145658675D01*
X180867054Y-145611056D01*
X180771816Y-145515818D01*
X180724196Y-145372960D01*
X180724196Y-145277722D01*
X180771816Y-145134865D01*
X180819435Y-145087246D01*
X180724196Y-144230103D02*
X180724196Y-144420580D01*
X180771816Y-144515818D01*
X180819435Y-144563437D01*
X180962292Y-144658675D01*
X181152768Y-144706294D01*
X181533720Y-144706294D01*
X181628958Y-144658675D01*
X181676577Y-144611056D01*
X181724196Y-144515818D01*
X181724196Y-144325341D01*
X181676577Y-144230103D01*
X181628958Y-144182484D01*
X181533720Y-144134865D01*
X181295625Y-144134865D01*
X181200387Y-144182484D01*
X181152768Y-144230103D01*
X181105149Y-144325341D01*
X181105149Y-144515818D01*
X181152768Y-144611056D01*
X181200387Y-144658675D01*
X181295625Y-144706294D01*
X225436666Y-112994761D02*
X225579523Y-113042380D01*
X225817619Y-113042380D01*
X225912857Y-112994761D01*
X225960476Y-112947142D01*
X226008095Y-112851904D01*
X226008095Y-112756666D01*
X225960476Y-112661428D01*
X225912857Y-112613809D01*
X225817619Y-112566190D01*
X225627142Y-112518571D01*
X225531904Y-112470952D01*
X225484285Y-112423333D01*
X225436666Y-112328095D01*
X225436666Y-112232857D01*
X225484285Y-112137619D01*
X225531904Y-112090000D01*
X225627142Y-112042380D01*
X225865238Y-112042380D01*
X226008095Y-112090000D01*
X226341428Y-112042380D02*
X226579523Y-113042380D01*
X226770000Y-112328095D01*
X226960476Y-113042380D01*
X227198571Y-112042380D01*
X228103333Y-113042380D02*
X227531904Y-113042380D01*
X227817619Y-113042380D02*
X227817619Y-112042380D01*
X227722380Y-112185238D01*
X227627142Y-112280476D01*
X227531904Y-112328095D01*
X166293904Y-109055380D02*
X166293904Y-108055380D01*
X166532000Y-108055380D01*
X166674857Y-108103000D01*
X166770095Y-108198238D01*
X166817714Y-108293476D01*
X166865333Y-108483952D01*
X166865333Y-108626809D01*
X166817714Y-108817285D01*
X166770095Y-108912523D01*
X166674857Y-109007761D01*
X166532000Y-109055380D01*
X166293904Y-109055380D01*
X167722476Y-108055380D02*
X167532000Y-108055380D01*
X167436761Y-108103000D01*
X167389142Y-108150619D01*
X167293904Y-108293476D01*
X167246285Y-108483952D01*
X167246285Y-108864904D01*
X167293904Y-108960142D01*
X167341523Y-109007761D01*
X167436761Y-109055380D01*
X167627238Y-109055380D01*
X167722476Y-109007761D01*
X167770095Y-108960142D01*
X167817714Y-108864904D01*
X167817714Y-108626809D01*
X167770095Y-108531571D01*
X167722476Y-108483952D01*
X167627238Y-108436333D01*
X167436761Y-108436333D01*
X167341523Y-108483952D01*
X167293904Y-108531571D01*
X167246285Y-108626809D01*
X181293904Y-109055380D02*
X181293904Y-108055380D01*
X181532000Y-108055380D01*
X181674857Y-108103000D01*
X181770095Y-108198238D01*
X181817714Y-108293476D01*
X181865333Y-108483952D01*
X181865333Y-108626809D01*
X181817714Y-108817285D01*
X181770095Y-108912523D01*
X181674857Y-109007761D01*
X181532000Y-109055380D01*
X181293904Y-109055380D01*
X182198666Y-108055380D02*
X182865333Y-108055380D01*
X182436761Y-109055380D01*
X138687142Y-125086666D02*
X138734761Y-125134285D01*
X138782380Y-125277142D01*
X138782380Y-125372380D01*
X138734761Y-125515238D01*
X138639523Y-125610476D01*
X138544285Y-125658095D01*
X138353809Y-125705714D01*
X138210952Y-125705714D01*
X138020476Y-125658095D01*
X137925238Y-125610476D01*
X137830000Y-125515238D01*
X137782380Y-125372380D01*
X137782380Y-125277142D01*
X137830000Y-125134285D01*
X137877619Y-125086666D01*
X138782380Y-124134285D02*
X138782380Y-124705714D01*
X138782380Y-124420000D02*
X137782380Y-124420000D01*
X137925238Y-124515238D01*
X138020476Y-124610476D01*
X138068095Y-124705714D01*
X184626230Y-145087246D02*
X184673849Y-145134865D01*
X184721468Y-145277722D01*
X184721468Y-145372960D01*
X184673849Y-145515818D01*
X184578611Y-145611056D01*
X184483373Y-145658675D01*
X184292897Y-145706294D01*
X184150040Y-145706294D01*
X183959564Y-145658675D01*
X183864326Y-145611056D01*
X183769088Y-145515818D01*
X183721468Y-145372960D01*
X183721468Y-145277722D01*
X183769088Y-145134865D01*
X183816707Y-145087246D01*
X183721468Y-144753913D02*
X183721468Y-144087246D01*
X184721468Y-144515818D01*
X225326904Y-105947380D02*
X225326904Y-104947380D01*
X225565000Y-104947380D01*
X225707857Y-104995000D01*
X225803095Y-105090238D01*
X225850714Y-105185476D01*
X225898333Y-105375952D01*
X225898333Y-105518809D01*
X225850714Y-105709285D01*
X225803095Y-105804523D01*
X225707857Y-105899761D01*
X225565000Y-105947380D01*
X225326904Y-105947380D01*
X226850714Y-105947380D02*
X226279285Y-105947380D01*
X226565000Y-105947380D02*
X226565000Y-104947380D01*
X226469761Y-105090238D01*
X226374523Y-105185476D01*
X226279285Y-105233095D01*
X190620774Y-145087246D02*
X190668393Y-145134865D01*
X190716012Y-145277722D01*
X190716012Y-145372960D01*
X190668393Y-145515818D01*
X190573155Y-145611056D01*
X190477917Y-145658675D01*
X190287441Y-145706294D01*
X190144584Y-145706294D01*
X189954108Y-145658675D01*
X189858870Y-145611056D01*
X189763632Y-145515818D01*
X189716012Y-145372960D01*
X189716012Y-145277722D01*
X189763632Y-145134865D01*
X189811251Y-145087246D01*
X190716012Y-144611056D02*
X190716012Y-144420580D01*
X190668393Y-144325341D01*
X190620774Y-144277722D01*
X190477917Y-144182484D01*
X190287441Y-144134865D01*
X189906489Y-144134865D01*
X189811251Y-144182484D01*
X189763632Y-144230103D01*
X189716012Y-144325341D01*
X189716012Y-144515818D01*
X189763632Y-144611056D01*
X189811251Y-144658675D01*
X189906489Y-144706294D01*
X190144584Y-144706294D01*
X190239822Y-144658675D01*
X190287441Y-144611056D01*
X190335060Y-144515818D01*
X190335060Y-144325341D01*
X190287441Y-144230103D01*
X190239822Y-144182484D01*
X190144584Y-144134865D01*
X147568630Y-145087246D02*
X147092440Y-145420580D01*
X147568630Y-145658675D02*
X146568630Y-145658675D01*
X146568630Y-145277722D01*
X146616250Y-145182484D01*
X146663869Y-145134865D01*
X146759107Y-145087246D01*
X146901964Y-145087246D01*
X146997202Y-145134865D01*
X147044821Y-145182484D01*
X147092440Y-145277722D01*
X147092440Y-145658675D01*
X146568630Y-144753913D02*
X146568630Y-144134865D01*
X146949583Y-144468199D01*
X146949583Y-144325341D01*
X146997202Y-144230103D01*
X147044821Y-144182484D01*
X147140059Y-144134865D01*
X147378154Y-144134865D01*
X147473392Y-144182484D01*
X147521011Y-144230103D01*
X147568630Y-144325341D01*
X147568630Y-144611056D01*
X147521011Y-144706294D01*
X147473392Y-144753913D01*
X153874880Y-145087246D02*
X153398690Y-145420580D01*
X153874880Y-145658675D02*
X152874880Y-145658675D01*
X152874880Y-145277722D01*
X152922500Y-145182484D01*
X152970119Y-145134865D01*
X153065357Y-145087246D01*
X153208214Y-145087246D01*
X153303452Y-145134865D01*
X153351071Y-145182484D01*
X153398690Y-145277722D01*
X153398690Y-145658675D01*
X152874880Y-144182484D02*
X152874880Y-144658675D01*
X153351071Y-144706294D01*
X153303452Y-144658675D01*
X153255833Y-144563437D01*
X153255833Y-144325341D01*
X153303452Y-144230103D01*
X153351071Y-144182484D01*
X153446309Y-144134865D01*
X153684404Y-144134865D01*
X153779642Y-144182484D01*
X153827261Y-144230103D01*
X153874880Y-144325341D01*
X153874880Y-144563437D01*
X153827261Y-144658675D01*
X153779642Y-144706294D01*
X144415505Y-145087246D02*
X143939315Y-145420580D01*
X144415505Y-145658675D02*
X143415505Y-145658675D01*
X143415505Y-145277722D01*
X143463125Y-145182484D01*
X143510744Y-145134865D01*
X143605982Y-145087246D01*
X143748839Y-145087246D01*
X143844077Y-145134865D01*
X143891696Y-145182484D01*
X143939315Y-145277722D01*
X143939315Y-145658675D01*
X143510744Y-144706294D02*
X143463125Y-144658675D01*
X143415505Y-144563437D01*
X143415505Y-144325341D01*
X143463125Y-144230103D01*
X143510744Y-144182484D01*
X143605982Y-144134865D01*
X143701220Y-144134865D01*
X143844077Y-144182484D01*
X144415505Y-144753913D01*
X144415505Y-144134865D01*
X178631686Y-145087246D02*
X178679305Y-145134865D01*
X178726924Y-145277722D01*
X178726924Y-145372960D01*
X178679305Y-145515818D01*
X178584067Y-145611056D01*
X178488829Y-145658675D01*
X178298353Y-145706294D01*
X178155496Y-145706294D01*
X177965020Y-145658675D01*
X177869782Y-145611056D01*
X177774544Y-145515818D01*
X177726924Y-145372960D01*
X177726924Y-145277722D01*
X177774544Y-145134865D01*
X177822163Y-145087246D01*
X177726924Y-144182484D02*
X177726924Y-144658675D01*
X178203115Y-144706294D01*
X178155496Y-144658675D01*
X178107877Y-144563437D01*
X178107877Y-144325341D01*
X178155496Y-144230103D01*
X178203115Y-144182484D01*
X178298353Y-144134865D01*
X178536448Y-144134865D01*
X178631686Y-144182484D01*
X178679305Y-144230103D01*
X178726924Y-144325341D01*
X178726924Y-144563437D01*
X178679305Y-144658675D01*
X178631686Y-144706294D01*
X175634414Y-145087246D02*
X175682033Y-145134865D01*
X175729652Y-145277722D01*
X175729652Y-145372960D01*
X175682033Y-145515818D01*
X175586795Y-145611056D01*
X175491557Y-145658675D01*
X175301081Y-145706294D01*
X175158224Y-145706294D01*
X174967748Y-145658675D01*
X174872510Y-145611056D01*
X174777272Y-145515818D01*
X174729652Y-145372960D01*
X174729652Y-145277722D01*
X174777272Y-145134865D01*
X174824891Y-145087246D01*
X175062986Y-144230103D02*
X175729652Y-144230103D01*
X174682033Y-144468199D02*
X175396319Y-144706294D01*
X175396319Y-144087246D01*
X136293904Y-109055380D02*
X136293904Y-108055380D01*
X136532000Y-108055380D01*
X136674857Y-108103000D01*
X136770095Y-108198238D01*
X136817714Y-108293476D01*
X136865333Y-108483952D01*
X136865333Y-108626809D01*
X136817714Y-108817285D01*
X136770095Y-108912523D01*
X136674857Y-109007761D01*
X136532000Y-109055380D01*
X136293904Y-109055380D01*
X137722476Y-108388714D02*
X137722476Y-109055380D01*
X137484380Y-108007761D02*
X137246285Y-108722047D01*
X137865333Y-108722047D01*
X193618046Y-145563437D02*
X193665665Y-145611056D01*
X193713284Y-145753913D01*
X193713284Y-145849151D01*
X193665665Y-145992008D01*
X193570427Y-146087246D01*
X193475189Y-146134865D01*
X193284713Y-146182484D01*
X193141856Y-146182484D01*
X192951380Y-146134865D01*
X192856142Y-146087246D01*
X192760904Y-145992008D01*
X192713284Y-145849151D01*
X192713284Y-145753913D01*
X192760904Y-145611056D01*
X192808523Y-145563437D01*
X193713284Y-144611056D02*
X193713284Y-145182484D01*
X193713284Y-144896770D02*
X192713284Y-144896770D01*
X192856142Y-144992008D01*
X192951380Y-145087246D01*
X192998999Y-145182484D01*
X192713284Y-143992008D02*
X192713284Y-143896770D01*
X192760904Y-143801532D01*
X192808523Y-143753913D01*
X192903761Y-143706294D01*
X193094237Y-143658675D01*
X193332332Y-143658675D01*
X193522808Y-143706294D01*
X193618046Y-143753913D01*
X193665665Y-143801532D01*
X193713284Y-143896770D01*
X193713284Y-143992008D01*
X193665665Y-144087246D01*
X193618046Y-144134865D01*
X193522808Y-144182484D01*
X193332332Y-144230103D01*
X193094237Y-144230103D01*
X192903761Y-144182484D01*
X192808523Y-144134865D01*
X192760904Y-144087246D01*
X192713284Y-143992008D01*
X121293904Y-109055380D02*
X121293904Y-108055380D01*
X121532000Y-108055380D01*
X121674857Y-108103000D01*
X121770095Y-108198238D01*
X121817714Y-108293476D01*
X121865333Y-108483952D01*
X121865333Y-108626809D01*
X121817714Y-108817285D01*
X121770095Y-108912523D01*
X121674857Y-109007761D01*
X121532000Y-109055380D01*
X121293904Y-109055380D01*
X122198666Y-108055380D02*
X122817714Y-108055380D01*
X122484380Y-108436333D01*
X122627238Y-108436333D01*
X122722476Y-108483952D01*
X122770095Y-108531571D01*
X122817714Y-108626809D01*
X122817714Y-108864904D01*
X122770095Y-108960142D01*
X122722476Y-109007761D01*
X122627238Y-109055380D01*
X122341523Y-109055380D01*
X122246285Y-109007761D01*
X122198666Y-108960142D01*
X132509880Y-130881904D02*
X133319404Y-130881904D01*
X133414642Y-130834285D01*
X133462261Y-130786666D01*
X133509880Y-130691428D01*
X133509880Y-130500952D01*
X133462261Y-130405714D01*
X133414642Y-130358095D01*
X133319404Y-130310476D01*
X132509880Y-130310476D01*
X132843214Y-129405714D02*
X133509880Y-129405714D01*
X132462261Y-129643809D02*
X133176547Y-129881904D01*
X133176547Y-129262857D01*
X160181130Y-145087246D02*
X159704940Y-145420580D01*
X160181130Y-145658675D02*
X159181130Y-145658675D01*
X159181130Y-145277722D01*
X159228750Y-145182484D01*
X159276369Y-145134865D01*
X159371607Y-145087246D01*
X159514464Y-145087246D01*
X159609702Y-145134865D01*
X159657321Y-145182484D01*
X159704940Y-145277722D01*
X159704940Y-145658675D01*
X160181130Y-144611056D02*
X160181130Y-144420580D01*
X160133511Y-144325341D01*
X160085892Y-144277722D01*
X159943035Y-144182484D01*
X159752559Y-144134865D01*
X159371607Y-144134865D01*
X159276369Y-144182484D01*
X159228750Y-144230103D01*
X159181130Y-144325341D01*
X159181130Y-144515818D01*
X159228750Y-144611056D01*
X159276369Y-144658675D01*
X159371607Y-144706294D01*
X159609702Y-144706294D01*
X159704940Y-144658675D01*
X159752559Y-144611056D01*
X159800178Y-144515818D01*
X159800178Y-144325341D01*
X159752559Y-144230103D01*
X159704940Y-144182484D01*
X159609702Y-144134865D01*
X151293904Y-109055380D02*
X151293904Y-108055380D01*
X151532000Y-108055380D01*
X151674857Y-108103000D01*
X151770095Y-108198238D01*
X151817714Y-108293476D01*
X151865333Y-108483952D01*
X151865333Y-108626809D01*
X151817714Y-108817285D01*
X151770095Y-108912523D01*
X151674857Y-109007761D01*
X151532000Y-109055380D01*
X151293904Y-109055380D01*
X152770095Y-108055380D02*
X152293904Y-108055380D01*
X152246285Y-108531571D01*
X152293904Y-108483952D01*
X152389142Y-108436333D01*
X152627238Y-108436333D01*
X152722476Y-108483952D01*
X152770095Y-108531571D01*
X152817714Y-108626809D01*
X152817714Y-108864904D01*
X152770095Y-108960142D01*
X152722476Y-109007761D01*
X152627238Y-109055380D01*
X152389142Y-109055380D01*
X152293904Y-109007761D01*
X152246285Y-108960142D01*
X157328095Y-129812380D02*
X157328095Y-130621904D01*
X157375714Y-130717142D01*
X157423333Y-130764761D01*
X157518571Y-130812380D01*
X157709047Y-130812380D01*
X157804285Y-130764761D01*
X157851904Y-130717142D01*
X157899523Y-130621904D01*
X157899523Y-129812380D01*
X158328095Y-129907619D02*
X158375714Y-129860000D01*
X158470952Y-129812380D01*
X158709047Y-129812380D01*
X158804285Y-129860000D01*
X158851904Y-129907619D01*
X158899523Y-130002857D01*
X158899523Y-130098095D01*
X158851904Y-130240952D01*
X158280476Y-130812380D01*
X158899523Y-130812380D01*
X196293904Y-109055380D02*
X196293904Y-108055380D01*
X196532000Y-108055380D01*
X196674857Y-108103000D01*
X196770095Y-108198238D01*
X196817714Y-108293476D01*
X196865333Y-108483952D01*
X196865333Y-108626809D01*
X196817714Y-108817285D01*
X196770095Y-108912523D01*
X196674857Y-109007761D01*
X196532000Y-109055380D01*
X196293904Y-109055380D01*
X197436761Y-108483952D02*
X197341523Y-108436333D01*
X197293904Y-108388714D01*
X197246285Y-108293476D01*
X197246285Y-108245857D01*
X197293904Y-108150619D01*
X197341523Y-108103000D01*
X197436761Y-108055380D01*
X197627238Y-108055380D01*
X197722476Y-108103000D01*
X197770095Y-108150619D01*
X197817714Y-108245857D01*
X197817714Y-108293476D01*
X197770095Y-108388714D01*
X197722476Y-108436333D01*
X197627238Y-108483952D01*
X197436761Y-108483952D01*
X197341523Y-108531571D01*
X197293904Y-108579190D01*
X197246285Y-108674428D01*
X197246285Y-108864904D01*
X197293904Y-108960142D01*
X197341523Y-109007761D01*
X197436761Y-109055380D01*
X197627238Y-109055380D01*
X197722476Y-109007761D01*
X197770095Y-108960142D01*
X197817714Y-108864904D01*
X197817714Y-108674428D01*
X197770095Y-108579190D01*
X197722476Y-108531571D01*
X197627238Y-108483952D01*
X172637142Y-145087246D02*
X172684761Y-145134865D01*
X172732380Y-145277722D01*
X172732380Y-145372960D01*
X172684761Y-145515818D01*
X172589523Y-145611056D01*
X172494285Y-145658675D01*
X172303809Y-145706294D01*
X172160952Y-145706294D01*
X171970476Y-145658675D01*
X171875238Y-145611056D01*
X171780000Y-145515818D01*
X171732380Y-145372960D01*
X171732380Y-145277722D01*
X171780000Y-145134865D01*
X171827619Y-145087246D01*
X171827619Y-144706294D02*
X171780000Y-144658675D01*
X171732380Y-144563437D01*
X171732380Y-144325341D01*
X171780000Y-144230103D01*
X171827619Y-144182484D01*
X171922857Y-144134865D01*
X172018095Y-144134865D01*
X172160952Y-144182484D01*
X172732380Y-144753913D01*
X172732380Y-144134865D01*
X187623502Y-145087246D02*
X187671121Y-145134865D01*
X187718740Y-145277722D01*
X187718740Y-145372960D01*
X187671121Y-145515818D01*
X187575883Y-145611056D01*
X187480645Y-145658675D01*
X187290169Y-145706294D01*
X187147312Y-145706294D01*
X186956836Y-145658675D01*
X186861598Y-145611056D01*
X186766360Y-145515818D01*
X186718740Y-145372960D01*
X186718740Y-145277722D01*
X186766360Y-145134865D01*
X186813979Y-145087246D01*
X187147312Y-144515818D02*
X187099693Y-144611056D01*
X187052074Y-144658675D01*
X186956836Y-144706294D01*
X186909217Y-144706294D01*
X186813979Y-144658675D01*
X186766360Y-144611056D01*
X186718740Y-144515818D01*
X186718740Y-144325341D01*
X186766360Y-144230103D01*
X186813979Y-144182484D01*
X186909217Y-144134865D01*
X186956836Y-144134865D01*
X187052074Y-144182484D01*
X187099693Y-144230103D01*
X187147312Y-144325341D01*
X187147312Y-144515818D01*
X187194931Y-144611056D01*
X187242550Y-144658675D01*
X187337788Y-144706294D01*
X187528264Y-144706294D01*
X187623502Y-144658675D01*
X187671121Y-144611056D01*
X187718740Y-144515818D01*
X187718740Y-144325341D01*
X187671121Y-144230103D01*
X187623502Y-144182484D01*
X187528264Y-144134865D01*
X187337788Y-144134865D01*
X187242550Y-144182484D01*
X187194931Y-144230103D01*
X187147312Y-144325341D01*
X131746666Y-68242380D02*
X131746666Y-68956666D01*
X131699047Y-69099523D01*
X131603809Y-69194761D01*
X131460952Y-69242380D01*
X131365714Y-69242380D01*
X132127619Y-68242380D02*
X132746666Y-68242380D01*
X132413333Y-68623333D01*
X132556190Y-68623333D01*
X132651428Y-68670952D01*
X132699047Y-68718571D01*
X132746666Y-68813809D01*
X132746666Y-69051904D01*
X132699047Y-69147142D01*
X132651428Y-69194761D01*
X132556190Y-69242380D01*
X132270476Y-69242380D01*
X132175238Y-69194761D01*
X132127619Y-69147142D01*
X108732380Y-135113333D02*
X109446666Y-135113333D01*
X109589523Y-135160952D01*
X109684761Y-135256190D01*
X109732380Y-135399047D01*
X109732380Y-135494285D01*
X109732380Y-134113333D02*
X109732380Y-134684761D01*
X109732380Y-134399047D02*
X108732380Y-134399047D01*
X108875238Y-134494285D01*
X108970476Y-134589523D01*
X109018095Y-134684761D01*
X134524761Y-143327619D02*
X134429523Y-143280000D01*
X134334285Y-143184761D01*
X134191428Y-143041904D01*
X134096190Y-142994285D01*
X134000952Y-142994285D01*
X134048571Y-143232380D02*
X133953333Y-143184761D01*
X133858095Y-143089523D01*
X133810476Y-142899047D01*
X133810476Y-142565714D01*
X133858095Y-142375238D01*
X133953333Y-142280000D01*
X134048571Y-142232380D01*
X134239047Y-142232380D01*
X134334285Y-142280000D01*
X134429523Y-142375238D01*
X134477142Y-142565714D01*
X134477142Y-142899047D01*
X134429523Y-143089523D01*
X134334285Y-143184761D01*
X134239047Y-143232380D01*
X134048571Y-143232380D01*
X135429523Y-143232380D02*
X134858095Y-143232380D01*
X135143809Y-143232380D02*
X135143809Y-142232380D01*
X135048571Y-142375238D01*
X134953333Y-142470476D01*
X134858095Y-142518095D01*
G36*
X223074437Y-83473715D02*
G01*
X223475692Y-83473715D01*
X223493313Y-83464942D01*
X223526245Y-83422061D01*
X223527754Y-83419606D01*
X223670148Y-83419606D01*
X223691002Y-83440460D01*
X223693457Y-83438005D01*
X223840271Y-83438005D01*
X223846950Y-83480544D01*
X223856558Y-83461314D01*
X224003810Y-83461314D01*
X224024663Y-83482168D01*
X224045517Y-83461314D01*
X224045007Y-83460804D01*
X224177214Y-83460804D01*
X224184604Y-83482168D01*
X224209914Y-83447224D01*
X224246080Y-83361687D01*
X224251109Y-83347570D01*
X224272354Y-83270181D01*
X224265624Y-83248791D01*
X224259877Y-83253727D01*
X224223572Y-83313096D01*
X224192260Y-83393526D01*
X224177214Y-83460804D01*
X224045007Y-83460804D01*
X224024663Y-83440460D01*
X224003810Y-83461314D01*
X223856558Y-83461314D01*
X223866131Y-83442156D01*
X223866761Y-83440460D01*
X223903510Y-83350434D01*
X223928331Y-83294483D01*
X223953274Y-83236984D01*
X223939313Y-83245973D01*
X223901841Y-83292028D01*
X223852298Y-83380128D01*
X223840271Y-83438005D01*
X223693457Y-83438005D01*
X223711856Y-83419606D01*
X223691002Y-83398752D01*
X223670148Y-83419606D01*
X223527754Y-83419606D01*
X223573379Y-83345399D01*
X223586732Y-83304904D01*
X223571136Y-83278951D01*
X223536454Y-83308270D01*
X223500844Y-83373492D01*
X223489572Y-83408529D01*
X223475692Y-83473715D01*
X223074437Y-83473715D01*
X223048527Y-83410984D01*
X223055455Y-83398752D01*
X223294778Y-83398752D01*
X223309008Y-83439376D01*
X223313171Y-83440460D01*
X223348780Y-83411234D01*
X223357340Y-83398752D01*
X223354033Y-83360319D01*
X223338948Y-83357044D01*
X223296476Y-83387321D01*
X223294778Y-83398752D01*
X223055455Y-83398752D01*
X223098925Y-83322005D01*
X223119047Y-83302538D01*
X223291573Y-83195812D01*
X223536270Y-83120244D01*
X223839168Y-83078288D01*
X223993426Y-83064332D01*
X224109442Y-83049911D01*
X224167472Y-83037609D01*
X224170640Y-83034905D01*
X224147079Y-82973349D01*
X224080322Y-82853315D01*
X224067696Y-82832742D01*
X224359142Y-82832742D01*
X224367608Y-82856552D01*
X224427551Y-82827724D01*
X224463431Y-82792982D01*
X224501528Y-82728409D01*
X224484139Y-82710579D01*
X224428228Y-82744888D01*
X224400264Y-82772881D01*
X224359142Y-82832742D01*
X224067696Y-82832742D01*
X223976265Y-82683765D01*
X223840801Y-82473663D01*
X223679824Y-82231972D01*
X223614289Y-82136056D01*
X223948273Y-82136056D01*
X223952516Y-82165740D01*
X223995236Y-82159927D01*
X224033515Y-82121615D01*
X224068299Y-82056684D01*
X224067926Y-82030904D01*
X224028299Y-82041126D01*
X223986928Y-82075029D01*
X223948273Y-82136056D01*
X223614289Y-82136056D01*
X223499228Y-81967655D01*
X223304907Y-81689675D01*
X223102754Y-81406997D01*
X223075337Y-81369173D01*
X222786186Y-80954439D01*
X222723824Y-80854581D01*
X223044532Y-80854581D01*
X223059792Y-80888912D01*
X223072337Y-80882387D01*
X223077329Y-80832889D01*
X223072337Y-80826776D01*
X223047542Y-80832501D01*
X223044532Y-80854581D01*
X222723824Y-80854581D01*
X222551700Y-80578968D01*
X222363782Y-80227079D01*
X222214333Y-79883090D01*
X222095258Y-79531319D01*
X222058110Y-79399171D01*
X221994299Y-79089635D01*
X221954786Y-78744593D01*
X221942221Y-78438448D01*
X223289791Y-78438448D01*
X223342888Y-78666866D01*
X223466242Y-78917398D01*
X223657917Y-79185995D01*
X223915982Y-79468607D01*
X224194382Y-79723910D01*
X224440051Y-79933548D01*
X224545165Y-79842652D01*
X224619032Y-79775772D01*
X224734739Y-79667606D01*
X224874339Y-79535038D01*
X224975655Y-79437734D01*
X225228516Y-79171574D01*
X225408634Y-78929334D01*
X225520560Y-78703560D01*
X225568841Y-78486801D01*
X225570450Y-78463402D01*
X225558087Y-78238082D01*
X225490136Y-78073357D01*
X225474704Y-78060164D01*
X226631396Y-78060164D01*
X226646656Y-78094494D01*
X226659201Y-78087969D01*
X226664193Y-78038472D01*
X226659201Y-78032359D01*
X226634406Y-78038084D01*
X226631396Y-78060164D01*
X225474704Y-78060164D01*
X225361908Y-77963736D01*
X225168717Y-77903730D01*
X225083726Y-77893333D01*
X224841633Y-77872480D01*
X224995784Y-77687256D01*
X226506273Y-77687256D01*
X226538085Y-77725379D01*
X226547980Y-77726503D01*
X226584584Y-77692554D01*
X226589688Y-77661480D01*
X226569468Y-77618310D01*
X226547980Y-77622233D01*
X226507864Y-77675555D01*
X226506273Y-77687256D01*
X224995784Y-77687256D01*
X225153054Y-77498284D01*
X225922365Y-77498284D01*
X225952283Y-77484654D01*
X226030969Y-77430651D01*
X226141816Y-77347717D01*
X226149369Y-77341884D01*
X226274250Y-77237885D01*
X226334476Y-77166926D01*
X226337404Y-77119954D01*
X226333817Y-77114963D01*
X226294960Y-77102764D01*
X226231257Y-77143048D01*
X226132271Y-77243004D01*
X226106812Y-77271363D01*
X226013389Y-77379221D01*
X225947037Y-77460920D01*
X225922365Y-77498284D01*
X225153054Y-77498284D01*
X225270789Y-77356816D01*
X225424968Y-77175602D01*
X225569266Y-77013373D01*
X225691748Y-76883008D01*
X225780482Y-76797385D01*
X225811155Y-76773675D01*
X225897762Y-76714058D01*
X225914181Y-76671612D01*
X225865035Y-76626610D01*
X225848142Y-76615814D01*
X225815907Y-76606024D01*
X225776106Y-76620875D01*
X225720996Y-76668563D01*
X225642833Y-76757283D01*
X225533876Y-76895230D01*
X225386381Y-77090598D01*
X225337222Y-77156572D01*
X225174513Y-77370761D01*
X225008465Y-77581399D01*
X224853499Y-77770729D01*
X224724036Y-77920994D01*
X224663577Y-77986062D01*
X224546172Y-78104546D01*
X224471871Y-78170708D01*
X224425827Y-78192228D01*
X224393194Y-78176783D01*
X224365019Y-78140480D01*
X224218793Y-77995079D01*
X224036198Y-77906452D01*
X223837290Y-77876189D01*
X223642129Y-77905880D01*
X223470772Y-77997115D01*
X223402092Y-78064152D01*
X223308881Y-78236194D01*
X223289791Y-78438448D01*
X221942221Y-78438448D01*
X221940224Y-78389802D01*
X221951268Y-78051014D01*
X221965551Y-77937296D01*
X222211842Y-77937296D01*
X222211856Y-77945468D01*
X222213334Y-78081018D01*
X222270758Y-77977272D01*
X222306294Y-77891894D01*
X222308526Y-77841722D01*
X222263266Y-77807050D01*
X222227114Y-77843119D01*
X222211842Y-77937296D01*
X221965551Y-77937296D01*
X221986874Y-77767522D01*
X224103890Y-77767522D01*
X224104971Y-77768210D01*
X224136795Y-77736305D01*
X224201348Y-77652174D01*
X224285385Y-77533191D01*
X224295764Y-77517964D01*
X224375294Y-77396999D01*
X224428712Y-77308169D01*
X224445930Y-77268405D01*
X224444849Y-77267718D01*
X224413025Y-77299622D01*
X224348471Y-77383754D01*
X224264435Y-77502737D01*
X224254056Y-77517964D01*
X224174526Y-77638929D01*
X224121108Y-77727759D01*
X224103890Y-77767522D01*
X221986874Y-77767522D01*
X221988574Y-77753987D01*
X222013495Y-77643087D01*
X222166838Y-77208902D01*
X222168919Y-77205156D01*
X224462594Y-77205156D01*
X224483448Y-77226010D01*
X224504302Y-77205156D01*
X224483448Y-77184302D01*
X224462594Y-77205156D01*
X222168919Y-77205156D01*
X222379372Y-76826297D01*
X222444524Y-76746371D01*
X225206443Y-76746371D01*
X225333889Y-76600394D01*
X225410029Y-76507241D01*
X225456205Y-76439313D01*
X225462458Y-76423136D01*
X225447239Y-76387302D01*
X225403353Y-76415896D01*
X225341109Y-76499599D01*
X225300984Y-76569113D01*
X225206443Y-76746371D01*
X222444524Y-76746371D01*
X222645519Y-76499800D01*
X222959706Y-76233941D01*
X222980377Y-76222309D01*
X224723067Y-76222309D01*
X224728772Y-76225025D01*
X224766834Y-76195663D01*
X224775402Y-76183317D01*
X224786030Y-76144325D01*
X224780325Y-76141609D01*
X224742263Y-76170971D01*
X224733695Y-76183317D01*
X224723067Y-76222309D01*
X222980377Y-76222309D01*
X223123790Y-76141609D01*
X224233202Y-76141609D01*
X224284606Y-76181691D01*
X224295764Y-76183317D01*
X224349776Y-76153121D01*
X224358325Y-76141609D01*
X224345226Y-76109083D01*
X224295764Y-76099902D01*
X224236560Y-76115577D01*
X224233202Y-76141609D01*
X223123790Y-76141609D01*
X223316356Y-76033250D01*
X223709893Y-75902256D01*
X224134742Y-75845488D01*
X224228914Y-75843417D01*
X224592191Y-75860418D01*
X224921821Y-75918889D01*
X225256869Y-76026743D01*
X225380484Y-76076712D01*
X225809730Y-76296247D01*
X226171117Y-76564098D01*
X226464491Y-76880095D01*
X226689702Y-77244070D01*
X226846598Y-77655853D01*
X226865437Y-77726503D01*
X226917834Y-78063364D01*
X226921306Y-78445739D01*
X226877402Y-78852731D01*
X226787672Y-79263444D01*
X226739572Y-79423246D01*
X226634821Y-79719934D01*
X226513208Y-80015382D01*
X226369642Y-80318556D01*
X226199034Y-80638421D01*
X225996294Y-80983944D01*
X225756331Y-81364089D01*
X225474056Y-81787823D01*
X225144378Y-82264111D01*
X225053518Y-82393064D01*
X224916088Y-82589468D01*
X224797234Y-82763050D01*
X224704736Y-82902139D01*
X224646377Y-82995066D01*
X224629425Y-83029107D01*
X224666024Y-83053201D01*
X224755647Y-83064884D01*
X224770795Y-83065090D01*
X224908839Y-83074949D01*
X225090462Y-83101018D01*
X225289593Y-83138038D01*
X225480160Y-83180747D01*
X225636092Y-83223887D01*
X225722005Y-83257005D01*
X225818917Y-83328028D01*
X225835291Y-83396922D01*
X225774007Y-83461728D01*
X225637942Y-83520487D01*
X225429975Y-83571241D01*
X225210361Y-83605193D01*
X225028046Y-83621742D01*
X224795084Y-83633603D01*
X224530451Y-83640778D01*
X224253120Y-83643264D01*
X223982066Y-83641062D01*
X223736261Y-83634172D01*
X223534682Y-83622593D01*
X223396301Y-83606325D01*
X223390562Y-83605227D01*
X223194179Y-83552410D01*
X223180648Y-83544729D01*
X224333992Y-83544729D01*
X224372507Y-83480804D01*
X224742253Y-83480804D01*
X224746783Y-83482168D01*
X224748454Y-83480804D01*
X224950791Y-83480804D01*
X224955321Y-83482168D01*
X224996698Y-83448393D01*
X225030609Y-83390787D01*
X225172264Y-83390787D01*
X225179014Y-83437463D01*
X225207847Y-83407145D01*
X225211724Y-83401214D01*
X225338457Y-83401214D01*
X225351860Y-83439109D01*
X225382616Y-83406050D01*
X225395116Y-83377898D01*
X225546995Y-83377898D01*
X225567849Y-83398752D01*
X225588703Y-83377898D01*
X225567849Y-83357044D01*
X225546995Y-83377898D01*
X225395116Y-83377898D01*
X225396078Y-83375732D01*
X225398993Y-83332678D01*
X225379687Y-83336486D01*
X225339939Y-83389885D01*
X225338457Y-83401214D01*
X225211724Y-83401214D01*
X225213333Y-83398752D01*
X225248742Y-83327432D01*
X225254402Y-83302448D01*
X225228871Y-83287309D01*
X225213333Y-83294483D01*
X225177043Y-83354004D01*
X225172264Y-83390787D01*
X225030609Y-83390787D01*
X225041369Y-83372509D01*
X225075221Y-83275526D01*
X225065978Y-83246000D01*
X225024401Y-83287684D01*
X224985945Y-83353169D01*
X224951092Y-83437784D01*
X224950791Y-83480804D01*
X224748454Y-83480804D01*
X224788160Y-83448393D01*
X224832831Y-83372509D01*
X224866682Y-83275526D01*
X224857440Y-83246000D01*
X224815862Y-83287684D01*
X224777407Y-83353169D01*
X224742554Y-83437784D01*
X224742253Y-83480804D01*
X224372507Y-83480804D01*
X224384250Y-83461314D01*
X224547287Y-83461314D01*
X224564498Y-83468774D01*
X224587718Y-83440460D01*
X224623010Y-83364426D01*
X224628148Y-83336191D01*
X224610937Y-83328730D01*
X224587718Y-83357044D01*
X224552425Y-83433078D01*
X224547287Y-83461314D01*
X224384250Y-83461314D01*
X224396815Y-83440460D01*
X224443020Y-83352019D01*
X224461117Y-83296568D01*
X224449123Y-83274008D01*
X224418227Y-83307806D01*
X224382492Y-83377695D01*
X224361273Y-83440460D01*
X224333992Y-83544729D01*
X223180648Y-83544729D01*
X223080223Y-83487724D01*
X223074437Y-83473715D01*
G37*
G36*
X207585367Y-93132157D02*
G01*
X207671803Y-93186049D01*
X207703726Y-93273390D01*
X207686604Y-93369657D01*
X207625899Y-93450326D01*
X207527079Y-93490874D01*
X207505173Y-93492020D01*
X207408777Y-93465905D01*
X207364335Y-93431754D01*
X207327782Y-93331696D01*
X207347023Y-93220731D01*
X207408110Y-93146049D01*
X207496970Y-93124181D01*
X207585367Y-93132157D01*
G37*
G36*
X214173727Y-87625428D02*
G01*
X214258593Y-87687504D01*
X214319391Y-87782032D01*
X214306859Y-87867566D01*
X214244204Y-87944893D01*
X214137607Y-88018109D01*
X214039384Y-88010416D01*
X213976083Y-87962768D01*
X213918211Y-87876157D01*
X213928677Y-87783770D01*
X213975468Y-87703927D01*
X214069157Y-87624413D01*
X214173727Y-87625428D01*
G37*
G36*
X213492981Y-78756754D02*
G01*
X213564393Y-78842349D01*
X213576880Y-78922047D01*
X213544025Y-79024357D01*
X213462904Y-79083189D01*
X213359684Y-79092718D01*
X213260531Y-79047123D01*
X213220362Y-79001385D01*
X213180642Y-78884759D01*
X213212300Y-78788867D01*
X213305033Y-78733705D01*
X213361467Y-78727488D01*
X213492981Y-78756754D01*
G37*
G36*
X194881396Y-86372958D02*
G01*
X194894376Y-86385047D01*
X194836705Y-86391628D01*
X194808407Y-86392032D01*
X194732528Y-86387683D01*
X194723585Y-86376857D01*
X194735419Y-86372958D01*
X194841199Y-86366471D01*
X194881396Y-86372958D01*
G37*
G36*
X206095105Y-81220064D02*
G01*
X206178856Y-81294447D01*
X206204559Y-81391279D01*
X206167992Y-81478558D01*
X206090130Y-81541438D01*
X205991950Y-81565071D01*
X205894429Y-81534608D01*
X205869294Y-81513563D01*
X205824348Y-81418560D01*
X205831939Y-81307006D01*
X205879511Y-81231856D01*
X205982260Y-81194354D01*
X206095105Y-81220064D01*
G37*
G36*
X215445928Y-89422038D02*
G01*
X215466130Y-89440237D01*
X215523808Y-89515706D01*
X215520872Y-89590459D01*
X215503830Y-89632288D01*
X215427630Y-89712423D01*
X215317318Y-89740981D01*
X215207473Y-89713704D01*
X215160748Y-89674529D01*
X215129153Y-89598251D01*
X215153099Y-89511315D01*
X215233611Y-89409509D01*
X215338035Y-89378202D01*
X215445928Y-89422038D01*
G37*
G36*
X194881396Y-85955880D02*
G01*
X194894376Y-85967969D01*
X194836705Y-85974551D01*
X194808407Y-85974954D01*
X194732528Y-85970606D01*
X194723585Y-85959780D01*
X194735419Y-85955880D01*
X194841199Y-85949394D01*
X194881396Y-85955880D01*
G37*
G36*
X203584619Y-89800928D02*
G01*
X203666370Y-89863061D01*
X203689777Y-89954667D01*
X203644508Y-90056565D01*
X203615879Y-90086377D01*
X203505035Y-90148955D01*
X203404444Y-90133672D01*
X203360583Y-90095363D01*
X203327911Y-90011133D01*
X203324195Y-89918105D01*
X203352837Y-89828029D01*
X203428475Y-89791238D01*
X203454854Y-89787446D01*
X203584619Y-89800928D01*
G37*
G36*
X213315329Y-87051713D02*
G01*
X213392161Y-87130008D01*
X213410049Y-87211774D01*
X213378735Y-87323270D01*
X213301788Y-87389239D01*
X213204707Y-87403475D01*
X213112989Y-87359772D01*
X213067323Y-87295185D01*
X213044847Y-87171746D01*
X213093669Y-87079129D01*
X213197639Y-87034549D01*
X213315329Y-87051713D01*
G37*
G36*
X214282465Y-79441157D02*
G01*
X214362478Y-79526879D01*
X214373712Y-79552322D01*
X214382690Y-79666214D01*
X214331448Y-79754029D01*
X214242267Y-79802010D01*
X214137428Y-79796398D01*
X214059498Y-79746348D01*
X213999736Y-79647693D01*
X214021307Y-79546933D01*
X214074278Y-79481322D01*
X214178442Y-79424085D01*
X214282465Y-79441157D01*
G37*
G36*
X206311802Y-91389800D02*
G01*
X206407981Y-91458745D01*
X206441232Y-91558874D01*
X206407951Y-91662729D01*
X206354546Y-91715409D01*
X206273230Y-91767276D01*
X206218146Y-91774162D01*
X206148140Y-91740247D01*
X206142480Y-91736955D01*
X206086120Y-91662144D01*
X206071678Y-91552890D01*
X206100063Y-91447388D01*
X206134544Y-91404566D01*
X206222008Y-91371748D01*
X206311802Y-91389800D01*
G37*
G36*
X219713881Y-82716849D02*
G01*
X219789304Y-82785553D01*
X219826774Y-82878914D01*
X219807908Y-82977940D01*
X219789425Y-83004825D01*
X219715147Y-83047115D01*
X219608976Y-83065090D01*
X219514179Y-83054129D01*
X219485473Y-83037285D01*
X219458528Y-82962118D01*
X219464550Y-82855205D01*
X219498406Y-82759006D01*
X219522722Y-82729361D01*
X219618893Y-82691788D01*
X219713881Y-82716849D01*
G37*
G36*
X194666353Y-84952644D02*
G01*
X194671927Y-84953207D01*
X194711393Y-84960941D01*
X194675660Y-84966808D01*
X194572940Y-84969786D01*
X194537307Y-84969959D01*
X194415554Y-84968122D01*
X194355323Y-84962949D01*
X194366438Y-84955466D01*
X194379973Y-84953544D01*
X194517895Y-84946541D01*
X194666353Y-84952644D01*
G37*
G36*
X211195673Y-95275105D02*
G01*
X211203183Y-95281171D01*
X211269569Y-95344537D01*
X211277552Y-95400667D01*
X211239814Y-95480739D01*
X211157930Y-95583730D01*
X211065032Y-95604964D01*
X210953162Y-95546045D01*
X210945651Y-95539979D01*
X210879265Y-95476613D01*
X210871283Y-95420483D01*
X210909020Y-95340410D01*
X210990904Y-95237420D01*
X211083802Y-95216185D01*
X211195673Y-95275105D01*
G37*
G36*
X196150820Y-94478321D02*
G01*
X196225218Y-94552586D01*
X196258335Y-94659587D01*
X196247324Y-94743251D01*
X196190033Y-94804926D01*
X196092435Y-94827995D01*
X195990073Y-94808564D01*
X195942857Y-94776618D01*
X195897678Y-94680729D01*
X195906389Y-94568428D01*
X195954828Y-94493455D01*
X196054303Y-94453156D01*
X196150820Y-94478321D01*
G37*
G36*
X192900279Y-86207255D02*
G01*
X192905519Y-86222478D01*
X192848145Y-86228292D01*
X192788935Y-86221737D01*
X192796010Y-86207255D01*
X192881400Y-86201746D01*
X192900279Y-86207255D01*
G37*
G36*
X194548220Y-85914266D02*
G01*
X194557970Y-85925540D01*
X194498075Y-85931866D01*
X194453892Y-85932405D01*
X194373121Y-85928298D01*
X194360867Y-85918878D01*
X194381389Y-85913425D01*
X194490064Y-85906710D01*
X194548220Y-85914266D01*
G37*
G36*
X199433461Y-90425073D02*
G01*
X199510382Y-90487755D01*
X199542040Y-90592015D01*
X199518122Y-90703687D01*
X199517771Y-90704346D01*
X199443623Y-90766688D01*
X199337944Y-90781146D01*
X199236859Y-90748629D01*
X199186874Y-90696027D01*
X199159846Y-90577280D01*
X199199739Y-90479606D01*
X199290110Y-90421073D01*
X199414518Y-90419747D01*
X199433461Y-90425073D01*
G37*
G36*
X210136342Y-95074283D02*
G01*
X210148506Y-95085255D01*
X210193169Y-95179276D01*
X210183605Y-95290692D01*
X210130899Y-95389944D01*
X210046134Y-95447474D01*
X210010870Y-95452283D01*
X209937595Y-95424935D01*
X209888726Y-95386742D01*
X209834937Y-95299615D01*
X209823186Y-95243744D01*
X209856189Y-95137535D01*
X209937292Y-95065164D01*
X210039630Y-95039718D01*
X210136342Y-95074283D01*
G37*
G36*
X193228459Y-85778380D02*
G01*
X193385134Y-85786820D01*
X193570296Y-85800604D01*
X193765825Y-85818279D01*
X193953600Y-85838391D01*
X194115501Y-85859488D01*
X194203645Y-85874045D01*
X194238180Y-85884820D01*
X194206689Y-85889762D01*
X194126318Y-85889452D01*
X194014208Y-85884472D01*
X193887505Y-85875406D01*
X193763351Y-85862834D01*
X193724007Y-85857760D01*
X193540476Y-85837788D01*
X193344944Y-85824378D01*
X193273187Y-85821925D01*
X193154695Y-85813907D01*
X193083418Y-85797612D01*
X193073052Y-85783349D01*
X193118391Y-85776739D01*
X193228459Y-85778380D01*
G37*
G36*
X223743883Y-78364025D02*
G01*
X223766921Y-78372716D01*
X223717296Y-78378784D01*
X223607586Y-78380902D01*
X223500553Y-78378395D01*
X223459322Y-78372227D01*
X223492639Y-78363724D01*
X223493637Y-78363599D01*
X223629652Y-78356788D01*
X223743883Y-78364025D01*
G37*
G36*
X218638916Y-82454887D02*
G01*
X218721319Y-82515747D01*
X218784109Y-82626010D01*
X218764100Y-82729119D01*
X218714072Y-82787526D01*
X218652775Y-82838970D01*
X218605018Y-82848063D01*
X218527522Y-82820913D01*
X218514592Y-82815681D01*
X218427040Y-82742212D01*
X218402432Y-82634296D01*
X218442805Y-82525588D01*
X218534436Y-82450872D01*
X218638916Y-82454887D01*
G37*
G36*
X209700508Y-77012958D02*
G01*
X209732545Y-77097015D01*
X209716491Y-77210361D01*
X209645905Y-77284725D01*
X209544694Y-77309509D01*
X209436763Y-77274115D01*
X209400482Y-77244216D01*
X209351423Y-77146237D01*
X209367087Y-77042317D01*
X209438832Y-76964584D01*
X209480073Y-76948321D01*
X209609858Y-76948080D01*
X209700508Y-77012958D01*
G37*
G36*
X208317565Y-94009584D02*
G01*
X208341594Y-94033151D01*
X208390063Y-94097907D01*
X208386306Y-94154368D01*
X208347097Y-94220836D01*
X208256342Y-94304106D01*
X208151408Y-94324333D01*
X208058548Y-94280153D01*
X208026930Y-94237483D01*
X207998830Y-94120795D01*
X208033709Y-94026761D01*
X208111701Y-93968282D01*
X208212941Y-93958256D01*
X208317565Y-94009584D01*
G37*
G36*
X215708211Y-91568452D02*
G01*
X215713519Y-91574895D01*
X215778162Y-91684247D01*
X215767560Y-91771238D01*
X215694694Y-91842200D01*
X215608794Y-91894869D01*
X215546633Y-91896046D01*
X215468343Y-91843850D01*
X215452060Y-91830748D01*
X215383604Y-91733101D01*
X215386035Y-91628893D01*
X215453390Y-91543998D01*
X215525471Y-91512326D01*
X215628554Y-91507808D01*
X215708211Y-91568452D01*
G37*
G36*
X221922460Y-82804988D02*
G01*
X221934485Y-82822530D01*
X221977450Y-82941144D01*
X221957992Y-83047578D01*
X221882163Y-83116579D01*
X221862433Y-83123226D01*
X221765949Y-83144334D01*
X221708345Y-83133001D01*
X221650303Y-83082965D01*
X221586928Y-82974461D01*
X221598657Y-82868259D01*
X221679013Y-82784068D01*
X221759068Y-82751914D01*
X221854197Y-82747250D01*
X221922460Y-82804988D01*
G37*
G36*
X195340667Y-85455481D02*
G01*
X195350417Y-85466755D01*
X195290522Y-85473081D01*
X195246338Y-85473620D01*
X195165568Y-85469514D01*
X195153314Y-85460094D01*
X195173836Y-85454640D01*
X195282511Y-85447925D01*
X195340667Y-85455481D01*
G37*
G36*
X212349495Y-86561953D02*
G01*
X212422274Y-86644530D01*
X212450772Y-86735370D01*
X212417768Y-86841578D01*
X212336666Y-86913949D01*
X212234327Y-86939396D01*
X212137615Y-86904830D01*
X212125452Y-86893859D01*
X212080788Y-86799837D01*
X212090352Y-86688421D01*
X212143059Y-86589169D01*
X212227824Y-86531639D01*
X212263087Y-86526831D01*
X212349495Y-86561953D01*
G37*
G36*
X193835227Y-84914133D02*
G01*
X193829502Y-84938928D01*
X193807422Y-84941938D01*
X193773092Y-84926678D01*
X193779617Y-84914133D01*
X193829114Y-84909141D01*
X193835227Y-84914133D01*
G37*
G36*
X193442480Y-86247150D02*
G01*
X193462244Y-86257464D01*
X193409843Y-86264008D01*
X193348637Y-86265225D01*
X193258430Y-86261971D01*
X193233667Y-86253653D01*
X193254795Y-86247150D01*
X193376330Y-86240250D01*
X193442480Y-86247150D01*
G37*
G36*
X193192233Y-88084102D02*
G01*
X193197473Y-88099325D01*
X193140099Y-88105139D01*
X193080889Y-88098584D01*
X193087964Y-88084102D01*
X193173354Y-88078593D01*
X193192233Y-88084102D01*
G37*
G36*
X209374598Y-85211706D02*
G01*
X209454403Y-85262688D01*
X209501318Y-85348445D01*
X209496988Y-85453764D01*
X209470673Y-85507789D01*
X209377207Y-85592437D01*
X209269266Y-85599672D01*
X209179695Y-85543720D01*
X209121155Y-85452429D01*
X209135819Y-85355695D01*
X209189732Y-85274922D01*
X209280256Y-85210713D01*
X209374598Y-85211706D01*
G37*
G36*
X215420472Y-92583830D02*
G01*
X215434916Y-92592807D01*
X215520547Y-92684847D01*
X215525853Y-92788251D01*
X215460870Y-92880794D01*
X215372629Y-92940270D01*
X215291386Y-92933791D01*
X215204911Y-92875949D01*
X215139413Y-92795582D01*
X215140689Y-92694595D01*
X215141876Y-92689759D01*
X215201199Y-92584749D01*
X215299481Y-92547647D01*
X215420472Y-92583830D01*
G37*
G36*
X205562478Y-90691540D02*
G01*
X205572094Y-90700698D01*
X205640449Y-90790684D01*
X205641484Y-90878124D01*
X205609239Y-90950591D01*
X205533457Y-91016617D01*
X205428207Y-91024498D01*
X205324088Y-90973968D01*
X205302792Y-90953257D01*
X205256457Y-90878774D01*
X205268949Y-90796245D01*
X205280559Y-90769107D01*
X205358999Y-90668613D01*
X205458855Y-90641376D01*
X205562478Y-90691540D01*
G37*
G36*
X194380034Y-85375524D02*
G01*
X194367595Y-85394481D01*
X194325293Y-85397430D01*
X194280789Y-85387244D01*
X194300094Y-85372231D01*
X194365279Y-85367259D01*
X194380034Y-85375524D01*
G37*
G36*
X206943749Y-83152473D02*
G01*
X206984363Y-83176335D01*
X207053752Y-83267048D01*
X207066376Y-83379505D01*
X207020427Y-83473826D01*
X206943469Y-83511348D01*
X206854391Y-83523875D01*
X206759961Y-83503481D01*
X206714808Y-83429546D01*
X206712989Y-83422616D01*
X206705284Y-83282492D01*
X206750737Y-83182083D01*
X206835006Y-83134405D01*
X206943749Y-83152473D01*
G37*
G36*
X214935374Y-88438800D02*
G01*
X215008153Y-88521377D01*
X215036650Y-88612217D01*
X215006990Y-88704325D01*
X214937768Y-88784782D01*
X214858621Y-88819508D01*
X214856413Y-88819487D01*
X214781186Y-88798728D01*
X214734269Y-88775707D01*
X214675343Y-88700875D01*
X214669045Y-88598074D01*
X214706594Y-88495787D01*
X214779207Y-88422500D01*
X214848966Y-88403678D01*
X214935374Y-88438800D01*
G37*
G36*
X207639592Y-83963486D02*
G01*
X207740541Y-84034155D01*
X207774240Y-84137764D01*
X207735242Y-84251227D01*
X207713833Y-84278054D01*
X207651829Y-84338988D01*
X207598421Y-84351182D01*
X207517092Y-84318868D01*
X207487923Y-84304233D01*
X207392654Y-84227323D01*
X207378282Y-84132186D01*
X207439728Y-84021565D01*
X207509864Y-83953953D01*
X207583938Y-83946983D01*
X207639592Y-83963486D01*
G37*
G36*
X208463661Y-84636465D02*
G01*
X208538581Y-84700803D01*
X208598129Y-84770948D01*
X208613662Y-84807534D01*
X208591945Y-84862691D01*
X208548735Y-84932657D01*
X208453230Y-85011784D01*
X208343910Y-85013120D01*
X208262125Y-84959812D01*
X208208858Y-84881572D01*
X208196585Y-84834689D01*
X208225628Y-84762129D01*
X208292908Y-84679767D01*
X208368652Y-84619927D01*
X208405123Y-84608276D01*
X208463661Y-84636465D01*
G37*
G36*
X193880411Y-86289542D02*
G01*
X193893391Y-86301631D01*
X193835720Y-86308213D01*
X193807422Y-86308616D01*
X193731542Y-86304268D01*
X193722600Y-86293441D01*
X193734434Y-86289542D01*
X193840214Y-86283056D01*
X193880411Y-86289542D01*
G37*
G36*
X208583633Y-77052478D02*
G01*
X208647740Y-77146720D01*
X208655370Y-77205156D01*
X208620363Y-77321104D01*
X208526121Y-77385211D01*
X208467685Y-77392841D01*
X208371973Y-77370254D01*
X208330049Y-77342792D01*
X208278867Y-77243112D01*
X208292168Y-77137202D01*
X208358233Y-77052759D01*
X208465343Y-77017485D01*
X208467685Y-77017471D01*
X208583633Y-77052478D01*
G37*
G36*
X210349808Y-85729199D02*
G01*
X210431058Y-85803652D01*
X210455144Y-85906122D01*
X210422791Y-86005733D01*
X210341817Y-86069078D01*
X210252805Y-86101062D01*
X210204591Y-86101073D01*
X210159155Y-86064451D01*
X210138973Y-86044213D01*
X210077371Y-85938666D01*
X210081610Y-85833937D01*
X210137937Y-85750574D01*
X210232599Y-85709125D01*
X210349808Y-85729199D01*
G37*
G36*
X190275609Y-96411560D02*
G01*
X191516244Y-96411560D01*
X191521219Y-96453149D01*
X191533815Y-96436708D01*
X191857817Y-96436708D01*
X191889757Y-96446020D01*
X191928978Y-96400675D01*
X191982587Y-96298172D01*
X192039027Y-96160630D01*
X192039419Y-96159558D01*
X192084449Y-96036191D01*
X192389360Y-96036191D01*
X192404620Y-96070521D01*
X192417165Y-96063996D01*
X192422156Y-96014498D01*
X192417165Y-96008385D01*
X192392370Y-96014111D01*
X192389360Y-96036191D01*
X192084449Y-96036191D01*
X192093798Y-96010577D01*
X192123904Y-95923640D01*
X192126766Y-95911067D01*
X192431067Y-95911067D01*
X192446328Y-95945398D01*
X192458873Y-95938873D01*
X192463864Y-95889375D01*
X192458873Y-95883262D01*
X192434077Y-95888987D01*
X192431067Y-95911067D01*
X192126766Y-95911067D01*
X192133343Y-95882172D01*
X192125720Y-95869598D01*
X192104640Y-95869344D01*
X192102542Y-95869360D01*
X192067974Y-95905125D01*
X192015937Y-95998078D01*
X191956607Y-96126704D01*
X191900158Y-96269492D01*
X191868411Y-96364360D01*
X191857817Y-96436708D01*
X191533815Y-96436708D01*
X191546620Y-96419993D01*
X191551428Y-96411560D01*
X191589836Y-96322431D01*
X191614462Y-96244729D01*
X191642100Y-96140460D01*
X191579277Y-96244729D01*
X191532844Y-96342136D01*
X191516244Y-96411560D01*
X190275609Y-96411560D01*
X190272460Y-96405396D01*
X190266936Y-96383666D01*
X191141361Y-96383666D01*
X191172732Y-96405820D01*
X191186878Y-96402261D01*
X191230161Y-96355622D01*
X191278531Y-96259136D01*
X191291848Y-96223627D01*
X191329423Y-96092221D01*
X191332418Y-96025848D01*
X191304864Y-96029214D01*
X191250789Y-96107025D01*
X191228127Y-96149225D01*
X191159724Y-96298760D01*
X191141361Y-96383666D01*
X190266936Y-96383666D01*
X190241829Y-96284895D01*
X190247421Y-96266427D01*
X190736609Y-96266427D01*
X190740190Y-96283662D01*
X190797313Y-96325974D01*
X190859727Y-96288603D01*
X190886414Y-96247471D01*
X190925625Y-96158354D01*
X190915422Y-96122925D01*
X190898309Y-96120932D01*
X190830084Y-96148645D01*
X190766643Y-96206963D01*
X190736609Y-96266427D01*
X190247421Y-96266427D01*
X190276103Y-96171706D01*
X190381219Y-96051723D01*
X190443236Y-95999616D01*
X190697303Y-95844331D01*
X191028186Y-95720528D01*
X191435401Y-95628337D01*
X191918464Y-95567887D01*
X192107833Y-95554102D01*
X192298741Y-95541564D01*
X192454889Y-95529498D01*
X192560022Y-95519288D01*
X192597898Y-95512387D01*
X192578719Y-95473666D01*
X192526143Y-95375863D01*
X192447614Y-95232628D01*
X192359735Y-95074134D01*
X192981081Y-95074134D01*
X192987581Y-95095763D01*
X193023101Y-95150547D01*
X193070719Y-95141358D01*
X193140155Y-95063603D01*
X193181806Y-95003982D01*
X193272302Y-94867604D01*
X193318269Y-94791328D01*
X193322428Y-94766508D01*
X193287497Y-94784502D01*
X193240029Y-94818845D01*
X193103485Y-94922308D01*
X193022833Y-94990546D01*
X192986042Y-95036756D01*
X192981081Y-95074134D01*
X192359735Y-95074134D01*
X192350574Y-95057612D01*
X192322421Y-95007137D01*
X192104501Y-94634103D01*
X191843565Y-94216236D01*
X191551473Y-93771526D01*
X191449287Y-93622684D01*
X192114065Y-93622684D01*
X192132560Y-93671558D01*
X192137695Y-93677996D01*
X192187368Y-93730707D01*
X192204830Y-93742266D01*
X192227949Y-93707708D01*
X192272075Y-93619255D01*
X192304498Y-93548136D01*
X192350828Y-93435390D01*
X192375651Y-93358769D01*
X192376588Y-93340222D01*
X192342527Y-93359101D01*
X192271207Y-93422582D01*
X192223580Y-93470082D01*
X192141455Y-93562667D01*
X192114065Y-93622684D01*
X191449287Y-93622684D01*
X191240086Y-93317965D01*
X190921262Y-92873541D01*
X190869879Y-92803842D01*
X190571390Y-92396213D01*
X190279074Y-91988719D01*
X190001340Y-91593510D01*
X189746596Y-91222734D01*
X189524058Y-90889750D01*
X190178851Y-90889750D01*
X190201231Y-90942525D01*
X190257007Y-90929607D01*
X190304810Y-90884280D01*
X190339081Y-90823401D01*
X190336741Y-90799882D01*
X190281463Y-90792548D01*
X190215496Y-90828098D01*
X190179281Y-90883514D01*
X190178851Y-90889750D01*
X189524058Y-90889750D01*
X189523250Y-90888541D01*
X189339709Y-90603081D01*
X189280696Y-90507523D01*
X188840074Y-89710570D01*
X188481805Y-88903578D01*
X188206038Y-88087050D01*
X188012921Y-87261485D01*
X187902603Y-86427386D01*
X187874065Y-85755238D01*
X187874470Y-85742363D01*
X190729697Y-85742363D01*
X190742886Y-85777736D01*
X190806622Y-85806637D01*
X190933558Y-85833415D01*
X191042505Y-85849879D01*
X191367521Y-85895226D01*
X191061654Y-85876752D01*
X190755788Y-85858277D01*
X190774702Y-85998626D01*
X190851399Y-86312321D01*
X191000382Y-86646038D01*
X191223057Y-87001975D01*
X191520828Y-87382332D01*
X191895103Y-87789305D01*
X191965242Y-87860100D01*
X192245666Y-88137226D01*
X192475098Y-88356557D01*
X192658398Y-88522254D01*
X192800426Y-88638479D01*
X192906041Y-88709395D01*
X192980102Y-88739164D01*
X192993306Y-88740633D01*
X193042037Y-88750104D01*
X193019176Y-88767038D01*
X192993451Y-88796088D01*
X193034865Y-88846399D01*
X193060884Y-88867350D01*
X193134208Y-88917841D01*
X193179637Y-88914788D01*
X193230199Y-88861799D01*
X193294726Y-88799101D01*
X193334469Y-88778683D01*
X193378625Y-88752084D01*
X193468311Y-88680970D01*
X193588180Y-88577855D01*
X193661445Y-88512009D01*
X193953399Y-88245699D01*
X193807422Y-88218883D01*
X193670405Y-88192631D01*
X193511969Y-88160840D01*
X193473760Y-88152941D01*
X193286076Y-88113816D01*
X193484187Y-88133624D01*
X193652106Y-88152132D01*
X193822758Y-88173465D01*
X193860489Y-88178654D01*
X194038680Y-88203875D01*
X194468868Y-87757239D01*
X194633610Y-87577802D01*
X194802375Y-87379346D01*
X194965985Y-87174327D01*
X195115261Y-86975204D01*
X195241022Y-86794432D01*
X195334090Y-86644468D01*
X195385286Y-86537771D01*
X195392315Y-86504055D01*
X195355385Y-86461016D01*
X195263699Y-86432806D01*
X195256765Y-86431879D01*
X195173789Y-86420760D01*
X195166400Y-86414710D01*
X195237939Y-86410142D01*
X195278651Y-86408383D01*
X195391908Y-86391777D01*
X195453431Y-86342998D01*
X195476763Y-86294723D01*
X195510348Y-86188254D01*
X195503770Y-86120577D01*
X195444678Y-86078334D01*
X195320716Y-86048164D01*
X195235911Y-86034260D01*
X194954384Y-85990719D01*
X195256765Y-86012762D01*
X195559146Y-86034804D01*
X195559146Y-85905448D01*
X195544215Y-85812015D01*
X195507012Y-85772799D01*
X195476277Y-85764416D01*
X195507012Y-85748470D01*
X195551374Y-85696487D01*
X195558839Y-85617185D01*
X195532519Y-85548236D01*
X195488613Y-85525846D01*
X195440715Y-85521041D01*
X195461437Y-85494632D01*
X195489392Y-85473701D01*
X195528632Y-85436744D01*
X195534185Y-85390431D01*
X195503676Y-85310313D01*
X195466082Y-85233882D01*
X195406780Y-85125546D01*
X195349878Y-85066637D01*
X195265926Y-85037871D01*
X195142069Y-85021724D01*
X194912677Y-84997242D01*
X195121215Y-84988749D01*
X195149449Y-84987599D01*
X197751481Y-84987599D01*
X197775288Y-85029505D01*
X197780085Y-85032682D01*
X197831303Y-85060772D01*
X197849987Y-85041024D01*
X197851785Y-84955901D01*
X197851744Y-84952365D01*
X197847345Y-84874712D01*
X197826844Y-84872351D01*
X197789186Y-84918624D01*
X197751481Y-84987599D01*
X195149449Y-84987599D01*
X195329754Y-84980255D01*
X195183777Y-84855430D01*
X195049881Y-84758844D01*
X194904306Y-84696289D01*
X194727025Y-84662941D01*
X194498016Y-84653980D01*
X194359943Y-84657063D01*
X194193718Y-84660184D01*
X194065813Y-84657200D01*
X193993887Y-84648810D01*
X193984573Y-84642181D01*
X194014257Y-84601251D01*
X194093533Y-84501126D01*
X194218479Y-84346596D01*
X194265425Y-84289102D01*
X197538066Y-84289102D01*
X197594820Y-84302593D01*
X197620812Y-84301660D01*
X197700634Y-84292751D01*
X197727918Y-84282656D01*
X197718472Y-84238434D01*
X197694394Y-84140221D01*
X197677573Y-84074118D01*
X197627198Y-83878391D01*
X197599788Y-84024368D01*
X197572857Y-84143704D01*
X197544720Y-84235073D01*
X197543057Y-84239098D01*
X197538066Y-84289102D01*
X194265425Y-84289102D01*
X194385170Y-84142452D01*
X194555348Y-83935282D01*
X196199708Y-83935282D01*
X196237893Y-83910952D01*
X196321731Y-83842580D01*
X196449791Y-83733388D01*
X196601839Y-83602731D01*
X196756391Y-83474002D01*
X196906844Y-83355405D01*
X197029616Y-83265271D01*
X197071051Y-83237955D01*
X197165754Y-83175296D01*
X197221337Y-83130056D01*
X197227455Y-83120402D01*
X197204364Y-83075884D01*
X197150329Y-83001051D01*
X197073203Y-82903002D01*
X196743679Y-83283546D01*
X196532126Y-83527750D01*
X196373385Y-83711803D01*
X196266022Y-83838929D01*
X196208607Y-83912348D01*
X196199708Y-83935282D01*
X194555348Y-83935282D01*
X194589683Y-83893483D01*
X194828093Y-83604479D01*
X195096478Y-83280231D01*
X195384003Y-82933841D01*
X195634709Y-82646999D01*
X195854577Y-82428115D01*
X196050504Y-82270757D01*
X196178945Y-82192813D01*
X196319105Y-82120125D01*
X196152089Y-81987846D01*
X196053577Y-81912540D01*
X195984309Y-81864630D01*
X195965914Y-81855567D01*
X195935860Y-81887882D01*
X195871925Y-81974214D01*
X195785691Y-82098642D01*
X195745932Y-82157948D01*
X195640507Y-82311732D01*
X195502193Y-82506022D01*
X195337832Y-82731849D01*
X195154268Y-82980243D01*
X194958345Y-83242234D01*
X194756907Y-83508853D01*
X194556798Y-83771131D01*
X194364862Y-84020098D01*
X194187943Y-84246785D01*
X194032884Y-84442222D01*
X193906529Y-84597440D01*
X193815723Y-84703469D01*
X193767309Y-84751340D01*
X193766945Y-84751567D01*
X193693339Y-84807046D01*
X193592257Y-84895920D01*
X193481324Y-85000930D01*
X193378164Y-85104815D01*
X193300402Y-85190315D01*
X193265662Y-85240169D01*
X193265222Y-85242921D01*
X193238743Y-85302153D01*
X193209028Y-85337752D01*
X193157630Y-85369233D01*
X193105021Y-85336926D01*
X193083905Y-85313442D01*
X193031230Y-85239106D01*
X193014975Y-85197019D01*
X192982941Y-85139919D01*
X192899105Y-85052963D01*
X192781867Y-84951348D01*
X192649628Y-84850270D01*
X192520788Y-84764927D01*
X192438394Y-84720812D01*
X192307783Y-84672453D01*
X192161514Y-84644347D01*
X191972040Y-84632141D01*
X191868013Y-84630686D01*
X191680621Y-84632441D01*
X191548603Y-84643513D01*
X191443984Y-84669822D01*
X191338793Y-84717288D01*
X191263251Y-84758677D01*
X191042669Y-84920634D01*
X190915695Y-85077812D01*
X190833377Y-85230232D01*
X190776327Y-85375834D01*
X190749582Y-85496082D01*
X190758181Y-85572440D01*
X190776956Y-85588259D01*
X190831501Y-85594974D01*
X190956280Y-85605060D01*
X191138221Y-85617628D01*
X191364251Y-85631790D01*
X191621297Y-85646658D01*
X191701182Y-85651051D01*
X192005058Y-85668783D01*
X192280600Y-85687179D01*
X192520205Y-85705480D01*
X192716268Y-85722926D01*
X192861184Y-85738758D01*
X192947349Y-85752215D01*
X192967159Y-85762538D01*
X192913008Y-85768968D01*
X192889852Y-85769800D01*
X192796525Y-85768748D01*
X192639160Y-85763060D01*
X192436955Y-85753583D01*
X192209107Y-85741164D01*
X192118259Y-85735756D01*
X191728106Y-85713071D01*
X191413994Y-85697559D01*
X191168856Y-85689253D01*
X190985624Y-85688188D01*
X190857230Y-85694396D01*
X190776606Y-85707912D01*
X190736685Y-85728769D01*
X190729697Y-85742363D01*
X187874470Y-85742363D01*
X187893601Y-85134313D01*
X187902357Y-85058255D01*
X188438932Y-85058255D01*
X188443374Y-85067061D01*
X188470649Y-85032959D01*
X188522518Y-84944191D01*
X188578447Y-84838064D01*
X188640790Y-84711491D01*
X188667526Y-84637200D01*
X188661265Y-84593327D01*
X188624613Y-84558008D01*
X188612897Y-84549336D01*
X188601555Y-84542717D01*
X192333627Y-84542717D01*
X192337961Y-84551558D01*
X192340460Y-84550159D01*
X192379166Y-84507664D01*
X192455864Y-84409040D01*
X192561187Y-84266827D01*
X192685769Y-84093566D01*
X192757665Y-83991635D01*
X192951058Y-83713278D01*
X193116441Y-83470522D01*
X193249705Y-83269682D01*
X193346739Y-83117077D01*
X193403434Y-83019022D01*
X193415679Y-82981835D01*
X193414781Y-82981675D01*
X193385418Y-83014092D01*
X193317368Y-83103547D01*
X193219208Y-83238342D01*
X193099513Y-83406780D01*
X193024878Y-83513448D01*
X192807911Y-83826008D01*
X192636013Y-84075549D01*
X192505909Y-84267031D01*
X192414327Y-84405413D01*
X192357991Y-84495655D01*
X192333627Y-84542717D01*
X188601555Y-84542717D01*
X188548937Y-84512009D01*
X188516794Y-84533591D01*
X188506137Y-84559367D01*
X188485798Y-84639674D01*
X188465641Y-84756137D01*
X188448934Y-84882337D01*
X188438942Y-84991850D01*
X188438932Y-85058255D01*
X187902357Y-85058255D01*
X187958909Y-84566999D01*
X188074102Y-84034638D01*
X188243293Y-83518575D01*
X188470593Y-83000153D01*
X188490015Y-82960821D01*
X188812462Y-82397241D01*
X188921733Y-82251790D01*
X191388374Y-82251790D01*
X191409228Y-82272644D01*
X191430082Y-82251790D01*
X191429543Y-82251251D01*
X194766700Y-82251251D01*
X194790292Y-82232248D01*
X194854504Y-82158589D01*
X194949490Y-82042032D01*
X195063710Y-81896530D01*
X195194445Y-81723030D01*
X195275900Y-81602947D01*
X195313515Y-81526741D01*
X195312732Y-81484869D01*
X195303530Y-81475996D01*
X195219854Y-81441037D01*
X195184724Y-81471556D01*
X195183777Y-81484832D01*
X195163332Y-81538632D01*
X195108395Y-81645226D01*
X195028560Y-81786598D01*
X194975238Y-81876420D01*
X194885778Y-82027405D01*
X194815518Y-82151462D01*
X194773939Y-82231550D01*
X194766700Y-82251251D01*
X191429543Y-82251251D01*
X191409228Y-82230936D01*
X191388374Y-82251790D01*
X188921733Y-82251790D01*
X189187069Y-81898599D01*
X189614582Y-81464284D01*
X189922353Y-81227235D01*
X194526679Y-81227235D01*
X194532384Y-81229951D01*
X194570446Y-81200589D01*
X194579015Y-81188243D01*
X194589643Y-81149251D01*
X194583938Y-81146535D01*
X194545876Y-81175897D01*
X194537307Y-81188243D01*
X194526679Y-81227235D01*
X189922353Y-81227235D01*
X190032488Y-81142408D01*
X193764992Y-81142408D01*
X193795887Y-81129570D01*
X193820467Y-81110148D01*
X193877799Y-81039273D01*
X193890837Y-80995452D01*
X193866593Y-80943308D01*
X193849130Y-80937997D01*
X193808609Y-80967232D01*
X193807422Y-80976293D01*
X193793923Y-81044734D01*
X193778759Y-81090990D01*
X193764992Y-81142408D01*
X190032488Y-81142408D01*
X190095745Y-81093687D01*
X190511478Y-80854996D01*
X192618752Y-80854996D01*
X192743875Y-80957558D01*
X192824147Y-81023106D01*
X192869013Y-81059261D01*
X192872155Y-81061620D01*
X192899417Y-81035844D01*
X192962116Y-80970690D01*
X192973268Y-80958851D01*
X193071224Y-80854581D01*
X192844988Y-80854789D01*
X192618752Y-80854996D01*
X190511478Y-80854996D01*
X190631303Y-80786199D01*
X191222000Y-80541209D01*
X191583142Y-80429438D01*
X191794477Y-80387344D01*
X192068520Y-80356464D01*
X192385303Y-80336959D01*
X192724855Y-80328987D01*
X193067206Y-80332709D01*
X193392385Y-80348284D01*
X193680422Y-80375872D01*
X193890837Y-80410982D01*
X194492339Y-80573118D01*
X195091432Y-80791893D01*
X195664196Y-81057140D01*
X196186709Y-81358694D01*
X196303433Y-81436337D01*
X196527750Y-81606054D01*
X196774432Y-81819466D01*
X197025191Y-82058378D01*
X197261742Y-82304594D01*
X197465797Y-82539918D01*
X197617682Y-82744044D01*
X197790963Y-83038132D01*
X197961207Y-83382625D01*
X198113901Y-83745309D01*
X198234532Y-84093965D01*
X198250798Y-84149491D01*
X198290869Y-84298150D01*
X198320981Y-84434047D01*
X198343014Y-84574447D01*
X198358850Y-84736613D01*
X198370370Y-84937809D01*
X198379458Y-85195301D01*
X198384277Y-85374152D01*
X198390177Y-85780227D01*
X198385826Y-86118042D01*
X198371363Y-86382209D01*
X198355185Y-86521114D01*
X198241404Y-87091800D01*
X198074865Y-87704552D01*
X197861568Y-88342228D01*
X197607516Y-88987687D01*
X197318708Y-89623787D01*
X197155900Y-89946864D01*
X196994813Y-90250593D01*
X196833511Y-90544297D01*
X196667156Y-90835507D01*
X196490912Y-91131752D01*
X196299940Y-91440564D01*
X196089402Y-91769473D01*
X195854462Y-92126008D01*
X195590282Y-92517700D01*
X195292023Y-92952079D01*
X194954849Y-93436676D01*
X194573922Y-93979020D01*
X194480342Y-94111685D01*
X194274290Y-94405065D01*
X194084248Y-94678481D01*
X193915465Y-94924166D01*
X193773191Y-95134352D01*
X193662674Y-95301273D01*
X193589163Y-95417161D01*
X193557909Y-95474251D01*
X193557176Y-95477613D01*
X193586340Y-95516069D01*
X193681099Y-95533753D01*
X193755287Y-95535806D01*
X193898674Y-95544087D01*
X194103566Y-95566641D01*
X194349915Y-95600210D01*
X194617673Y-95641534D01*
X194886792Y-95687354D01*
X195137227Y-95734412D01*
X195348928Y-95779447D01*
X195501848Y-95819201D01*
X195505518Y-95820341D01*
X195721864Y-95898950D01*
X195906900Y-95987053D01*
X196046910Y-96076426D01*
X196128180Y-96158843D01*
X196143054Y-96202657D01*
X196107038Y-96284317D01*
X196012861Y-96376542D01*
X195881325Y-96463017D01*
X195733235Y-96527430D01*
X195725977Y-96529715D01*
X195527727Y-96579842D01*
X195265124Y-96629649D01*
X194957188Y-96676209D01*
X194622942Y-96716595D01*
X194336924Y-96743511D01*
X194111039Y-96757222D01*
X193821541Y-96767716D01*
X193485261Y-96775004D01*
X193119033Y-96779099D01*
X192739688Y-96780010D01*
X192364058Y-96777749D01*
X192008975Y-96772327D01*
X191691272Y-96763754D01*
X191427780Y-96752043D01*
X191279068Y-96741495D01*
X190990133Y-96704022D01*
X190732583Y-96648082D01*
X190519181Y-96577935D01*
X190362688Y-96497841D01*
X190333250Y-96468757D01*
X192226867Y-96468757D01*
X192238074Y-96494272D01*
X192244415Y-96494975D01*
X192255521Y-96482203D01*
X192564043Y-96482203D01*
X192574877Y-96494975D01*
X192605173Y-96460022D01*
X192611502Y-96448532D01*
X192941191Y-96448532D01*
X192945361Y-96490163D01*
X192972804Y-96488179D01*
X193013646Y-96447292D01*
X193352484Y-96447292D01*
X193369821Y-96477872D01*
X193404134Y-96471061D01*
X193438381Y-96431320D01*
X193771693Y-96431320D01*
X193790562Y-96456609D01*
X193816628Y-96435163D01*
X194182792Y-96435163D01*
X194212452Y-96451984D01*
X194277718Y-96429828D01*
X194291565Y-96421348D01*
X194327375Y-96376943D01*
X194647997Y-96376943D01*
X194649992Y-96405609D01*
X194674571Y-96411527D01*
X194679835Y-96411560D01*
X194715658Y-96376072D01*
X194738916Y-96332569D01*
X195058654Y-96332569D01*
X195074008Y-96363242D01*
X195110719Y-96333660D01*
X195142826Y-96279305D01*
X195457509Y-96279305D01*
X195510441Y-96273136D01*
X195552216Y-96249895D01*
X195584547Y-96215486D01*
X195545241Y-96190605D01*
X195479433Y-96199899D01*
X195459638Y-96226509D01*
X195457509Y-96279305D01*
X195142826Y-96279305D01*
X195154760Y-96259102D01*
X195177500Y-96203098D01*
X195198389Y-96117709D01*
X195190545Y-96078219D01*
X195188302Y-96077898D01*
X195150222Y-96111884D01*
X195104435Y-96190812D01*
X195068525Y-96280135D01*
X195058654Y-96332569D01*
X194738916Y-96332569D01*
X194763944Y-96285756D01*
X194790125Y-96222945D01*
X194833130Y-96087810D01*
X194838713Y-96019520D01*
X194813213Y-96022352D01*
X194762968Y-96100580D01*
X194726040Y-96179722D01*
X194672157Y-96307618D01*
X194647997Y-96376943D01*
X194327375Y-96376943D01*
X194337056Y-96364939D01*
X194391915Y-96262994D01*
X194444442Y-96143014D01*
X194482941Y-96032501D01*
X194495714Y-95958956D01*
X194492798Y-95948242D01*
X194454359Y-95914290D01*
X194410251Y-95939654D01*
X194353794Y-96031533D01*
X194292513Y-96164063D01*
X194236714Y-96295256D01*
X194197207Y-96392979D01*
X194182792Y-96435163D01*
X193816628Y-96435163D01*
X193834342Y-96420589D01*
X193895868Y-96329408D01*
X193967976Y-96189218D01*
X193973838Y-96176399D01*
X194042287Y-96024676D01*
X194080767Y-95933556D01*
X194093585Y-95887594D01*
X194085045Y-95871343D01*
X194059454Y-95869360D01*
X194059426Y-95869360D01*
X194014750Y-95903826D01*
X193951191Y-95991560D01*
X193882497Y-96109058D01*
X193822420Y-96232822D01*
X193784900Y-96338572D01*
X193771693Y-96431320D01*
X193438381Y-96431320D01*
X193446288Y-96422144D01*
X193496728Y-96318343D01*
X193530940Y-96223545D01*
X193576592Y-96095543D01*
X193619479Y-96002876D01*
X193642274Y-95972589D01*
X193679768Y-95912911D01*
X193680972Y-95898179D01*
X193662481Y-95884237D01*
X193614934Y-95934321D01*
X193546252Y-96037685D01*
X193464357Y-96183585D01*
X193449580Y-96212062D01*
X193378664Y-96361007D01*
X193352484Y-96447292D01*
X193013646Y-96447292D01*
X193018514Y-96442419D01*
X193079052Y-96343529D01*
X193123067Y-96253095D01*
X193174694Y-96123789D01*
X193186652Y-96055298D01*
X193163120Y-96036191D01*
X193131065Y-96049486D01*
X193094516Y-96097737D01*
X193046722Y-96193490D01*
X192980928Y-96349289D01*
X192941191Y-96448532D01*
X192611502Y-96448532D01*
X192654973Y-96369608D01*
X192698814Y-96276010D01*
X192781106Y-96080611D01*
X192825956Y-95952250D01*
X192835292Y-95884424D01*
X192819462Y-95869360D01*
X192790700Y-95898436D01*
X192744536Y-95989393D01*
X192678489Y-96147817D01*
X192590080Y-96379297D01*
X192574249Y-96421987D01*
X192564043Y-96482203D01*
X192255521Y-96482203D01*
X192273924Y-96461039D01*
X192301407Y-96401133D01*
X192344185Y-96276346D01*
X192362184Y-96201929D01*
X192354914Y-96186700D01*
X192321885Y-96239481D01*
X192308944Y-96265583D01*
X192249257Y-96396913D01*
X192226867Y-96468757D01*
X190333250Y-96468757D01*
X190275866Y-96412063D01*
X190275609Y-96411560D01*
G37*
G36*
X198689302Y-91203952D02*
G01*
X198728933Y-91239803D01*
X198802148Y-91346400D01*
X198794455Y-91444623D01*
X198746807Y-91507924D01*
X198639246Y-91567955D01*
X198527278Y-91547463D01*
X198460972Y-91493519D01*
X198413073Y-91418872D01*
X198427311Y-91341603D01*
X198439898Y-91316261D01*
X198519555Y-91199634D01*
X198599283Y-91163100D01*
X198689302Y-91203952D01*
G37*
G36*
X200342585Y-89954277D02*
G01*
X200432661Y-89982919D01*
X200469452Y-90058557D01*
X200473244Y-90084936D01*
X200459762Y-90214701D01*
X200397629Y-90296452D01*
X200306023Y-90319859D01*
X200204124Y-90274590D01*
X200174313Y-90245961D01*
X200112995Y-90134991D01*
X200124969Y-90037568D01*
X200200202Y-89971085D01*
X200328660Y-89952934D01*
X200342585Y-89954277D01*
G37*
G36*
X197117360Y-93984327D02*
G01*
X197195500Y-94061880D01*
X197212253Y-94104454D01*
X197206210Y-94212278D01*
X197146858Y-94300215D01*
X197057084Y-94352516D01*
X196959776Y-94353432D01*
X196902135Y-94317833D01*
X196859408Y-94226153D01*
X196858432Y-94108856D01*
X196897577Y-94010123D01*
X196914105Y-93992962D01*
X197012918Y-93957374D01*
X197117360Y-93984327D01*
G37*
G36*
X202506960Y-89624971D02*
G01*
X202586923Y-89690859D01*
X202595409Y-89707044D01*
X202618370Y-89831102D01*
X202580301Y-89931495D01*
X202499057Y-89991867D01*
X202392494Y-89995859D01*
X202318495Y-89960742D01*
X202244155Y-89867211D01*
X202245768Y-89757915D01*
X202297922Y-89678743D01*
X202400839Y-89620001D01*
X202506960Y-89624971D01*
G37*
G36*
X211658325Y-77515686D02*
G01*
X211745383Y-77567622D01*
X211776035Y-77657686D01*
X211761594Y-77785877D01*
X211697181Y-77867984D01*
X211602629Y-77892849D01*
X211497774Y-77849317D01*
X211473620Y-77827793D01*
X211416413Y-77725198D01*
X211426231Y-77622761D01*
X211489739Y-77543016D01*
X211593603Y-77508493D01*
X211658325Y-77515686D01*
G37*
G36*
X212627208Y-78097845D02*
G01*
X212684700Y-78165502D01*
X212728936Y-78245106D01*
X212721919Y-78299841D01*
X212679197Y-78353187D01*
X212578324Y-78420454D01*
X212470213Y-78428683D01*
X212383999Y-78377717D01*
X212368824Y-78354860D01*
X212328150Y-78227435D01*
X212362342Y-78135674D01*
X212406322Y-78103339D01*
X212530531Y-78063104D01*
X212627208Y-78097845D01*
G37*
G36*
X207026329Y-92269348D02*
G01*
X207086738Y-92347961D01*
X207089360Y-92420119D01*
X207039088Y-92540915D01*
X206949866Y-92604960D01*
X206843257Y-92603696D01*
X206760647Y-92550617D01*
X206698856Y-92445143D01*
X206709381Y-92344705D01*
X206782565Y-92269767D01*
X206906880Y-92240788D01*
X207026329Y-92269348D01*
G37*
G36*
X209117664Y-94651405D02*
G01*
X209196622Y-94730199D01*
X209233885Y-94822952D01*
X209232506Y-94849861D01*
X209176944Y-94942824D01*
X209076044Y-94997137D01*
X208965546Y-94993780D01*
X208963552Y-94993020D01*
X208880458Y-94935067D01*
X208847910Y-94886842D01*
X208849776Y-94794361D01*
X208900846Y-94697386D01*
X208978562Y-94630100D01*
X209025236Y-94618128D01*
X209117664Y-94651405D01*
G37*
G36*
X214899896Y-93507890D02*
G01*
X214987073Y-93569821D01*
X215019819Y-93639174D01*
X215015253Y-93752667D01*
X214955754Y-93839605D01*
X214863814Y-93883016D01*
X214761925Y-93865933D01*
X214738818Y-93851192D01*
X214658324Y-93751354D01*
X214658337Y-93639632D01*
X214698043Y-93571186D01*
X214793890Y-93506303D01*
X214899896Y-93507890D01*
G37*
G36*
X207551048Y-77413492D02*
G01*
X207622025Y-77483053D01*
X207648978Y-77597079D01*
X207646971Y-77625639D01*
X207601986Y-77733059D01*
X207513710Y-77780618D01*
X207403945Y-77760619D01*
X207354876Y-77728772D01*
X207290407Y-77660110D01*
X207285907Y-77584331D01*
X207301477Y-77532756D01*
X207368024Y-77432227D01*
X207458798Y-77394511D01*
X207551048Y-77413492D01*
G37*
G36*
X215856012Y-80877115D02*
G01*
X215954215Y-80946190D01*
X215993304Y-81047616D01*
X215964187Y-81153772D01*
X215952315Y-81169685D01*
X215865093Y-81219528D01*
X215751957Y-81225044D01*
X215680078Y-81198031D01*
X215614224Y-81109906D01*
X215619896Y-80999562D01*
X215659992Y-80930448D01*
X215728614Y-80865987D01*
X215804302Y-80861478D01*
X215856012Y-80877115D01*
G37*
G36*
X194380903Y-86331250D02*
G01*
X194393884Y-86343339D01*
X194336213Y-86349920D01*
X194307915Y-86350324D01*
X194232035Y-86345975D01*
X194223092Y-86335149D01*
X194234926Y-86331250D01*
X194340706Y-86324764D01*
X194380903Y-86331250D01*
G37*
G36*
X193901264Y-85331393D02*
G01*
X193906504Y-85346616D01*
X193849130Y-85352429D01*
X193789920Y-85345875D01*
X193796995Y-85331393D01*
X193882385Y-85325884D01*
X193901264Y-85331393D01*
G37*
G36*
X210712691Y-77139871D02*
G01*
X210754544Y-77176495D01*
X210803188Y-77262723D01*
X210786848Y-77360453D01*
X210713637Y-77459733D01*
X210608518Y-77489193D01*
X210492121Y-77443805D01*
X210480770Y-77435049D01*
X210417908Y-77367334D01*
X210414248Y-77291249D01*
X210429555Y-77240802D01*
X210500081Y-77141380D01*
X210603290Y-77105989D01*
X210712691Y-77139871D01*
G37*
G36*
X191336240Y-86414665D02*
G01*
X191349220Y-86426754D01*
X191291549Y-86433336D01*
X191263251Y-86433739D01*
X191187372Y-86429391D01*
X191178429Y-86418565D01*
X191190263Y-86414665D01*
X191296043Y-86408179D01*
X191336240Y-86414665D01*
G37*
G36*
X206181367Y-79046784D02*
G01*
X206277552Y-79093719D01*
X206346992Y-79164480D01*
X206361445Y-79210830D01*
X206330037Y-79336308D01*
X206250765Y-79413366D01*
X206146059Y-79432491D01*
X206038348Y-79384172D01*
X206012208Y-79358937D01*
X205970918Y-79259375D01*
X205989852Y-79148733D01*
X206059916Y-79062333D01*
X206093027Y-79045038D01*
X206181367Y-79046784D01*
G37*
G36*
X193960350Y-84914133D02*
G01*
X193954625Y-84938928D01*
X193932545Y-84941938D01*
X193898215Y-84926678D01*
X193904740Y-84914133D01*
X193954237Y-84909141D01*
X193960350Y-84914133D01*
G37*
G36*
X212234680Y-95186616D02*
G01*
X212326294Y-95251952D01*
X212367186Y-95341927D01*
X212367356Y-95348013D01*
X212331856Y-95442800D01*
X212244636Y-95506851D01*
X212134613Y-95530769D01*
X212030707Y-95505159D01*
X211989919Y-95470644D01*
X211955913Y-95373928D01*
X211982553Y-95270603D01*
X212056108Y-95191828D01*
X212123061Y-95168491D01*
X212234680Y-95186616D01*
G37*
G36*
X206774312Y-78137682D02*
G01*
X206839402Y-78223961D01*
X206855277Y-78328978D01*
X206834621Y-78386638D01*
X206756620Y-78446289D01*
X206646386Y-78470246D01*
X206550015Y-78448972D01*
X206546088Y-78446338D01*
X206483365Y-78360780D01*
X206482276Y-78258590D01*
X206532842Y-78165920D01*
X206625088Y-78108919D01*
X206677512Y-78101872D01*
X206774312Y-78137682D01*
G37*
G36*
X220836955Y-82864480D02*
G01*
X220900022Y-82946964D01*
X220912268Y-83043046D01*
X220863245Y-83126394D01*
X220856383Y-83131708D01*
X220722684Y-83184544D01*
X220594204Y-83162591D01*
X220556286Y-83108585D01*
X220543726Y-83011590D01*
X220558471Y-82908683D01*
X220578514Y-82863639D01*
X220643426Y-82826706D01*
X220733512Y-82821931D01*
X220836955Y-82864480D01*
G37*
G36*
X194903043Y-85415073D02*
G01*
X194904430Y-85428765D01*
X194839138Y-85434357D01*
X194829261Y-85434299D01*
X194764574Y-85428285D01*
X194770749Y-85415591D01*
X194777920Y-85413527D01*
X194868773Y-85407421D01*
X194903043Y-85415073D01*
G37*
G36*
X216782773Y-81552228D02*
G01*
X216845531Y-81631228D01*
X216839310Y-81740954D01*
X216811231Y-81795802D01*
X216721329Y-81876614D01*
X216616319Y-81894870D01*
X216523642Y-81849466D01*
X216493597Y-81808583D01*
X216467121Y-81688398D01*
X216509202Y-81587265D01*
X216606281Y-81528421D01*
X216660890Y-81521905D01*
X216782773Y-81552228D01*
G37*
G36*
X211304174Y-86141445D02*
G01*
X211340109Y-86156586D01*
X211426843Y-86231894D01*
X211454198Y-86332598D01*
X211427690Y-86432517D01*
X211352835Y-86505473D01*
X211262102Y-86526831D01*
X211166390Y-86504244D01*
X211124466Y-86476782D01*
X211078192Y-86378276D01*
X211093527Y-86262602D01*
X211152424Y-86177210D01*
X211224769Y-86131180D01*
X211304174Y-86141445D01*
G37*
G36*
X195235911Y-85706762D02*
G01*
X195241151Y-85721985D01*
X195183777Y-85727799D01*
X195124567Y-85721244D01*
X195131642Y-85706762D01*
X195217032Y-85701253D01*
X195235911Y-85706762D01*
G37*
G36*
X198194024Y-92164598D02*
G01*
X198282619Y-92213242D01*
X198336161Y-92307239D01*
X198341078Y-92412276D01*
X198313924Y-92467689D01*
X198221329Y-92523096D01*
X198107960Y-92524838D01*
X198028243Y-92482693D01*
X197976369Y-92383528D01*
X197989488Y-92280329D01*
X198054469Y-92198293D01*
X198158179Y-92162618D01*
X198194024Y-92164598D01*
G37*
G36*
X197797001Y-93147757D02*
G01*
X197870530Y-93212492D01*
X197905724Y-93307737D01*
X197885568Y-93416181D01*
X197866949Y-93447614D01*
X197775318Y-93522330D01*
X197670837Y-93518315D01*
X197588435Y-93457455D01*
X197525846Y-93348409D01*
X197545839Y-93245664D01*
X197602994Y-93179059D01*
X197702151Y-93130842D01*
X197797001Y-93147757D01*
G37*
G36*
X206440918Y-82259426D02*
G01*
X206507352Y-82336609D01*
X206505246Y-82447900D01*
X206437462Y-82560462D01*
X206337808Y-82606551D01*
X206227127Y-82580274D01*
X206176739Y-82540765D01*
X206120676Y-82438655D01*
X206133675Y-82336881D01*
X206204866Y-82259617D01*
X206316098Y-82230936D01*
X206440918Y-82259426D01*
G37*
G36*
X201391542Y-89678227D02*
G01*
X201433192Y-89700068D01*
X201533626Y-89788261D01*
X201554532Y-89890418D01*
X201499688Y-89991675D01*
X201395866Y-90062238D01*
X201291242Y-90057648D01*
X201239737Y-90021938D01*
X201196336Y-89928350D01*
X201197263Y-89809493D01*
X201240310Y-89709329D01*
X201256229Y-89693315D01*
X201318278Y-89660596D01*
X201391542Y-89678227D01*
G37*
G36*
X222950775Y-82600877D02*
G01*
X222957232Y-82604226D01*
X223032508Y-82678880D01*
X223032912Y-82785199D01*
X223001357Y-82859294D01*
X222925609Y-82925070D01*
X222820368Y-82933635D01*
X222717445Y-82884346D01*
X222698061Y-82865441D01*
X222648884Y-82766141D01*
X222666044Y-82673429D01*
X222733062Y-82603911D01*
X222833465Y-82574191D01*
X222950775Y-82600877D01*
G37*
G36*
X195052009Y-94724767D02*
G01*
X195093914Y-94746662D01*
X195186666Y-94831931D01*
X195218439Y-94935023D01*
X195184257Y-95030920D01*
X195155840Y-95058116D01*
X195059439Y-95110387D01*
X194968663Y-95097269D01*
X194923103Y-95073572D01*
X194866550Y-94998606D01*
X194852437Y-94889261D01*
X194881496Y-94783397D01*
X194916656Y-94739949D01*
X194978692Y-94707232D01*
X195052009Y-94724767D01*
G37*
G36*
X206022115Y-80127949D02*
G01*
X206104183Y-80185647D01*
X206149110Y-80272596D01*
X206138411Y-80372554D01*
X206109293Y-80418946D01*
X206018236Y-80471180D01*
X205902732Y-80469105D01*
X205801370Y-80413671D01*
X205742053Y-80320900D01*
X205762053Y-80230880D01*
X205820508Y-80165261D01*
X205921394Y-80115740D01*
X206022115Y-80127949D01*
G37*
G36*
X215701681Y-90478710D02*
G01*
X215761015Y-90559442D01*
X215753428Y-90669555D01*
X215726830Y-90721253D01*
X215634907Y-90806402D01*
X215531402Y-90811253D01*
X215439338Y-90746453D01*
X215376971Y-90634345D01*
X215389796Y-90536091D01*
X215469636Y-90468396D01*
X215585725Y-90447356D01*
X215701681Y-90478710D01*
G37*
G36*
X215076048Y-80171795D02*
G01*
X215134455Y-80221823D01*
X215195253Y-80316351D01*
X215182721Y-80401885D01*
X215120066Y-80479212D01*
X215017815Y-80551746D01*
X214926529Y-80544976D01*
X214855430Y-80486355D01*
X214792639Y-80376092D01*
X214812648Y-80272983D01*
X214862677Y-80214576D01*
X214972940Y-80151786D01*
X215076048Y-80171795D01*
G37*
G36*
X213292627Y-94859122D02*
G01*
X213357170Y-94953851D01*
X213368342Y-95041085D01*
X213334767Y-95154207D01*
X213248792Y-95218596D01*
X213132538Y-95222997D01*
X213064008Y-95195937D01*
X213003800Y-95122275D01*
X212996092Y-95020263D01*
X213032394Y-94918457D01*
X213104217Y-94845415D01*
X213173783Y-94826667D01*
X213292627Y-94859122D01*
G37*
G36*
X214197338Y-94313052D02*
G01*
X214275811Y-94386667D01*
X214304081Y-94488005D01*
X214278401Y-94572948D01*
X214192621Y-94641623D01*
X214078421Y-94657402D01*
X213973877Y-94617752D01*
X213950182Y-94594782D01*
X213915827Y-94497770D01*
X213942734Y-94394693D01*
X214017200Y-94316070D01*
X214085956Y-94292375D01*
X214197338Y-94313052D01*
G37*
G36*
X193348637Y-85296453D02*
G01*
X193327783Y-85317307D01*
X193306929Y-85296453D01*
X193327783Y-85275599D01*
X193348637Y-85296453D01*
G37*
G36*
X204561861Y-90124203D02*
G01*
X204651237Y-90174010D01*
X204705497Y-90252266D01*
X204702126Y-90345523D01*
X204695505Y-90359516D01*
X204606494Y-90467301D01*
X204501406Y-90499352D01*
X204407631Y-90463862D01*
X204335751Y-90372173D01*
X204321466Y-90259696D01*
X204367816Y-90163744D01*
X204459882Y-90116298D01*
X204561861Y-90124203D01*
G37*
G36*
X217710621Y-82100622D02*
G01*
X217771654Y-82178474D01*
X217791700Y-82270979D01*
X217758233Y-82357141D01*
X217708686Y-82396299D01*
X217583524Y-82436640D01*
X217486776Y-82402013D01*
X217434859Y-82341082D01*
X217391833Y-82224918D01*
X217429177Y-82131025D01*
X217515705Y-82072858D01*
X217621129Y-82058418D01*
X217710621Y-82100622D01*
G37*
D14*
X134195000Y-125181252D02*
X134195000Y-124658748D01*
X135665000Y-125181252D02*
X135665000Y-124658748D01*
G36*
X192777060Y-139054120D02*
G01*
X192949267Y-139128555D01*
X193143725Y-139229536D01*
X193324365Y-139338004D01*
X193455117Y-139434902D01*
X193474959Y-139454205D01*
X193594192Y-139581123D01*
X193455179Y-139950448D01*
X193372669Y-140157778D01*
X193280731Y-140370629D01*
X193191324Y-140563568D01*
X193116407Y-140711161D01*
X193067940Y-140787974D01*
X193058860Y-140793282D01*
X193006898Y-140764303D01*
X192879998Y-140691584D01*
X192702136Y-140588887D01*
X192635287Y-140550151D01*
X192440984Y-140435502D01*
X192285626Y-140340187D01*
X192195457Y-140280426D01*
X192184980Y-140271795D01*
X192184110Y-140201180D01*
X192220745Y-140053445D01*
X192284759Y-139854982D01*
X192366028Y-139632184D01*
X192454426Y-139411444D01*
X192539829Y-139219155D01*
X192612112Y-139081709D01*
X192661149Y-139025501D01*
X192663173Y-139025288D01*
X192777060Y-139054120D01*
G37*
G36*
X202243105Y-123196863D02*
G01*
X202265897Y-123273106D01*
X202249704Y-123400092D01*
X202187743Y-123687610D01*
X202120663Y-123875613D01*
X202040968Y-123978975D01*
X201941157Y-124012572D01*
X201940934Y-124012580D01*
X201768255Y-124023483D01*
X201683708Y-124051616D01*
X201661043Y-124111554D01*
X201665728Y-124165383D01*
X201690274Y-124240933D01*
X201755942Y-124283057D01*
X201891919Y-124304622D01*
X201997970Y-124311863D01*
X202252180Y-124347406D01*
X202412273Y-124428081D01*
X202493969Y-124566983D01*
X202513514Y-124741295D01*
X202457751Y-125038935D01*
X202295193Y-125319305D01*
X202032932Y-125576095D01*
X201678060Y-125802996D01*
X201237669Y-125993697D01*
X201030045Y-126061142D01*
X200831811Y-126107007D01*
X200613858Y-126137651D01*
X200404970Y-126151784D01*
X200233927Y-126148115D01*
X200129510Y-126125355D01*
X200110811Y-126102364D01*
X200161316Y-126064058D01*
X200298872Y-125997307D01*
X200502540Y-125911466D01*
X200751383Y-125815893D01*
X200754392Y-125814786D01*
X201176866Y-125652071D01*
X201494108Y-125512597D01*
X201712198Y-125393145D01*
X201837215Y-125290497D01*
X201873642Y-125222168D01*
X201866386Y-125160944D01*
X201796797Y-125131495D01*
X201639660Y-125123614D01*
X201630156Y-125123603D01*
X201458977Y-125113772D01*
X201354195Y-125068801D01*
X201268415Y-124965476D01*
X201250573Y-124937680D01*
X201173838Y-124728270D01*
X201165417Y-124475950D01*
X201215205Y-124200409D01*
X201313098Y-123921337D01*
X201448993Y-123658423D01*
X201612786Y-123431358D01*
X201794373Y-123259831D01*
X201983650Y-123163532D01*
X202162783Y-123160025D01*
X202243105Y-123196863D01*
G37*
G36*
X181810352Y-132237796D02*
G01*
X181914544Y-132316294D01*
X182012989Y-132448345D01*
X182165890Y-132679394D01*
X181789496Y-133067734D01*
X181630258Y-132950004D01*
X181441256Y-132858888D01*
X181253049Y-132846327D01*
X181092115Y-132902994D01*
X180984931Y-133019561D01*
X180957975Y-133186701D01*
X180957990Y-133186835D01*
X181025657Y-133317391D01*
X181180940Y-133404496D01*
X181405443Y-133447725D01*
X181680766Y-133446654D01*
X181988512Y-133400858D01*
X182310283Y-133309913D01*
X182525687Y-133222992D01*
X182744059Y-133135933D01*
X182873218Y-133118618D01*
X182916829Y-133173975D01*
X182878557Y-133304931D01*
X182803809Y-133445200D01*
X182718292Y-133582905D01*
X182633368Y-133688661D01*
X182527404Y-133777636D01*
X182378766Y-133864996D01*
X182165823Y-133965908D01*
X181890623Y-134085420D01*
X181494287Y-134280218D01*
X181191612Y-134488313D01*
X181103524Y-134567060D01*
X180961780Y-134695547D01*
X180853587Y-134779479D01*
X180802878Y-134800656D01*
X180775253Y-134699717D01*
X180807457Y-134541296D01*
X180885154Y-134355033D01*
X180994006Y-134170568D01*
X181119678Y-134017540D01*
X181219419Y-133939482D01*
X181284468Y-133892770D01*
X181246769Y-133859748D01*
X181203829Y-133843838D01*
X180885906Y-133717699D01*
X180670756Y-133592591D01*
X180547566Y-133455777D01*
X180505526Y-133294523D01*
X180533824Y-133096091D01*
X180542681Y-133064961D01*
X180654804Y-132851304D01*
X180847881Y-132637285D01*
X181090877Y-132445963D01*
X181352754Y-132300396D01*
X181602477Y-132223642D01*
X181683622Y-132217297D01*
X181810352Y-132237796D01*
G37*
G36*
X202446214Y-126069967D02*
G01*
X202516152Y-126167776D01*
X202617825Y-126339338D01*
X202755134Y-126591647D01*
X202931979Y-126931698D01*
X203152260Y-127366483D01*
X203221472Y-127504590D01*
X203582440Y-128251265D01*
X203915090Y-128989054D01*
X204213182Y-129702059D01*
X204470476Y-130374382D01*
X204680734Y-130990125D01*
X204837716Y-131533389D01*
X204891421Y-131759639D01*
X204977525Y-132308853D01*
X205020101Y-132942591D01*
X205021423Y-133640532D01*
X204983765Y-134382354D01*
X204909399Y-135147733D01*
X204800600Y-135916348D01*
X204659641Y-136667877D01*
X204488794Y-137381996D01*
X204290334Y-138038384D01*
X204145180Y-138430471D01*
X203892956Y-138967912D01*
X203593675Y-139434895D01*
X203237807Y-139838300D01*
X202815817Y-140185007D01*
X202318173Y-140481895D01*
X201735342Y-140735845D01*
X201057792Y-140953735D01*
X200435111Y-141108049D01*
X200059321Y-141185310D01*
X199672525Y-141254093D01*
X199291973Y-141312445D01*
X198934920Y-141358413D01*
X198618616Y-141390043D01*
X198360314Y-141405384D01*
X198177266Y-141402482D01*
X198086725Y-141379384D01*
X198082385Y-141374382D01*
X198066007Y-141288163D01*
X198145895Y-141224849D01*
X198330573Y-141178096D01*
X198350421Y-141174835D01*
X198592993Y-141114756D01*
X198913365Y-141003620D01*
X199292075Y-140850627D01*
X199709663Y-140664978D01*
X200146666Y-140455874D01*
X200583625Y-140232514D01*
X201001076Y-140004099D01*
X201379560Y-139779829D01*
X201594964Y-139640967D01*
X201982177Y-139369551D01*
X202300759Y-139116252D01*
X202585372Y-138849975D01*
X202870676Y-138539623D01*
X203023315Y-138359531D01*
X203553472Y-137648890D01*
X203973958Y-136921181D01*
X204289361Y-136165305D01*
X204504270Y-135370167D01*
X204623271Y-134524670D01*
X204626764Y-134481148D01*
X204645102Y-133933006D01*
X204609869Y-133397906D01*
X204516687Y-132850651D01*
X204361183Y-132266044D01*
X204138978Y-131618889D01*
X204121661Y-131572838D01*
X204051572Y-131398777D01*
X203948411Y-131157757D01*
X203819034Y-130864497D01*
X203670296Y-130533717D01*
X203509053Y-130180136D01*
X203342161Y-129818475D01*
X203176475Y-129463453D01*
X203018851Y-129129789D01*
X202876144Y-128832204D01*
X202755209Y-128585416D01*
X202662903Y-128404145D01*
X202606082Y-128303111D01*
X202591476Y-128287383D01*
X202588746Y-128347137D01*
X202591327Y-128503461D01*
X202598657Y-128738660D01*
X202610174Y-129035039D01*
X202625317Y-129374906D01*
X202627322Y-129417175D01*
X202652308Y-129986753D01*
X202671977Y-130531610D01*
X202686183Y-131039390D01*
X202694777Y-131497737D01*
X202697613Y-131894293D01*
X202694543Y-132216702D01*
X202685419Y-132452607D01*
X202670094Y-132589651D01*
X202665391Y-132606699D01*
X202592254Y-132706698D01*
X202522928Y-132720452D01*
X202489831Y-132702507D01*
X202464044Y-132653260D01*
X202443921Y-132558187D01*
X202427813Y-132402762D01*
X202414075Y-132172460D01*
X202401058Y-131852757D01*
X202391199Y-131558753D01*
X202373972Y-131146524D01*
X202348942Y-130715717D01*
X202318608Y-130301130D01*
X202285466Y-129937564D01*
X202257904Y-129701613D01*
X202197042Y-129188649D01*
X202150323Y-128662793D01*
X202119246Y-128151955D01*
X202105309Y-127684042D01*
X202110011Y-127286961D01*
X202119641Y-127125856D01*
X202148245Y-126891702D01*
X202193643Y-126644367D01*
X202249078Y-126409668D01*
X202307796Y-126213416D01*
X202363040Y-126081428D01*
X202404110Y-126038919D01*
X202446214Y-126069967D01*
G37*
G36*
X194730405Y-133415342D02*
G01*
X194716188Y-133007331D01*
X194720839Y-132644475D01*
X194746246Y-132355110D01*
X194760812Y-132274504D01*
X194899575Y-131888554D01*
X195131555Y-131568253D01*
X195453550Y-131317658D01*
X195562838Y-131258835D01*
X195772490Y-131166244D01*
X195984708Y-131099526D01*
X196220891Y-131056164D01*
X196502439Y-131033646D01*
X196850752Y-131029457D01*
X197287229Y-131041083D01*
X197383414Y-131044936D01*
X197857716Y-131059580D01*
X198240516Y-131057637D01*
X198553904Y-131036207D01*
X198819971Y-130992392D01*
X199060808Y-130923292D01*
X199298504Y-130826011D01*
X199391923Y-130781385D01*
X199599108Y-130689171D01*
X199723454Y-130659205D01*
X199772101Y-130680038D01*
X199804066Y-130785034D01*
X199832065Y-130969811D01*
X199853568Y-131199745D01*
X199866043Y-131440213D01*
X199866960Y-131656591D01*
X199854646Y-131809346D01*
X199821354Y-131942515D01*
X199757452Y-132032977D01*
X199633178Y-132112705D01*
X199522350Y-132166330D01*
X199147325Y-132365442D01*
X198743814Y-132621807D01*
X198356664Y-132904855D01*
X198034271Y-133180643D01*
X197876052Y-133349584D01*
X197678040Y-133589243D01*
X197460910Y-133873207D01*
X197245336Y-134175063D01*
X197176284Y-134276756D01*
X196634666Y-135058156D01*
X196105154Y-135763706D01*
X195852343Y-136080000D01*
X195711374Y-136252839D01*
X195956782Y-137058547D01*
X196060776Y-137385106D01*
X196172025Y-137709656D01*
X196278469Y-137998469D01*
X196368050Y-138217818D01*
X196383077Y-138250803D01*
X196495950Y-138509636D01*
X196553849Y-138684619D01*
X196555604Y-138770808D01*
X196505057Y-138766472D01*
X196450369Y-138696434D01*
X196360672Y-138541862D01*
X196246069Y-138323370D01*
X196116660Y-138061571D01*
X195982546Y-137777077D01*
X195853827Y-137490501D01*
X195740606Y-137222457D01*
X195706620Y-137137117D01*
X195618477Y-136917221D01*
X195542500Y-136738182D01*
X195490245Y-136626781D01*
X195477217Y-136605463D01*
X195417865Y-136615731D01*
X195305672Y-136690415D01*
X195163847Y-136808451D01*
X195015603Y-136948774D01*
X194884149Y-137090323D01*
X194792696Y-137212031D01*
X194776688Y-137241197D01*
X194666865Y-137369198D01*
X194456861Y-137514036D01*
X194309476Y-137594358D01*
X194101194Y-137694930D01*
X193934311Y-137754929D01*
X193763354Y-137784651D01*
X193542854Y-137794391D01*
X193423335Y-137795000D01*
X193166782Y-137790462D01*
X192984101Y-137771209D01*
X192834922Y-137728785D01*
X192678873Y-137654732D01*
X192632226Y-137629273D01*
X192452605Y-137521262D01*
X192304295Y-137417223D01*
X192240084Y-137360713D01*
X192183209Y-137308559D01*
X192122910Y-137300071D01*
X192030464Y-137342611D01*
X191877150Y-137443541D01*
X191853471Y-137459807D01*
X191542997Y-137653539D01*
X191279815Y-137770078D01*
X191037752Y-137819945D01*
X190948392Y-137823603D01*
X190626084Y-137769151D01*
X190335840Y-137609238D01*
X190080522Y-137349029D01*
X189862991Y-136993686D01*
X189686111Y-136548375D01*
X189552744Y-136018259D01*
X189465751Y-135408503D01*
X189442305Y-135106261D01*
X189408959Y-134598487D01*
X189373313Y-134194850D01*
X189332324Y-133885073D01*
X189282947Y-133658882D01*
X189222140Y-133506000D01*
X189146858Y-133416153D01*
X189054058Y-133379065D01*
X188940696Y-133384460D01*
X188932747Y-133385995D01*
X188758394Y-133457002D01*
X188535750Y-133601424D01*
X188286494Y-133802149D01*
X188032304Y-134042066D01*
X187845901Y-134243845D01*
X187715269Y-134405663D01*
X187538510Y-134640043D01*
X187332378Y-134923960D01*
X187113624Y-135234389D01*
X186927025Y-135506711D01*
X186365462Y-136320495D01*
X185844450Y-137036358D01*
X185357321Y-137660596D01*
X184897404Y-138199505D01*
X184458032Y-138659379D01*
X184032534Y-139046514D01*
X183614243Y-139367205D01*
X183196488Y-139627749D01*
X182772602Y-139834439D01*
X182335915Y-139993571D01*
X182104784Y-140058790D01*
X181795904Y-140120420D01*
X181428613Y-140166570D01*
X181039619Y-140195107D01*
X180665630Y-140203900D01*
X180343352Y-140190818D01*
X180183238Y-140170358D01*
X179521102Y-140002219D01*
X178926275Y-139747934D01*
X178382334Y-139399331D01*
X178024242Y-139095920D01*
X177521778Y-138547887D01*
X177097496Y-137921670D01*
X176755705Y-137226455D01*
X176500714Y-136471430D01*
X176336833Y-135665779D01*
X176308494Y-135438267D01*
X176269683Y-134587774D01*
X176340427Y-133770089D01*
X176520439Y-132985998D01*
X176809430Y-132236290D01*
X177207113Y-131521752D01*
X177713200Y-130843172D01*
X178163981Y-130358063D01*
X178594244Y-129963469D01*
X179006597Y-129653307D01*
X179431398Y-129408276D01*
X179899006Y-129209074D01*
X180059685Y-129152845D01*
X180418636Y-129060534D01*
X180840512Y-128996089D01*
X181289134Y-128961387D01*
X181728324Y-128958305D01*
X182121902Y-128988721D01*
X182360826Y-129033463D01*
X182894762Y-129221904D01*
X183432565Y-129514843D01*
X183978514Y-129915058D01*
X184536889Y-130425329D01*
X184595515Y-130484490D01*
X185069633Y-130967080D01*
X185322190Y-130819072D01*
X185672304Y-130585220D01*
X186063603Y-130274974D01*
X186475320Y-129908130D01*
X186886690Y-129504486D01*
X187276945Y-129083837D01*
X187625320Y-128665982D01*
X187742854Y-128511434D01*
X188166427Y-127905460D01*
X188552718Y-127281752D01*
X188911743Y-126620724D01*
X189253519Y-125902791D01*
X189588062Y-125108366D01*
X189892886Y-124307298D01*
X190152816Y-123603159D01*
X190382076Y-123000568D01*
X190584101Y-122491860D01*
X190762327Y-122069371D01*
X190920190Y-121725435D01*
X191061125Y-121452388D01*
X191188568Y-121242564D01*
X191305955Y-121088299D01*
X191362142Y-121029424D01*
X191491728Y-120923024D01*
X191555563Y-120909379D01*
X191548879Y-120984440D01*
X191477092Y-121127111D01*
X191327299Y-121472188D01*
X191225923Y-121914389D01*
X191174357Y-122446531D01*
X191167742Y-122720901D01*
X191188292Y-123262404D01*
X191258538Y-123783398D01*
X191384841Y-124309927D01*
X191573560Y-124868041D01*
X191831055Y-125483784D01*
X191855570Y-125537973D01*
X191979908Y-125826042D01*
X192049071Y-126025927D01*
X192065313Y-126148401D01*
X192030884Y-126204240D01*
X191996144Y-126210540D01*
X191938503Y-126163184D01*
X191840969Y-126034858D01*
X191716292Y-125846178D01*
X191577225Y-125617757D01*
X191436518Y-125370209D01*
X191306922Y-125124150D01*
X191243556Y-124993840D01*
X191076058Y-124598723D01*
X190939144Y-124201379D01*
X190841289Y-123831115D01*
X190790963Y-123517235D01*
X190786036Y-123411397D01*
X190776881Y-123270244D01*
X190753401Y-123205657D01*
X190738067Y-123210022D01*
X190704219Y-123280274D01*
X190641440Y-123439596D01*
X190556976Y-123668515D01*
X190458074Y-123947554D01*
X190387944Y-124151081D01*
X189974657Y-125300849D01*
X189554042Y-126342410D01*
X189122177Y-127281920D01*
X188675141Y-128125536D01*
X188209014Y-128879415D01*
X187719874Y-129549712D01*
X187203800Y-130142585D01*
X186656872Y-130664190D01*
X186075169Y-131120682D01*
X185851914Y-131273278D01*
X185688189Y-131383240D01*
X185570379Y-131466544D01*
X185523053Y-131505792D01*
X185522973Y-131506206D01*
X185549983Y-131559661D01*
X185621021Y-131684777D01*
X185721100Y-131855198D01*
X185728002Y-131866793D01*
X185854153Y-132098632D01*
X185914624Y-132251659D01*
X185913885Y-132320345D01*
X185856407Y-132299160D01*
X185746660Y-132182577D01*
X185616151Y-132005122D01*
X185338020Y-131598063D01*
X184881516Y-131793455D01*
X184587763Y-131907972D01*
X184270914Y-132012595D01*
X183949031Y-132103567D01*
X183640175Y-132177132D01*
X183362408Y-132229533D01*
X183133793Y-132257013D01*
X182972392Y-132255816D01*
X182896265Y-132222185D01*
X182892674Y-132207112D01*
X182941941Y-132157676D01*
X183077425Y-132069255D01*
X183281948Y-131951853D01*
X183538333Y-131815478D01*
X183736480Y-131715556D01*
X184031833Y-131567093D01*
X184300413Y-131427152D01*
X184521069Y-131307128D01*
X184672652Y-131218414D01*
X184722072Y-131184614D01*
X184865090Y-131069603D01*
X184439953Y-130670894D01*
X183861631Y-130174763D01*
X183299681Y-129788349D01*
X182748384Y-129509107D01*
X182202023Y-129334491D01*
X181654878Y-129261957D01*
X181289640Y-129268839D01*
X180529281Y-129376072D01*
X179836929Y-129575254D01*
X179211475Y-129867154D01*
X178651811Y-130252541D01*
X178156828Y-130732183D01*
X177725418Y-131306851D01*
X177356472Y-131977312D01*
X177342522Y-132007158D01*
X177165422Y-132424608D01*
X177033939Y-132827020D01*
X176941620Y-133244936D01*
X176882011Y-133708896D01*
X176848656Y-134249445D01*
X176844778Y-134362567D01*
X176837734Y-134869535D01*
X176854038Y-135290100D01*
X176898268Y-135650725D01*
X176975000Y-135977871D01*
X177088812Y-136298000D01*
X177235055Y-136618930D01*
X177552523Y-137135869D01*
X177958823Y-137587949D01*
X178443441Y-137967067D01*
X178995863Y-138265121D01*
X179605577Y-138474007D01*
X179659234Y-138487277D01*
X179989148Y-138544528D01*
X180381184Y-138578502D01*
X180798986Y-138589082D01*
X181206198Y-138576151D01*
X181566463Y-138539593D01*
X181793150Y-138494152D01*
X182522997Y-138238865D01*
X183243202Y-137870796D01*
X183953995Y-137389740D01*
X184655605Y-136795491D01*
X185348261Y-136087845D01*
X186032193Y-135266597D01*
X186707631Y-134331541D01*
X187072623Y-133773358D01*
X187455170Y-133205162D01*
X187821880Y-132734116D01*
X188169950Y-132362879D01*
X188496577Y-132094108D01*
X188798957Y-131930460D01*
X189074288Y-131874594D01*
X189075255Y-131874591D01*
X189206254Y-131885611D01*
X189312911Y-131927341D01*
X189399755Y-132011647D01*
X189471315Y-132150396D01*
X189532119Y-132355458D01*
X189586696Y-132638700D01*
X189639574Y-133011988D01*
X189695282Y-133487192D01*
X189697189Y-133504459D01*
X189768824Y-134081329D01*
X189847416Y-134561884D01*
X189937285Y-134964197D01*
X190042750Y-135306337D01*
X190168133Y-135606375D01*
X190227929Y-135724477D01*
X190394477Y-135996235D01*
X190558495Y-136169567D01*
X190737362Y-136258721D01*
X190904441Y-136279009D01*
X191114580Y-136253497D01*
X191337922Y-136186274D01*
X191546184Y-136091305D01*
X191711080Y-135982557D01*
X191804327Y-135873997D01*
X191815375Y-135829202D01*
X191848253Y-135748563D01*
X191934824Y-135606583D01*
X192057601Y-135431499D01*
X192081062Y-135400148D01*
X192222776Y-135201812D01*
X192344968Y-135011728D01*
X192422415Y-134869268D01*
X192425073Y-134863130D01*
X192503508Y-134720715D01*
X192569571Y-134689175D01*
X192621970Y-134765512D01*
X192659409Y-134946723D01*
X192680595Y-135229809D01*
X192685035Y-135465992D01*
X192663956Y-135834616D01*
X192593771Y-136143223D01*
X192566952Y-136218392D01*
X192506594Y-136388886D01*
X192472581Y-136511093D01*
X192470487Y-136552348D01*
X192535146Y-136569203D01*
X192679811Y-136589816D01*
X192834136Y-136605989D01*
X193065225Y-136615184D01*
X193252758Y-136585332D01*
X193462808Y-136505057D01*
X193488802Y-136493266D01*
X193748418Y-136363787D01*
X193999804Y-136219880D01*
X194220348Y-136076470D01*
X194387434Y-135948485D01*
X194478449Y-135850852D01*
X194485968Y-135835072D01*
X194542590Y-135742509D01*
X194654491Y-135603093D01*
X194770431Y-135475690D01*
X195020261Y-135215840D01*
X194938124Y-134932222D01*
X194867347Y-134626948D01*
X194807874Y-134253486D01*
X194794555Y-134134530D01*
X195139848Y-134134530D01*
X195187549Y-134497294D01*
X195190889Y-134511801D01*
X195248237Y-134738897D01*
X195295211Y-134866610D01*
X195342203Y-134908074D01*
X195399603Y-134876421D01*
X195442117Y-134829303D01*
X195494999Y-134761230D01*
X195604724Y-134617010D01*
X195759603Y-134412112D01*
X195947944Y-134162006D01*
X196158056Y-133882163D01*
X196179034Y-133854180D01*
X196404728Y-133556115D01*
X196624196Y-133271757D01*
X196821887Y-133020849D01*
X196982253Y-132823133D01*
X197087334Y-132700958D01*
X197322230Y-132446126D01*
X196986002Y-132446558D01*
X196481271Y-132473957D01*
X196055933Y-132553191D01*
X195718574Y-132681904D01*
X195477779Y-132857739D01*
X195474225Y-132861489D01*
X195322208Y-133092733D01*
X195212355Y-133402093D01*
X195149843Y-133759410D01*
X195139848Y-134134530D01*
X194794555Y-134134530D01*
X194761597Y-133840172D01*
X194730405Y-133415342D01*
G37*
X204192720Y-145061160D02*
X204192720Y-144780000D01*
X203172720Y-145061160D02*
X203172720Y-144780000D01*
D15*
X213700000Y-111400000D02*
X209300000Y-111400000D01*
X209300000Y-109400000D02*
X214300000Y-109400000D01*
X209300000Y-111400000D02*
X209300000Y-109400000D01*
X214300000Y-110700000D02*
X213700000Y-111400000D01*
X214300000Y-109400000D02*
X214300000Y-110700000D01*
D14*
X151176875Y-145157838D02*
X151176875Y-144683322D01*
X152221875Y-145157838D02*
X152221875Y-144683322D01*
X201195448Y-145061160D02*
X201195448Y-144780000D01*
X200175448Y-145061160D02*
X200175448Y-144780000D01*
X166942500Y-145157838D02*
X166942500Y-144683322D01*
X167987500Y-145157838D02*
X167987500Y-144683322D01*
X158528125Y-145157838D02*
X158528125Y-144683322D01*
X157483125Y-145157838D02*
X157483125Y-144683322D01*
X206170000Y-145061160D02*
X206170000Y-144780000D01*
X207190000Y-145061160D02*
X207190000Y-144780000D01*
X198198176Y-145061160D02*
X198198176Y-144780000D01*
X197178176Y-145061160D02*
X197178176Y-144780000D01*
X141717500Y-144683322D02*
X141717500Y-145157838D01*
X142762500Y-144683322D02*
X142762500Y-145157838D01*
X223480000Y-132000000D02*
X223480000Y-133000000D01*
X217380000Y-126600000D02*
X217380000Y-138400000D01*
X221480000Y-138400000D02*
X217380000Y-138400000D01*
X229580000Y-131200000D02*
X229580000Y-133800000D01*
X229580000Y-136000000D02*
X229580000Y-138400000D01*
X215980000Y-128700000D02*
X215680000Y-128400000D01*
X222980000Y-132500000D02*
X223980000Y-132500000D01*
X215680000Y-128400000D02*
X216280000Y-128400000D01*
X221480000Y-126600000D02*
X217380000Y-126600000D01*
X229580000Y-126600000D02*
X229580000Y-129000000D01*
X225480000Y-126600000D02*
X229580000Y-126600000D01*
X216280000Y-128400000D02*
X215980000Y-128700000D01*
X229580000Y-138400000D02*
X225480000Y-138400000D01*
X226480000Y-132500000D02*
G75*
G03*
X226480000Y-132500000I-3000000J0D01*
G01*
X104140000Y-122900000D02*
X102340000Y-122900000D01*
X104140000Y-126020000D02*
X104940000Y-126020000D01*
X104140000Y-126020000D02*
X103340000Y-126020000D01*
X104140000Y-122900000D02*
X104940000Y-122900000D01*
X140290000Y-129560000D02*
X138340000Y-129560000D01*
X140290000Y-129560000D02*
X142240000Y-129560000D01*
X140290000Y-139680000D02*
X138340000Y-139680000D01*
X140290000Y-139680000D02*
X143740000Y-139680000D01*
D15*
X104300000Y-111400000D02*
X104300000Y-109400000D01*
X108700000Y-111400000D02*
X104300000Y-111400000D01*
X109300000Y-110700000D02*
X108700000Y-111400000D01*
X104300000Y-109400000D02*
X109300000Y-109400000D01*
X109300000Y-109400000D02*
X109300000Y-110700000D01*
D14*
X144355000Y-125181252D02*
X144355000Y-124658748D01*
X145825000Y-125181252D02*
X145825000Y-124658748D01*
X164834375Y-145157838D02*
X164834375Y-144683322D01*
X163789375Y-145157838D02*
X163789375Y-144683322D01*
X182191816Y-145061160D02*
X182191816Y-144780000D01*
X183211816Y-145061160D02*
X183211816Y-144780000D01*
X223270000Y-116090000D02*
X223270000Y-117590000D01*
X229020000Y-113590000D02*
X224520000Y-113590000D01*
X230270000Y-117590000D02*
X230270000Y-116090000D01*
X224520000Y-120090000D02*
X229020000Y-120090000D01*
D15*
X164300000Y-111400000D02*
X164300000Y-109400000D01*
X169300000Y-109400000D02*
X169300000Y-110700000D01*
X164300000Y-109400000D02*
X169300000Y-109400000D01*
X168700000Y-111400000D02*
X164300000Y-111400000D01*
X169300000Y-110700000D02*
X168700000Y-111400000D01*
X183700000Y-111400000D02*
X179300000Y-111400000D01*
X179300000Y-111400000D02*
X179300000Y-109400000D01*
X179300000Y-109400000D02*
X184300000Y-109400000D01*
X184300000Y-109400000D02*
X184300000Y-110700000D01*
X184300000Y-110700000D02*
X183700000Y-111400000D01*
D14*
X139275000Y-125181252D02*
X139275000Y-124658748D01*
X140745000Y-125181252D02*
X140745000Y-124658748D01*
X185189088Y-145061160D02*
X185189088Y-144780000D01*
X186209088Y-145061160D02*
X186209088Y-144780000D01*
X227335000Y-102325000D02*
X227335000Y-102455000D01*
X223105000Y-102325000D02*
X223105000Y-101205000D01*
X223505000Y-101205000D02*
X223505000Y-102325000D01*
X224795000Y-102325000D02*
X224795000Y-102455000D01*
X227335000Y-102455000D02*
X227335000Y-102325000D01*
X223505000Y-102325000D02*
X223505000Y-96165000D01*
X223105000Y-101205000D02*
X223505000Y-101205000D01*
X224795000Y-102455000D02*
X224795000Y-102325000D01*
X224795000Y-102455000D02*
X224795000Y-102455000D01*
X227335000Y-102325000D02*
X227335000Y-102325000D01*
X228625000Y-102325000D02*
X228625000Y-96165000D01*
X223505000Y-102325000D02*
X223105000Y-102325000D01*
X228625000Y-102325000D02*
X223505000Y-102325000D01*
X224795000Y-102325000D02*
X224795000Y-102325000D01*
X227335000Y-102455000D02*
X227335000Y-102455000D01*
X228625000Y-96165000D02*
G75*
G03*
X223505000Y-96165000I-2560000J0D01*
G01*
X191183632Y-145061160D02*
X191183632Y-144780000D01*
X192203632Y-145061160D02*
X192203632Y-144780000D01*
X148023750Y-145157838D02*
X148023750Y-144683322D01*
X149068750Y-145157838D02*
X149068750Y-144683322D01*
X154330000Y-145157838D02*
X154330000Y-144683322D01*
X155375000Y-145157838D02*
X155375000Y-144683322D01*
X145915625Y-145157838D02*
X145915625Y-144683322D01*
X144870625Y-145157838D02*
X144870625Y-144683322D01*
X180214544Y-145061160D02*
X180214544Y-144780000D01*
X179194544Y-145061160D02*
X179194544Y-144780000D01*
X176197272Y-145061160D02*
X176197272Y-144780000D01*
X177217272Y-145061160D02*
X177217272Y-144780000D01*
D15*
X138700000Y-111400000D02*
X134300000Y-111400000D01*
X134300000Y-111400000D02*
X134300000Y-109400000D01*
X134300000Y-109400000D02*
X139300000Y-109400000D01*
X139300000Y-110700000D02*
X138700000Y-111400000D01*
X139300000Y-109400000D02*
X139300000Y-110700000D01*
D14*
X195200904Y-145061160D02*
X195200904Y-144780000D01*
X194180904Y-145061160D02*
X194180904Y-144780000D01*
D15*
X124300000Y-110700000D02*
X123700000Y-111400000D01*
X123700000Y-111400000D02*
X119300000Y-111400000D01*
X119300000Y-111400000D02*
X119300000Y-109400000D01*
X124300000Y-109400000D02*
X124300000Y-110700000D01*
X119300000Y-109400000D02*
X124300000Y-109400000D01*
D13*
X130057500Y-130120000D02*
X132057500Y-134120000D01*
X130057500Y-134120000D02*
X132057500Y-138120000D01*
X129557500Y-128120000D02*
X132057500Y-128120000D01*
X113057500Y-128120000D02*
X113057500Y-130120000D01*
X113057500Y-139120000D02*
X113057500Y-141120000D01*
X132057500Y-136120000D02*
X130057500Y-132120000D01*
X132057500Y-141120000D02*
X129557500Y-141120000D01*
X132057500Y-128120000D02*
X132057500Y-141120000D01*
X131057500Y-128120000D02*
X132057500Y-130120000D01*
X130057500Y-136120000D02*
X132057500Y-140120000D01*
X113557500Y-128120000D02*
X113057500Y-128120000D01*
X130057500Y-138120000D02*
X131557500Y-141120000D01*
X113057500Y-141120000D02*
X113557500Y-141120000D01*
X130057500Y-128120000D02*
X132057500Y-132120000D01*
X130057500Y-140120000D02*
X130557500Y-141120000D01*
D14*
X160636250Y-145157838D02*
X160636250Y-144683322D01*
X161681250Y-145157838D02*
X161681250Y-144683322D01*
D15*
X154300000Y-109400000D02*
X154300000Y-110700000D01*
X153700000Y-111400000D02*
X149300000Y-111400000D01*
X149300000Y-111400000D02*
X149300000Y-109400000D01*
X154300000Y-110700000D02*
X153700000Y-111400000D01*
X149300000Y-109400000D02*
X154300000Y-109400000D01*
D14*
X156240000Y-138270000D02*
X160000000Y-138270000D01*
X160000000Y-138270000D02*
X160000000Y-137010000D01*
X160000000Y-131450000D02*
X160000000Y-132710000D01*
X153990000Y-131450000D02*
X160000000Y-131450000D01*
D15*
X194300000Y-109400000D02*
X199300000Y-109400000D01*
X194300000Y-111400000D02*
X194300000Y-109400000D01*
X199300000Y-110700000D02*
X198700000Y-111400000D01*
X198700000Y-111400000D02*
X194300000Y-111400000D01*
X199300000Y-109400000D02*
X199300000Y-110700000D01*
D14*
X174220000Y-145061160D02*
X174220000Y-144780000D01*
X173200000Y-145061160D02*
X173200000Y-144780000D01*
X188186360Y-145061160D02*
X188186360Y-144780000D01*
X189206360Y-145061160D02*
X189206360Y-144780000D01*
X130750000Y-72390000D02*
X130750000Y-80070000D01*
X130750000Y-80070000D02*
X133410000Y-80070000D01*
X130750000Y-71120000D02*
X130750000Y-69790000D01*
X133410000Y-72390000D02*
X133410000Y-80070000D01*
X130750000Y-69790000D02*
X132080000Y-69790000D01*
X130750000Y-72390000D02*
X133410000Y-72390000D01*
X133920000Y-145940000D02*
X135320000Y-145940000D01*
X135320000Y-143620000D02*
X133420000Y-143620000D01*
%LPC*%
D16*
X106200000Y-97040000D03*
D17*
X134930000Y-125870000D03*
X134930000Y-123970000D03*
D16*
X233680000Y-53340000D03*
D18*
X203682720Y-145695580D03*
X203682720Y-144145580D03*
D19*
X210000000Y-110000000D03*
D20*
X211350000Y-110075000D03*
D21*
X212375000Y-110075000D03*
D22*
X213600000Y-110000000D03*
D23*
X151699375Y-145745580D03*
X151699375Y-144095580D03*
D18*
X200685448Y-145695580D03*
X200685448Y-144145580D03*
D16*
X233680000Y-146530000D03*
D23*
X167465000Y-145745580D03*
X167465000Y-144095580D03*
X158005625Y-145745580D03*
X158005625Y-144095580D03*
D18*
X206680000Y-145695580D03*
X206680000Y-144145580D03*
X197688176Y-145695580D03*
X197688176Y-144145580D03*
D24*
X142240000Y-144095580D03*
X142240000Y-145745580D03*
D25*
X215980000Y-130000000D03*
D26*
X215980000Y-135000000D03*
X215980000Y-132500000D03*
D27*
X223480000Y-126900000D03*
X223480000Y-138100000D03*
D26*
X230480000Y-135000000D03*
X230480000Y-130000000D03*
D16*
X181200000Y-66040000D03*
D28*
X103002500Y-123510000D03*
X103002500Y-124460000D03*
X103002500Y-125410000D03*
X105277500Y-125410000D03*
X105277500Y-123510000D03*
D29*
X142765000Y-139065000D03*
X142765000Y-137795000D03*
X142765000Y-136525000D03*
X142765000Y-135255000D03*
X142765000Y-133985000D03*
X142765000Y-132715000D03*
X142765000Y-131445000D03*
X142765000Y-130175000D03*
X137815000Y-130175000D03*
X137815000Y-131445000D03*
X137815000Y-132715000D03*
X137815000Y-133985000D03*
X137815000Y-135255000D03*
X137815000Y-136525000D03*
X137815000Y-137795000D03*
X137815000Y-139065000D03*
D19*
X105000000Y-110000000D03*
D20*
X106350000Y-110075000D03*
D21*
X107375000Y-110075000D03*
D22*
X108600000Y-110000000D03*
D17*
X145090000Y-125870000D03*
X145090000Y-123970000D03*
D23*
X164311875Y-145745580D03*
X164311875Y-144095580D03*
D18*
X182701816Y-145695580D03*
X182701816Y-144145580D03*
D26*
X230020000Y-114590000D03*
X223520000Y-114590000D03*
X223520000Y-119090000D03*
X230020000Y-119090000D03*
D19*
X165000000Y-110000000D03*
D20*
X166350000Y-110075000D03*
D21*
X167375000Y-110075000D03*
D22*
X168600000Y-110000000D03*
D16*
X181200000Y-97040000D03*
D19*
X180000000Y-110000000D03*
D20*
X181350000Y-110075000D03*
D21*
X182375000Y-110075000D03*
D22*
X183600000Y-110000000D03*
D16*
X106200000Y-66040000D03*
D17*
X140010000Y-125870000D03*
X140010000Y-123970000D03*
D18*
X185699088Y-145695580D03*
X185699088Y-144145580D03*
D30*
X227335000Y-103535000D03*
D31*
X224795000Y-103535000D03*
D16*
X104140000Y-53340000D03*
D18*
X191693632Y-145695580D03*
X191693632Y-144145580D03*
D23*
X148546250Y-145745580D03*
X148546250Y-144095580D03*
X154852500Y-145745580D03*
X154852500Y-144095580D03*
X145393125Y-145745580D03*
X145393125Y-144095580D03*
D18*
X179704544Y-145695580D03*
X179704544Y-144145580D03*
X176707272Y-145695580D03*
X176707272Y-144145580D03*
D19*
X135000000Y-110000000D03*
D20*
X136350000Y-110075000D03*
D21*
X137375000Y-110075000D03*
D22*
X138600000Y-110000000D03*
D18*
X194690904Y-145695580D03*
X194690904Y-144145580D03*
D19*
X120000000Y-110000000D03*
D20*
X121350000Y-110075000D03*
D21*
X122375000Y-110075000D03*
D22*
X123600000Y-110000000D03*
D32*
X128557500Y-127820000D03*
X127557500Y-127820000D03*
X126557500Y-127820000D03*
X125557500Y-127820000D03*
X124557500Y-127820000D03*
X123557500Y-127820000D03*
X122557500Y-127820000D03*
X121557500Y-127820000D03*
X120557500Y-127820000D03*
X119557500Y-127820000D03*
X118557500Y-127820000D03*
X117557500Y-127820000D03*
X116557500Y-127820000D03*
X115557500Y-127820000D03*
X114557500Y-127820000D03*
D33*
X112757500Y-131120000D03*
X112757500Y-132120000D03*
X112757500Y-133120000D03*
X112757500Y-134120000D03*
X112757500Y-135120000D03*
X112757500Y-136120000D03*
X112757500Y-137120000D03*
X112757500Y-138120000D03*
D32*
X114557500Y-141420000D03*
X115557500Y-141420000D03*
X116557500Y-141420000D03*
X117557500Y-141420000D03*
X118557500Y-141420000D03*
X119557500Y-141420000D03*
X120557500Y-141420000D03*
X121557500Y-141420000D03*
X122557500Y-141420000D03*
X123557500Y-141420000D03*
X124557500Y-141420000D03*
X125557500Y-141420000D03*
X126557500Y-141420000D03*
X127557500Y-141420000D03*
X128557500Y-141420000D03*
D23*
X161158750Y-145745580D03*
X161158750Y-144095580D03*
D19*
X150000000Y-110000000D03*
D20*
X151350000Y-110075000D03*
D21*
X152375000Y-110075000D03*
D22*
X153600000Y-110000000D03*
D34*
X154940000Y-132560000D03*
X154940000Y-134860000D03*
D35*
X161240000Y-134860000D03*
D34*
X154940000Y-137160000D03*
D19*
X195000000Y-110000000D03*
D20*
X196350000Y-110075000D03*
D21*
X197375000Y-110075000D03*
D22*
X198600000Y-110000000D03*
D18*
X173710000Y-145695580D03*
X173710000Y-144145580D03*
X188696360Y-145695580D03*
X188696360Y-144145580D03*
D16*
X104160000Y-146290000D03*
D36*
X132080000Y-71120000D03*
D37*
X132080000Y-73660000D03*
X132080000Y-76200000D03*
X132080000Y-78740000D03*
D38*
X106385000Y-138010000D03*
X106385000Y-132230000D03*
D39*
X107360000Y-131920000D03*
X107360000Y-132720000D03*
D40*
X107360000Y-133870000D03*
X107360000Y-134870000D03*
X107360000Y-135370000D03*
X107360000Y-136370000D03*
D39*
X107360000Y-137520000D03*
X107360000Y-138320000D03*
D40*
X107360000Y-136870000D03*
X107360000Y-135870000D03*
X107360000Y-134370000D03*
X107360000Y-133370000D03*
D41*
X102735000Y-139440000D03*
X102735000Y-130800000D03*
D42*
X106885000Y-130800000D03*
X106885000Y-139440000D03*
D43*
X133670000Y-144130000D03*
X133670000Y-144780000D03*
X133670000Y-145430000D03*
X135570000Y-145430000D03*
X135570000Y-144780000D03*
X135570000Y-144130000D03*
D36*
X118120000Y-147320000D03*
D37*
X120660000Y-147320000D03*
X123200000Y-147320000D03*
X125740000Y-147320000D03*
M02*
