M48
; DRILL file {KiCad 6.0.11} date Wednesday, April 26, 2023 at 05:08:06 AM
; FORMAT={-:-/ absolute / metric / decimal}
; #@! TF.CreationDate,2023-04-26T05:08:06-07:00
; #@! TF.GenerationSoftware,Kicad,Pcbnew,6.0.11
; #@! TF.FileFunction,Plated,1,4,PTH
FMAT,2
METRIC
; #@! TA.AperFunction,Plated,PTH,ViaDrill
T1C0.400
; #@! TA.AperFunction,Plated,PTH,ComponentDrill
T2C0.600
; #@! TA.AperFunction,Plated,PTH,ComponentDrill
T3C0.900
; #@! TA.AperFunction,Plated,PTH,ComponentDrill
T4C1.000
; #@! TA.AperFunction,Plated,PTH,ComponentDrill
T5C1.100
; #@! TA.AperFunction,Plated,PTH,ComponentDrill
T6C1.500
; #@! TA.AperFunction,Plated,PTH,ComponentDrill
T7C2.200
%
G90
G05
T1
X104.14Y-127.0
X104.14Y-132.719
X106.356Y-111.827
X106.68Y-121.92
X108.993Y-138.293
X110.267Y-136.159
X110.388Y-110.111
X111.725Y-139.665
X114.557Y-125.703
X119.313Y-111.827
X121.92Y-144.78
X125.53Y-110.111
X127.0Y-119.38
X127.0Y-121.92
X128.558Y-144.502
X129.54Y-134.62
X132.018Y-144.761
X132.08Y-127.0
X133.677Y-143.061
X134.478Y-135.255
X134.497Y-136.524
X137.084Y-111.836
X140.43Y-110.028
X140.523Y-138.578
X143.775Y-145.744
X144.74Y-137.774
X144.746Y-132.715
X144.76Y-136.528
X144.78Y-127.0
X144.78Y-129.54
X144.78Y-134.62
X146.075Y-140.003
X146.697Y-136.231
X146.855Y-145.785
X150.229Y-145.825
X151.772Y-129.54
X152.336Y-111.824
X152.402Y-140.744
X152.979Y-132.493
X153.048Y-134.91
X153.084Y-144.096
X153.718Y-147.645
X155.359Y-109.975
X156.143Y-116.84
X157.367Y-138.432
X158.383Y-129.482
X158.63Y-134.738
X160.02Y-142.24
X163.286Y-134.83
X167.596Y-111.804
X170.318Y-109.964
X171.917Y-143.941
X171.973Y-145.759
X182.844Y-111.796
X185.363Y-109.964
X196.101Y-145.722
X198.084Y-111.796
X199.087Y-145.722
X200.401Y-110.032
X210.784Y-111.796
X215.9Y-109.22
T3
X224.795Y-103.535
X227.335Y-103.535
T4
X118.12Y-147.32
X120.66Y-147.32
X123.2Y-147.32
X125.74Y-147.32
X132.08Y-71.12
X132.08Y-73.66
X132.08Y-76.2
X132.08Y-78.74
X215.98Y-130.0
X215.98Y-132.5
X215.98Y-135.0
X230.48Y-130.0
X230.48Y-135.0
T5
X223.52Y-114.59
X223.52Y-119.09
X230.02Y-114.59
X230.02Y-119.09
T7
X104.14Y-53.34
X104.16Y-146.29
X106.2Y-66.04
X106.2Y-97.04
X181.2Y-66.04
X181.2Y-97.04
X233.68Y-53.34
X233.68Y-146.53
T2
X103.035Y-130.8G85X102.435Y-130.8
G05
X103.035Y-139.44G85X102.435Y-139.44
G05
X107.435Y-130.8G85X106.335Y-130.8
G05
X107.435Y-139.44G85X106.335Y-139.44
G05
T6
X222.83Y-126.9G85X224.13Y-126.9
G05
X222.83Y-138.1G85X224.13Y-138.1
G05
T0
M30
